# This file uses centimeters as units for non-parametric coordinates.

mtllib top_platform_lvl_1.mtl
g default
v -3.435285 -0.066839 5.525469
v 3.435285 -0.066839 5.525469
v -9.000000 0.933161 5.525469
v 9.000000 0.933161 5.525469
v -9.000000 0.933161 1.525469
v 9.000000 0.933161 1.525469
v -3.435285 -0.066839 1.525469
v 3.435285 -0.066839 1.525469
v -9.000000 0.433161 5.525469
v -9.000000 0.433161 1.525469
v 9.000000 0.433161 1.525469
v 9.000000 0.433161 5.525469
v -9.000000 0.806888 5.525469
v -9.000000 0.806888 1.525469
v 9.000000 0.806888 1.525469
v 9.000000 0.806888 5.525469
v -9.000000 0.559434 5.525469
v -9.000000 0.559434 1.525469
v 9.000000 0.559434 1.525469
v 9.000000 0.559434 5.525469
v -8.900000 0.559434 5.425469
v -8.900000 0.559434 1.625469
v -8.900000 0.806888 5.425469
v -8.900000 0.806888 1.625469
v 8.900000 0.806888 1.625469
v 8.900000 0.559434 1.625469
v 8.900000 0.559434 5.425469
v 8.900000 0.806888 5.425469
v -3.035286 -0.066839 1.925469
v 3.035286 -0.066839 1.925469
v 3.035286 -0.066839 5.125469
v -3.035286 -0.066839 5.125469
v -3.035286 -0.139315 1.925469
v 3.035286 -0.139315 1.925469
v 3.035286 -0.139315 5.125469
v -3.035286 -0.139315 5.125469
v 1.535664 0.000000 -0.636092
v 1.175347 0.000000 -1.175346
v 0.636093 0.000000 -1.535663
v 0.000001 0.000000 -1.662190
v -0.636092 0.000000 -1.535664
v -1.175346 0.000000 -1.175347
v -1.535664 0.000000 -0.636093
v -1.662191 0.000000 -0.000001
v 1.662191 0.000000 0.000000
v 1.535664 0.862246 -0.636092
v 1.175347 0.862246 -1.175346
v 0.636093 0.862246 -1.535663
v 0.000001 0.862246 -1.662190
v -0.636092 0.862246 -1.535664
v -1.175346 0.862246 -1.175347
v -1.535664 0.862246 -0.636093
v -1.662191 0.862246 -0.000001
v 1.662191 0.862246 0.000000
v 0.000000 0.000000 0.000000
v 0.000000 0.862246 0.000000
v -1.662191 0.862246 2.098453
v -0.000000 0.862246 2.098453
v -1.662191 0.000000 2.098453
v -0.000000 0.000000 2.098453
v 1.662191 0.000000 2.098453
v 1.662191 0.862246 2.098453
vt 0.987767 0.471982
vt 0.987767 0.255735
vt 0.994594 0.255735
vt 0.994594 0.471982
vt 0.012233 0.255735
vt 0.012233 0.471981
vt 0.005406 0.471981
vt 0.005406 0.255734
vt 0.005406 0.233348
vt 0.005406 0.017101
vt 0.012233 0.017101
vt 0.012233 0.233348
vt 0.992170 0.017102
vt 0.992170 0.233348
vt 0.985343 0.233348
vt 0.985343 0.017102
vt 0.000000 0.587546
vt 0.087963 0.587546
vt 0.087963 0.593275
vt 0.000000 0.593275
vt 0.500000 0.587546
vt 0.587963 0.587546
vt 0.587963 0.593275
vt 0.500000 0.593275
vt 0.626552 0.995645
vt 0.626553 0.803379
vt 0.630907 0.803379
vt 0.630907 0.995645
vt 1.000000 0.803380
vt 1.000000 0.995646
vt 0.995645 0.995645
vt 0.995646 0.803380
vt 0.763348 0.701163
vt 0.818397 0.701163
vt 0.818397 0.775783
vt 0.763348 0.775783
vt 1.000000 0.701163
vt 1.000000 0.775783
vt 0.716681 0.701163
vt 0.716681 0.775783
vt 0.685499 0.701163
vt 0.685499 0.775783
vt 0.867047 0.604337
vt 0.922118 0.604337
vt 0.922118 0.678988
vt 0.867047 0.678988
vt 0.968805 0.604337
vt 0.968805 0.678988
vt 0.685368 0.678988
vt 0.685368 0.604337
vt 1.000000 0.604337
vt 1.000000 0.678988
vt 0.314283 0.255735
vt 0.314283 0.471981
vt 0.335907 0.277359
vt 0.335907 0.450357
vt 0.685717 0.255735
vt 0.664093 0.277359
vt 0.685717 0.471982
vt 0.664093 0.450357
vt 0.000000 0.564799
vt 1.000000 0.261141
vt 0.967706 0.521811
vt 0.967704 0.570205
vt 0.000000 0.516404
vt 0.000000 0.466575
vt 0.012233 0.240174
vt 0.000000 0.227942
vt 0.017639 0.004869
vt 0.979937 0.245581
vt 0.985343 0.010275
vt 0.997576 0.022508
vt 0.252269 0.711923
vt 0.281841 0.756180
vt 0.155807 0.808385
vt 0.292226 0.808385
vt 0.208013 0.682351
vt 0.292226 0.980608
vt 0.155807 0.980608
vt 0.155807 0.671967
vt 0.019389 0.808385
vt 0.019389 0.980608
vt 0.103602 0.682351
vt 0.029773 0.756180
vt 0.059345 0.711923
vt 0.580335 0.915787
vt 0.550763 0.960044
vt 0.454301 0.863582
vt 0.506506 0.989616
vt 0.590719 0.863582
vt 0.454301 1.000000
vt 0.454301 0.691359
vt 0.590719 0.691359
vt 0.402096 0.989616
vt 0.317883 0.863582
vt 0.317883 0.691359
vt 0.357839 0.960044
vt 0.328267 0.915787
vt 0.300838 0.530941
vt 0.672272 0.530941
vt 0.973110 0.557972
vt 0.000000 0.557972
vt 0.973110 0.564799
vt 0.973113 0.509578
vt 0.000000 0.509577
vt 0.300839 0.482547
vt 0.672274 0.482547
vt 0.973113 0.516404
vt 0.985343 0.240175
vt 0.012233 0.010275
vt 1.000000 0.593275
vt 1.000000 0.587546
vt 0.995645 1.000000
vt 0.630907 0.999999
vt 0.630907 0.799024
vt 0.995646 0.799025
vt 0.561531 0.602647
vt 0.614219 0.602647
vt 0.614219 0.674068
vt 0.561531 0.674068
vt 0.666908 0.602647
vt 0.666908 0.674068
vt 0.979937 0.004869
vt 0.997576 0.227942
vt 0.000000 0.022507
vt 0.017639 0.245581
vt 0.000000 0.261141
vt 0.005406 0.521810
vt 1.000000 0.466576
vt 0.005406 0.570205
vn 0.000000 0.000000 1.000000
vn 0.000000 0.000000 1.000000
vn 0.000000 0.000000 1.000000
vn 0.000000 0.000000 1.000000
vn 0.000000 1.000000 0.000000
vn 0.000000 1.000000 0.000000
vn 0.000000 1.000000 0.000000
vn 0.000000 1.000000 0.000000
vn 0.000000 0.000000 -1.000000
vn 0.000000 0.000000 -1.000000
vn 0.000000 0.000000 -1.000000
vn 0.000000 0.000000 -1.000000
vn 0.000000 -1.000000 0.000000
vn 0.000000 -1.000000 0.000000
vn 0.000000 -1.000000 0.000000
vn 0.000000 -1.000000 0.000000
vn 0.082118 -0.996623 -0.000000
vn 0.082118 -0.996623 0.000000
vn 0.089491 -0.995988 0.000000
vn 0.089491 -0.995988 0.000000
vn -0.082118 -0.996623 0.000000
vn -0.082118 -0.996623 -0.000000
vn -0.089491 -0.995988 0.000000
vn -0.089491 -0.995988 0.000000
vn -1.000000 0.000000 0.000000
vn -1.000000 0.000000 0.000000
vn -1.000000 0.000000 0.000000
vn -1.000000 0.000000 0.000000
vn 0.000000 0.000000 -1.000000
vn 0.000000 0.000000 -1.000000
vn 0.000000 0.000000 -1.000000
vn 0.000000 0.000000 -1.000000
vn 1.000000 0.000000 0.000000
vn 1.000000 0.000000 0.000000
vn 1.000000 0.000000 0.000000
vn 1.000000 0.000000 0.000000
vn 0.000000 0.000000 1.000000
vn 0.000000 0.000000 1.000000
vn 0.000000 0.000000 1.000000
vn 0.000000 0.000000 1.000000
vn -1.000000 0.000000 0.000000
vn -1.000000 0.000000 0.000000
vn -1.000000 0.000000 0.000000
vn -1.000000 0.000000 0.000000
vn 0.000000 0.000000 -1.000000
vn 0.000000 0.000000 -1.000000
vn 0.000000 0.000000 -1.000000
vn 0.000000 0.000000 -1.000000
vn 1.000000 0.000000 0.000000
vn 1.000000 0.000000 0.000000
vn 1.000000 0.000000 0.000000
vn 1.000000 0.000000 0.000000
vn 0.000000 0.000000 1.000000
vn 0.000000 0.000000 1.000000
vn 0.000000 0.000000 1.000000
vn 0.000000 0.000000 1.000000
vn -1.000000 0.000000 0.000000
vn -1.000000 0.000000 0.000000
vn -1.000000 0.000000 0.000000
vn -1.000000 0.000000 0.000000
vn 0.000000 0.000000 -1.000000
vn 0.000000 0.000000 -1.000000
vn 0.000000 0.000000 -1.000000
vn 0.000000 0.000000 -1.000000
vn 1.000000 0.000000 0.000000
vn 1.000000 0.000000 0.000000
vn 1.000000 0.000000 0.000000
vn 1.000000 0.000000 0.000000
vn 0.000000 0.000000 1.000000
vn 0.000000 0.000000 1.000000
vn 0.000000 0.000000 1.000000
vn 0.000000 0.000000 1.000000
vn 0.000000 1.000000 -0.000000
vn 0.000000 1.000000 0.000000
vn 0.000000 1.000000 0.000000
vn 0.000000 1.000000 -0.000000
vn 0.000000 -1.000000 -0.000000
vn 0.000000 -1.000000 0.000000
vn 0.000000 -1.000000 0.000000
vn 0.000000 -1.000000 -0.000000
vn 0.000000 -1.000000 0.000000
vn 0.000000 -1.000000 0.000000
vn 0.000000 -1.000000 0.000000
vn 0.000000 -1.000000 0.000000
vn 0.000000 1.000000 -0.000000
vn 0.000000 1.000000 -0.000000
vn 0.000000 1.000000 -0.000000
vn 0.000000 1.000000 -0.000000
vn 0.000000 1.000000 0.000000
vn 0.000000 1.000000 -0.000000
vn 0.000000 1.000000 -0.000000
vn 0.000000 1.000000 0.000000
vn 0.000000 -1.000000 0.000000
vn 0.000000 -1.000000 -0.000000
vn 0.000000 -1.000000 -0.000000
vn 0.000000 -1.000000 0.000000
vn 0.000000 1.000000 0.000000
vn 0.000000 1.000000 0.000000
vn 0.000000 1.000000 0.000000
vn 0.000000 1.000000 0.000000
vn 0.000000 -1.000000 -0.000000
vn 0.000000 -1.000000 -0.000000
vn 0.000000 -1.000000 -0.000000
vn 0.000000 -1.000000 -0.000000
vn -0.082118 -0.996623 0.000000
vn 0.082118 -0.996623 0.000000
vn 0.000000 -1.000000 0.000000
vn 0.000000 -1.000000 0.000000
vn 0.082118 -0.996623 0.000000
vn 0.082118 -0.996623 -0.000000
vn 0.000000 -1.000000 -0.000000
vn 0.000000 -1.000000 0.000000
vn 0.082118 -0.996623 -0.000000
vn -0.082118 -0.996623 -0.000000
vn 0.000000 -1.000000 -0.000000
vn 0.000000 -1.000000 -0.000000
vn -0.082118 -0.996623 -0.000000
vn -0.082118 -0.996623 0.000000
vn 0.000000 -1.000000 0.000000
vn 0.000000 -1.000000 -0.000000
vn 0.000000 0.000000 -1.000000
vn 0.000000 0.000000 -1.000000
vn 0.000000 0.000000 -1.000000
vn 0.000000 0.000000 -1.000000
vn 1.000000 0.000000 0.000000
vn 1.000000 0.000000 0.000000
vn 1.000000 0.000000 0.000000
vn 1.000000 0.000000 0.000000
vn 0.000000 0.000000 1.000000
vn 0.000000 0.000000 1.000000
vn 0.000000 0.000000 1.000000
vn 0.000000 0.000000 1.000000
vn -1.000000 0.000000 0.000000
vn -1.000000 0.000000 0.000000
vn -1.000000 0.000000 0.000000
vn -1.000000 0.000000 0.000000
vn 0.923880 0.000000 -0.382683
vn 0.707107 0.000000 -0.707106
vn 0.707107 0.000000 -0.707106
vn 0.923880 0.000000 -0.382683
vn 0.707107 0.000000 -0.707106
vn 0.382684 0.000000 -0.923879
vn 0.382684 0.000000 -0.923879
vn 0.707107 0.000000 -0.707106
vn 0.382684 0.000000 -0.923879
vn 0.000001 0.000000 -1.000000
vn 0.000001 0.000000 -1.000000
vn 0.382684 0.000000 -0.923879
vn 0.000001 0.000000 -1.000000
vn -0.382683 0.000000 -0.923880
vn -0.382683 0.000000 -0.923880
vn 0.000001 0.000000 -1.000000
vn -0.382683 0.000000 -0.923880
vn -0.707106 0.000000 -0.707107
vn -0.707106 0.000000 -0.707107
vn -0.382683 0.000000 -0.923880
vn -0.707106 0.000000 -0.707107
vn -0.923879 0.000000 -0.382684
vn -0.923879 0.000000 -0.382684
vn -0.707106 0.000000 -0.707107
vn -0.923879 0.000000 -0.382684
vn -0.998931 0.000000 -0.046221
vn -0.998931 0.000000 -0.046221
vn -0.923879 0.000000 -0.382684
vn 0.998931 0.000000 -0.046220
vn 0.923880 0.000000 -0.382683
vn 0.923880 0.000000 -0.382683
vn 0.998931 0.000000 -0.046220
vn 0.000000 -1.000000 0.000000
vn 0.000000 -1.000000 0.000000
vn 0.000000 -1.000000 0.000000
vn 0.000000 -1.000000 0.000000
vn 0.000000 -1.000000 0.000000
vn 0.000000 -1.000000 0.000000
vn 0.000000 -1.000000 0.000000
vn 0.000000 -1.000000 0.000000
vn 0.000000 -1.000000 0.000000
vn 0.000000 -1.000000 0.000000
vn 0.000000 -1.000000 0.000000
vn 0.000000 -1.000000 0.000000
vn 0.000000 -1.000000 0.000000
vn 0.000000 -1.000000 0.000000
vn 0.000000 -1.000000 0.000000
vn 0.000000 -1.000000 0.000000
vn 0.000000 -1.000000 0.000000
vn 0.000000 -1.000000 0.000000
vn 0.000000 -1.000000 0.000000
vn 0.000000 -1.000000 0.000000
vn 0.000000 -1.000000 0.000000
vn 0.000000 -1.000000 0.000000
vn 0.000000 -1.000000 0.000000
vn 0.000000 -1.000000 0.000000
vn 0.000000 1.000000 0.000000
vn 0.000000 1.000000 0.000000
vn 0.000000 1.000000 -0.000000
vn 0.000000 1.000000 0.000000
vn 0.000000 1.000000 0.000000
vn 0.000000 1.000000 -0.000000
vn 0.000000 1.000000 0.000000
vn 0.000000 1.000000 -0.000000
vn 0.000000 1.000000 -0.000000
vn 0.000000 1.000000 -0.000000
vn 0.000000 1.000000 -0.000000
vn 0.000000 1.000000 -0.000000
vn 0.000000 1.000000 -0.000000
vn 0.000000 1.000000 0.000000
vn 0.000000 1.000000 -0.000000
vn 0.000000 1.000000 0.000000
vn 0.000000 1.000000 0.000000
vn 0.000000 1.000000 -0.000000
vn 0.000000 1.000000 0.000000
vn 0.000000 1.000000 -0.000000
vn 0.000000 1.000000 -0.000000
vn 0.000000 1.000000 0.000000
vn 0.000000 1.000000 0.000000
vn 0.000000 1.000000 -0.000000
vn 0.000000 1.000000 -0.000000
vn 0.000000 1.000000 -0.000000
vn 0.000000 1.000000 -0.000000
vn 0.000000 1.000000 -0.000000
vn -0.998931 0.000000 -0.046221
vn -0.998931 0.000000 -0.046221
vn -1.000000 0.000000 -0.000000
vn -1.000000 0.000000 -0.000000
vn 0.000000 -1.000000 0.000000
vn 0.000000 -1.000000 0.000000
vn 0.000000 -1.000000 0.000000
vn 0.000000 -1.000000 0.000000
vn 0.000000 -1.000000 0.000000
vn 0.000000 -1.000000 0.000000
vn 0.000000 -1.000000 0.000000
vn 0.000000 -1.000000 0.000000
vn 0.998931 0.000000 -0.046220
vn 0.998931 0.000000 -0.046220
vn 1.000000 0.000000 0.000000
vn 1.000000 0.000000 0.000000
vn 0.000000 1.000000 0.000000
vn 0.000000 1.000000 -0.000000
vn 0.000000 1.000000 -0.000000
vn 0.000000 1.000000 0.000000
s off
g TPLVL1_lp
usemtl pCube2SG
f 1/99/1 2/100/2 12/101/3 9/102/4
f 3/11/5 4/16/6 6/15/7 5/12/8
f 10/104/9 11/105/10 8/106/11 7/107/12
f 33/31/13 34/28/14 35/27/15 36/32/16
f 2/53/17 8/54/18 11/6/19 12/5/20
f 7/59/21 1/57/22 9/2/23 10/1/24
f 10/1/25 9/2/26 17/3/27 18/4/28
f 18/108/29 19/65/30 11/105/31 10/104/32
f 12/5/33 11/6/34 19/7/35 20/8/36
f 9/102/37 12/101/38 20/103/39 17/61/40
f 14/9/41 13/10/42 3/11/43 5/12/44
f 5/12/45 6/15/46 15/109/47 14/67/48
f 16/13/49 15/14/50 6/15/51 4/16/52
f 13/110/53 16/71/54 4/16/55 3/11/56
f 22/17/57 21/18/58 23/19/59 24/20/60
f 24/111/61 25/23/62 26/22/63 22/112/64
f 27/21/65 26/22/66 25/23/67 28/24/68
f 21/18/69 27/21/70 28/24/71 23/19/72
f 18/4/73 17/3/74 21/62/75 22/129/76
f 13/10/77 14/9/78 24/68/79 23/125/80
f 14/67/81 15/109/82 25/70/83 24/126/84
f 19/65/85 18/108/86 22/63/87 26/128/88
f 20/8/89 19/7/90 26/66/91 27/127/92
f 15/14/93 16/13/94 28/72/95 25/124/96
f 17/61/97 20/103/98 27/64/99 21/130/100
f 16/71/101 13/110/102 23/69/103 28/123/104
f 7/59/105 8/54/106 30/56/107 29/60/108
f 8/54/109 2/53/110 31/55/111 30/56/112
f 2/53/113 1/57/114 32/58/115 31/55/116
f 1/57/117 7/59/118 29/60/119 32/58/120
f 29/113/121 30/114/122 34/28/123 33/31/124
f 30/25/125 31/26/126 35/27/127 34/28/128
f 31/115/129 32/116/130 36/32/131 35/27/132
f 32/29/133 29/30/134 33/31/135 36/32/136
f 37/44/137 38/47/138 47/48/139 46/45/140
f 38/47/141 39/51/142 48/52/143 47/48/144
f 39/117/145 40/118/146 49/119/147 48/120/148
f 40/118/149 41/121/150 50/122/151 49/119/152
f 41/41/153 42/39/154 51/40/155 50/42/156
f 42/39/157 43/33/158 52/36/159 51/40/160
f 43/33/161 44/34/162 53/35/163 52/36/164
f 45/43/165 37/44/166 46/45/167 54/46/168
f 38/73/169 37/74/170 55/75/171
f 39/77/172 38/73/173 55/75/174
f 40/80/175 39/77/176 55/75/177
f 41/83/178 40/80/179 55/75/180
f 42/85/181 41/83/182 55/75/183
f 43/84/184 42/85/185 55/75/186
f 44/81/187 43/84/188 55/75/189
f 37/74/190 45/76/191 55/75/192
f 46/86/193 47/87/194 56/88/195
f 47/87/196 48/89/197 56/88/198
f 48/89/199 49/91/200 56/88/201
f 49/91/202 50/94/203 56/88/204
f 50/94/205 51/97/206 56/88/207
f 51/97/208 52/98/209 56/88/210
f 52/98/211 53/95/212 56/88/213
f 54/90/214 46/86/215 56/88/216
f 56/88/217 53/95/218 57/96/219 58/92/220
f 53/35/221 44/34/222 59/37/223 57/38/224
f 44/81/225 55/75/226 60/79/227 59/82/228
f 55/75/229 45/76/230 61/78/231 60/79/232
f 45/43/233 54/46/234 62/49/235 61/50/236
f 54/90/237 56/88/238 58/92/239 62/93/240
