# This file uses centimeters as units for non-parametric coordinates.

mtllib castle_bottom_side.mtl
g default
v 12.500000 1.437500 6.000000
v 12.500000 1.437500 -6.000000
v 12.500000 3.500001 -6.000000
v 0.000000 3.500001 -6.000000
v -0.451954 -10.000000 -6.000000
v 0.000000 -11.500000 6.000000
v 10.416664 1.437500 -6.000000
v 10.416664 1.437500 6.000000
v 8.333336 1.187500 -6.000000
v 8.333336 1.187500 6.000000
v 6.250000 0.687500 -6.000000
v 6.250000 0.687500 6.000000
v 4.000000 -0.437499 -6.000000
v 4.000000 -0.437499 6.000000
v 2.500000 -2.000000 -6.000000
v 2.500000 -2.000000 6.000000
v 1.000000 -4.875000 -6.000000
v 1.000000 -4.875000 6.000000
v -12.500000 -11.500000 -7.500000
v -12.500000 11.500000 -7.500000
v 0.000000 -11.500000 -5.250000
v 0.000000 -11.500000 -7.500000
v 0.000000 3.500001 -7.500000
v -12.500000 11.500000 7.500000
v 12.500000 11.500000 7.500000
v 12.500000 11.500000 -7.500000
v 12.500000 11.500000 -5.000000
v -12.500000 11.500000 -5.000000
v 12.500000 11.500000 5.000000
v -12.500000 11.500000 5.000000
v 12.500000 9.499998 5.000000
v -12.500000 9.499998 5.000000
v -12.500000 9.499998 -5.000000
v 12.500000 9.499998 -5.000000
v 12.500000 3.500001 -7.500000
v 12.500000 1.437500 -5.250000
v 10.416664 1.437500 -5.250000
v 8.333336 1.187500 -5.250000
v 6.250000 0.687500 -5.250000
v 4.000000 -0.437499 -5.250000
v 2.500000 -2.000000 -5.250000
v 1.000000 -4.875000 -5.250000
v 1.963863 -5.189447 -5.250000
v -0.201954 -14.510094 -5.250000
v 12.500000 0.437500 -5.250000
v 10.476452 0.437500 -5.250000
v 8.510189 0.201548 -5.250000
v 6.594757 -0.258155 -5.250000
v 4.601742 -1.254663 -5.250000
v 3.320431 -2.589361 -5.250000
v -0.451954 -10.000000 -6.500000
v 1.000000 -4.875000 -6.500000
v 1.963863 -5.189447 -6.500000
v -0.201954 -14.510094 -6.500000
v 10.416664 1.437500 -6.500000
v 12.500000 1.437500 -6.500000
v 12.500000 0.437500 -6.500000
v 10.476452 0.437500 -6.500000
v 8.333336 1.187500 -6.500000
v 8.510189 0.201548 -6.500000
v 6.250000 0.687500 -6.500000
v 6.594757 -0.258155 -6.500000
v 4.000000 -0.437499 -6.500000
v 4.601742 -1.254663 -6.500000
v 2.500000 -2.000000 -6.500000
v 3.320431 -2.589361 -6.500000
v 0.000000 -11.500000 -6.000000
v -12.500000 9.499998 -7.500000
v 12.500000 9.499998 -7.500000
vt 0.992840 0.447561
vt 0.324626 0.511112
vt 0.451983 0.511112
vt 0.324841 0.451319
vt 0.558534 0.451500
vt 0.558507 0.475026
vt 0.324824 0.475026
vt 0.586437 0.847369
vt 0.788490 0.413954
vt 0.049649 0.511112
vt 0.000226 0.475026
vt 0.000109 0.451320
vt 0.049838 0.451225
vt 0.049889 0.475026
vt 0.099116 0.511112
vt 0.098885 0.451009
vt 0.098965 0.475026
vt 0.148225 0.511112
vt 0.148124 0.450631
vt 0.148209 0.475026
vt 0.204262 0.511112
vt 0.204403 0.450480
vt 0.204295 0.475026
vt 0.250790 0.511112
vt 0.251542 0.450666
vt 0.251468 0.475026
vt 1.000000 0.832096
vt 0.793362 0.699848
vt 0.787867 0.453320
vt 1.000000 0.451883
vt 0.572064 1.000000
vt 0.000000 1.000000
vt 0.000000 0.942793
vt 0.572064 0.942794
vt 0.000000 0.565231
vt 0.586725 0.699848
vt 0.000000 0.622438
vt 0.572064 0.622438
vt 0.000000 0.668203
vt 0.572064 0.668203
vt 0.000000 0.897028
vt 0.572064 0.897028
vt 0.074379 0.000000
vt 0.074379 0.401646
vt 0.000000 0.401646
vt 0.000000 0.000000
vt 0.149291 0.000000
vt 0.149291 0.401646
vt 0.225782 0.000000
vt 0.225782 0.401646
vt 0.315593 0.000000
vt 0.315593 0.401646
vt 0.392922 0.000000
vt 0.392922 0.401646
vt 0.508695 0.000000
vt 0.508695 0.401646
vt 0.747899 0.000000
vt 0.747899 0.401646
vt 0.452577 0.498360
vt 0.325034 0.498360
vt 0.049688 0.498360
vt 0.000160 0.498360
vt 0.099014 0.498360
vt 0.148131 0.498360
vt 0.204294 0.498360
vt 0.250885 0.498360
vt 0.763366 0.453320
vt 0.586437 0.871794
vt 0.787867 0.698335
vt 0.572064 0.565232
vt 0.586725 0.832096
vt 0.793362 0.451883
vt 0.789979 0.871794
vt 0.789979 0.847369
vt 0.763366 0.698335
vt 0.788525 0.447561
vt 0.976354 0.310581
vt 0.951885 0.357599
vt 0.927393 0.383163
vt 0.890635 0.401590
vt 0.856591 0.409797
vt 0.822543 0.413919
vt 0.000000 0.511112
vt 1.000000 0.226787
vt 1.000000 0.799034
vt 0.586725 0.799034
vn 0.000000 0.000000 -1.000000
vn 0.000000 0.000000 -1.000000
vn 0.000000 0.000000 -1.000000
vn 0.959010 -0.283372 0.000000
vn 0.974049 -0.226337 0.000000
vn 0.974049 -0.226337 0.000000
vn 0.959010 -0.283372 0.000000
vn 0.000000 0.000000 -1.000000
vn 0.000000 0.000000 -1.000000
vn 0.000000 0.000000 -1.000000
vn 0.000000 -1.000000 0.000000
vn 0.000000 -1.000000 0.000000
vn 0.059036 -0.998256 0.000000
vn 0.059036 -0.998256 0.000000
vn 0.000000 0.000000 -1.000000
vn 0.176404 -0.984318 0.000000
vn 0.176404 -0.984318 0.000000
vn 0.000000 0.000000 -1.000000
vn 0.349135 -0.937073 0.000000
vn 0.349135 -0.937073 0.000000
vn 0.000000 0.000000 -1.000000
vn 0.579986 -0.814627 0.000000
vn 0.579986 -0.814627 0.000000
vn 0.000000 0.000000 -1.000000
vn 0.830616 -0.556845 0.000000
vn 0.830616 -0.556845 0.000000
vn 0.000000 0.000000 -1.000000
vn 0.000000 0.000000 -1.000000
vn 0.000000 0.000000 -1.000000
vn 0.000000 0.000000 -1.000000
vn 0.000000 1.000000 0.000000
vn 0.000000 1.000000 0.000000
vn 0.000000 1.000000 0.000000
vn 0.000000 1.000000 0.000000
vn 0.000000 0.000000 -1.000000
vn 0.000000 0.000000 -1.000000
vn 0.000000 0.000000 -1.000000
vn 0.000000 1.000000 0.000000
vn 0.000000 1.000000 0.000000
vn 0.000000 1.000000 0.000000
vn 0.000000 1.000000 0.000000
vn 0.000000 0.000000 1.000000
vn 0.000000 0.000000 1.000000
vn 0.000000 0.000000 1.000000
vn 0.000000 0.000000 1.000000
vn 0.000000 1.000000 0.000000
vn 0.000000 1.000000 0.000000
vn 0.000000 1.000000 0.000000
vn 0.000000 1.000000 0.000000
vn 0.000000 0.000000 -1.000000
vn 0.000000 0.000000 -1.000000
vn 0.000000 0.000000 -1.000000
vn 0.000000 0.000000 -1.000000
vn 0.000000 -1.000000 0.000000
vn 0.000000 -1.000000 0.000000
vn 0.000000 -1.000000 0.000000
vn 0.000000 -1.000000 0.000000
vn 0.059892 -0.998205 0.000000
vn 0.059892 -0.998205 0.000000
vn 0.000000 -1.000000 0.000000
vn 0.000000 -1.000000 0.000000
vn 0.177153 -0.984183 0.000000
vn 0.177153 -0.984183 0.000000
vn 0.351123 -0.936329 0.000000
vn 0.351123 -0.936329 0.000000
vn 0.582519 -0.812817 0.000000
vn 0.582519 -0.812817 0.000000
vn 0.828443 -0.560074 0.000000
vn 0.828443 -0.560074 0.000000
vn 0.967075 -0.254493 0.000000
vn 0.967075 -0.254493 0.000000
vn 0.988799 -0.149253 0.000000
vn 0.988799 -0.149253 0.000000
vn 0.000000 0.000000 -1.000000
vn 0.000000 0.000000 -1.000000
vn 0.000000 0.000000 -1.000000
vn 0.000000 0.000000 -1.000000
vn 0.000000 0.000000 -1.000000
vn 0.000000 0.000000 -1.000000
vn 0.000000 0.000000 -1.000000
vn 0.000000 0.000000 -1.000000
vn 0.000000 0.000000 -1.000000
vn 0.000000 0.000000 -1.000000
vn 0.000000 0.000000 -1.000000
vn 0.000000 0.000000 -1.000000
vn -0.000000 0.000000 -1.000000
vn -0.000000 0.000000 -1.000000
vn -0.000000 0.000000 -1.000000
vn -0.000000 0.000000 -1.000000
vn -0.962133 0.272580 0.000000
vn -0.938169 0.346179 0.000000
vn -0.938169 0.346179 0.000000
vn -0.962133 0.272580 0.000000
vn -0.059892 0.998205 0.000000
vn 0.000000 1.000000 0.000000
vn 0.000000 1.000000 0.000000
vn -0.059892 0.998205 0.000000
vn -0.177153 0.984183 0.000000
vn -0.177153 0.984183 0.000000
vn -0.351123 0.936329 0.000000
vn -0.351123 0.936329 0.000000
vn -0.582519 0.812817 0.000000
vn -0.582519 0.812817 0.000000
vn -0.828443 0.560074 0.000000
vn -0.828443 0.560074 0.000000
vn 1.000000 0.000000 0.000000
vn 1.000000 0.000000 0.000000
vn 1.000000 0.000000 0.000000
vn 1.000000 0.000000 0.000000
vn 0.000000 0.000000 -1.000000
s 1
g polySurface8
usemtl initialShadingGroup
f 4/1/1 17/77/2 5/84/3
s 2
f 43/4/4 44/5/5 54/6/6 53/7/7
s 1
f 3/76/8 2/9/9 7/82/10
s 2
f 57/11/11 45/12/12 46/13/13 58/14/14
s 1
f 4/1/1 3/76/8 7/82/10 9/81/15
s 2
f 46/13/13 47/16/16 60/17/17 58/14/14
s 1
f 4/1/1 9/81/15 11/80/18
s 2
f 47/16/16 48/19/19 62/20/20 60/17/17
s 1
f 4/1/1 11/80/18 13/79/21
s 2
f 48/19/19 49/22/22 64/23/23 62/20/20
s 1
f 4/1/1 13/79/21 15/78/24
s 2
f 49/22/22 50/25/25 66/26/26 64/23/23
s 1
f 4/1/1 15/78/24 17/77/2
s 2
f 50/25/25 43/4/4 53/7/7 66/26/26
s 5
f 68/85/27 23/28/28 22/72/29 19/30/30
s off
f 24/31/31 25/32/32 29/33/33 30/34/34
s 5
f 20/27/35 26/71/36 69/86/37 68/85/27
s off
f 27/37/38 26/35/39 20/70/40 28/38/41
f 34/39/42 27/37/43 28/38/44 33/40/45
f 31/41/46 34/39/47 33/40/48 32/42/49
f 29/33/50 31/41/51 32/42/52 30/34/53
f 3/8/54 4/74/55 23/73/56 35/68/57
s 6
f 8/43/58 37/44/59 36/45/60 1/46/61
f 10/47/62 38/48/63 37/44/59 8/43/58
f 12/49/64 39/50/65 38/48/63 10/47/62
f 14/51/66 40/52/67 39/50/65 12/49/64
f 16/53/68 41/54/69 40/52/67 14/51/66
f 18/55/70 42/56/71 41/54/69 16/53/68
f 6/57/72 21/58/73 42/56/71 18/55/70
s 7
f 51/59/74 52/60/75 53/7/76 54/6/77
f 55/61/78 56/62/79 57/11/80 58/14/81
f 59/63/82 55/61/78 58/14/81 60/17/83
f 61/64/84 59/63/82 60/17/83 62/20/85
f 63/65/86 61/64/84 62/20/85 64/23/87
f 65/66/88 63/65/86 64/23/87 66/26/89
f 52/60/75 65/66/88 66/26/89 53/7/76
s 9
f 5/3/90 17/2/91 52/60/92 51/59/93
f 7/10/94 2/83/95 56/62/96 55/61/97
f 9/15/98 7/10/94 55/61/97 59/63/99
f 11/18/100 9/15/98 59/63/99 61/64/101
f 13/21/102 11/18/100 61/64/101 63/65/103
f 15/24/104 13/21/102 63/65/103 65/66/105
f 17/2/91 15/24/104 65/66/105 52/60/92
s off
f 22/29/106 23/69/107 4/75/108 67/67/109
s 5
f 68/85/27 69/86/37 35/36/110 23/28/28
