# This file uses centimeters as units for non-parametric coordinates.

mtllib castle_bottom_side.mtl
g default
v 12.500000 1.437500 6.000000
v 12.500000 1.437500 -6.000000
v 12.500000 3.500001 -6.000000
v 0.000000 3.500001 -6.000000
v -0.451954 -10.000000 -6.000000
v 0.000000 -11.500000 6.000000
v 10.416664 1.437500 -6.000000
v 10.416664 1.437500 6.000000
v 8.333336 1.187500 -6.000000
v 8.333336 1.187500 6.000000
v 6.250000 0.687500 -6.000000
v 6.250000 0.687500 6.000000
v 4.000000 -0.437499 -6.000000
v 4.000000 -0.437499 6.000000
v 2.500000 -2.000000 -6.000000
v 2.500000 -2.000000 6.000000
v 1.000000 -4.875000 -6.000000
v 1.000000 -4.875000 6.000000
v -12.500000 -11.500000 -7.500000
v -12.500000 11.037204 -7.500000
v 0.000000 -11.500000 -5.250000
v 0.000000 -11.500000 -7.500000
v 0.000000 3.500001 -7.500000
v -12.500000 11.037204 7.500000
v 12.500000 11.037204 7.500000
v 12.500000 11.037204 -7.500000
v 12.500000 11.037204 -5.000000
v -12.500000 11.037204 -5.000000
v 12.500000 11.037204 5.000000
v -12.500000 11.037204 5.000000
v 12.500000 9.499998 5.000000
v -12.500000 9.499998 5.000000
v -12.500000 9.499998 -5.000000
v 12.500000 9.499998 -5.000000
v 12.500000 3.500001 -7.500000
v 12.500000 1.437500 -5.250000
v 10.416664 1.437500 -5.250000
v 8.333336 1.187500 -5.250000
v 6.250000 0.687500 -5.250000
v 4.000000 -0.437499 -5.250000
v 2.500000 -2.000000 -5.250000
v 1.000000 -4.875000 -5.250000
v 1.963863 -5.189447 -5.250000
v -0.201954 -14.510094 -5.250000
v 12.500000 0.437500 -5.250000
v 10.476452 0.437500 -5.250000
v 8.510189 0.201548 -5.250000
v 6.594757 -0.258155 -5.250000
v 4.601742 -1.254663 -5.250000
v 3.320431 -2.589361 -5.250000
v -0.451954 -10.000000 -6.500000
v 1.000000 -4.875000 -6.500000
v 1.963863 -5.189447 -6.500000
v -0.201954 -14.510094 -6.500000
v 10.416664 1.437500 -6.500000
v 12.500000 1.437500 -6.500000
v 12.500000 0.437500 -6.500000
v 10.476452 0.437500 -6.500000
v 8.333336 1.187500 -6.500000
v 8.510189 0.201548 -6.500000
v 6.250000 0.687500 -6.500000
v 6.594757 -0.258155 -6.500000
v 4.000000 -0.437499 -6.500000
v 4.601742 -1.254663 -6.500000
v 2.500000 -2.000000 -6.500000
v 3.320431 -2.589361 -6.500000
v 0.000000 -11.500000 -6.000000
v -12.500000 9.499998 -7.500000
v 12.500000 9.499998 -7.500000
vt 0.992840 0.547561
vt 0.161698 0.506838
vt 0.236926 0.506838
vt 0.162712 0.475625
vt 0.311447 0.475717
vt 0.311433 0.487673
vt 0.150026 0.488125
vt 0.587348 0.488250
vt 0.788490 0.513954
vt 0.037002 0.506838
vt 0.000115 0.488125
vt 0.012733 0.475626
vt 0.038004 0.475578
vt 0.038030 0.487673
vt 0.062139 0.506838
vt 0.062928 0.475468
vt 0.062968 0.487673
vt 0.085908 0.506838
vt 0.086762 0.475276
vt 0.086805 0.487673
vt 0.112801 0.506838
vt 0.113778 0.475199
vt 0.113723 0.487673
vt 0.136445 0.506838
vt 0.137732 0.475294
vt 0.137695 0.487673
vt 1.000000 0.924445
vt 0.793362 0.799848
vt 0.787867 0.553320
vt 1.000000 0.551883
vt 1.000000 0.187759
vt 0.599990 0.187758
vt 0.599990 0.161916
vt 1.000000 0.150199
vt 0.012224 0.437718
vt 0.586725 0.799848
vt 0.012224 0.462004
vt 0.425491 0.462004
vt 1.000000 0.113366
vt 0.600562 0.113366
vt 0.600278 0.125532
vt 0.600562 0.000000
vt 0.029972 0.000000
vt 0.029972 0.161850
vt 0.000000 0.161850
vt 0.000000 0.000000
vt 0.060160 0.000000
vt 0.060160 0.161850
vt 0.090983 0.000000
vt 0.090983 0.161850
vt 0.127174 0.000000
vt 0.127174 0.161850
vt 0.158335 0.000000
vt 0.158335 0.161850
vt 0.204988 0.000000
vt 0.204988 0.161850
vt 0.301380 0.000000
vt 0.301380 0.161850
vt 0.229984 0.499983
vt 0.161905 0.500513
vt 0.025250 0.499983
vt 0.011853 0.500513
vt 0.050316 0.499983
vt 0.074088 0.499983
vt 0.101045 0.499983
vt 0.124721 0.499983
vt 0.763366 0.553320
vt 0.587348 0.512675
vt 0.787867 0.798335
vt 0.425491 0.437718
vt 0.586725 0.924445
vt 0.793362 0.551883
vt 0.790890 0.512675
vt 0.790890 0.488250
vt 0.763366 0.798335
vt 0.788525 0.547561
vt 0.976354 0.410581
vt 0.951885 0.457599
vt 0.927393 0.483164
vt 0.890635 0.501590
vt 0.856591 0.509797
vt 0.822543 0.513919
vt 0.011772 0.506838
vt 1.000000 0.326787
vt 1.000000 0.899034
vt 0.586725 0.899034
vt 0.162704 0.487673
vt 0.125017 0.488125
vt 0.150133 0.499983
vt 0.136493 0.500513
vt 0.101045 0.488125
vt 0.112817 0.500513
vt 0.074127 0.488125
vt 0.085860 0.500513
vt 0.050291 0.488125
vt 0.062088 0.500513
vt 0.025352 0.488125
vt 0.037022 0.500513
vt 0.012793 0.487673
vt 0.000081 0.499983
vt 0.296491 0.488125
vt 0.237228 0.500513
vt 0.600278 0.150198
vt 1.000000 0.161916
vt 1.000000 0.125532
vt 1.000000 0.000000
vn 0.000000 0.000000 -1.000000
vn 0.000000 0.000000 -1.000000
vn 0.000000 0.000000 -1.000000
vn 0.959010 -0.283372 0.000000
vn 0.974049 -0.226337 0.000000
vn 0.974049 -0.226337 0.000000
vn 0.959010 -0.283372 0.000000
vn 0.000000 0.000000 -1.000000
vn 0.000000 0.000000 -1.000000
vn 0.000000 0.000000 -1.000000
vn 0.000000 -1.000000 0.000000
vn 0.000000 -1.000000 0.000000
vn 0.059036 -0.998256 0.000000
vn 0.059036 -0.998256 0.000000
vn 0.000000 0.000000 -1.000000
vn 0.176404 -0.984318 0.000000
vn 0.176404 -0.984318 0.000000
vn 0.000000 0.000000 -1.000000
vn 0.349135 -0.937073 0.000000
vn 0.349135 -0.937073 0.000000
vn 0.000000 0.000000 -1.000000
vn 0.579986 -0.814627 0.000000
vn 0.579986 -0.814627 0.000000
vn 0.000000 0.000000 -1.000000
vn 0.830616 -0.556845 0.000000
vn 0.830616 -0.556845 0.000000
vn 0.000000 0.000000 -1.000000
vn 0.000000 0.000000 -1.000000
vn 0.000000 0.000000 -1.000000
vn 0.000000 0.000000 -1.000000
vn 0.000000 1.000000 0.000000
vn 0.000000 1.000000 0.000000
vn 0.000000 1.000000 0.000000
vn 0.000000 1.000000 0.000000
vn 0.000000 0.000000 -1.000000
vn 0.000000 0.000000 -1.000000
vn 0.000000 0.000000 -1.000000
vn 0.000000 1.000000 0.000000
vn 0.000000 1.000000 0.000000
vn 0.000000 1.000000 0.000000
vn 0.000000 1.000000 0.000000
vn 0.000000 1.000000 0.000000
vn 0.000000 1.000000 0.000000
vn 0.000000 1.000000 0.000000
vn 0.000000 1.000000 0.000000
vn 0.000000 0.000000 -1.000000
vn 0.000000 0.000000 -1.000000
vn 0.000000 0.000000 -1.000000
vn 0.000000 0.000000 -1.000000
vn 0.000000 -1.000000 0.000000
vn 0.000000 -1.000000 0.000000
vn 0.000000 -1.000000 0.000000
vn 0.000000 -1.000000 0.000000
vn 0.059892 -0.998205 0.000000
vn 0.059892 -0.998205 0.000000
vn 0.000000 -1.000000 0.000000
vn 0.000000 -1.000000 0.000000
vn 0.177153 -0.984183 0.000000
vn 0.177153 -0.984183 0.000000
vn 0.351123 -0.936329 0.000000
vn 0.351123 -0.936329 0.000000
vn 0.582519 -0.812817 0.000000
vn 0.582519 -0.812817 0.000000
vn 0.828443 -0.560074 0.000000
vn 0.828443 -0.560074 0.000000
vn 0.967075 -0.254493 0.000000
vn 0.967075 -0.254493 0.000000
vn 0.988799 -0.149253 0.000000
vn 0.988799 -0.149253 0.000000
vn 0.000000 0.000000 -1.000000
vn 0.000000 0.000000 -1.000000
vn 0.000000 0.000000 -1.000000
vn 0.000000 0.000000 -1.000000
vn 0.000000 0.000000 -1.000000
vn 0.000000 0.000000 -1.000000
vn 0.000000 0.000000 -1.000000
vn 0.000000 0.000000 -1.000000
vn 0.000000 0.000000 -1.000000
vn 0.000000 0.000000 -1.000000
vn 0.000000 0.000000 -1.000000
vn 0.000000 0.000000 -1.000000
vn -0.000000 0.000000 -1.000000
vn -0.000000 0.000000 -1.000000
vn -0.000000 0.000000 -1.000000
vn -0.000000 0.000000 -1.000000
vn -0.962133 0.272580 0.000000
vn -0.938169 0.346179 0.000000
vn -0.938169 0.346179 0.000000
vn -0.962133 0.272580 0.000000
vn -0.059892 0.998205 0.000000
vn 0.000000 1.000000 0.000000
vn 0.000000 1.000000 0.000000
vn -0.059892 0.998205 0.000000
vn -0.177153 0.984183 0.000000
vn -0.177153 0.984183 0.000000
vn -0.351123 0.936329 0.000000
vn -0.351123 0.936329 0.000000
vn -0.582519 0.812817 0.000000
vn -0.582519 0.812817 0.000000
vn -0.828443 0.560074 0.000000
vn -0.828443 0.560074 0.000000
vn 1.000000 0.000000 0.000000
vn 1.000000 0.000000 0.000000
vn 1.000000 0.000000 0.000000
vn 1.000000 0.000000 0.000000
vn 0.000000 0.000000 -1.000000
s 1
g polySurface8
usemtl initialShadingGroup
f 4/1/1 17/77/2 5/84/3
s 2
f 43/4/4 44/5/5 54/6/6 53/87/7
s 1
f 3/76/8 2/9/9 7/82/10
s 2
f 57/99/11 45/12/12 46/13/13 58/14/14
s 1
f 4/1/1 3/76/8 7/82/10 9/81/15
s 2
f 46/13/13 47/16/16 60/17/17 58/14/14
s 1
f 4/1/1 9/81/15 11/80/18
s 2
f 47/16/16 48/19/19 62/20/20 60/17/17
s 1
f 4/1/1 11/80/18 13/79/21
s 2
f 48/19/19 49/22/22 64/23/23 62/20/20
s 1
f 4/1/1 13/79/21 15/78/24
s 2
f 49/22/22 50/25/25 66/26/26 64/23/23
s 1
f 4/1/1 15/78/24 17/77/2
s 2
f 50/25/25 43/4/4 53/87/7 66/26/26
s 5
f 68/85/27 23/28/28 22/72/29 19/30/30
s off
f 24/31/31 25/32/32 29/33/33 30/104/34
s 5
f 20/27/35 26/71/36 69/86/37 68/85/27
s off
f 27/37/38 26/35/39 20/70/40 28/38/41
f 31/106/42 34/39/43 33/40/44 32/42/45
f 29/103/46 31/41/47 32/105/48 30/34/49
f 3/8/50 4/74/51 23/73/52 35/68/53
s 6
f 8/43/54 37/44/55 36/45/56 1/46/57
f 10/47/58 38/48/59 37/44/55 8/43/54
f 12/49/60 39/50/61 38/48/59 10/47/58
f 14/51/62 40/52/63 39/50/61 12/49/60
f 16/53/64 41/54/65 40/52/63 14/51/62
f 18/55/66 42/56/67 41/54/65 16/53/64
f 6/57/68 21/58/69 42/56/67 18/55/66
s 7
f 51/59/70 52/89/71 53/7/72 54/101/73
f 55/61/74 56/100/75 57/11/76 58/97/77
f 59/63/78 55/61/74 58/97/77 60/95/79
f 61/64/80 59/63/78 60/95/79 62/93/81
f 63/65/82 61/64/80 62/93/81 64/91/83
f 65/66/84 63/65/82 64/91/83 66/88/85
f 52/89/71 65/66/84 66/88/85 53/7/72
s 9
f 5/3/86 17/2/87 52/60/88 51/102/89
f 7/10/90 2/83/91 56/62/92 55/98/93
f 9/15/94 7/10/90 55/98/93 59/96/95
f 11/18/96 9/15/94 59/96/95 61/94/97
f 13/21/98 11/18/96 61/94/97 63/92/99
f 15/24/100 13/21/98 63/92/99 65/90/101
f 17/2/87 15/24/100 65/90/101 52/60/88
s off
f 22/29/102 23/69/103 4/75/104 67/67/105
s 5
f 68/85/27 69/86/37 35/36/106 23/28/28
