# This file uses centimeters as units for non-parametric coordinates.

mtllib castle_bottom_side.mtl
g default
v 12.500000 1.437500 6.000000
v 12.500000 1.437500 -6.000000
v 12.500000 3.500001 -6.000000
v 0.000000 3.500001 -6.000000
v 0.000000 -11.500000 -6.000000
v 0.000000 -11.500000 6.000000
v 10.416666 1.437500 -6.000000
v 10.416666 1.437500 6.000000
v 8.333334 1.187500 -6.000000
v 8.333334 1.187500 6.000000
v 6.250000 0.687500 -6.000000
v 6.250000 0.687500 6.000000
v 4.000000 -0.437499 -6.000000
v 4.000000 -0.437499 6.000000
v 2.500000 -2.000000 -6.000000
v 2.500000 -2.000000 6.000000
v 1.000000 -4.875000 -6.000000
v 1.000000 -4.875000 6.000000
v -12.500000 -11.500000 -7.500000
v -12.500000 3.500001 -7.500000
v 0.000000 -11.500000 7.500000
v 0.000000 -11.500000 -7.500000
v 0.000000 3.500001 -7.500000
v 0.000000 3.500001 7.500000
v -12.500000 11.500000 7.500000
v 12.500000 11.500000 7.500000
v -12.500000 11.500000 -7.500000
v 12.500000 11.500000 -7.500000
v 12.500000 11.500000 -5.000000
v -12.500000 11.500000 -5.000000
v 12.500000 11.500000 5.000000
v -12.500000 11.500000 5.000000
v 12.500000 10.499998 5.000000
v -12.500000 10.499998 5.000000
v -12.500000 10.499998 -5.000000
v 12.500000 10.499998 -5.000000
v -12.500000 3.500001 7.500000
v 12.500000 3.500001 7.500000
v 12.500000 3.500001 -7.500000
v -12.500000 3.500001 -7.500000
v 12.500000 1.437500 -5.250000
v 10.416666 1.437500 -5.250000
v 8.333334 1.187500 -5.250000
v 6.250000 0.687500 -5.250000
v 4.000000 -0.437499 -5.250000
v 2.500000 -2.000000 -5.250000
v 1.000000 -4.875000 -5.250000
v 0.000000 -11.500000 -5.250000
v 1.963864 -5.189447 -5.250000
v -0.201954 -14.510095 -5.250000
v 12.500000 0.437500 -5.250000
v 10.476452 0.437500 -5.250000
v 8.510188 0.201548 -5.250000
v 6.594758 -0.258155 -5.250000
v 4.601741 -1.254663 -5.250000
v 3.320431 -2.589362 -5.250000
v -0.000000 -11.500000 -6.500000
v 1.000000 -4.875000 -6.500000
v 1.963864 -5.189447 -6.500000
v -0.201954 -14.510095 -6.500000
v 10.416666 1.437500 -6.500000
v 12.500000 1.437500 -6.500000
v 12.500000 0.437500 -6.500000
v 10.476452 0.437500 -6.500000
v 8.333334 1.187500 -6.500000
v 8.510188 0.201548 -6.500000
v 6.250000 0.687500 -6.500000
v 6.594758 -0.258155 -6.500000
v 4.000000 -0.437499 -6.500000
v 4.601741 -1.254663 -6.500000
v 2.500000 -2.000000 -6.500000
v 3.320431 -2.589362 -6.500000
vt 0.423335 1.000000
vt 0.291296 0.060621
vt 0.435663 0.049602
vt 0.290862 0.000795
vt 0.500008 0.000970
vt 0.499962 0.028295
vt 0.290849 0.028295
vt 0.088060 0.999191
vt 0.088194 0.943871
vt 0.044513 0.060595
vt 0.000217 0.028295
vt 0.000111 0.000799
vt 0.044680 0.000686
vt 0.044689 0.028295
vt 0.088752 0.060134
vt 0.088546 0.000480
vt 0.088635 0.028295
vt 0.132676 0.059651
vt 0.132661 0.000136
vt 0.132731 0.028295
vt 0.182943 0.059360
vt 0.183044 0.000000
vt 0.182951 0.028295
vt 0.224632 0.059532
vt 0.225257 0.000176
vt 0.225186 0.028295
vt 1.001390 0.426140
vt 0.741012 0.426140
vt 0.741012 0.113687
vt 1.001390 0.113687
vt 0.428559 0.426140
vt 0.428559 0.113687
vt 1.000000 1.000000
vt 0.426656 1.000000
vt 0.426656 0.942666
vt 1.000000 0.942666
vt 1.000000 0.610126
vt 0.426656 0.610126
vt 0.426656 0.426656
vt 0.577498 0.746499
vt 1.000000 0.667460
vt 0.426656 0.667460
vt 1.000000 0.690394
vt 0.426656 0.690394
vt 1.000000 0.919732
vt 0.426656 0.919732
vt 1.000000 1.000000
vt 0.577498 1.000000
vt 0.042048 0.375721
vt 0.042048 0.602780
vt 0.000000 0.602780
vt 0.000000 0.375721
vt 0.084398 0.375721
vt 0.084398 0.602780
vt 0.127640 0.375721
vt 0.127640 0.602780
vt 0.178412 0.375721
vt 0.178412 0.602780
vt 0.222128 0.375721
vt 0.222128 0.602780
vt 0.287577 0.375721
vt 0.287577 0.602780
vt 0.422804 0.375721
vt 0.422804 0.602780
vt 0.434862 0.038817
vt 0.290768 0.050060
vt 0.044539 0.050003
vt 0.000080 0.049634
vt 0.088658 0.049730
vt 0.132626 0.049551
vt 0.182964 0.049523
vt 0.224691 0.049504
vt 0.397055 0.775301
vt 0.356636 0.852318
vt 0.316302 0.894130
vt 0.255879 0.924159
vt 0.199968 0.937435
vt 0.144073 0.944006
vt 0.000000 0.060305
vt 0.424305 0.597670
vt 1.000000 0.746499
vt 1.000000 0.426656
vn 0.000000 0.000000 -1.000000
vn 0.000000 0.000000 -1.000000
vn 0.000000 0.000000 -1.000000
vn 0.959010 -0.283372 -0.000000
vn 0.974049 -0.226338 -0.000000
vn 0.974049 -0.226338 -0.000000
vn 0.959010 -0.283372 -0.000000
vn 0.000000 0.000000 -1.000000
vn 0.000000 0.000000 -1.000000
vn 0.000000 0.000000 -1.000000
vn 0.000000 -1.000000 0.000000
vn 0.000000 -1.000000 0.000000
vn 0.059035 -0.998256 0.000000
vn 0.059035 -0.998256 0.000000
vn 0.000000 0.000000 -1.000000
vn 0.176404 -0.984318 0.000000
vn 0.176404 -0.984318 0.000000
vn 0.000000 0.000000 -1.000000
vn 0.349135 -0.937073 0.000000
vn 0.349135 -0.937073 0.000000
vn 0.000000 0.000000 -1.000000
vn 0.579986 -0.814627 0.000000
vn 0.579986 -0.814627 0.000000
vn 0.000000 0.000000 -1.000000
vn 0.830617 -0.556845 0.000000
vn 0.830617 -0.556845 0.000000
vn 0.000000 0.000000 -1.000000
vn 0.000000 0.000000 -1.000000
vn 0.000000 0.000000 -1.000000
vn 0.000000 0.000000 -1.000000
vn 1.000000 0.000000 0.000000
vn 1.000000 0.000000 0.000000
vn 1.000000 0.000000 0.000000
vn 1.000000 0.000000 0.000000
vn 0.000000 1.000000 0.000000
vn 0.000000 1.000000 0.000000
vn 0.000000 1.000000 0.000000
vn 0.000000 1.000000 0.000000
vn 0.000000 0.000000 -1.000000
vn 0.000000 0.000000 -1.000000
vn 0.000000 0.000000 -1.000000
vn 0.000000 0.000000 -1.000000
vn 0.000000 1.000000 0.000000
vn 0.000000 1.000000 0.000000
vn 0.000000 1.000000 0.000000
vn 0.000000 1.000000 0.000000
vn 0.000000 0.000000 1.000000
vn 0.000000 0.000000 1.000000
vn 0.000000 0.000000 1.000000
vn 0.000000 0.000000 1.000000
vn 0.000000 1.000000 0.000000
vn 0.000000 1.000000 0.000000
vn 0.000000 1.000000 0.000000
vn 0.000000 1.000000 0.000000
vn 0.000000 0.000000 -1.000000
vn 0.000000 0.000000 -1.000000
vn 0.000000 0.000000 -1.000000
vn 0.000000 0.000000 -1.000000
vn 0.000000 -1.000000 0.000000
vn 0.000000 -1.000000 0.000000
vn 0.000000 -1.000000 0.000000
vn 0.000000 -1.000000 0.000000
vn 0.059892 -0.998205 0.000000
vn 0.059892 -0.998205 0.000000
vn 0.000000 -1.000000 0.000000
vn 0.000000 -1.000000 0.000000
vn 0.177153 -0.984183 0.000000
vn 0.177153 -0.984183 0.000000
vn 0.351123 -0.936329 0.000000
vn 0.351123 -0.936329 0.000000
vn 0.582519 -0.812817 0.000000
vn 0.582519 -0.812817 0.000000
vn 0.828443 -0.560074 0.000000
vn 0.828443 -0.560074 0.000000
vn 0.967075 -0.254493 0.000000
vn 0.967075 -0.254493 0.000000
vn 0.988799 -0.149253 0.000000
vn 0.988799 -0.149253 0.000000
vn 0.000000 0.000000 -1.000000
vn 0.000000 0.000000 -1.000000
vn 0.000000 0.000000 -1.000000
vn 0.000000 0.000000 -1.000000
vn 0.000000 0.000000 -1.000000
vn 0.000000 0.000000 -1.000000
vn 0.000000 0.000000 -1.000000
vn 0.000000 0.000000 -1.000000
vn 0.000000 0.000000 -1.000000
vn 0.000000 0.000000 -1.000000
vn 0.000000 0.000000 -1.000000
vn 0.000000 0.000000 -1.000000
vn 0.000000 0.000000 -1.000000
vn 0.000000 0.000000 -1.000000
vn 0.000000 0.000000 -1.000000
vn 0.000000 0.000000 -1.000000
vn -0.988799 0.149253 0.000000
vn -0.967075 0.254493 0.000000
vn -0.967075 0.254493 0.000000
vn -0.988799 0.149253 0.000000
vn -0.059892 0.998205 0.000000
vn 0.000000 1.000000 0.000000
vn 0.000000 1.000000 0.000000
vn -0.059892 0.998205 0.000000
vn -0.177153 0.984183 0.000000
vn -0.177153 0.984183 0.000000
vn -0.351123 0.936329 0.000000
vn -0.351123 0.936329 0.000000
vn -0.582519 0.812817 0.000000
vn -0.582519 0.812817 0.000000
vn -0.828443 0.560074 0.000000
vn -0.828443 0.560074 0.000000
s 1
g polySurface8
usemtl lambert2SG
f 4/1/1 17/73/2 5/80/3
s 2
f 49/4/4 50/5/5 60/6/6 59/7/7
s 1
f 3/8/8 2/9/9 7/78/10
s 2
f 63/11/11 51/12/12 52/13/13 64/14/14
s 1
f 4/1/1 3/8/8 7/78/10 9/77/15
s 2
f 52/13/13 53/16/16 66/17/17 64/14/14
s 1
f 4/1/1 9/77/15 11/76/18
s 2
f 53/16/16 54/19/19 68/20/20 66/17/17
s 1
f 4/1/1 11/76/18 13/75/21
s 2
f 54/19/19 55/22/22 70/23/23 68/20/20
s 1
f 4/1/1 13/75/21 15/74/24
s 2
f 55/22/22 56/25/25 72/26/26 70/23/23
s 1
f 4/1/1 15/74/24 17/73/2
s 2
f 56/25/25 49/4/4 59/7/7 72/26/26
s off
f 20/27/27 23/28/28 22/29/29 19/30/30
f 22/29/31 23/28/32 24/31/33 21/32/34
f 25/33/35 26/34/36 31/35/37 32/36/38
f 27/37/39 28/38/40 39/39/41 40/82/42
f 30/41/43 29/42/44 28/38/45 27/37/46
f 30/41/47 35/43/48 36/44/49 29/42/50
f 35/43/51 34/45/52 33/46/53 36/44/54
f 34/45/55 32/36/56 31/35/57 33/46/58
f 38/47/59 37/48/60 40/40/61 39/81/62
s 5
f 8/49/63 42/50/64 41/51/65 1/52/66
f 10/53/67 43/54/68 42/50/64 8/49/63
f 12/55/69 44/56/70 43/54/68 10/53/67
f 14/57/71 45/58/72 44/56/70 12/55/69
f 16/59/73 46/60/74 45/58/72 14/57/71
f 18/61/75 47/62/76 46/60/74 16/59/73
f 6/63/77 48/64/78 47/62/76 18/61/75
s 6
f 57/65/79 58/66/80 59/7/81 60/6/82
f 61/67/83 62/68/84 63/11/85 64/14/86
f 65/69/87 61/67/83 64/14/86 66/17/88
f 67/70/89 65/69/87 66/17/88 68/20/90
f 69/71/91 67/70/89 68/20/90 70/23/92
f 71/72/93 69/71/91 70/23/92 72/26/94
f 58/66/80 71/72/93 72/26/94 59/7/81
s 8
f 5/3/95 17/2/96 58/66/97 57/65/98
f 7/10/99 2/79/100 62/68/101 61/67/102
f 9/15/103 7/10/99 61/67/102 65/69/104
f 11/18/105 9/15/103 65/69/104 67/70/106
f 13/21/107 11/18/105 67/70/106 69/71/108
f 15/24/109 13/21/107 69/71/108 71/72/110
f 17/2/96 15/24/109 71/72/110 58/66/97
