# This file uses centimeters as units for non-parametric coordinates.

mtllib castle_bottom_side.mtl
g default
v 12.500000 1.437500 6.000000
v 12.500000 1.437500 -6.000000
v 12.500000 3.500001 -6.000000
v 0.000000 3.500001 -6.000000
v 0.000000 -11.500000 -6.000000
v 0.000000 -11.500000 6.000000
v 10.416666 1.437500 -6.000000
v 10.416666 1.437500 6.000000
v 8.333334 1.187500 -6.000000
v 8.333334 1.187500 6.000000
v 6.250000 0.687500 -6.000000
v 6.250000 0.687500 6.000000
v 4.000000 -0.437499 -6.000000
v 4.000000 -0.437499 6.000000
v 2.500000 -2.000000 -6.000000
v 2.500000 -2.000000 6.000000
v 1.000000 -4.875000 -6.000000
v 1.000000 -4.875000 6.000000
v -12.500000 -11.500000 -7.500000
v -12.500000 3.500001 -7.500000
v 0.000000 -11.500000 7.500000
v 0.000000 -11.500000 -7.500000
v 0.000000 3.500001 -7.500000
v 0.000000 3.500001 7.500000
v -12.500000 11.500000 7.500000
v 12.500000 11.500000 7.500000
v -12.500000 11.500000 -7.500000
v 12.500000 11.500000 -7.500000
v 12.500000 11.500000 -5.000000
v -12.500000 11.500000 -5.000000
v 12.500000 11.500000 5.000000
v -12.500000 11.500000 5.000000
v 12.500000 10.499998 5.000000
v -12.500000 10.499998 5.000000
v -12.500000 10.499998 -5.000000
v 12.500000 10.499998 -5.000000
v -12.500000 3.500001 7.500000
v 12.500000 3.500001 7.500000
v 12.500000 3.500001 -7.500000
v -12.500000 3.500001 -7.500000
v 12.500000 1.437500 -5.250000
v 10.416666 1.437500 -5.250000
v 8.333334 1.187500 -5.250000
v 6.250000 0.687500 -5.250000
v 4.000000 -0.437499 -5.250000
v 2.500000 -2.000000 -5.250000
v 1.000000 -4.875000 -5.250000
v 0.000000 -11.500000 -5.250000
v 1.963864 -5.189447 -5.250000
v -0.201954 -14.510095 -5.250000
v 12.500000 0.437500 -5.250000
v 10.476452 0.437500 -5.250000
v 8.510188 0.201548 -5.250000
v 6.594758 -0.258155 -5.250000
v 4.601741 -1.254663 -5.250000
v 3.320431 -2.589362 -5.250000
v -0.000000 -11.500000 -6.500000
v 1.000000 -4.875000 -6.500000
v 1.963864 -5.189447 -6.500000
v -0.201954 -14.510095 -6.500000
v 10.416666 1.437500 -6.500000
v 12.500000 1.437500 -6.500000
v 12.500000 0.437500 -6.500000
v 10.476452 0.437500 -6.500000
v 8.333334 1.187500 -6.500000
v 8.510188 0.201548 -6.500000
v 6.250000 0.687500 -6.500000
v 6.594758 -0.258155 -6.500000
v 4.000000 -0.437499 -6.500000
v 4.601741 -1.254663 -6.500000
v 2.500000 -2.000000 -6.500000
v 3.320431 -2.589362 -6.500000
vt 0.278397 0.895943
vt 0.278397 0.728439
vt 0.300861 0.728439
vt 0.300861 0.895943
vt 0.278397 0.942670
vt 0.300861 0.942670
vt 0.278397 0.966656
vt 0.300861 0.966656
vt 0.271465 0.728439
vt 0.271465 0.998008
vt 0.001895 0.998008
vt 0.001895 0.728439
vt 0.586612 0.930616
vt 0.586612 0.728439
vt 0.638280 0.728439
vt 0.638280 0.930616
vt 0.467553 0.930616
vt 0.467553 0.728439
vt 0.666360 0.728439
vt 0.666360 0.930616
vt 0.682384 0.728439
vt 0.682384 0.847498
vt 0.673399 0.847498
vt 0.673399 0.728439
vt 0.682384 0.899166
vt 0.673399 0.899166
vt 0.682384 0.927246
vt 0.673399 0.927246
vt 0.703070 0.745468
vt 0.725534 0.745468
vt 0.725534 0.781834
vt 0.703070 0.781834
vt 0.725534 0.817170
vt 0.703070 0.817170
vt 0.725534 0.851593
vt 0.703070 0.851593
vt 0.725534 0.887410
vt 0.703070 0.887410
vt 0.001895 0.451274
vt 0.001895 0.001992
vt 0.046824 0.001992
vt 0.046824 0.451274
vt 0.204218 0.451274
vt 0.204218 0.001992
vt 0.249146 0.001992
vt 0.249146 0.451274
vt 0.459964 0.451274
vt 0.280251 0.451274
vt 0.280251 0.001992
vt 0.459964 0.001992
vt 0.761230 0.001992
vt 0.761230 0.451274
vt 0.491661 0.451274
vt 0.491661 0.001992
vt 0.423384 0.930616
vt 0.423384 0.728439
vt 0.460824 0.728439
vt 0.460824 0.930616
vt 0.385944 0.930616
vt 0.385944 0.728439
vt 0.348504 0.930616
vt 0.348504 0.728439
vt 0.308068 0.930616
vt 0.308068 0.728439
vt 0.688234 0.765879
vt 0.688234 0.728439
vt 0.697220 0.728439
vt 0.697220 0.765879
vt 0.688234 0.803319
vt 0.697220 0.803319
vt 0.688234 0.840759
vt 0.697220 0.840759
vt 0.688234 0.881195
vt 0.697220 0.881195
vt 0.490876 0.455072
vt 0.508848 0.605581
vt 0.490876 0.724641
vt 0.535805 0.553914
vt 0.562761 0.525834
vt 0.603197 0.505616
vt 0.640637 0.496630
vt 0.715517 0.455072
vt 0.678077 0.492138
vt 0.715517 0.492138
vt 0.260398 0.455072
vt 0.485039 0.455072
vt 0.485039 0.724641
vt 0.260398 0.724641
vt 0.054006 0.451274
vt 0.054006 0.001992
vt 0.197776 0.001992
vt 0.197776 0.451274
vt 0.274114 0.451274
vt 0.256143 0.451274
vt 0.256143 0.001992
vt 0.274114 0.001992
vt 0.485524 0.451274
vt 0.467553 0.451274
vt 0.467553 0.001992
vt 0.485524 0.001992
vt 0.724985 0.687575
vt 0.742956 0.568515
vt 0.760278 0.574167
vt 0.721355 0.741670
vt 0.769913 0.516848
vt 0.784657 0.527440
vt 0.796870 0.488768
vt 0.807684 0.503453
vt 0.837305 0.468550
vt 0.843501 0.485545
vt 0.874745 0.459565
vt 0.877923 0.477283
vt 0.912185 0.455072
vt 0.913260 0.473043
vt 0.949626 0.455072
vt 0.949626 0.473043
vn 0.000000 0.000000 -1.000000
vn 0.000000 0.000000 -1.000000
vn 0.000000 0.000000 -1.000000
vn 0.959010 -0.283372 -0.000000
vn 0.974049 -0.226338 -0.000000
vn 0.974049 -0.226338 -0.000000
vn 0.959010 -0.283372 -0.000000
vn 0.000000 0.000000 -1.000000
vn 0.000000 0.000000 -1.000000
vn 0.000000 0.000000 -1.000000
vn 0.000000 -1.000000 0.000000
vn 0.000000 -1.000000 0.000000
vn 0.059035 -0.998256 0.000000
vn 0.059035 -0.998256 0.000000
vn 0.000000 0.000000 -1.000000
vn 0.176404 -0.984318 0.000000
vn 0.176404 -0.984318 0.000000
vn 0.000000 0.000000 -1.000000
vn 0.349135 -0.937073 0.000000
vn 0.349135 -0.937073 0.000000
vn 0.000000 0.000000 -1.000000
vn 0.579986 -0.814627 0.000000
vn 0.579986 -0.814627 0.000000
vn 0.000000 0.000000 -1.000000
vn 0.830617 -0.556845 0.000000
vn 0.830617 -0.556845 0.000000
vn 0.000000 0.000000 -1.000000
vn 0.000000 0.000000 -1.000000
vn 0.000000 0.000000 -1.000000
vn 0.000000 0.000000 -1.000000
vn 1.000000 0.000000 0.000000
vn 1.000000 0.000000 0.000000
vn 1.000000 0.000000 0.000000
vn 1.000000 0.000000 0.000000
vn 0.000000 1.000000 0.000000
vn 0.000000 1.000000 0.000000
vn 0.000000 1.000000 0.000000
vn 0.000000 1.000000 0.000000
vn 0.000000 0.000000 -1.000000
vn 0.000000 0.000000 -1.000000
vn 0.000000 0.000000 -1.000000
vn 0.000000 0.000000 -1.000000
vn 0.000000 1.000000 0.000000
vn 0.000000 1.000000 0.000000
vn 0.000000 1.000000 0.000000
vn 0.000000 1.000000 0.000000
vn 0.000000 0.000000 1.000000
vn 0.000000 0.000000 1.000000
vn 0.000000 0.000000 1.000000
vn 0.000000 0.000000 1.000000
vn 0.000000 1.000000 0.000000
vn 0.000000 1.000000 0.000000
vn 0.000000 1.000000 0.000000
vn 0.000000 1.000000 0.000000
vn 0.000000 0.000000 -1.000000
vn 0.000000 0.000000 -1.000000
vn 0.000000 0.000000 -1.000000
vn 0.000000 0.000000 -1.000000
vn 0.000000 -1.000000 0.000000
vn 0.000000 -1.000000 0.000000
vn 0.000000 -1.000000 0.000000
vn 0.000000 -1.000000 0.000000
vn 0.059892 -0.998205 0.000000
vn 0.059892 -0.998205 0.000000
vn 0.000000 -1.000000 0.000000
vn 0.000000 -1.000000 0.000000
vn 0.177153 -0.984183 0.000000
vn 0.177153 -0.984183 0.000000
vn 0.351123 -0.936329 0.000000
vn 0.351123 -0.936329 0.000000
vn 0.582519 -0.812817 0.000000
vn 0.582519 -0.812817 0.000000
vn 0.828443 -0.560074 0.000000
vn 0.828443 -0.560074 0.000000
vn 0.967075 -0.254493 0.000000
vn 0.967075 -0.254493 0.000000
vn 0.988799 -0.149253 0.000000
vn 0.988799 -0.149253 0.000000
vn 0.000000 0.000000 -1.000000
vn 0.000000 0.000000 -1.000000
vn 0.000000 0.000000 -1.000000
vn 0.000000 0.000000 -1.000000
vn 0.000000 0.000000 -1.000000
vn 0.000000 0.000000 -1.000000
vn 0.000000 0.000000 -1.000000
vn 0.000000 0.000000 -1.000000
vn 0.000000 0.000000 -1.000000
vn 0.000000 0.000000 -1.000000
vn 0.000000 0.000000 -1.000000
vn 0.000000 0.000000 -1.000000
vn 0.000000 0.000000 -1.000000
vn 0.000000 0.000000 -1.000000
vn 0.000000 0.000000 -1.000000
vn 0.000000 0.000000 -1.000000
vn -0.988799 0.149253 0.000000
vn -0.967075 0.254493 0.000000
vn -0.967075 0.254493 0.000000
vn -0.988799 0.149253 0.000000
vn -0.059892 0.998205 0.000000
vn 0.000000 1.000000 0.000000
vn 0.000000 1.000000 0.000000
vn -0.059892 0.998205 0.000000
vn -0.177153 0.984183 0.000000
vn -0.177153 0.984183 0.000000
vn -0.351123 0.936329 0.000000
vn -0.351123 0.936329 0.000000
vn -0.582519 0.812817 0.000000
vn -0.582519 0.812817 0.000000
vn -0.828443 0.560074 0.000000
vn -0.828443 0.560074 0.000000
s 1
g polySurface8
usemtl initialShadingGroup
f 4/75/1 17/76/2 5/77/3
s 2
f 49/1/4 50/2/5 60/3/6 59/4/7
s 1
f 3/82/8 2/84/9 7/83/10
s 2
f 63/29/11 51/30/12 52/31/13 64/32/14
s 1
f 4/75/1 3/82/8 7/83/10 9/81/15
s 2
f 52/31/13 53/33/16 66/34/17 64/32/14
s 1
f 4/75/1 9/81/15 11/80/18
s 2
f 53/33/16 54/35/19 68/36/20 66/34/17
s 1
f 4/75/1 11/80/18 13/79/21
s 2
f 54/35/19 55/37/22 70/38/23 68/36/20
s 1
f 4/75/1 13/79/21 15/78/24
s 2
f 55/7/22 56/5/25 72/6/26 70/8/23
s 1
f 4/75/1 15/78/24 17/76/2
s 2
f 56/5/25 49/1/4 59/4/7 72/6/26
s off
f 20/85/27 23/86/28 22/87/29 19/88/30
f 22/9/31 23/10/32 24/11/33 21/12/34
f 25/39/35 26/40/36 31/41/37 32/42/38
f 27/89/39 28/90/40 39/91/41 40/92/42
f 30/43/43 29/44/44 28/45/45 27/46/46
f 30/93/47 35/94/48 36/95/49 29/96/50
f 35/47/51 34/48/52 33/49/53 36/50/54
f 34/97/55 32/98/56 31/99/57 33/100/58
f 38/51/59 37/52/60 40/53/61 39/54/62
s 5
f 8/55/63 42/56/64 41/57/65 1/58/66
f 10/59/67 43/60/68 42/56/64 8/55/63
f 12/61/69 44/62/70 43/60/68 10/59/67
f 14/63/71 45/64/72 44/62/70 12/61/69
f 16/16/73 46/15/74 45/19/72 14/20/71
f 18/13/75 47/14/76 46/15/74 16/16/73
f 6/17/77 48/18/78 47/14/76 18/13/75
s 6
f 57/101/79 58/102/80 59/103/81 60/104/82
f 61/113/83 62/115/84 63/116/85 64/114/86
f 65/111/87 61/113/83 64/114/86 66/112/88
f 67/109/89 65/111/87 66/112/88 68/110/90
f 69/107/91 67/109/89 68/110/90 70/108/92
f 71/105/93 69/107/91 70/108/92 72/106/94
f 58/102/80 71/105/93 72/106/94 59/103/81
s 8
f 5/21/95 17/22/96 58/23/97 57/24/98
f 7/65/99 2/66/100 62/67/101 61/68/102
f 9/69/103 7/65/99 61/68/102 65/70/104
f 11/71/105 9/69/103 65/70/104 67/72/106
f 13/73/107 11/71/105 67/72/106 69/74/108
f 15/25/109 13/27/107 69/28/108 71/26/110
f 17/22/96 15/25/109 71/26/110 58/23/97
