# This file uses centimeters as units for non-parametric coordinates.

mtllib castle_door.mtl
g default
v 0.500000 0.000000 2.000000
v 0.500000 0.000000 -2.000000
v 0.500000 7.000000 0.500150
v 0.500000 6.799058 1.250075
v 0.500000 6.250075 1.799058
v 0.500000 5.500150 2.000000
v 0.500000 5.500150 -2.000000
v 0.500000 6.250075 -1.799058
v 0.500000 6.799058 -1.250074
v 0.500000 7.000000 -0.500150
v 0.000000 0.000000 3.000000
v 0.500000 0.000000 3.000000
v 0.000000 5.500150 3.000000
v 0.000000 8.000000 0.631803
v 0.000000 8.000000 -0.631803
v 0.000000 5.500150 -3.000000
v 0.500000 0.000000 -3.000000
v 0.000000 0.000000 -3.000000
v 0.000000 7.695634 1.767714
v 0.000000 6.767713 2.695634
v 0.000000 6.767715 -2.695633
v 0.000000 7.695634 -1.767712
v 1.000000 0.000000 2.000000
v 1.000000 5.500150 2.000000
v 1.000000 5.500150 3.000000
v 1.000000 0.000000 3.000000
v 1.000000 7.000000 0.500150
v 1.000000 7.000001 -0.500150
v 1.000000 8.000001 -0.631803
v 1.000000 8.000000 0.631803
v 1.000000 5.500151 -2.000000
v 1.000000 0.000000 -2.000000
v 1.000000 0.000000 -3.000000
v 1.000000 5.500151 -3.000000
v 1.000000 6.799058 1.250075
v 1.000000 7.695634 1.767714
v 1.000000 6.250075 1.799058
v 1.000000 6.767713 2.695634
v 1.000000 6.250076 -1.799058
v 1.000000 6.767715 -2.695633
v 1.000000 6.799059 -1.250074
v 1.000000 7.695635 -1.767712
vt 0.641724 0.808944
vt 0.835924 0.808944
vt 0.835924 0.870733
vt 0.641724 0.870733
vt 0.862402 0.796528
vt 0.880679 0.851927
vt 0.881785 0.762607
vt 0.913442 0.794592
vt 0.888880 0.716270
vt 0.924188 0.724405
vt 0.888880 0.654463
vt 0.924188 0.646328
vt 0.881785 0.608126
vt 0.913442 0.576141
vt 0.862402 0.574205
vt 0.880679 0.518806
vt 0.835924 0.561789
vt 0.835924 0.500000
vt 0.641724 0.561789
vt 0.641724 0.500000
vt 0.478390 0.945051
vt 0.231234 0.945051
vt 0.231234 0.750852
vt 0.478390 0.750852
vt 0.465974 0.971530
vt 0.243650 0.971530
vt 0.432053 0.990913
vt 0.277571 0.990913
vt 0.323908 0.998008
vt 0.385716 0.998008
vt 0.453076 0.496304
vt 0.374999 0.496304
vt 0.374999 0.001992
vt 0.453076 0.001992
vt 0.304812 0.496304
vt 0.304812 0.001992
vt 0.523263 0.496304
vt 0.523263 0.001992
vt 0.247477 0.496304
vt 0.247477 0.001992
vt 0.580598 0.496304
vt 0.580598 0.001992
vt 0.190247 0.998008
vt 0.143910 0.998008
vt 0.143910 0.750852
vt 0.190247 0.750852
vt 0.082103 0.998008
vt 0.082103 0.750852
vt 0.224168 0.998008
vt 0.224168 0.750852
vt 0.035766 0.998008
vt 0.035766 0.750852
vt 0.001845 0.998008
vt 0.001845 0.750852
vt 0.196044 0.496304
vt 0.001845 0.496304
vt 0.001845 0.249148
vt 0.001845 0.001992
vt 0.196044 0.001992
vt 0.240799 0.496304
vt 0.240799 0.001992
vt 0.825732 0.249148
vt 0.825732 0.496304
vt 0.631533 0.496304
vt 0.631533 0.001992
vt 0.825732 0.001992
vt 0.586778 0.496304
vt 0.586778 0.001992
vt 0.636043 0.747156
vt 0.441844 0.747156
vt 0.441844 0.500000
vt 0.636043 0.500000
vt 0.415365 0.747156
vt 0.415365 0.500000
vt 0.383205 0.747156
vt 0.189006 0.747156
vt 0.189006 0.500000
vt 0.383205 0.500000
vt 0.409684 0.747156
vt 0.409684 0.500000
vn 0.000000 0.000000 1.000000
vn 0.000000 0.000000 1.000000
vn 0.000000 0.000000 1.000000
vn 0.000000 0.000000 1.000000
vn 0.000000 0.000000 1.000000
vn -0.000000 1.000000 0.000000
vn -0.000000 1.000000 0.000000
vn -0.000000 1.000000 0.000000
vn -0.000000 1.000000 0.000000
vn 0.000000 0.000000 -1.000000
vn 0.000000 0.000000 -1.000000
vn 0.000000 0.000000 -1.000000
vn 0.000000 0.000000 -1.000000
vn 0.000000 0.000000 -1.000000
vn 0.000000 0.965926 0.258818
vn 0.000000 0.965926 0.258818
vn 0.000000 0.965926 0.258818
vn 0.000000 0.965926 0.258818
vn 0.000000 0.707106 0.707107
vn 0.000000 0.707106 0.707107
vn 0.000000 0.707106 0.707107
vn 0.000000 0.707106 0.707107
vn 0.000000 0.233483 0.972361
vn 0.000000 0.233483 0.972361
vn 0.000000 0.233483 0.972361
vn 0.000000 0.233483 0.972361
vn 0.000000 0.233483 -0.972361
vn 0.000000 0.233483 -0.972361
vn 0.000000 0.233483 -0.972361
vn 0.000000 0.233483 -0.972361
vn -0.000001 0.707107 -0.707106
vn -0.000001 0.707107 -0.707106
vn -0.000001 0.707107 -0.707106
vn -0.000001 0.707107 -0.707106
vn -0.000001 0.965926 -0.258818
vn -0.000001 0.965926 -0.258818
vn -0.000001 0.965926 -0.258818
vn -0.000001 0.965926 -0.258818
vn 1.000000 0.000000 0.000000
vn 1.000000 0.000000 0.000000
vn 1.000000 0.000000 0.000000
vn 1.000000 0.000000 0.000000
vn 1.000000 0.000000 0.000000
vn 1.000000 0.000000 0.000000
vn 1.000000 0.000000 0.000000
vn 1.000000 0.000000 0.000000
vn 1.000000 0.000000 0.000000
vn 1.000000 0.000000 0.000000
vn 1.000000 0.000000 0.000000
vn 1.000000 0.000000 0.000000
vn 1.000000 0.000000 0.000000
vn 1.000000 0.000000 0.000000
vn 1.000000 0.000000 0.000000
vn 1.000000 0.000000 0.000000
vn 1.000000 0.000000 0.000000
vn 1.000000 0.000000 0.000000
vn 1.000000 0.000000 0.000000
vn 1.000000 0.000000 0.000000
vn 0.000000 0.000000 -1.000000
vn 0.000000 -0.032134 -0.999484
vn 0.000000 -0.032134 -0.999484
vn 0.000000 0.000000 -1.000000
vn 0.000000 -0.032134 0.999484
vn 0.000000 0.000000 1.000000
vn 0.000000 0.000000 1.000000
vn 0.000000 -0.032134 0.999484
vn -0.000000 -0.866026 -0.500000
vn 0.000000 -0.993474 -0.114060
vn 0.000000 -0.993474 -0.114060
vn -0.000000 -0.866025 -0.500000
vn -0.000000 -0.500000 -0.866026
vn -0.000000 -0.500000 -0.866026
vn 0.000001 -0.500000 0.866025
vn 0.000001 -0.500001 0.866025
vn 0.000002 -0.866025 0.500000
vn 0.000002 -0.866026 0.500000
vn 0.000001 -0.993474 0.114060
vn 0.000001 -0.993474 0.114059
vn 1.000000 0.000000 0.000000
vn 1.000000 0.000000 0.000000
vn 1.000000 0.000000 0.000000
vn 1.000000 0.000000 0.000000
vn 1.000000 0.000000 0.000000
vn 1.000000 0.000000 0.000000
vn 1.000000 0.000000 0.000000
vn 1.000000 0.000000 0.000000
vn 1.000000 0.000000 0.000000
vn 1.000000 0.000000 0.000000
s off
g pCube4
usemtl initialShadingGroup
f 13/55/1 11/56/2 12/57/3 26/58/4 25/59/5
f 15/31/6 14/32/7 30/33/8 29/34/9
f 17/62/10 18/63/11 16/64/12 34/65/13 33/66/14
f 14/32/15 19/35/16 36/36/17 30/33/18
f 19/35/19 20/39/20 38/40/21 36/36/22
f 20/60/23 13/55/24 25/59/25 38/61/26
f 16/64/27 21/67/28 40/68/29 34/65/30
f 21/41/31 22/37/32 42/38/33 40/42/34
f 22/37/35 15/31/36 29/34/37 42/38/38
s 1
f 23/1/39 24/2/40 25/3/41 26/4/42
f 31/17/43 32/19/44 33/20/45 34/18/46
f 35/7/47 27/9/48 30/10/49 36/8/50
f 37/5/51 35/7/47 36/8/50 38/6/52
f 24/2/40 37/5/51 38/6/52 25/3/41
f 39/15/53 31/17/43 34/18/46 40/16/54
f 41/13/55 39/15/53 40/16/54 42/14/56
f 28/11/57 41/13/55 42/14/56 29/12/58
s 4
f 1/69/59 6/70/60 24/71/61 23/72/62
f 7/75/63 2/76/64 32/77/65 31/78/66
f 4/43/67 3/44/68 27/45/69 35/46/70
f 5/49/71 4/43/67 35/46/70 37/50/72
f 6/70/60 5/73/71 37/74/72 24/71/61
f 8/79/73 7/75/63 31/78/66 39/80/74
f 9/51/75 8/53/73 39/54/74 41/52/76
f 10/47/77 9/51/75 41/52/76 28/48/78
s 7
f 7/21/79 6/22/80 1/23/81 2/24/82
f 8/25/83 5/26/84 6/22/80 7/21/79
f 9/27/85 4/28/86 5/26/84 8/25/83
f 3/29/87 4/28/86 9/27/85 10/30/88
s 4
f 27/45/69 3/44/68 10/47/77 28/48/78
s 1
f 30/10/49 27/9/48 28/11/57 29/12/58
g default
v 0.500000 0.000000 2.000000
v 0.500000 0.000000 -2.000000
v 0.500000 7.000000 0.500150
v 0.500000 6.799058 1.250075
v 0.500000 6.250075 1.799058
v 0.500000 5.500150 2.000000
v 0.500000 5.500150 -2.000000
v 0.500000 6.250075 -1.799058
v 0.500000 6.799058 -1.250074
v 0.500000 7.000000 -0.500150
v 0.000000 0.000000 3.000000
v 0.500000 0.000000 3.000000
v 0.000000 5.500150 3.000000
v 0.000000 8.000000 0.631803
v 0.000000 8.000000 -0.631803
v 0.000000 5.500150 -3.000000
v 0.500000 0.000000 -3.000000
v 0.000000 0.000000 -3.000000
v 0.000000 7.695634 1.767714
v 0.000000 6.767713 2.695634
v 0.000000 6.767715 -2.695633
v 0.000000 7.695634 -1.767712
v 1.000000 0.000000 2.000000
v 1.000000 5.500150 2.000000
v 1.000000 5.500150 3.000000
v 1.000000 0.000000 3.000000
v 1.000000 7.000000 0.500150
v 1.000000 7.000001 -0.500150
v 1.000000 8.000001 -0.631803
v 1.000000 8.000000 0.631803
v 1.000000 5.500151 -2.000000
v 1.000000 0.000000 -2.000000
v 1.000000 0.000000 -3.000000
v 1.000000 5.500151 -3.000000
v 1.000000 6.799058 1.250075
v 1.000000 7.695634 1.767714
v 1.000000 6.250075 1.799058
v 1.000000 6.767713 2.695634
v 1.000000 6.250076 -1.799058
v 1.000000 6.767715 -2.695633
v 1.000000 6.799059 -1.250074
v 1.000000 7.695635 -1.767712
vt 0.641724 0.808944
vt 0.835924 0.808944
vt 0.835924 0.870733
vt 0.641724 0.870733
vt 0.862402 0.796528
vt 0.880679 0.851927
vt 0.881785 0.762607
vt 0.913442 0.794592
vt 0.888880 0.716270
vt 0.924188 0.724405
vt 0.888880 0.654463
vt 0.924188 0.646328
vt 0.881785 0.608126
vt 0.913442 0.576141
vt 0.862402 0.574205
vt 0.880679 0.518806
vt 0.835924 0.561789
vt 0.835924 0.500000
vt 0.641724 0.561789
vt 0.641724 0.500000
vt 0.478390 0.945051
vt 0.231234 0.945051
vt 0.231234 0.750852
vt 0.478390 0.750852
vt 0.465974 0.971530
vt 0.243650 0.971530
vt 0.432053 0.990913
vt 0.277571 0.990913
vt 0.323908 0.998008
vt 0.385716 0.998008
vt 0.453076 0.496304
vt 0.374999 0.496304
vt 0.374999 0.001992
vt 0.453076 0.001992
vt 0.304812 0.496304
vt 0.304812 0.001992
vt 0.523263 0.496304
vt 0.523263 0.001992
vt 0.247477 0.496304
vt 0.247477 0.001992
vt 0.580598 0.496304
vt 0.580598 0.001992
vt 0.190247 0.998008
vt 0.143910 0.998008
vt 0.143910 0.750852
vt 0.190247 0.750852
vt 0.082103 0.998008
vt 0.082103 0.750852
vt 0.224168 0.998008
vt 0.224168 0.750852
vt 0.035766 0.998008
vt 0.035766 0.750852
vt 0.001845 0.998008
vt 0.001845 0.750852
vt 0.196044 0.496304
vt 0.001845 0.496304
vt 0.001845 0.249148
vt 0.001845 0.001992
vt 0.196044 0.001992
vt 0.240799 0.496304
vt 0.240799 0.001992
vt 0.825732 0.249148
vt 0.825732 0.496304
vt 0.631533 0.496304
vt 0.631533 0.001992
vt 0.825732 0.001992
vt 0.586778 0.496304
vt 0.586778 0.001992
vt 0.636043 0.747156
vt 0.441844 0.747156
vt 0.441844 0.500000
vt 0.636043 0.500000
vt 0.415365 0.747156
vt 0.415365 0.500000
vt 0.383205 0.747156
vt 0.189006 0.747156
vt 0.189006 0.500000
vt 0.383205 0.500000
vt 0.409684 0.747156
vt 0.409684 0.500000
vn 0.000000 0.000000 1.000000
vn 0.000000 0.000000 1.000000
vn 0.000000 0.000000 1.000000
vn 0.000000 0.000000 1.000000
vn 0.000000 0.000000 1.000000
vn -0.000000 1.000000 0.000000
vn -0.000000 1.000000 0.000000
vn -0.000000 1.000000 0.000000
vn -0.000000 1.000000 0.000000
vn 0.000000 0.000000 -1.000000
vn 0.000000 0.000000 -1.000000
vn 0.000000 0.000000 -1.000000
vn 0.000000 0.000000 -1.000000
vn 0.000000 0.000000 -1.000000
vn 0.000000 0.965926 0.258818
vn 0.000000 0.965926 0.258818
vn 0.000000 0.965926 0.258818
vn 0.000000 0.965926 0.258818
vn 0.000000 0.707106 0.707107
vn 0.000000 0.707106 0.707107
vn 0.000000 0.707106 0.707107
vn 0.000000 0.707106 0.707107
vn 0.000000 0.233483 0.972361
vn 0.000000 0.233483 0.972361
vn 0.000000 0.233483 0.972361
vn 0.000000 0.233483 0.972361
vn 0.000000 0.233483 -0.972361
vn 0.000000 0.233483 -0.972361
vn 0.000000 0.233483 -0.972361
vn 0.000000 0.233483 -0.972361
vn -0.000001 0.707107 -0.707106
vn -0.000001 0.707107 -0.707106
vn -0.000001 0.707107 -0.707106
vn -0.000001 0.707107 -0.707106
vn -0.000001 0.965926 -0.258818
vn -0.000001 0.965926 -0.258818
vn -0.000001 0.965926 -0.258818
vn -0.000001 0.965926 -0.258818
vn 1.000000 0.000000 0.000000
vn 1.000000 0.000000 0.000000
vn 1.000000 0.000000 0.000000
vn 1.000000 0.000000 0.000000
vn 1.000000 0.000000 0.000000
vn 1.000000 0.000000 0.000000
vn 1.000000 0.000000 0.000000
vn 1.000000 0.000000 0.000000
vn 1.000000 0.000000 0.000000
vn 1.000000 0.000000 0.000000
vn 1.000000 0.000000 0.000000
vn 1.000000 0.000000 0.000000
vn 1.000000 0.000000 0.000000
vn 1.000000 0.000000 0.000000
vn 1.000000 0.000000 0.000000
vn 1.000000 0.000000 0.000000
vn 1.000000 0.000000 0.000000
vn 1.000000 0.000000 0.000000
vn 1.000000 0.000000 0.000000
vn 1.000000 0.000000 0.000000
vn 0.000000 0.000000 -1.000000
vn 0.000000 -0.032134 -0.999484
vn 0.000000 -0.032134 -0.999484
vn 0.000000 0.000000 -1.000000
vn 0.000000 -0.032134 0.999484
vn 0.000000 0.000000 1.000000
vn 0.000000 0.000000 1.000000
vn 0.000000 -0.032134 0.999484
vn -0.000000 -0.866026 -0.500000
vn 0.000000 -0.993474 -0.114060
vn 0.000000 -0.993474 -0.114060
vn -0.000000 -0.866025 -0.500000
vn -0.000000 -0.500000 -0.866026
vn -0.000000 -0.500000 -0.866026
vn 0.000001 -0.500000 0.866025
vn 0.000001 -0.500001 0.866025
vn 0.000002 -0.866025 0.500000
vn 0.000002 -0.866026 0.500000
vn 0.000001 -0.993474 0.114060
vn 0.000001 -0.993474 0.114059
vn 1.000000 0.000000 0.000000
vn 1.000000 0.000000 0.000000
vn 1.000000 0.000000 0.000000
vn 1.000000 0.000000 0.000000
vn 1.000000 0.000000 0.000000
vn 1.000000 0.000000 0.000000
vn 1.000000 0.000000 0.000000
vn 1.000000 0.000000 0.000000
vn 1.000000 0.000000 0.000000
vn 1.000000 0.000000 0.000000
s off
g pCube4
f 55/135/89 53/136/90 54/137/91 68/138/92 67/139/93
f 57/111/94 56/112/95 72/113/96 71/114/97
f 59/142/98 60/143/99 58/144/100 76/145/101 75/146/102
f 56/112/103 61/115/104 78/116/105 72/113/106
f 61/115/107 62/119/108 80/120/109 78/116/110
f 62/140/111 55/135/112 67/139/113 80/141/114
f 58/144/115 63/147/116 82/148/117 76/145/118
f 63/121/119 64/117/120 84/118/121 82/122/122
f 64/117/123 57/111/124 71/114/125 84/118/126
s 1
f 65/81/127 66/82/128 67/83/129 68/84/130
f 73/97/131 74/99/132 75/100/133 76/98/134
f 77/87/135 69/89/136 72/90/137 78/88/138
f 79/85/139 77/87/135 78/88/138 80/86/140
f 66/82/128 79/85/139 80/86/140 67/83/129
f 81/95/141 73/97/131 76/98/134 82/96/142
f 83/93/143 81/95/141 82/96/142 84/94/144
f 70/91/145 83/93/143 84/94/144 71/92/146
s 4
f 43/149/147 48/150/148 66/151/149 65/152/150
f 49/155/151 44/156/152 74/157/153 73/158/154
f 46/123/155 45/124/156 69/125/157 77/126/158
f 47/129/159 46/123/155 77/126/158 79/130/160
f 48/150/148 47/153/159 79/154/160 66/151/149
f 50/159/161 49/155/151 73/158/154 81/160/162
f 51/131/163 50/133/161 81/134/162 83/132/164
f 52/127/165 51/131/163 83/132/164 70/128/166
s 7
f 49/101/167 48/102/168 43/103/169 44/104/170
f 50/105/171 47/106/172 48/102/168 49/101/167
f 51/107/173 46/108/174 47/106/172 50/105/171
f 45/109/175 46/108/174 51/107/173 52/110/176
s 4
f 69/125/157 45/124/156 52/127/165 70/128/166
s 1
f 72/90/137 69/89/136 70/91/145 71/92/146
