# This file uses centimeters as units for non-parametric coordinates.

mtllib castle_middle_lower.mtl
g default
v -20.749998 -22.500000 15.000000
v 20.749998 -22.500000 15.000000
v -20.749998 -22.500000 -15.000000
v 20.749998 -22.500000 -15.000000
v -4.000000 -9.500000 -15.000000
v 4.000000 -9.500000 -15.000000
v 4.000000 -9.500000 -12.000000
v -4.000000 -9.500000 -12.000000
v -20.749998 -1.499996 -15.000000
v -4.000000 -1.499996 -15.000000
v -4.000000 -1.499996 -12.000000
v 4.000000 -1.499996 -12.000000
v 4.000000 -1.499996 -15.000000
v 20.749998 -1.499996 -15.000000
v 20.749998 -1.499996 15.000000
v -20.749998 -1.499996 15.000000
vt 0.000000 0.649243
vt 0.690307 0.649554
vt 0.000000 0.299946
vt 0.501004 0.299946
vt 1.000000 0.299946
vt 0.000000 0.997774
vt 0.501004 0.649243
vt 0.411086 1.000000
vt 0.411086 0.865821
vt 0.890119 0.000000
vt 0.890119 0.295537
vt 0.000000 0.000000
vt 0.767389 0.000000
vt 0.767389 0.295537
vt 0.000000 0.295537
vt 0.498996 0.299946
vt 0.498996 0.649243
vt 0.690278 1.000112
vt 0.000000 0.649591
vt 1.000000 0.649243
vt 0.278021 0.997774
vt 0.278021 0.865821
vt 0.879161 0.295537
vt 0.647768 0.000000
vt 0.879161 0.000000
vt 0.352232 0.000000
vt 1.000000 0.295537
vt 0.352232 0.110826
vt 1.000000 0.000000
vt 0.295536 0.295537
vt 0.647768 0.110826
vt 0.295536 0.000000
vn 1.000000 0.000000 0.000000
vn 1.000000 0.000000 0.000000
vn 1.000000 0.000000 0.000000
vn 1.000000 0.000000 0.000000
vn 0.000000 0.000000 -1.000000
vn 0.000000 0.000000 -1.000000
vn 0.000000 0.000000 -1.000000
vn 0.000000 0.000000 -1.000000
vn 0.000000 0.000000 -1.000000
vn 0.000000 0.000000 -1.000000
vn 0.000000 0.000000 -1.000000
vn 0.000000 0.000000 -1.000000
vn 0.000000 0.000000 -1.000000
vn 0.000000 0.000000 -1.000000
vn 0.000000 0.000000 -1.000000
vn 0.000000 0.000000 -1.000000
vn 0.000000 0.000000 -1.000000
vn 0.000000 0.000000 -1.000000
vn 0.000000 0.000000 -1.000000
vn 0.000000 0.000000 -1.000000
vn 0.000000 1.000000 0.000000
vn 0.000000 1.000000 0.000000
vn 0.000000 1.000000 0.000000
vn 0.000000 1.000000 0.000000
vn 1.000000 0.000000 0.000000
vn 1.000000 0.000000 0.000000
vn 1.000000 0.000000 0.000000
vn 1.000000 0.000000 0.000000
vn -1.000000 0.000000 0.000000
vn -1.000000 0.000000 0.000000
vn -1.000000 0.000000 0.000000
vn -1.000000 0.000000 0.000000
vn -1.000000 0.000000 0.000000
vn -1.000000 0.000000 0.000000
vn -1.000000 0.000000 0.000000
vn -1.000000 0.000000 0.000000
s off
g polySurface9 polySurface4
usemtl initialShadingGroup
f 2/4/1 4/5/2 14/20/3 15/7/4
f 3/2/5 9/18/6 10/8/7 5/9/8
f 6/22/9 13/21/10 14/6/11 4/19/12
f 7/12/13 8/32/14 11/30/15 12/15/16
f 3/2/17 5/9/18 6/22/19 4/19/20
f 6/26/21 5/24/22 8/31/23 7/28/24
f 5/25/25 10/23/26 11/14/27 8/13/28
f 13/11/29 6/10/30 7/29/31 12/27/32
f 9/1/33 3/3/34 1/16/35 16/17/36
