# This file uses centimeters as units for non-parametric coordinates.

mtllib side_bridge_level_3.mtl
g default
v -12.500000 0.000000 -6.000000
v 12.500000 0.000000 -6.000000
v -12.500000 -8.500000 -6.000000
v 12.500000 -8.500000 -6.000000
v 12.500000 -8.500000 6.000000
v -12.500000 -8.500000 6.000000
v 9.375000 -3.499999 -6.000000
v 9.375000 -3.499999 6.000000
v 6.250000 -1.999999 -6.000000
v 6.250000 -1.999999 6.000000
v -0.000000 0.000000 -6.000000
v 3.125000 -0.999999 -6.000000
v 3.125000 -0.999999 6.000000
v -0.000000 -0.749999 -6.000000
v -0.000000 -0.749998 6.000000
v -3.125000 -0.999999 -6.000000
v -3.125000 -0.999999 6.000000
v -6.250000 -1.999999 -6.000000
v -6.250000 -1.999999 6.000000
v -9.375000 -3.499999 -6.000000
v -9.375000 -3.499999 6.000000
v -10.937500 -5.500000 6.000000
v -10.937500 -5.500000 -6.000000
v 10.937500 -5.500000 6.000000
v 10.937500 -5.500000 -6.000000
v -12.500000 5.000000 7.500000
v 21.500000 5.000000 7.500000
v -12.500000 5.000000 -7.500000
v 14.500000 5.000000 -7.500000
v -12.500000 5.000000 -5.000000
v 14.500000 5.000000 -5.000000
v -12.500000 5.000000 5.000000
v 21.500000 5.000000 5.000000
v -12.500000 4.000000 5.000000
v -12.500000 4.000000 -5.000000
v 14.500000 4.000000 -5.000000
v 21.500000 4.000000 5.000000
v -12.500000 0.000000 -7.500000
v -12.500000 0.000000 7.500000
v 12.500000 0.000000 7.500000
v 12.500000 0.000000 -7.500000
v 12.500000 -18.000000 -7.500000
v 12.500000 -18.000000 7.500000
v 12.500000 -8.500000 -5.250000
v 10.937500 -5.500000 -5.250000
v 9.375000 -3.499999 -5.250000
v 6.250000 -1.999999 -5.250000
v 3.125000 -0.999999 -5.250000
v -0.000000 -0.749999 -5.250000
v -3.125000 -0.999999 -5.250000
v -6.250000 -1.999999 -5.250000
v -9.375000 -3.499999 -5.250000
v -10.937500 -5.500000 -5.250000
v -12.500000 -8.500000 -5.250000
v 8.731148 -4.300184 -5.250000
v 10.092978 -6.043326 -5.250000
v 5.879490 -2.931388 -5.250000
v 2.930177 -1.987608 -5.250000
v -0.000000 -1.753194 -5.250000
v -2.930177 -1.987608 -5.250000
v -5.879490 -2.931388 -5.250000
v -8.731148 -4.300184 -5.250000
v -10.092978 -6.043326 -5.250000
v -12.643369 -11.000000 -5.250000
v 12.643369 -11.000000 -5.250000
v 9.375000 -3.499999 -6.500000
v 10.937500 -5.500000 -6.500000
v 10.092978 -6.043326 -6.500000
v 8.731148 -4.300184 -6.500000
v 6.250000 -1.999999 -6.500000
v 5.879490 -2.931388 -6.500000
v 3.125000 -0.999999 -6.500000
v 2.930177 -1.987608 -6.500000
v -0.000000 -0.749999 -6.500000
v -0.000000 -1.753194 -6.500000
v -3.125000 -0.999999 -6.500000
v -2.930177 -1.987608 -6.500000
v -6.250000 -1.999999 -6.500000
v -5.879490 -2.931388 -6.500000
v -9.375000 -3.499999 -6.500000
v -8.731148 -4.300184 -6.500000
v -10.937500 -5.500000 -6.500000
v -10.092978 -6.043326 -6.500000
v -12.500000 -8.500000 -6.500000
v -12.643369 -11.000000 -6.500000
v 12.500000 -8.500000 -6.500000
v 12.643369 -11.000000 -6.500000
vt 0.603592 0.999554
vt 0.904196 0.607479
vt 0.960443 0.608228
vt 0.543860 0.607687
vt 0.000152 1.000000
vt 0.505011 0.607464
vt 0.599616 0.607500
vt 0.653411 0.607872
vt 0.301872 0.999777
vt 0.704612 0.607703
vt 0.755799 0.607872
vt 0.809610 0.607490
vt 0.865301 0.607684
vt 0.000000 0.794830
vt 1.000000 0.496597
vt 1.000000 0.560264
vt 0.134138 0.560263
vt 0.134138 0.496597
vt 1.000000 0.127333
vt 1.000000 0.190999
vt 0.312404 0.190999
vt 0.312404 0.127333
vt 0.363337 0.000000
vt 0.515730 0.898748
vt 1.000000 0.216466
vt 0.312404 0.216465
vt 1.000000 0.471131
vt 0.134138 0.471130
vt 1.000000 1.000000
vt 0.515730 0.646739
vt 0.673097 0.607716
vt 1.000000 0.607716
vt 0.056828 -0.000000
vt 0.056828 0.189007
vt 0.000000 0.189007
vt 0.000000 -0.000000
vt 0.099468 -0.000000
vt 0.099468 0.189007
vt 0.157705 -0.000000
vt 0.157705 0.189007
vt 0.212829 -0.000000
vt 0.212829 0.189007
vt 0.265499 0.000000
vt 0.265499 0.189007
vt 0.318168 0.000000
vt 0.318168 0.189007
vt 0.373293 0.000000
vt 0.373293 0.189007
vt 0.431530 0.000000
vt 0.431530 0.189007
vt 0.474170 0.000000
vt 0.474169 0.189007
vt 0.530998 0.000000
vt 0.530998 0.189007
vt 0.543828 0.599811
vt 0.505024 0.599421
vt 0.504998 0.582762
vt 0.544249 0.582762
vt 0.599618 0.599377
vt 0.599619 0.582762
vt 0.653427 0.599697
vt 0.653430 0.582762
vt 0.704612 0.599536
vt 0.704614 0.582763
vt 0.755782 0.599697
vt 0.755775 0.582762
vt 0.809608 0.599370
vt 0.809614 0.582763
vt 0.865334 0.599809
vt 0.864909 0.582763
vt 0.904185 0.599431
vt 0.904217 0.582763
vt 0.960559 0.599910
vt 0.999947 0.582763
vt 0.448670 0.599904
vt 0.409288 0.582762
vt 0.505018 0.561086
vt 0.544161 0.560818
vt 0.599628 0.560937
vt 0.653461 0.561014
vt 0.704612 0.560990
vt 0.755748 0.561015
vt 0.809599 0.560945
vt 0.865004 0.560821
vt 0.904193 0.561076
vt 1.000000 0.561296
vt 0.409236 0.561301
vt 0.673097 1.000000
vt 0.095715 0.646739
vt 1.000000 0.000000
vt 0.095715 0.898748
vt 0.037769 0.867215
vt 0.448786 0.608219
vt 0.565778 0.866825
vt 0.528099 0.915128
vt 0.452696 0.951390
vt 0.377284 0.975584
vt 0.301858 0.981674
vt 0.226424 0.975695
vt 0.150976 0.951613
vt 0.075519 0.915462
vt 0.603440 0.794384
vn 0.000000 0.000000 -1.000000
vn 0.000000 0.000000 -1.000000
vn 0.000000 0.000000 -1.000000
vn 0.000000 0.000000 -1.000000
vn 0.000000 0.000000 -1.000000
vn 0.000000 0.000000 -1.000000
vn 0.000000 0.000000 -1.000000
vn 0.000000 0.000000 -1.000000
vn 0.000000 0.000000 -1.000000
vn 0.000000 0.000000 -1.000000
vn 0.000000 0.000000 -1.000000
vn 0.000000 0.000000 -1.000000
vn 0.000000 0.000000 -1.000000
vn 0.000000 0.000000 -1.000000
vn 0.000000 0.000000 -1.000000
vn 0.000000 0.000000 -1.000000
vn 0.000000 0.000000 -1.000000
vn 0.000000 0.000000 -1.000000
vn 0.000000 0.000000 -1.000000
vn 0.000000 0.000000 -1.000000
vn 0.000000 0.000000 -1.000000
vn 0.000000 0.000000 -1.000000
vn 0.000000 0.000000 -1.000000
vn 0.000000 0.000000 -1.000000
vn 0.000000 0.000000 -1.000000
vn 0.000000 0.000000 -1.000000
vn -0.000000 0.000000 -1.000000
vn -0.000000 0.000000 -1.000000
vn -0.000000 0.000000 -1.000000
vn 0.000000 0.000000 -1.000000
vn 0.000000 0.000000 -1.000000
vn 0.000000 0.000000 -1.000000
vn 0.000000 1.000000 0.000000
vn 0.000000 1.000000 0.000000
vn 0.000000 1.000000 0.000000
vn 0.000000 1.000000 0.000000
vn 0.000000 1.000000 0.000000
vn 0.000000 1.000000 0.000000
vn 0.000000 1.000000 0.000000
vn 0.000000 1.000000 0.000000
vn 0.000000 0.000000 -1.000000
vn 0.000000 0.000000 -1.000000
vn 0.000000 0.000000 -1.000000
vn 0.000000 0.000000 -1.000000
vn 0.000000 0.000000 1.000000
vn 0.000000 0.000000 1.000000
vn 0.000000 0.000000 1.000000
vn 0.000000 0.000000 1.000000
vn 0.000000 1.000000 0.000000
vn 0.000000 1.000000 0.000000
vn 0.000000 1.000000 0.000000
vn 0.000000 1.000000 0.000000
vn 0.000000 0.000000 -1.000000
vn 0.000000 0.000000 -1.000000
vn 0.000000 0.000000 -1.000000
vn 0.000000 0.000000 -1.000000
vn 0.000000 -1.000000 0.000000
vn 0.000000 -1.000000 0.000000
vn 0.000000 -1.000000 0.000000
vn 0.000000 -1.000000 0.000000
vn -1.000000 0.000000 0.000000
vn -1.000000 0.000000 0.000000
vn -1.000000 0.000000 0.000000
vn -1.000000 0.000000 0.000000
vn -0.847998 -0.529999 0.000000
vn -0.847998 -0.529999 0.000000
vn -0.886914 -0.461934 0.000000
vn -0.886914 -0.461934 0.000000
vn -0.598289 -0.801280 0.000000
vn -0.598289 -0.801280 0.000000
vn -0.371391 -0.928477 0.000000
vn -0.371391 -0.928477 0.000000
vn -0.196116 -0.980581 0.000000
vn -0.196116 -0.980581 0.000000
vn 0.000000 -1.000000 0.000000
vn 0.000000 -1.000000 0.000000
vn 0.196116 -0.980581 0.000000
vn 0.196116 -0.980581 0.000000
vn 0.371391 -0.928477 0.000000
vn 0.371391 -0.928477 0.000000
vn 0.598289 -0.801280 0.000000
vn 0.598289 -0.801280 0.000000
vn 0.847998 -0.529999 0.000000
vn 0.847998 -0.529999 0.000000
vn 0.886914 -0.461934 0.000000
vn 0.886914 -0.461934 0.000000
vn -0.000000 0.000000 -1.000000
vn 0.000000 0.000000 -1.000000
vn 0.000000 0.000000 -1.000000
vn -0.000000 0.000000 -1.000000
vn -0.000000 0.000000 -1.000000
vn -0.000000 0.000000 -1.000000
vn 0.000000 0.000000 -1.000000
vn 0.000000 0.000000 -1.000000
vn 0.000000 0.000000 -1.000000
vn 0.000000 0.000000 -1.000000
vn -0.000000 0.000000 -1.000000
vn -0.000000 0.000000 -1.000000
vn 0.000000 0.000000 -1.000000
vn -0.000000 0.000000 -1.000000
vn 0.000000 0.000000 -1.000000
vn 0.000000 0.000000 -1.000000
vn 0.000000 0.000000 -1.000000
vn 0.000000 0.000000 -1.000000
vn 0.000000 0.000000 -1.000000
vn 0.000000 0.000000 -1.000000
vn 0.000000 0.000000 -1.000000
vn 0.000000 0.000000 -1.000000
vn 0.598289 0.801280 0.000000
vn 0.847998 0.529999 0.000000
vn 0.847998 0.529999 0.000000
vn 0.598289 0.801280 0.000000
vn -0.863555 -0.504255 0.000000
vn -0.594097 -0.804393 0.000000
vn -0.594097 -0.804393 0.000000
vn -0.863555 -0.504255 0.000000
vn 0.371391 0.928477 0.000000
vn 0.371391 0.928477 0.000000
vn -0.370312 -0.928907 0.000000
vn -0.370312 -0.928907 0.000000
vn 0.196116 0.980581 0.000000
vn 0.196116 0.980581 0.000000
vn -0.196484 -0.980507 0.000000
vn -0.196484 -0.980507 0.000000
vn 0.000000 1.000000 0.000000
vn 0.000000 1.000000 0.000000
vn -0.000000 -1.000000 0.000000
vn -0.000000 -1.000000 0.000000
vn -0.196116 0.980581 0.000000
vn -0.196116 0.980581 0.000000
vn 0.196484 -0.980507 0.000000
vn 0.196484 -0.980507 0.000000
vn -0.371391 0.928477 0.000000
vn -0.371391 0.928477 0.000000
vn 0.370312 -0.928907 0.000000
vn 0.370312 -0.928907 0.000000
vn -0.598289 0.801280 0.000000
vn -0.598289 0.801280 0.000000
vn 0.594097 -0.804393 0.000000
vn 0.594097 -0.804393 0.000000
vn -0.847998 0.529999 0.000000
vn -0.847998 0.529999 0.000000
vn 0.863555 -0.504255 0.000000
vn 0.863555 -0.504255 0.000000
vn -0.886914 0.461934 0.000000
vn -0.886914 0.461934 0.000000
vn 0.889197 -0.457525 0.000000
vn 0.889197 -0.457525 0.000000
vn 0.886914 0.461934 0.000000
vn 0.886914 0.461934 0.000000
vn -0.889197 -0.457525 0.000000
vn -0.889197 -0.457525 0.000000
s off
g polySurface2
usemtl lambert2SG
f 1/1/1 23/94/2 3/102/3
f 7/101/4 2/5/5 25/92/6
f 9/100/7 2/5/8 7/101/9
f 12/99/10 11/9/11 2/5/12 9/100/13
f 14/98/14 11/9/15 12/99/16
f 16/97/17 11/9/18 14/98/19
f 18/96/20 1/1/21 11/9/22 16/97/23
f 20/95/24 1/1/25 18/96/26
f 23/94/27 1/1/28 20/95/29
f 25/92/30 2/5/31 4/14/32
f 32/15/33 26/16/34 27/17/35 33/18/36
f 28/19/37 30/20/38 31/21/39 29/22/40
f 41/23/41 38/90/42 28/19/43 29/22/44
f 30/20/45 35/25/46 36/26/47 31/21/48
f 35/25/49 34/27/50 37/28/51 36/26/52
f 34/27/53 32/15/54 33/18/55 37/28/56
f 40/89/57 39/30/58 38/24/59 41/91/60
f 40/29/61 41/88/62 42/31/63 43/32/64
s 1
f 24/33/65 45/34/66 44/35/67 5/36/68
f 8/37/69 46/38/70 45/34/66 24/33/65
f 10/39/71 47/40/72 46/38/70 8/37/69
f 13/41/73 48/42/74 47/40/72 10/39/71
f 15/43/75 49/44/76 48/42/74 13/41/73
f 17/45/77 50/46/78 49/44/76 15/43/75
f 19/47/79 51/48/80 50/46/78 17/45/77
f 21/49/81 52/50/82 51/48/80 19/47/79
f 22/51/83 53/52/84 52/50/82 21/49/81
f 6/53/85 54/54/86 53/52/84 22/51/83
s 2
f 66/55/87 67/56/88 68/57/89 69/58/90
f 70/59/91 66/55/87 69/58/90 71/60/92
f 72/61/93 70/59/91 71/60/92 73/62/94
f 74/63/95 72/61/93 73/62/94 75/64/96
f 76/65/97 74/63/95 75/64/96 77/66/98
f 78/67/99 76/65/97 77/66/98 79/68/100
f 80/69/101 78/67/99 79/68/100 81/70/102
f 82/71/103 80/69/101 81/70/102 83/72/104
f 84/73/105 82/71/103 83/72/104 85/74/106
f 67/56/88 86/75/107 87/76/108 68/57/89
s 3
f 7/4/109 25/6/110 67/56/111 66/55/112
s 4
f 56/77/113 55/78/114 69/58/115 68/57/116
s 3
f 9/7/117 7/4/109 66/55/112 70/59/118
s 4
f 55/78/114 57/79/119 71/60/120 69/58/115
s 3
f 12/8/121 9/7/117 70/59/118 72/61/122
s 4
f 57/79/119 58/80/123 73/62/124 71/60/120
s 3
f 14/10/125 12/8/121 72/61/122 74/63/126
s 4
f 58/80/123 59/81/127 75/64/128 73/62/124
s 3
f 16/11/129 14/10/125 74/63/126 76/65/130
s 4
f 59/81/127 60/82/131 77/66/132 75/64/128
s 3
f 18/12/133 16/11/129 76/65/130 78/67/134
s 4
f 60/82/131 61/83/135 79/68/136 77/66/132
s 3
f 20/13/137 18/12/133 78/67/134 80/69/138
s 4
f 61/83/135 62/84/139 81/70/140 79/68/136
s 3
f 23/2/141 20/13/137 80/69/138 82/71/142
s 4
f 62/84/139 63/85/143 83/72/144 81/70/140
s 3
f 3/3/145 23/2/141 82/71/142 84/73/146
s 4
f 63/85/143 64/86/147 85/74/148 83/72/144
s 3
f 25/6/110 4/93/149 86/75/150 67/56/111
s 4
f 65/87/151 56/77/113 68/57/116 87/76/152
