# This file uses centimeters as units for non-parametric coordinates.

mtllib side_bridge_level_3.mtl
g default
v -12.500000 0.500000 -6.000000
v 12.500000 0.500000 -6.000000
v -12.500000 -8.000000 -6.000000
v 12.500000 -8.000000 -6.000000
v 12.500000 -8.500000 6.000000
v -12.500000 -8.500000 6.000000
v 9.375000 -2.999999 -6.000000
v 9.375000 -3.499999 6.000000
v 6.250000 -1.499999 -6.000000
v 6.250000 -1.999999 6.000000
v -0.000000 0.500000 -6.000000
v 3.125000 -0.499999 -6.000000
v 3.125000 -0.999999 6.000000
v -0.000000 -0.249999 -6.000000
v -0.000000 -0.749998 6.000000
v -3.125000 -0.499999 -6.000000
v -3.125000 -0.999999 6.000000
v -6.250000 -1.499999 -6.000000
v -6.250000 -1.999999 6.000000
v -9.375000 -2.999999 -6.000000
v -9.375000 -3.499999 6.000000
v -10.937500 -5.500000 6.000000
v -10.937500 -5.000000 -6.000000
v 10.937500 -5.500000 6.000000
v 10.937500 -5.000000 -6.000000
v -12.500000 5.000000 7.500000
v 21.500000 5.000000 7.500000
v -12.500000 5.000000 -7.500000
v 14.500000 5.000000 -7.500000
v -12.500000 5.000000 -5.000000
v 14.500000 5.000000 -5.000000
v -12.500000 5.000000 5.000000
v 21.500000 5.000000 5.000000
v -12.500000 4.000000 5.000000
v -12.500000 4.000000 -5.000000
v 14.500000 4.000000 -5.000000
v 21.500000 4.000000 5.000000
v -12.500000 0.500000 -7.500000
v -12.500000 0.500000 -6.000000
v 12.500000 0.500000 7.500000
v 12.500000 0.500000 -7.500000
v 12.500000 -19.000000 -7.500000
v 12.500000 -19.000000 7.500000
v 12.500000 -8.500000 -5.250000
v 10.937500 -5.500000 -5.250000
v 9.375000 -3.499999 -5.250000
v 6.250000 -1.999999 -5.250000
v 3.125000 -0.999999 -5.250000
v -0.000000 -0.749999 -5.250000
v -3.125000 -0.999999 -5.250000
v -6.250000 -1.999999 -5.250000
v -9.375000 -3.499999 -5.250000
v -10.937500 -5.500000 -5.250000
v -12.500000 -8.500000 -5.250000
v 8.731148 -3.800184 -5.250000
v 10.092978 -5.543326 -5.250000
v 5.879490 -2.431388 -5.250000
v 2.930177 -1.487608 -5.250000
v -0.000000 -1.253194 -5.250000
v -2.930177 -1.487608 -5.250000
v -5.879490 -2.431388 -5.250000
v -8.731148 -3.800184 -5.250000
v -10.092978 -5.543326 -5.250000
v -12.643369 -10.500000 -5.250000
v 12.643369 -10.500000 -5.250000
v 9.375000 -2.999999 -6.500000
v 10.937500 -5.000000 -6.500000
v 10.092978 -5.543326 -6.500000
v 8.731148 -3.800184 -6.500000
v 6.250000 -1.499999 -6.500000
v 5.879490 -2.431388 -6.500000
v 3.125000 -0.499999 -6.500000
v 2.930177 -1.487608 -6.500000
v -0.000000 -0.249999 -6.500000
v -0.000000 -1.253194 -6.500000
v -3.125000 -0.499999 -6.500000
v -2.930177 -1.487608 -6.500000
v -6.250000 -1.499999 -6.500000
v -5.879490 -2.431388 -6.500000
v -9.375000 -2.999999 -6.500000
v -8.731148 -3.800184 -6.500000
v -10.937500 -5.000000 -6.500000
v -10.092978 -5.543326 -6.500000
v -12.500000 -8.000000 -6.500000
v -12.643369 -10.500000 -6.500000
v 12.500000 -8.000000 -6.500000
v 12.643369 -10.500000 -6.500000
v -12.500000 0.500000 -7.500000
v 12.500000 0.500000 -7.500000
v 12.500000 0.500000 -7.500000
v 12.500000 0.500000 -6.000000
vt 0.408148 0.999698
vt 0.837371 0.879051
vt 0.855602 0.879518
vt 0.662270 0.879180
vt 0.000102 1.000000
vt 0.637330 0.879041
vt 0.686578 0.879064
vt 0.711537 0.879296
vt 0.204125 0.999849
vt 0.736793 0.879191
vt 0.761422 0.879296
vt 0.786314 0.879057
vt 0.811767 0.879178
vt 0.000000 0.861265
vt 0.554669 0.589272
vt 0.550424 0.659564
vt 0.000000 0.659563
vt 0.000000 0.640999
vt 0.849251 1.000000
vt 0.549081 0.412756
vt 0.109049 0.387672
vt 0.836747 0.911171
vt 0.115973 0.449807
vt 0.549036 0.559707
vt 0.000000 0.572958
vt 0.246478 0.348879
vt 0.836747 0.887002
vt 0.000000 0.036673
vt 0.246478 0.036673
vt 0.746286 0.000000
vt 0.746286 0.101132
vt 0.715879 0.101132
vt 0.715879 0.000000
vt 0.769101 0.000000
vt 0.769101 0.101132
vt 0.800262 0.000000
vt 0.800262 0.101132
vt 0.829757 0.000000
vt 0.829757 0.101132
vt 0.857939 0.000000
vt 0.857939 0.101132
vt 0.886121 0.000000
vt 0.886121 0.101132
vt 0.915617 0.000000
vt 0.915617 0.101132
vt 0.946778 0.000000
vt 0.946778 0.101132
vt 0.969593 0.000000
vt 0.969593 0.101132
vt 1.000000 0.000000
vt 1.000000 0.101132
vt 0.650690 0.874261
vt 0.637336 0.874017
vt 0.625759 0.863612
vt 0.663029 0.863612
vt 0.675014 0.873990
vt 0.687157 0.863612
vt 0.699980 0.874190
vt 0.712124 0.863612
vt 0.725229 0.874089
vt 0.737372 0.863612
vt 0.749849 0.874190
vt 0.761989 0.863612
vt 0.774749 0.873986
vt 0.786894 0.863613
vt 0.800218 0.874260
vt 0.812163 0.863613
vt 0.825801 0.874024
vt 0.837959 0.863613
vt 0.844091 0.874323
vt 0.874574 0.863613
vt 0.617317 0.874319
vt 0.587416 0.863612
vt 0.637912 0.850073
vt 0.662988 0.849906
vt 0.687161 0.849980
vt 0.712138 0.850028
vt 0.737372 0.850013
vt 0.761977 0.850028
vt 0.786887 0.849985
vt 0.812207 0.849908
vt 0.837947 0.850067
vt 0.874599 0.850204
vt 0.599535 0.850207
vt 0.000000 0.348879
vt 0.025539 0.910211
vt 0.617371 0.879513
vt 0.382578 0.909947
vt 0.357100 0.942609
vt 0.306112 0.967130
vt 0.255119 0.983490
vt 0.204116 0.987608
vt 0.153108 0.983565
vt 0.102090 0.967281
vt 0.051066 0.942836
vt 0.408045 0.860963
vt 0.549081 0.387672
vt 0.408154 1.000000
vt 0.849251 0.912045
vt 0.440828 0.912044
vt 0.428401 0.911171
vt 0.428401 0.887002
vt 0.549036 0.449807
vt 0.554669 0.572958
vt 0.002379 0.559707
vt 0.000000 0.589271
vt 0.550424 0.641000
vt 0.109049 0.412756
vt 0.637902 0.863612
vt 0.599559 0.863612
vt 0.862431 0.863613
vt 0.825816 0.863613
vt 0.800020 0.863613
vt 0.774751 0.863613
vt 0.749846 0.863612
vt 0.725229 0.863612
vt 0.699981 0.863612
vt 0.675014 0.863612
vt 0.650886 0.863612
vt 0.625772 0.874017
vt 0.605752 0.874319
vt 0.855656 0.874323
vt 0.837365 0.874024
vt 0.811782 0.874260
vt 0.786313 0.873986
vt 0.761414 0.874190
vt 0.736793 0.874089
vt 0.711544 0.874190
vt 0.686579 0.873990
vt 0.662255 0.874261
vn 0.000000 0.000000 -1.000000
vn 0.000000 0.000000 -1.000000
vn 0.000000 0.000000 -1.000000
vn 0.000000 0.000000 -1.000000
vn 0.000000 0.000000 -1.000000
vn 0.000000 0.000000 -1.000000
vn 0.000000 0.000000 -1.000000
vn 0.000000 0.000000 -1.000000
vn 0.000000 0.000000 -1.000000
vn 0.000000 0.000000 -1.000000
vn 0.000000 0.000000 -1.000000
vn 0.000000 0.000000 -1.000000
vn 0.000000 0.000000 -1.000000
vn 0.000000 0.000000 -1.000000
vn 0.000000 0.000000 -1.000000
vn 0.000000 0.000000 -1.000000
vn 0.000000 0.000000 -1.000000
vn 0.000000 0.000000 -1.000000
vn 0.000000 0.000000 -1.000000
vn 0.000000 0.000000 -1.000000
vn 0.000000 0.000000 -1.000000
vn 0.000000 0.000000 -1.000000
vn 0.000000 0.000000 -1.000000
vn 0.000000 0.000000 -1.000000
vn 0.000000 0.000000 -1.000000
vn 0.000000 0.000000 -1.000000
vn -0.000000 0.000000 -1.000000
vn -0.000000 0.000000 -1.000000
vn -0.000000 0.000000 -1.000000
vn 0.000000 0.000000 -1.000000
vn 0.000000 0.000000 -1.000000
vn 0.000000 0.000000 -1.000000
vn 0.000000 1.000000 0.000000
vn 0.000000 1.000000 0.000000
vn 0.000000 1.000000 0.000000
vn 0.000000 1.000000 0.000000
vn 0.000000 1.000000 0.000000
vn 0.000000 1.000000 0.000000
vn 0.000000 1.000000 0.000000
vn 0.000000 1.000000 0.000000
vn 0.000000 0.000000 -1.000000
vn 0.000000 0.000000 -1.000000
vn 0.000000 0.000000 -1.000000
vn 0.000000 0.000000 -1.000000
vn 0.000000 1.000000 0.000000
vn 0.000000 1.000000 0.000000
vn 0.000000 1.000000 0.000000
vn 0.000000 1.000000 0.000000
vn 0.000000 0.000000 -1.000000
vn 0.000000 0.000000 -1.000000
vn 0.000000 0.000000 -1.000000
vn 0.000000 0.000000 -1.000000
vn 0.000000 -1.000000 0.000000
vn 0.000000 -1.000000 0.000000
vn 0.000000 -1.000000 0.000000
vn 0.000000 -1.000000 0.000000
vn -1.000000 0.000000 0.000000
vn -1.000000 0.000000 0.000000
vn -1.000000 0.000000 0.000000
vn -1.000000 0.000000 0.000000
vn -0.847998 -0.529999 0.000000
vn -0.847998 -0.529999 0.000000
vn -0.886914 -0.461934 0.000000
vn -0.886914 -0.461934 0.000000
vn -0.598289 -0.801280 0.000000
vn -0.598289 -0.801280 0.000000
vn -0.371391 -0.928477 0.000000
vn -0.371391 -0.928477 0.000000
vn -0.196116 -0.980581 0.000000
vn -0.196116 -0.980581 0.000000
vn 0.000000 -1.000000 0.000000
vn 0.000000 -1.000000 0.000000
vn 0.196116 -0.980581 0.000000
vn 0.196116 -0.980581 0.000000
vn 0.371391 -0.928477 0.000000
vn 0.371391 -0.928477 0.000000
vn 0.598289 -0.801280 0.000000
vn 0.598289 -0.801280 0.000000
vn 0.847998 -0.529999 0.000000
vn 0.847998 -0.529999 0.000000
vn 0.886914 -0.461934 0.000000
vn 0.886914 -0.461934 0.000000
vn -0.000000 0.000000 -1.000000
vn 0.000000 0.000000 -1.000000
vn 0.000000 0.000000 -1.000000
vn -0.000000 0.000000 -1.000000
vn -0.000000 0.000000 -1.000000
vn -0.000000 0.000000 -1.000000
vn 0.000000 0.000000 -1.000000
vn 0.000000 0.000000 -1.000000
vn 0.000000 0.000000 -1.000000
vn 0.000000 0.000000 -1.000000
vn -0.000000 0.000000 -1.000000
vn -0.000000 0.000000 -1.000000
vn 0.000000 0.000000 -1.000000
vn -0.000000 0.000000 -1.000000
vn 0.000000 0.000000 -1.000000
vn 0.000000 0.000000 -1.000000
vn 0.000000 0.000000 -1.000000
vn 0.000000 0.000000 -1.000000
vn 0.000000 0.000000 -1.000000
vn 0.000000 0.000000 -1.000000
vn 0.000000 0.000000 -1.000000
vn 0.000000 0.000000 -1.000000
vn 0.598289 0.801280 0.000000
vn 0.847998 0.529999 0.000000
vn 0.847998 0.529999 0.000000
vn 0.598289 0.801280 0.000000
vn -0.863555 -0.504255 0.000000
vn -0.594097 -0.804393 0.000000
vn -0.594097 -0.804393 0.000000
vn -0.863555 -0.504255 0.000000
vn 0.371391 0.928477 0.000000
vn 0.371391 0.928477 0.000000
vn -0.370312 -0.928907 0.000000
vn -0.370312 -0.928907 0.000000
vn 0.196116 0.980581 0.000000
vn 0.196116 0.980581 0.000000
vn -0.196484 -0.980507 0.000000
vn -0.196484 -0.980507 0.000000
vn 0.000000 1.000000 0.000000
vn 0.000000 1.000000 0.000000
vn -0.000000 -1.000000 0.000000
vn -0.000000 -1.000000 0.000000
vn -0.196116 0.980581 0.000000
vn -0.196116 0.980581 0.000000
vn 0.196484 -0.980507 0.000000
vn 0.196484 -0.980507 0.000000
vn -0.371391 0.928477 0.000000
vn -0.371391 0.928477 0.000000
vn 0.370312 -0.928907 0.000000
vn 0.370312 -0.928907 0.000000
vn -0.598289 0.801280 0.000000
vn -0.598289 0.801280 0.000000
vn 0.594097 -0.804393 0.000000
vn 0.594097 -0.804393 0.000000
vn -0.847998 0.529999 0.000000
vn -0.847998 0.529999 0.000000
vn 0.863555 -0.504255 0.000000
vn 0.863555 -0.504255 0.000000
vn -0.886914 0.461934 0.000000
vn -0.886914 0.461934 0.000000
vn 0.889197 -0.457525 0.000000
vn 0.889197 -0.457525 0.000000
vn 0.886914 0.461934 0.000000
vn 0.886914 0.461934 0.000000
vn -0.889197 -0.457525 0.000000
vn -0.889197 -0.457525 0.000000
s off
g polySurface2
usemtl initialShadingGroup
f 1/1/1 23/88/2 3/96/3
f 7/95/4 2/5/5 25/86/6
f 9/94/7 2/5/8 7/95/9
f 12/93/10 11/9/11 2/5/12 9/94/13
f 14/92/14 11/9/15 12/93/16
f 16/91/17 11/9/18 14/92/19
f 18/90/20 1/1/21 11/9/22 16/91/23
f 20/89/24 1/1/25 18/90/26
f 23/88/27 1/1/28 20/89/29
f 25/86/30 2/5/31 4/14/32
f 32/107/33 26/16/34 27/17/35 33/18/36
f 28/97/37 30/20/38 31/108/39 29/21/40
f 89/100/41 88/99/42 28/19/43 29/98/44
f 35/103/45 34/24/46 37/105/47 36/23/48
f 34/104/49 32/15/50 33/106/51 37/25/52
f 91/102/53 39/27/54 38/22/55 90/101/56
f 40/26/57 41/85/58 42/28/59 43/29/60
s 1
f 24/30/61 45/31/62 44/32/63 5/33/64
f 8/34/65 46/35/66 45/31/62 24/30/61
f 10/36/67 47/37/68 46/35/66 8/34/65
f 13/38/69 48/39/70 47/37/68 10/36/67
f 15/40/71 49/41/72 48/39/70 13/38/69
f 17/42/73 50/43/74 49/41/72 15/40/71
f 19/44/75 51/45/76 50/43/74 17/42/73
f 21/46/77 52/47/78 51/45/76 19/44/75
f 22/48/79 53/49/80 52/47/78 21/46/77
f 6/50/81 54/51/82 53/49/80 22/48/79
s 2
f 66/52/83 67/120/84 68/54/85 69/119/86
f 70/56/87 66/52/83 69/119/86 71/118/88
f 72/58/89 70/56/87 71/118/88 73/117/90
f 74/60/91 72/58/89 73/117/90 75/116/92
f 76/62/93 74/60/91 75/116/92 77/115/94
f 78/64/95 76/62/93 77/115/94 79/114/96
f 80/66/97 78/64/95 79/114/96 81/113/98
f 82/68/99 80/66/97 81/113/98 83/112/100
f 84/70/101 82/68/99 83/112/100 85/111/102
f 67/120/84 86/121/103 87/73/104 68/54/85
s 3
f 7/4/105 25/6/106 67/53/107 66/130/108
s 4
f 56/74/109 55/75/110 69/55/111 68/109/112
s 3
f 9/7/113 7/4/105 66/130/108 70/129/114
s 4
f 55/75/110 57/76/115 71/57/116 69/55/111
s 3
f 12/8/117 9/7/113 70/129/114 72/128/118
s 4
f 57/76/115 58/77/119 73/59/120 71/57/116
s 3
f 14/10/121 12/8/117 72/128/118 74/127/122
s 4
f 58/77/119 59/78/123 75/61/124 73/59/120
s 3
f 16/11/125 14/10/121 74/127/122 76/126/126
s 4
f 59/78/123 60/79/127 77/63/128 75/61/124
s 3
f 18/12/129 16/11/125 76/126/126 78/125/130
s 4
f 60/79/127 61/80/131 79/65/132 77/63/128
s 3
f 20/13/133 18/12/129 78/125/130 80/124/134
s 4
f 61/80/131 62/81/135 81/67/136 79/65/132
s 3
f 23/2/137 20/13/133 80/124/134 82/123/138
s 4
f 62/81/135 63/82/139 83/69/140 81/67/136
s 3
f 3/3/141 23/2/137 82/123/138 84/122/142
s 4
f 63/82/139 64/83/143 85/71/144 83/69/140
s 3
f 25/6/106 4/87/145 86/72/146 67/53/107
s 4
f 65/84/147 56/74/109 68/109/112 87/110/148
