# This file uses centimeters as units for non-parametric coordinates.

mtllib top_platform.mtl
g default
v -11.250000 0.000000 3.000000
v 11.250000 0.000000 3.000000
v -11.250000 0.000000 -3.000000
v 11.250000 0.000000 -3.000000
v -3.750000 4.500000 3.000000
v -3.750000 4.500000 -3.000000
v -3.750000 0.000000 -3.000000
v -3.750000 0.000000 3.000000
v 11.250000 1.000000 3.000000
v -3.750000 1.000000 3.000000
v -11.250000 1.000000 3.000000
v -11.250000 1.000000 -3.000000
v -3.750000 1.000000 -3.000000
v 11.250000 1.000000 -3.000000
v 3.750000 4.500000 3.000000
v 3.750000 4.500000 -3.000000
v 3.750000 1.000000 -3.000000
v 3.750000 0.000000 -3.000000
v 3.750000 0.000000 3.000000
v 3.750000 1.000000 3.000000
v -3.750000 0.666667 3.000000
v -11.250000 0.666667 3.000000
v -11.250000 0.666667 -3.000000
v -3.750000 0.666667 -3.000000
v 3.750000 0.666667 -3.000000
v 11.250000 0.666667 -3.000000
v 11.250000 0.666667 3.000000
v 3.750000 0.666667 3.000000
v -3.750000 0.333333 3.000000
v -11.250000 0.333333 3.000000
v -11.250000 0.333333 -3.000000
v -3.750000 0.333333 -3.000000
v 3.750000 0.333333 -3.000000
v 11.250000 0.333333 -3.000000
v 11.250000 0.333333 3.000000
v 3.750000 0.333333 3.000000
v -3.750000 4.181818 3.000000
v -3.750000 4.181818 -3.000000
v 3.750000 4.181818 -3.000000
v 3.750000 4.181818 3.000000
v -3.750000 1.318182 3.000000
v -3.750000 1.318182 -3.000000
v 3.750000 1.318182 -3.000000
v 3.750000 1.318182 3.000000
v -3.750000 0.333333 2.800000
v -11.050000 0.333333 2.800000
v -3.750000 0.666667 2.800000
v -11.050000 0.666667 2.800000
v -11.050000 0.333333 -2.800000
v -11.050000 0.666667 -2.800000
v -3.750000 0.666667 -2.800000
v -3.750000 0.333333 -2.800000
v 3.750000 0.333333 -2.800000
v 3.750000 0.666667 -2.800000
v 11.050000 0.333333 -2.800000
v 11.050000 0.666667 -2.800000
v 11.050000 0.333333 2.800000
v 11.050000 0.666667 2.800000
v 3.750000 0.333333 2.800000
v 3.750000 0.666667 2.800000
v -3.550000 1.318182 2.800000
v -3.550000 1.318182 -2.800000
v -3.550000 4.181818 2.800000
v -3.550000 4.181818 -2.800000
v 3.550000 1.318182 -2.800000
v 3.550000 4.181818 -2.800000
v 3.550000 1.318182 2.800000
v 3.550000 4.181818 2.800000
vt 0.400990 0.331342
vt 0.400990 0.001992
vt 0.425386 0.001992
vt 0.425386 0.331342
vt 0.432117 0.331341
vt 0.432117 0.001992
vt 0.456513 0.001992
vt 0.456513 0.331341
vt 0.712197 0.331342
vt 0.688910 0.331342
vt 0.688910 0.001992
vt 0.712197 0.001992
vt 0.860048 0.331341
vt 0.836761 0.331341
vt 0.836761 0.001992
vt 0.860048 0.001992
vt 0.971794 0.664675
vt 0.971794 0.335326
vt 0.996191 0.335326
vt 0.996191 0.664675
vt 0.941274 0.664676
vt 0.941274 0.335326
vt 0.965671 0.335326
vt 0.965671 0.664676
vt 0.181160 0.976052
vt 0.181160 0.668659
vt 0.205556 0.668659
vt 0.205556 0.976052
vt 0.212287 0.976052
vt 0.212287 0.668659
vt 0.236683 0.668659
vt 0.236683 0.976052
vt 0.935150 0.664675
vt 0.911863 0.664675
vt 0.911863 0.335326
vt 0.935150 0.335326
vt 0.905739 0.664676
vt 0.882452 0.664676
vt 0.882452 0.335326
vt 0.905739 0.335326
vt 0.243413 0.976052
vt 0.243413 0.668659
vt 0.452999 0.668659
vt 0.452999 0.976052
vt 0.668938 0.976054
vt 0.459353 0.976054
vt 0.459353 0.668662
vt 0.668938 0.668662
vt 0.064436 0.001992
vt 0.174219 0.001992
vt 0.174219 0.331341
vt 0.064436 0.331341
vt 0.284002 0.001992
vt 0.284002 0.331341
vt 0.393785 0.001992
vt 0.393785 0.331341
vt 0.463243 0.001992
vt 0.573027 0.001992
vt 0.573027 0.331342
vt 0.463243 0.331342
vt 0.720037 0.001992
vt 0.829820 0.001992
vt 0.829820 0.331342
vt 0.720037 0.331342
vt 0.977670 0.331342
vt 0.867887 0.331342
vt 0.867887 0.001992
vt 0.977670 0.001992
vt 0.546979 0.335328
vt 0.656762 0.335328
vt 0.656762 0.346306
vt 0.549906 0.346306
vt 0.766545 0.335328
vt 0.766545 0.346306
vt 0.546979 0.664678
vt 0.549906 0.653699
vt 0.876328 0.335328
vt 0.873400 0.346306
vt 0.656762 0.664678
vt 0.656762 0.653699
vt 0.876328 0.664678
vt 0.873400 0.653699
vt 0.766545 0.664678
vt 0.766545 0.653699
vt 0.321289 0.664675
vt 0.211506 0.664675
vt 0.214434 0.653697
vt 0.321289 0.653697
vt 0.211506 0.335326
vt 0.214434 0.346304
vt 0.431072 0.664675
vt 0.431072 0.653697
vt 0.321289 0.335326
vt 0.321289 0.346304
vt 0.540855 0.664675
vt 0.537928 0.653697
vt 0.431072 0.335326
vt 0.431072 0.346304
vt 0.540855 0.335326
vt 0.537928 0.346304
vt 0.095599 0.664675
vt 0.095599 0.335325
vt 0.098526 0.346304
vt 0.098526 0.653696
vt 0.205382 0.335325
vt 0.202454 0.346304
vt 0.205382 0.664675
vt 0.202454 0.653696
vt 0.001988 0.998008
vt 0.001988 0.668659
vt 0.004916 0.679637
vt 0.004916 0.987030
vt 0.111771 0.668659
vt 0.108844 0.679637
vt 0.111771 0.998008
vt 0.108844 0.987030
vt 0.001988 0.331341
vt 0.001988 0.221558
vt 0.026384 0.221558
vt 0.026384 0.331341
vt 0.026384 0.111775
vt 0.001988 0.111775
vt 0.001988 0.001992
vt 0.026384 0.001992
vt 0.033309 0.331343
vt 0.033309 0.221559
vt 0.057707 0.221559
vt 0.057707 0.331343
vt 0.033309 0.111776
vt 0.057707 0.111776
vt 0.033309 0.001993
vt 0.057707 0.001993
vt 0.627651 0.111775
vt 0.627651 0.221558
vt 0.604364 0.221558
vt 0.604364 0.111775
vt 0.579968 0.221558
vt 0.579968 0.111775
vt 0.579968 0.331341
vt 0.604364 0.331341
vt 0.579968 0.001992
vt 0.604364 0.001992
vt 0.657727 0.111776
vt 0.657727 0.221559
vt 0.634439 0.221559
vt 0.634439 0.111776
vt 0.682122 0.111776
vt 0.682122 0.221559
vt 0.657727 0.331343
vt 0.682122 0.331343
vt 0.682122 0.001993
vt 0.657727 0.001993
vt 0.118907 0.992153
vt 0.118907 0.885297
vt 0.143303 0.885297
vt 0.143303 0.992153
vt 0.143303 0.775514
vt 0.118907 0.775514
vt 0.118907 0.668659
vt 0.143303 0.668659
vt 0.150034 0.992156
vt 0.150034 0.885300
vt 0.174429 0.885300
vt 0.174429 0.992156
vt 0.174429 0.775517
vt 0.150034 0.775517
vt 0.174429 0.668661
vt 0.150034 0.668661
vt 0.920356 0.668661
vt 0.920356 0.778444
vt 0.897069 0.778444
vt 0.897069 0.668661
vt 0.951482 0.778443
vt 0.928195 0.778443
vt 0.928195 0.668660
vt 0.951482 0.668660
vt 0.779220 0.878249
vt 0.675292 0.878249
vt 0.675292 0.668663
vt 0.779220 0.668663
vt 0.786180 0.878247
vt 0.786180 0.668662
vt 0.890108 0.668662
vt 0.890108 0.878247
vn 0.000000 0.000000 1.000000
vn 0.000000 0.000000 1.000000
vn 0.000000 0.000000 1.000000
vn 0.000000 0.000000 1.000000
vn 0.000000 0.000000 -1.000000
vn 0.000000 0.000000 -1.000000
vn 0.000000 0.000000 -1.000000
vn 0.000000 0.000000 -1.000000
vn 0.000000 -1.000000 0.000000
vn 0.000000 -1.000000 0.000000
vn 0.000000 -1.000000 0.000000
vn 0.000000 -1.000000 0.000000
vn 1.000000 0.000000 0.000000
vn 1.000000 0.000000 0.000000
vn 1.000000 0.000000 0.000000
vn 1.000000 0.000000 0.000000
vn -1.000000 0.000000 0.000000
vn -1.000000 0.000000 0.000000
vn -1.000000 0.000000 0.000000
vn -1.000000 0.000000 0.000000
vn 0.000000 1.000000 0.000000
vn 0.000000 1.000000 0.000000
vn 0.000000 1.000000 0.000000
vn 0.000000 1.000000 0.000000
vn 0.000000 0.000000 -1.000000
vn 0.000000 0.000000 -1.000000
vn 0.000000 -1.000000 0.000000
vn 0.000000 -1.000000 0.000000
vn 0.000000 0.000000 1.000000
vn 0.000000 0.000000 1.000000
vn 0.000000 0.000000 1.000000
vn 0.000000 0.000000 1.000000
vn 0.000000 0.000000 1.000000
vn 0.000000 0.000000 1.000000
vn 0.000000 0.000000 -1.000000
vn 0.000000 0.000000 -1.000000
vn 0.000000 0.000000 -1.000000
vn 0.000000 0.000000 -1.000000
vn 0.000000 0.000000 -1.000000
vn 0.000000 0.000000 -1.000000
vn 0.000000 -1.000000 0.000000
vn 0.000000 -1.000000 0.000000
vn 0.000000 0.000000 1.000000
vn 0.000000 0.000000 1.000000
vn 1.000000 0.000000 0.000000
vn 1.000000 0.000000 0.000000
vn 1.000000 0.000000 0.000000
vn 1.000000 0.000000 0.000000
vn 0.000000 1.000000 0.000000
vn 0.000000 1.000000 0.000000
vn 0.000000 1.000000 0.000000
vn 0.000000 1.000000 0.000000
vn -1.000000 0.000000 0.000000
vn -1.000000 0.000000 0.000000
vn -1.000000 0.000000 0.000000
vn -1.000000 0.000000 0.000000
vn 0.000000 1.000000 0.000000
vn 0.000000 1.000000 0.000000
vn 0.000000 1.000000 0.000000
vn 0.000000 1.000000 0.000000
vn 0.000000 0.000000 1.000000
vn 0.000000 0.000000 1.000000
vn 0.000000 0.000000 1.000000
vn -1.000000 0.000000 0.000000
vn -1.000000 0.000000 0.000000
vn -1.000000 0.000000 0.000000
vn -1.000000 0.000000 0.000000
vn 0.000000 0.000000 -1.000000
vn 0.000000 0.000000 -1.000000
vn 0.000000 0.000000 -1.000000
vn 0.000000 0.000000 -1.000000
vn 0.000000 0.000000 -1.000000
vn 0.000000 0.000000 -1.000000
vn 1.000000 0.000000 0.000000
vn 1.000000 0.000000 0.000000
vn 1.000000 0.000000 0.000000
vn 1.000000 0.000000 0.000000
vn 0.000000 0.000000 1.000000
vn 0.000000 0.000000 1.000000
vn 0.000000 0.000000 1.000000
vn 0.000000 0.000000 1.000000
vn 0.000000 0.000000 1.000000
vn 0.000000 0.000000 1.000000
vn 0.000000 0.000000 1.000000
vn -1.000000 0.000000 0.000000
vn -1.000000 0.000000 0.000000
vn -1.000000 0.000000 0.000000
vn -1.000000 0.000000 0.000000
vn 0.000000 0.000000 -1.000000
vn 0.000000 0.000000 -1.000000
vn 0.000000 0.000000 -1.000000
vn 0.000000 0.000000 -1.000000
vn -0.000000 0.000000 -1.000000
vn -0.000000 0.000000 -1.000000
vn -0.000000 0.000000 -1.000000
vn -0.000000 0.000000 -1.000000
vn 1.000000 0.000000 0.000000
vn 1.000000 0.000000 0.000000
vn 1.000000 0.000000 0.000000
vn 1.000000 0.000000 0.000000
vn -0.000000 0.000000 1.000000
vn -0.000000 0.000000 1.000000
vn -0.000000 0.000000 1.000000
vn -0.000000 0.000000 1.000000
vn -1.000000 0.000000 0.000000
vn -1.000000 0.000000 0.000000
vn -1.000000 0.000000 0.000000
vn -1.000000 0.000000 0.000000
vn 0.000000 0.000000 -1.000000
vn 0.000000 0.000000 -1.000000
vn 0.000000 0.000000 -1.000000
vn 0.000000 0.000000 -1.000000
vn 1.000000 0.000000 0.000000
vn 1.000000 0.000000 0.000000
vn 1.000000 0.000000 0.000000
vn 1.000000 0.000000 0.000000
vn 0.000000 0.000000 1.000000
vn 0.000000 0.000000 1.000000
vn 0.000000 0.000000 1.000000
vn 0.000000 0.000000 1.000000
vn -1.000000 0.000000 0.000000
vn -1.000000 0.000000 0.000000
vn -1.000000 0.000000 0.000000
vn -1.000000 0.000000 0.000000
vn 0.000000 0.000000 -1.000000
vn 0.000000 0.000000 -1.000000
vn 0.000000 0.000000 -1.000000
vn 0.000000 0.000000 -1.000000
vn 1.000000 0.000000 0.000000
vn 1.000000 0.000000 0.000000
vn 1.000000 0.000000 0.000000
vn 1.000000 0.000000 0.000000
vn 0.000000 0.000000 1.000000
vn 0.000000 0.000000 1.000000
vn 0.000000 0.000000 1.000000
vn 0.000000 0.000000 1.000000
vn 0.000000 1.000000 -0.000000
vn 0.000000 1.000000 -0.000000
vn 0.000000 1.000000 -0.000000
vn 0.000000 1.000000 -0.000000
vn 0.000000 -1.000000 0.000000
vn 0.000000 -1.000000 0.000000
vn 0.000000 -1.000000 0.000000
vn 0.000000 -1.000000 0.000000
vn 0.000000 1.000000 0.000000
vn 0.000000 1.000000 0.000000
vn 0.000000 -1.000000 -0.000000
vn 0.000000 -1.000000 -0.000000
vn 0.000000 -1.000000 -0.000000
vn 0.000000 -1.000000 -0.000000
vn 0.000000 1.000000 0.000000
vn 0.000000 1.000000 0.000000
vn 0.000000 1.000000 0.000000
vn 0.000000 1.000000 0.000000
vn 0.000000 -1.000000 0.000000
vn 0.000000 -1.000000 0.000000
vn 0.000000 1.000000 0.000000
vn 0.000000 1.000000 0.000000
vn 0.000000 -1.000000 0.000000
vn 0.000000 -1.000000 0.000000
vn 0.000000 1.000000 0.000000
vn 0.000000 1.000000 0.000000
vn 0.000000 -1.000000 0.000000
vn 0.000000 -1.000000 0.000000
vn 0.000000 1.000000 0.000000
vn 0.000000 1.000000 0.000000
vn 0.000000 -1.000000 0.000000
vn 0.000000 -1.000000 0.000000
vn 0.000000 1.000000 -0.000000
vn 0.000000 1.000000 0.000000
vn 0.000000 1.000000 0.000000
vn 0.000000 1.000000 -0.000000
vn 0.000000 -1.000000 0.000000
vn 0.000000 -1.000000 -0.000000
vn 0.000000 -1.000000 -0.000000
vn 0.000000 -1.000000 0.000000
vn 0.000000 1.000000 -0.000000
vn 0.000000 1.000000 -0.000000
vn 0.000000 -1.000000 -0.000000
vn 0.000000 -1.000000 -0.000000
vn 0.000000 1.000000 0.000000
vn 0.000000 1.000000 0.000000
vn 0.000000 -1.000000 0.000000
vn 0.000000 -1.000000 0.000000
s 1
g pCube1
usemtl initialShadingGroup
f 1/117/1 8/118/2 29/119/3 30/120/4
s 2
f 31/125/5 32/126/6 7/127/7 3/128/8
s 3
f 3/49/9 7/50/10 8/51/11 1/52/12
s off
f 2/1/13 4/2/14 34/3/15 35/4/16
f 3/5/17 1/6/18 30/7/19 31/8/20
f 5/57/21 15/58/22 16/59/23 6/60/24
s 2
f 7/127/7 32/126/6 33/129/25 18/130/26
s 3
f 8/51/11 7/50/10 18/53/27 19/54/28
s 1
f 36/121/29 29/119/3 8/118/2 19/122/30
s 4
f 44/133/31 41/134/32 10/135/33 20/136/34
s 5
f 17/143/35 13/144/36 42/145/37 43/146/38
s 2
f 18/130/26 33/129/25 34/131/39 4/132/40
s 3
f 19/54/28 18/53/27 4/55/41 2/56/42
s 1
f 36/121/29 19/122/30 2/123/43 35/124/44
s off
f 44/9/45 20/10/46 17/11/47 43/12/48
f 20/61/49 9/62/50 14/63/51 17/64/52
f 42/13/53 13/14/54 10/15/55 41/16/56
f 13/65/57 12/66/58 11/67/59 10/68/60
s 4
f 22/139/61 21/137/62 10/135/33 11/140/63
s off
f 23/17/64 22/18/65 11/19/66 12/20/67
s 5
f 12/149/68 13/144/36 24/148/69 23/150/70
f 25/147/71 24/148/69 13/144/36 17/143/35
f 26/151/72 25/147/71 17/143/35 14/152/73
s off
f 27/21/74 26/22/75 14/23/76 9/24/77
s 4
f 20/136/34 28/138/78 27/141/79 9/142/80
f 10/135/33 21/137/62 28/138/78 20/136/34
s 6
f 46/153/81 45/154/82 47/155/83 48/156/84
s off
f 49/25/85 46/26/86 48/27/87 50/28/88
s 7
f 50/161/89 51/162/90 52/163/91 49/164/92
f 53/165/93 52/163/91 51/162/90 54/166/94
f 55/167/95 53/165/93 54/166/94 56/168/96
s off
f 57/29/97 55/30/98 56/31/99 58/32/100
s 6
f 60/157/101 59/158/102 57/159/103 58/160/104
f 60/157/101 47/155/83 45/154/82 59/158/102
s off
f 6/33/105 38/34/106 37/35/107 5/36/108
f 39/169/109 38/170/110 6/171/111 16/172/112
f 15/37/113 40/38/114 39/39/115 16/40/116
f 5/173/117 37/174/118 40/175/119 15/176/120
f 62/41/121 61/42/122 63/43/123 64/44/124
f 65/177/125 62/178/126 64/179/127 66/180/128
f 68/45/129 67/46/130 65/47/131 66/48/132
f 63/181/133 61/182/134 67/183/135 68/184/136
s 8
f 30/69/137 29/70/138 45/71/139 46/72/140
s 9
f 21/85/141 22/86/142 48/87/143 47/88/144
s 8
f 31/75/145 30/69/137 46/72/140 49/76/146
s 9
f 22/86/142 23/89/147 50/90/148 48/87/143
f 23/89/147 24/93/149 51/94/150 50/90/148
s 8
f 32/79/151 31/75/145 49/76/146 52/80/152
f 33/83/153 32/79/151 52/80/152 53/84/154
s 9
f 24/93/149 25/97/155 54/98/156 51/94/150
s 8
f 34/81/157 33/83/153 53/84/154 55/82/158
s 9
f 25/97/155 26/99/159 56/100/160 54/98/156
s 8
f 35/77/161 34/81/157 55/82/158 57/78/162
s 9
f 26/99/159 27/95/163 58/96/164 56/100/160
s 8
f 36/73/165 35/77/161 57/78/162 59/74/166
s 9
f 27/95/163 28/91/167 60/92/168 58/96/164
f 28/91/167 21/85/141 47/88/144 60/92/168
s 8
f 29/70/138 36/73/165 59/74/166 45/71/139
s 10
f 42/101/169 41/102/170 61/103/171 62/104/172
s 11
f 37/109/173 38/110/174 64/111/175 63/112/176
s 10
f 43/107/177 42/101/169 62/104/172 65/108/178
s 11
f 38/110/174 39/113/179 66/114/180 64/111/175
s 10
f 44/105/181 43/107/177 65/108/178 67/106/182
s 11
f 39/113/179 40/115/183 68/116/184 66/114/180
s 10
f 41/102/170 44/105/181 67/106/182 61/103/171
s 11
f 40/115/183 37/109/173 63/112/176 68/116/184
