# This file uses centimeters as units for non-parametric coordinates.

mtllib tower_side_platform.mtl
g default
v -4.000000 -1.000000 3.000000
v 4.000000 -1.000000 3.000000
v -4.000000 -1.000000 -3.000000
v 4.000000 -1.000000 -3.000000
v -4.000000 0.166667 3.000000
v -4.000000 0.166667 -3.000000
v 4.000000 0.166667 -3.000000
v 4.000000 0.166667 3.000000
v -3.800000 -0.666667 2.800000
v -3.800000 -0.666667 -2.800000
v -3.800000 0.166667 2.800000
v -3.800000 0.166667 -2.800000
v 3.800000 0.166667 -2.800000
v 3.800000 -0.666667 -2.800000
v 3.800000 -0.666667 2.800000
v 3.800000 0.166667 2.800000
v -3.933340 0.500000 2.933340
v -4.000000 0.433340 3.000000
v 3.933340 0.500000 2.933340
v 4.000000 0.433340 3.000000
v -3.933340 0.500000 -2.933340
v -4.000000 0.433340 -3.000000
v 3.933340 0.500000 -2.933340
v 4.000000 0.433340 -3.000000
v -4.000000 -0.733327 3.000000
v -3.933340 -0.666667 2.933340
v -4.000000 -0.733327 -3.000000
v -3.933340 -0.666667 -2.933340
v 4.000000 -0.733327 -3.000000
v 3.933340 -0.666667 -2.933340
v 4.000000 -0.733327 3.000000
v 3.933340 -0.666667 2.933340
vt 0.807625 0.502801
vt 0.737978 0.362568
vt 0.361964 0.388029
vt 0.386277 0.856319
vt 0.635670 0.834373
vt 0.587633 0.362568
vt 0.487873 0.362568
vt 0.613723 0.644833
vt 0.619709 0.850334
vt 0.629685 0.660795
vt 0.380291 0.650819
vt 0.370315 0.840358
vt 0.807625 0.596563
vt 0.997403 0.596563
vt 0.997403 0.502801
vt 0.364330 0.834373
vt 0.262434 0.362568
vt 0.487873 0.388029
vt 0.364330 0.666780
vt 0.587633 0.388029
vt 0.262434 0.388029
vt 0.737978 0.388029
vt 0.635670 0.666780
vt 0.613724 0.856319
vt 0.386276 0.644833
vt 0.361964 0.362568
vt 0.379294 0.659797
vt 0.382286 0.662790
vt 0.379294 0.841355
vt 0.620706 0.659797
vt 0.382286 0.838363
vt 0.620706 0.841355
vt 0.347164 0.580983
vt 0.003815 0.580983
vt 0.801150 0.575588
vt 0.801148 0.531996
vt 0.347164 0.537390
vt 0.003815 0.537390
vt 0.801150 0.560328
vt 0.343350 0.575588
vt 0.617714 0.662790
vt 0.617714 0.838363
vt 0.343349 0.531996
vt 0.801148 0.516735
vt 0.000000 0.516735
vt 0.343349 0.516735
vt 0.000000 0.531996
vt 0.000000 0.560328
vt 0.343350 0.560328
vt 0.000000 0.575588
vt 0.370315 0.660795
vt 0.380291 0.850334
vt 0.629685 0.840358
vt 0.619709 0.650819
vt 0.331905 0.588613
vt 0.011445 0.588613
vt 0.797334 0.537390
vt 0.789703 0.545021
vt 0.354794 0.545021
vt 0.331904 0.545021
vt 0.011445 0.545021
vt 0.797335 0.580983
vt 0.789705 0.588613
vt 0.354795 0.588613
vt 0.339535 0.537390
vt 0.339535 0.580983
vn 0.000000 -1.000000 0.000000
vn 0.000000 -1.000000 0.000000
vn 0.000000 -1.000000 0.000000
vn 0.000000 -1.000000 0.000000
vn -1.000000 0.000000 0.000000
vn -1.000000 0.000000 0.000000
vn -1.000000 0.000000 0.000000
vn -1.000000 0.000000 0.000000
vn 0.000000 0.000000 -1.000000
vn 0.000000 0.000000 -1.000000
vn 0.000000 0.000000 -1.000000
vn 0.000000 0.000000 -1.000000
vn 1.000000 0.000000 0.000000
vn 1.000000 0.000000 0.000000
vn 1.000000 0.000000 0.000000
vn 1.000000 0.000000 0.000000
vn 0.000000 0.000000 1.000000
vn 0.000000 0.000000 1.000000
vn 0.000000 0.000000 1.000000
vn 0.000000 0.000000 1.000000
vn 0.000000 -1.000000 0.000000
vn 0.000000 -1.000000 -0.000000
vn 0.000000 -1.000000 -0.000000
vn 0.000000 -1.000000 0.000000
vn 0.000000 -1.000000 -0.000000
vn 0.000000 -1.000000 -0.000000
vn 0.000000 -1.000000 0.000000
vn 0.000000 -1.000000 0.000000
vn -0.011602 0.999812 0.015513
vn 0.000000 0.129897 0.991528
vn 0.000000 0.129897 0.991528
vn 0.011602 0.999812 0.015513
vn -0.991568 0.129587 0.000000
vn -0.011602 0.999812 -0.015513
vn -0.991568 0.129587 0.000000
vn 0.991568 0.129587 0.000000
vn 0.991568 0.129587 0.000000
vn 0.011602 0.999812 -0.015513
vn 0.000000 0.129897 -0.991528
vn 0.000000 0.129897 -0.991528
vn -0.707106 0.707108 0.000000
vn -0.707106 0.707108 0.000000
vn -0.707106 0.707108 0.000000
vn -0.707106 0.707108 0.000000
vn 0.000000 0.707107 0.707107
vn 0.000000 0.707107 0.707107
vn 0.000000 0.707107 0.707107
vn 0.000000 0.707107 0.707107
vn 0.000000 0.707107 -0.707107
vn 0.000000 0.707107 -0.707107
vn 0.000000 0.707107 -0.707107
vn 0.000000 0.707107 -0.707107
vn 0.707106 0.707108 0.000000
vn 0.707106 0.707108 0.000000
vn 0.707106 0.707108 0.000000
vn 0.707106 0.707108 0.000000
vn 0.000000 0.000000 1.000000
vn 0.000000 0.000000 1.000000
vn 0.000000 0.000000 1.000000
vn 0.000000 0.000000 1.000000
vn 0.000000 0.000000 -1.000000
vn 0.000000 0.000000 -1.000000
vn 0.000000 0.000000 -1.000000
vn 0.000000 0.000000 -1.000000
vn 1.000000 0.000000 0.000000
vn 1.000000 0.000000 0.000000
vn 1.000000 0.000000 0.000000
vn 1.000000 0.000000 0.000000
vn -1.000000 0.000000 0.000000
vn -1.000000 0.000000 0.000000
vn -1.000000 0.000000 0.000000
vn -1.000000 0.000000 0.000000
vn -1.000000 0.000000 0.000000
vn -1.000000 0.000000 0.000000
vn 0.000000 0.000000 -1.000000
vn 0.000000 0.000000 -1.000000
vn 1.000000 0.000000 0.000000
vn 1.000000 0.000000 0.000000
vn 0.000000 0.000000 1.000000
vn 0.000000 0.000000 1.000000
vn 0.000000 1.000000 0.000000
vn 0.000000 1.000000 0.000000
vn 0.000000 1.000000 0.000000
vn 0.000000 1.000000 0.000000
vn 0.000000 1.000000 0.000000
vn 0.000000 1.000000 0.000000
vn 0.000000 1.000000 0.000000
vn 0.000000 1.000000 0.000000
s off
g pCube1
usemtl standardSurface2SG
f 3/14/1 4/13/2 2/1/3 1/15/4
f 10/17/5 9/26/6 11/3/7 12/21/8
f 12/22/9 13/20/10 14/6/11 10/2/12
f 15/7/13 14/6/14 13/20/15 16/18/16
f 9/26/17 15/7/18 16/18/19 11/3/20
s 1
f 5/51/21 6/12/22 12/16/23 11/19/24
f 6/52/22 7/9/25 13/24/26 12/4/23
f 7/53/25 8/10/27 16/23/28 13/5/26
f 8/54/27 5/11/21 11/25/24 16/8/28
s 2
f 17/28/29 18/27/30 20/30/31 19/41/32
f 18/27/33 17/28/29 21/31/34 22/29/35
f 19/41/32 20/30/36 24/32/37 23/42/38
f 22/29/39 21/31/34 23/42/38 24/32/40
s off
f 25/40/41 26/66/42 28/34/43 27/50/44
f 26/33/45 25/40/46 31/35/47 32/62/48
f 27/36/49 28/57/50 30/37/51 29/43/52
f 29/43/53 30/65/54 32/38/55 31/47/56
f 1/49/57 2/39/58 31/35/59 25/40/60
s 2
f 17/28/29 19/41/32 23/42/38 21/31/34
s off
f 27/36/61 29/43/62 4/46/63 3/44/64
f 2/45/65 4/46/66 29/43/67 31/47/68
f 3/48/69 1/49/70 25/40/71 27/50/72
s 2
f 6/12/73 5/51/74 18/27/33 22/29/35
f 22/29/39 24/32/40 7/9/75 6/52/76
f 8/10/77 7/53/78 24/32/37 20/30/36
f 5/11/79 8/54/80 20/30/31 18/27/30
s 4
f 28/34/81 26/66/82 9/55/83 10/56/84
f 30/37/85 28/57/81 10/58/84 14/59/86
f 32/38/87 30/65/85 14/60/86 15/61/88
f 26/33/82 32/62/87 15/63/88 9/64/83
