# This file uses centimeters as units for non-parametric coordinates.

mtllib tower_side_platform.mtl
g default
v -4.000000 -0.500000 3.000000
v 4.000000 -0.500000 3.000000
v -4.000000 0.500000 3.000000
v 4.000000 0.500000 3.000000
v -4.000000 0.500000 -3.000000
v 4.000000 0.500000 -3.000000
v -4.000000 -0.500000 -3.000000
v 4.000000 -0.500000 -3.000000
v -4.000000 0.166667 3.000000
v -4.000000 0.166667 -3.000000
v 4.000000 0.166667 -3.000000
v 4.000000 0.166667 3.000000
v -4.000000 -0.166667 3.000000
v -4.000000 -0.166667 -3.000000
v 4.000000 -0.166667 -3.000000
v 4.000000 -0.166667 3.000000
v -3.800000 -0.166667 2.800000
v -3.800000 -0.166667 -2.800000
v -3.800000 0.166667 2.800000
v -3.800000 0.166667 -2.800000
v 3.800000 0.166667 -2.800000
v 3.800000 -0.166667 -2.800000
v 3.800000 -0.166667 2.800000
v 3.800000 0.166667 2.800000
vt 0.783196 0.705991
vt 0.528289 0.628948
vt 0.498861 0.726362
vt 0.226399 0.726362
vt 0.026206 0.655154
vt 0.026206 0.026206
vt 0.497917 0.026206
vt 0.497917 0.655154
vt 0.001466 0.726362
vt 0.676605 0.726362
vt 0.287603 0.705991
vt 0.995593 0.705991
vt 0.998534 0.761118
vt 0.226399 0.761118
vt 0.676605 0.761118
vt 0.498861 0.761118
vt 0.991935 0.735769
vt 0.226399 0.735769
vt 0.226399 0.751733
vt 0.991935 0.751733
vt 0.676605 0.751733
vt 0.676605 0.735769
vt 0.498861 0.735769
vt 0.498861 0.751733
vt 0.000000 0.026206
vt 0.026206 0.681361
vt 0.497917 0.000000
vt 0.524124 0.655154
vt 0.524123 0.026206
vt 0.026206 0.000000
vt 0.000000 0.655154
vt 0.497917 0.681360
vt 1.000000 0.628948
vt 0.500000 0.705991
vt 1.000000 0.000000
vt 0.528289 0.000000
vt 0.004407 0.705991
vt 0.500000 0.694192
vt 0.783196 0.694192
vt 0.287603 0.694192
vt 0.995593 0.694192
vt 0.004407 0.694192
vt 0.007576 0.751733
vt 0.007576 0.735769
vt 0.002134 0.761118
vt 0.997846 0.726362
vn 0.000000 0.000000 1.000000
vn 0.000000 0.000000 1.000000
vn 0.000000 0.000000 1.000000
vn 0.000000 0.000000 1.000000
vn 0.000000 1.000000 0.000000
vn 0.000000 1.000000 0.000000
vn 0.000000 1.000000 0.000000
vn 0.000000 1.000000 0.000000
vn 0.000000 0.000000 -1.000000
vn 0.000000 0.000000 -1.000000
vn 0.000000 0.000000 -1.000000
vn 0.000000 0.000000 -1.000000
vn 0.000000 -1.000000 0.000000
vn 0.000000 -1.000000 0.000000
vn 0.000000 -1.000000 0.000000
vn 0.000000 -1.000000 0.000000
vn 1.000000 0.000000 0.000000
vn 1.000000 0.000000 0.000000
vn 1.000000 0.000000 0.000000
vn 1.000000 0.000000 0.000000
vn -1.000000 0.000000 0.000000
vn -1.000000 0.000000 0.000000
vn -1.000000 0.000000 0.000000
vn -1.000000 0.000000 0.000000
vn -1.000000 0.000000 0.000000
vn -1.000000 0.000000 0.000000
vn -1.000000 0.000000 0.000000
vn -1.000000 0.000000 0.000000
vn 0.000000 0.000000 -1.000000
vn 0.000000 0.000000 -1.000000
vn 0.000000 0.000000 -1.000000
vn 0.000000 0.000000 -1.000000
vn 1.000000 0.000000 0.000000
vn 1.000000 0.000000 0.000000
vn 1.000000 0.000000 0.000000
vn 1.000000 0.000000 0.000000
vn 0.000000 0.000000 1.000000
vn 0.000000 0.000000 1.000000
vn 0.000000 0.000000 1.000000
vn 0.000000 0.000000 1.000000
vn -1.000000 0.000000 0.000000
vn -1.000000 0.000000 0.000000
vn -1.000000 0.000000 0.000000
vn -1.000000 0.000000 0.000000
vn 0.000000 0.000000 -1.000000
vn 0.000000 0.000000 -1.000000
vn 0.000000 0.000000 -1.000000
vn 0.000000 0.000000 -1.000000
vn 1.000000 0.000000 0.000000
vn 1.000000 0.000000 0.000000
vn 1.000000 0.000000 0.000000
vn 1.000000 0.000000 0.000000
vn 0.000000 0.000000 1.000000
vn 0.000000 0.000000 1.000000
vn 0.000000 0.000000 1.000000
vn 0.000000 0.000000 1.000000
vn 0.000000 1.000000 -0.000000
vn 0.000000 1.000000 0.000000
vn 0.000000 1.000000 0.000000
vn 0.000000 1.000000 -0.000000
vn 0.000000 -1.000000 0.000000
vn 0.000000 -1.000000 -0.000000
vn 0.000000 -1.000000 -0.000000
vn 0.000000 -1.000000 0.000000
vn 0.000000 -1.000000 -0.000000
vn 0.000000 -1.000000 -0.000000
vn 0.000000 1.000000 -0.000000
vn 0.000000 1.000000 -0.000000
vn 0.000000 1.000000 0.000000
vn 0.000000 1.000000 0.000000
vn 0.000000 -1.000000 0.000000
vn 0.000000 -1.000000 0.000000
s off
g pCube1
usemtl initialShadingGroup
f 1/1/1 2/34/2 16/38/3 13/39/4
f 3/5/5 4/6/6 6/7/7 5/8/8
f 14/42/9 15/40/10 8/11/11 7/37/12
f 7/35/13 8/33/14 2/2/15 1/36/16
f 2/34/17 8/11/18 15/40/19 16/38/20
f 7/12/21 1/1/22 13/39/23 14/41/24
f 10/32/25 9/26/26 3/5/27 5/8/28
f 5/8/29 6/7/30 11/29/31 10/28/32
f 12/30/33 11/27/34 6/7/35 4/6/36
f 9/31/37 12/25/38 4/6/39 3/5/40
f 18/44/41 17/18/42 19/19/43 20/43/44
f 20/20/45 21/21/46 22/22/47 18/17/48
f 23/23/49 22/22/50 21/21/51 24/24/52
f 17/18/53 23/23/54 24/24/55 19/19/56
s 1
f 14/9/57 13/4/58 17/18/59 18/44/60
s 2
f 9/14/61 10/45/62 20/43/63 19/19/64
f 10/13/62 11/15/65 21/21/66 20/20/63
s 1
f 15/10/67 14/46/57 18/17/60 22/22/68
f 16/3/69 15/10/67 22/22/68 23/23/70
s 2
f 11/15/65 12/16/71 24/24/72 21/21/66
s 1
f 13/4/58 16/3/69 23/23/70 17/18/59
s 2
f 12/16/71 9/14/61 19/19/64 24/24/72
