# This file uses centimeters as units for non-parametric coordinates.

mtllib upper_side_platform.mtl
g default
v -6.250000 -0.750000 3.000000
v 6.250000 -0.750000 3.000000
v -6.250000 -0.750000 -3.000000
v 6.250000 -0.750000 -3.000000
v 6.250000 0.666667 3.000000
v -6.250000 0.666667 3.000000
v -6.250000 0.666667 -3.000000
v 6.250000 0.666667 -3.000000
v -1.250000 4.181818 3.000000
v -6.250000 4.181818 3.000000
v -6.250000 4.181818 -3.000000
v -1.250000 4.181818 -3.000000
v 6.050000 -0.416667 2.800000
v -6.050000 -0.416667 2.800000
v 6.050000 0.666667 2.800000
v -6.050000 0.666667 2.800000
v -6.050000 -0.416667 -2.800000
v -6.050000 0.666667 -2.800000
v 6.050000 0.666667 -2.800000
v 6.050000 -0.416667 -2.800000
v -6.050000 1.000000 2.800000
v -6.050000 4.181818 2.800000
v -1.450000 1.000000 2.800000
v -1.450000 4.181818 2.800000
v -6.050000 1.000000 -2.800000
v -6.050000 4.181818 -2.800000
v -1.450000 1.000000 -2.800000
v -1.450000 4.181818 -2.800000
v -6.186370 4.500000 2.936370
v -6.250000 4.436370 3.000000
v -1.313630 4.500000 2.936370
v -1.250000 4.436370 3.000000
v -6.186370 4.500000 -2.936370
v -6.250000 4.436370 -3.000000
v -1.313630 4.500000 -2.936370
v -1.250000 4.436370 -3.000000
v -6.250000 0.936370 3.000000
v -6.186370 1.000000 2.936370
v -6.250000 0.936370 -3.000000
v -6.186370 1.000000 -2.936370
v 6.250000 0.936370 -3.000000
v 6.186370 1.000000 -2.936370
v 6.250000 0.936370 3.000000
v 6.186370 1.000000 2.936370
v 6.250000 -0.480297 3.000000
v 6.186370 -0.416667 2.936370
v -6.250000 -0.480297 3.000000
v -6.186370 -0.416667 2.936370
v -6.250000 -0.480297 -3.000000
v -6.186370 -0.416667 -2.936370
v 6.250000 -0.480297 -3.000000
v 6.186370 -0.416667 -2.936370
vt 0.837759 0.024679
vt 0.592613 0.623424
vt 0.014030 0.617243
vt 1.000000 0.024679
vt 0.000000 0.822052
vt 0.837225 0.111786
vt 0.213079 0.947666
vt 1.000000 0.111786
vt 0.016631 0.817887
vt 0.016631 0.997252
vt 0.753166 0.502636
vt 0.246834 0.513561
vt 0.165454 0.817887
vt 0.165454 0.997252
vt 0.996206 0.513561
vt 0.003794 0.502636
vt 0.730808 0.594537
vt 0.753166 0.513561
vt 0.246834 0.502636
vt 0.011310 0.589220
vt 0.993961 0.617385
vt 0.606795 0.617385
vt 0.607591 0.608446
vt 0.607591 0.799348
vt 0.985818 0.798552
vt 0.598652 0.798552
vt 0.392233 0.611102
vt 0.985022 0.616589
vt 0.175976 0.815944
vt 0.013883 0.815944
vt 0.014688 0.807365
vt 0.014688 1.000000
vt 0.168202 0.999195
vt 0.006108 0.999195
vt 0.311193 0.943578
vt 0.167397 0.815139
vt 0.755744 0.517206
vt 0.238732 0.522730
vt 0.249411 0.517206
vt 0.348964 0.000000
vt 0.006371 0.517206
vt 0.450926 0.581130
vt 0.455800 0.586004
vt 0.745065 0.522730
vt 0.983101 0.619306
vt 0.613630 0.623424
vt 0.609512 0.619306
vt 0.537130 0.037214
vt 0.609512 0.796630
vt 0.752524 0.792513
vt 0.983101 0.796630
vt 0.752524 0.623424
vt 0.182085 0.993087
vt 0.161289 0.801256
vt 1.000000 0.037214
vt 0.837225 0.037214
vt 0.699905 0.111786
vt 0.537130 0.111786
vt 0.699905 0.037214
vt 0.613630 0.792513
vt 1.000000 0.792513
vt 0.978983 0.602407
vt 1.000000 0.000000
vt 0.837759 0.000000
vt 0.512118 0.024679
vt 0.348964 0.024679
vt 0.512118 0.000000
vt 0.011895 0.522730
vt 0.014688 0.815139
vt 0.006108 0.815944
vt 0.167397 0.807365
vt 0.168202 0.815944
vt 0.167397 1.000000
vt 0.013883 0.999195
vt 0.175976 0.999195
vt 0.307116 0.947666
vt 0.208978 0.943578
vt 0.000000 0.993087
vt 0.182085 0.822052
vt 0.020796 0.801256
vt 0.607591 0.616589
vt 0.598652 0.617385
vt 0.985022 0.608445
vt 0.985818 0.617385
vt 0.985022 0.799347
vt 0.606795 0.798552
vt 0.993961 0.798552
vt 0.385540 0.617243
vt 0.008442 0.611102
vt 0.592613 0.792513
vt 0.613630 0.602407
vt 1.000000 0.623424
vt 0.988105 0.522730
vt 0.993629 0.517206
vt 0.018458 0.581130
vt 0.013584 0.586004
vt 0.254935 0.522730
vt 0.244256 0.517206
vt 0.750589 0.517206
vt 0.761268 0.522730
vt 0.003794 0.513561
vt 0.458074 0.589220
vt 0.996206 0.502636
vt 0.730808 0.528939
vt 0.867472 0.594538
vt 0.867472 0.528939
vn 0.000000 -1.000000 0.000000
vn 0.000000 -1.000000 0.000000
vn 0.000000 -1.000000 0.000000
vn 0.000000 -1.000000 0.000000
vn 0.000000 0.000000 1.000000
vn 0.000000 0.000000 1.000000
vn 0.000000 0.000000 1.000000
vn 0.000000 0.000000 1.000000
vn -1.000000 0.000000 0.000000
vn -1.000000 0.000000 0.000000
vn -1.000000 0.000000 0.000000
vn -1.000000 0.000000 0.000000
vn 1.000000 0.000000 0.000000
vn 1.000000 0.000000 0.000000
vn 1.000000 0.000000 0.000000
vn 1.000000 0.000000 0.000000
vn 0.000000 0.000000 1.000000
vn 0.000000 0.000000 1.000000
vn 0.000000 0.000000 1.000000
vn 0.000000 0.000000 1.000000
vn -1.000000 0.000000 0.000000
vn -1.000000 0.000000 0.000000
vn -1.000000 0.000000 0.000000
vn -1.000000 0.000000 0.000000
vn 1.000000 0.000000 0.000000
vn 1.000000 0.000000 0.000000
vn 1.000000 0.000000 0.000000
vn 1.000000 0.000000 0.000000
vn 0.000000 -1.000000 0.000000
vn 0.000000 -1.000000 0.000000
vn 0.000000 -1.000000 0.000000
vn 0.000000 -1.000000 0.000000
vn 0.000000 -1.000000 0.000000
vn 0.000000 -1.000000 0.000000
vn 0.000000 -1.000000 0.000000
vn 0.000000 -1.000000 0.000000
vn 0.000000 -1.000000 -0.000000
vn 0.000000 -1.000000 -0.000000
vn 0.000000 -1.000000 -0.000000
vn 0.000000 -1.000000 -0.000000
vn 0.000000 -1.000000 0.000000
vn 0.000000 -1.000000 0.000000
vn 0.000000 -1.000000 0.000000
vn 0.000000 -1.000000 0.000000
vn 0.000000 -1.000000 -0.000000
vn 0.000000 -1.000000 -0.000000
vn 0.000000 -1.000000 -0.000000
vn 0.000000 -1.000000 -0.000000
vn 0.000000 -1.000000 0.000000
vn 0.000000 -1.000000 0.000000
vn 0.000000 -1.000000 0.000000
vn 0.000000 -1.000000 0.000000
vn 0.000000 -1.000000 -0.000000
vn 0.000000 -1.000000 -0.000000
vn 0.000000 -1.000000 -0.000000
vn 0.000000 -1.000000 -0.000000
vn 0.000000 -1.000000 0.000000
vn 0.000000 -1.000000 0.000000
vn 0.000000 -1.000000 0.000000
vn 0.000000 -1.000000 0.000000
vn 0.000000 0.707106 0.707107
vn 0.000000 0.707106 0.707107
vn 0.000000 0.707106 0.707107
vn 0.000000 0.707106 0.707107
vn -0.707107 0.707106 0.000000
vn -0.707107 0.707106 0.000000
vn -0.707107 0.707106 0.000000
vn -0.707107 0.707106 0.000000
vn 0.707107 0.707106 0.000000
vn 0.707107 0.707106 0.000000
vn 0.707107 0.707106 0.000000
vn 0.707107 0.707106 0.000000
vn 0.000000 0.707106 -0.707107
vn 0.000000 0.707106 -0.707107
vn 0.000000 0.707106 -0.707107
vn 0.000000 0.707106 -0.707107
vn -0.707107 0.707107 0.000000
vn -0.707107 0.707107 0.000000
vn -0.707107 0.707107 0.000000
vn -0.707107 0.707107 0.000000
vn 0.000000 0.707107 0.707106
vn 0.000000 0.707107 0.707106
vn 0.000000 0.707107 0.707106
vn 0.000000 0.707107 0.707106
vn 0.000000 0.707107 -0.707106
vn 0.000000 0.707107 -0.707106
vn 0.000000 0.707107 -0.707106
vn 0.000000 0.707107 -0.707106
vn 0.707107 0.707107 0.000000
vn 0.707107 0.707107 0.000000
vn 0.707107 0.707107 0.000000
vn 0.707107 0.707107 0.000000
vn 0.000000 0.707107 0.707107
vn 0.000000 0.707107 0.707107
vn 0.000000 0.707107 0.707107
vn 0.000000 0.707107 0.707107
vn 0.707107 0.707107 0.000000
vn 0.707107 0.707107 0.000000
vn 0.707107 0.707107 0.000000
vn 0.707107 0.707107 0.000000
vn -0.707107 0.707107 0.000000
vn -0.707107 0.707107 0.000000
vn -0.707107 0.707107 0.000000
vn -0.707107 0.707107 0.000000
vn 0.000000 0.707107 -0.707107
vn 0.000000 0.707107 -0.707107
vn 0.000000 0.707107 -0.707107
vn 0.000000 0.707107 -0.707107
vn 0.000000 0.000000 1.000000
vn 0.000000 0.000000 1.000000
vn 0.000000 0.000000 1.000000
vn 0.000000 0.000000 1.000000
vn 0.000000 1.000000 0.000000
vn 0.000000 1.000000 0.000000
vn 0.000000 1.000000 0.000000
vn 0.000000 1.000000 0.000000
vn 1.000000 0.000000 0.000000
vn 1.000000 0.000000 0.000000
vn 1.000000 0.000000 0.000000
vn 1.000000 0.000000 0.000000
vn -1.000000 0.000000 0.000000
vn -1.000000 0.000000 0.000000
vn -1.000000 0.000000 0.000000
vn -1.000000 0.000000 0.000000
vn 0.000000 0.000000 1.000000
vn 0.000000 0.000000 1.000000
vn 0.000000 0.000000 1.000000
vn 0.000000 0.000000 1.000000
vn -1.000000 0.000000 0.000000
vn -1.000000 0.000000 0.000000
vn -1.000000 0.000000 0.000000
vn -1.000000 0.000000 0.000000
vn 1.000000 0.000000 0.000000
vn 1.000000 0.000000 0.000000
vn 1.000000 0.000000 0.000000
vn 1.000000 0.000000 0.000000
vn 0.000000 0.000000 1.000000
vn 0.000000 0.000000 1.000000
vn 0.000000 0.000000 1.000000
vn 0.000000 0.000000 1.000000
vn -1.000000 0.000000 0.000000
vn -1.000000 0.000000 0.000000
vn -1.000000 0.000000 0.000000
vn -1.000000 0.000000 0.000000
vn 1.000000 0.000000 0.000000
vn 1.000000 0.000000 0.000000
vn 1.000000 0.000000 0.000000
vn 1.000000 0.000000 0.000000
vn 0.000000 1.000000 -0.000000
vn 0.000000 1.000000 -0.000000
vn 0.000000 1.000000 -0.000000
vn 0.000000 1.000000 -0.000000
vn 0.000000 1.000000 0.000000
vn 0.000000 1.000000 0.000000
vn 0.000000 1.000000 0.000000
vn 0.000000 1.000000 0.000000
vn 0.000000 1.000000 0.000000
vn 0.000000 1.000000 0.000000
vn 0.000000 1.000000 0.000000
vn 0.000000 1.000000 0.000000
vn 0.000000 1.000000 0.000000
vn 0.000000 1.000000 0.000000
vn 0.000000 1.000000 0.000000
vn 0.000000 1.000000 0.000000
s off
g pCube1
usemtl initialShadingGroup
f 3/105/1 4/17/2 2/104/3 1/106/4
f 14/67/5 13/64/6 15/1/7 16/65/8
f 17/40/9 14/67/10 16/65/11 18/66/12
f 13/64/13 20/63/14 19/4/15 15/1/16
f 22/57/17 21/59/18 23/56/19 24/6/20
f 25/48/21 21/59/22 22/57/23 26/58/24
f 24/6/25 23/56/26 27/55/27 28/8/28
f 5/83/29 6/23/30 16/91/31 15/62/32
f 6/82/33 7/26/34 18/90/35 16/2/36
f 7/89/37 8/27/38 19/88/39 18/3/40
f 8/87/41 5/21/42 15/92/43 19/61/44
f 9/71/45 10/31/46 22/80/47 24/54/48
f 10/70/49 11/34/50 26/78/51 22/5/52
usemtl standardSurface2SG
f 11/77/53 12/35/54 28/76/55 26/7/56
usemtl initialShadingGroup
f 12/75/57 9/29/58 24/79/59 28/53/60
f 29/9/61 30/69/62 32/36/63 31/13/64
f 30/30/65 29/9/66 33/10/67 34/74/68
f 31/13/69 32/72/70 36/33/71 35/14/72
f 34/32/73 33/10/74 35/14/75 36/73/76
f 37/22/77 38/47/78 40/49/79 39/86/80
f 38/47/81 37/81/82 43/28/83 44/45/84
f 39/24/85 40/49/86 42/51/87 41/85/88
f 41/25/89 42/51/90 44/45/91 43/84/92
f 45/18/93 46/99/94 48/39/95 47/12/96
f 46/37/97 45/18/98 51/15/99 52/94/100
f 47/12/101 48/98/102 50/41/103 49/101/104
f 49/20/105 50/96/106 52/43/107 51/102/108
f 1/19/109 2/11/110 45/18/111 47/12/112
f 29/9/113 31/13/114 35/14/115 33/10/116
f 2/11/117 4/103/118 51/15/119 45/18/120
f 3/16/121 1/19/122 47/12/123 49/101/124
f 6/23/125 5/83/126 43/28/127 37/81/128
f 7/26/129 6/82/130 37/22/131 39/86/132
f 5/21/133 8/87/134 41/25/135 43/84/136
f 10/31/137 9/71/138 32/36/139 30/69/140
f 11/34/141 10/70/142 30/30/143 34/74/144
f 9/29/145 12/75/146 36/33/147 32/72/148
s 1
f 48/39/149 46/99/150 13/44/151 14/97/152
f 50/41/153 48/98/149 14/38/152 17/68/154
f 52/43/155 50/96/153 17/95/154 20/42/156
f 46/37/150 52/94/155 20/93/156 13/100/151
s 2
f 38/47/157 44/45/158 23/52/159 21/46/160
f 40/49/161 38/47/157 21/46/160 25/60/162
f 42/51/163 40/49/161 25/60/162 27/50/164
f 44/45/158 42/51/163 27/50/164 23/52/159
