# This file uses centimeters as units for non-parametric coordinates.

mtllib side_bridge_level_3.mtl
g default
v -12.500000 0.000000 -6.000000
v 12.500000 0.000000 -6.000000
v -12.500000 -8.500000 -6.000000
v 12.500000 -8.500000 -6.000000
v 12.500000 -8.500000 6.000000
v -12.500000 -8.500000 6.000000
v 9.375000 -3.499999 -6.000000
v 9.375000 -3.499999 6.000000
v 6.250000 -1.999999 -6.000000
v 6.250000 -1.999999 6.000000
v -0.000000 0.000000 -6.000000
v 3.125000 -0.999999 -6.000000
v 3.125000 -0.999999 6.000000
v -0.000000 -0.749999 -6.000000
v -0.000000 -0.749998 6.000000
v -3.125000 -0.999999 -6.000000
v -3.125000 -0.999999 6.000000
v -6.250000 -1.999999 -6.000000
v -6.250000 -1.999999 6.000000
v -9.375000 -3.499999 -6.000000
v -9.375000 -3.499999 6.000000
v -10.937500 -5.500000 6.000000
v -10.937500 -5.500000 -6.000000
v 10.937500 -5.500000 6.000000
v 10.937500 -5.500000 -6.000000
v -12.500000 5.000000 7.500000
v 21.500000 5.000000 7.500000
v -12.500000 5.000000 -7.500000
v 14.500000 5.000000 -7.500000
v -12.500000 5.000000 -5.000000
v 14.500000 5.000000 -5.000000
v -12.500000 5.000000 5.000000
v 21.500000 5.000000 5.000000
v -12.500000 4.000000 5.000000
v -12.500000 4.000000 -5.000000
v 14.500000 4.000000 -5.000000
v 21.500000 4.000000 5.000000
v -12.500000 0.000000 -7.500000
v -12.500000 0.000000 7.500000
v 12.500000 0.000000 7.500000
v 12.500000 0.000000 -7.500000
v 12.500000 -19.000000 -7.500000
v 12.500000 -19.000000 7.500000
v 12.500000 -8.500000 -5.250000
v 10.937500 -5.500000 -5.250000
v 9.375000 -3.499999 -5.250000
v 6.250000 -1.999999 -5.250000
v 3.125000 -0.999999 -5.250000
v -0.000000 -0.749999 -5.250000
v -3.125000 -0.999999 -5.250000
v -6.250000 -1.999999 -5.250000
v -9.375000 -3.499999 -5.250000
v -10.937500 -5.500000 -5.250000
v -12.500000 -8.500000 -5.250000
v 8.731148 -4.300184 -5.250000
v 10.092978 -6.043326 -5.250000
v 5.879490 -2.931388 -5.250000
v 2.930177 -1.987608 -5.250000
v -0.000000 -1.753194 -5.250000
v -2.930177 -1.987608 -5.250000
v -5.879490 -2.931388 -5.250000
v -8.731148 -4.300184 -5.250000
v -10.092978 -6.043326 -5.250000
v -12.643369 -11.000000 -5.250000
v 12.643369 -11.000000 -5.250000
v 9.375000 -3.499999 -6.500000
v 10.937500 -5.500000 -6.500000
v 10.092978 -6.043326 -6.500000
v 8.731148 -4.300184 -6.500000
v 6.250000 -1.999999 -6.500000
v 5.879490 -2.931388 -6.500000
v 3.125000 -0.999999 -6.500000
v 2.930177 -1.987608 -6.500000
v -0.000000 -0.749999 -6.500000
v -0.000000 -1.753194 -6.500000
v -3.125000 -0.999999 -6.500000
v -2.930177 -1.987608 -6.500000
v -6.250000 -1.999999 -6.500000
v -5.879490 -2.931388 -6.500000
v -9.375000 -3.499999 -6.500000
v -8.731148 -4.300184 -6.500000
v -10.937500 -5.500000 -6.500000
v -10.092978 -6.043326 -6.500000
v -12.500000 -8.500000 -6.500000
v -12.643369 -11.000000 -6.500000
v 12.500000 -8.500000 -6.500000
v 12.643369 -11.000000 -6.500000
vt 0.408148 0.990500
vt 0.875407 0.835066
vt 0.918992 0.836077
vt 0.524808 0.835346
vt 0.000102 0.990802
vt 0.473959 0.835045
vt 0.575972 0.835094
vt 0.623655 0.835597
vt 0.204125 0.990651
vt 0.675150 0.835369
vt 0.723762 0.835597
vt 0.774514 0.835080
vt 0.824807 0.835342
vt 0.000000 0.852067
vt 0.703783 0.624197
vt 0.703783 0.675946
vt 0.000000 0.675945
vt 0.000000 0.624197
vt 0.849251 1.000000
vt 0.703783 0.375803
vt 0.144897 0.375803
vt 0.144897 0.324054
vt 0.440828 0.918315
vt 0.305836 0.295613
vt 0.703783 0.396503
vt 0.144897 0.396502
vt 0.703783 0.603498
vt 0.000000 0.603497
vt 1.000000 0.671344
vt 0.305836 0.112111
vt 0.724535 0.322422
vt 1.000000 0.322422
vt 0.391881 0.000000
vt 0.391881 0.242400
vt 0.318999 0.242400
vt 0.318999 0.000000
vt 0.446566 0.000000
vt 0.446566 0.242400
vt 0.521254 0.000000
vt 0.521254 0.242400
vt 0.591951 0.000000
vt 0.591951 0.242400
vt 0.659499 0.000000
vt 0.659499 0.242400
vt 0.727048 0.000000
vt 0.727048 0.242400
vt 0.797745 0.000000
vt 0.797745 0.242400
vt 0.872433 0.000000
vt 0.872433 0.242400
vt 0.927118 0.000000
vt 0.927118 0.242400
vt 1.000000 0.000000
vt 1.000000 0.242400
vt 0.524778 0.824699
vt 0.473972 0.824172
vt 0.473946 0.801653
vt 0.525177 0.801653
vt 0.575974 0.824113
vt 0.575975 0.801653
vt 0.623670 0.824546
vt 0.623673 0.801653
vt 0.675150 0.824328
vt 0.675151 0.801654
vt 0.723746 0.824546
vt 0.723739 0.801654
vt 0.774513 0.824104
vt 0.774518 0.801654
vt 0.824838 0.824697
vt 0.824434 0.801654
vt 0.875395 0.824186
vt 0.875427 0.801654
vt 0.919102 0.824833
vt 0.956494 0.801654
vt 0.433154 0.824825
vt 0.395768 0.801653
vt 0.473966 0.772352
vt 0.525094 0.771989
vt 0.575983 0.772150
vt 0.623702 0.772255
vt 0.675150 0.772222
vt 0.723714 0.772255
vt 0.774504 0.772161
vt 0.824524 0.771993
vt 0.875403 0.772338
vt 0.956544 0.772635
vt 0.395719 0.772642
vt 0.724535 0.671344
vt 0.000000 0.112111
vt 0.849251 0.918315
vt 0.000000 0.295613
vt 0.025539 0.901013
vt 0.433264 0.836065
vt 0.382578 0.900749
vt 0.357100 0.933411
vt 0.306112 0.957932
vt 0.255119 0.974292
vt 0.204116 0.978410
vt 0.153108 0.974367
vt 0.102090 0.958083
vt 0.051066 0.933638
vt 0.408045 0.851765
vt 0.703783 0.324054
vt 0.408154 1.000000
vn 0.000000 0.000000 -1.000000
vn 0.000000 0.000000 -1.000000
vn 0.000000 0.000000 -1.000000
vn 0.000000 0.000000 -1.000000
vn 0.000000 0.000000 -1.000000
vn 0.000000 0.000000 -1.000000
vn 0.000000 0.000000 -1.000000
vn 0.000000 0.000000 -1.000000
vn 0.000000 0.000000 -1.000000
vn 0.000000 0.000000 -1.000000
vn 0.000000 0.000000 -1.000000
vn 0.000000 0.000000 -1.000000
vn 0.000000 0.000000 -1.000000
vn 0.000000 0.000000 -1.000000
vn 0.000000 0.000000 -1.000000
vn 0.000000 0.000000 -1.000000
vn 0.000000 0.000000 -1.000000
vn 0.000000 0.000000 -1.000000
vn 0.000000 0.000000 -1.000000
vn 0.000000 0.000000 -1.000000
vn 0.000000 0.000000 -1.000000
vn 0.000000 0.000000 -1.000000
vn 0.000000 0.000000 -1.000000
vn 0.000000 0.000000 -1.000000
vn 0.000000 0.000000 -1.000000
vn 0.000000 0.000000 -1.000000
vn -0.000000 0.000000 -1.000000
vn -0.000000 0.000000 -1.000000
vn -0.000000 0.000000 -1.000000
vn 0.000000 0.000000 -1.000000
vn 0.000000 0.000000 -1.000000
vn 0.000000 0.000000 -1.000000
vn 0.000000 1.000000 0.000000
vn 0.000000 1.000000 0.000000
vn 0.000000 1.000000 0.000000
vn 0.000000 1.000000 0.000000
vn 0.000000 1.000000 0.000000
vn 0.000000 1.000000 0.000000
vn 0.000000 1.000000 0.000000
vn 0.000000 1.000000 0.000000
vn 0.000000 0.000000 -1.000000
vn 0.000000 0.000000 -1.000000
vn 0.000000 0.000000 -1.000000
vn 0.000000 0.000000 -1.000000
vn 0.000000 0.000000 1.000000
vn 0.000000 0.000000 1.000000
vn 0.000000 0.000000 1.000000
vn 0.000000 0.000000 1.000000
vn 0.000000 1.000000 0.000000
vn 0.000000 1.000000 0.000000
vn 0.000000 1.000000 0.000000
vn 0.000000 1.000000 0.000000
vn 0.000000 0.000000 -1.000000
vn 0.000000 0.000000 -1.000000
vn 0.000000 0.000000 -1.000000
vn 0.000000 0.000000 -1.000000
vn 0.000000 -1.000000 0.000000
vn 0.000000 -1.000000 0.000000
vn 0.000000 -1.000000 0.000000
vn 0.000000 -1.000000 0.000000
vn -1.000000 0.000000 0.000000
vn -1.000000 0.000000 0.000000
vn -1.000000 0.000000 0.000000
vn -1.000000 0.000000 0.000000
vn -0.847998 -0.529999 0.000000
vn -0.847998 -0.529999 0.000000
vn -0.886914 -0.461934 0.000000
vn -0.886914 -0.461934 0.000000
vn -0.598289 -0.801280 0.000000
vn -0.598289 -0.801280 0.000000
vn -0.371391 -0.928477 0.000000
vn -0.371391 -0.928477 0.000000
vn -0.196116 -0.980581 0.000000
vn -0.196116 -0.980581 0.000000
vn 0.000000 -1.000000 0.000000
vn 0.000000 -1.000000 0.000000
vn 0.196116 -0.980581 0.000000
vn 0.196116 -0.980581 0.000000
vn 0.371391 -0.928477 0.000000
vn 0.371391 -0.928477 0.000000
vn 0.598289 -0.801280 0.000000
vn 0.598289 -0.801280 0.000000
vn 0.847998 -0.529999 0.000000
vn 0.847998 -0.529999 0.000000
vn 0.886914 -0.461934 0.000000
vn 0.886914 -0.461934 0.000000
vn -0.000000 0.000000 -1.000000
vn 0.000000 0.000000 -1.000000
vn 0.000000 0.000000 -1.000000
vn -0.000000 0.000000 -1.000000
vn -0.000000 0.000000 -1.000000
vn -0.000000 0.000000 -1.000000
vn 0.000000 0.000000 -1.000000
vn 0.000000 0.000000 -1.000000
vn 0.000000 0.000000 -1.000000
vn 0.000000 0.000000 -1.000000
vn -0.000000 0.000000 -1.000000
vn -0.000000 0.000000 -1.000000
vn 0.000000 0.000000 -1.000000
vn -0.000000 0.000000 -1.000000
vn 0.000000 0.000000 -1.000000
vn 0.000000 0.000000 -1.000000
vn 0.000000 0.000000 -1.000000
vn 0.000000 0.000000 -1.000000
vn 0.000000 0.000000 -1.000000
vn 0.000000 0.000000 -1.000000
vn 0.000000 0.000000 -1.000000
vn 0.000000 0.000000 -1.000000
vn 0.598289 0.801280 0.000000
vn 0.847998 0.529999 0.000000
vn 0.847998 0.529999 0.000000
vn 0.598289 0.801280 0.000000
vn -0.863555 -0.504255 0.000000
vn -0.594097 -0.804393 0.000000
vn -0.594097 -0.804393 0.000000
vn -0.863555 -0.504255 0.000000
vn 0.371391 0.928477 0.000000
vn 0.371391 0.928477 0.000000
vn -0.370312 -0.928907 0.000000
vn -0.370312 -0.928907 0.000000
vn 0.196116 0.980581 0.000000
vn 0.196116 0.980581 0.000000
vn -0.196484 -0.980507 0.000000
vn -0.196484 -0.980507 0.000000
vn 0.000000 1.000000 0.000000
vn 0.000000 1.000000 0.000000
vn -0.000000 -1.000000 0.000000
vn -0.000000 -1.000000 0.000000
vn -0.196116 0.980581 0.000000
vn -0.196116 0.980581 0.000000
vn 0.196484 -0.980507 0.000000
vn 0.196484 -0.980507 0.000000
vn -0.371391 0.928477 0.000000
vn -0.371391 0.928477 0.000000
vn 0.370312 -0.928907 0.000000
vn 0.370312 -0.928907 0.000000
vn -0.598289 0.801280 0.000000
vn -0.598289 0.801280 0.000000
vn 0.594097 -0.804393 0.000000
vn 0.594097 -0.804393 0.000000
vn -0.847998 0.529999 0.000000
vn -0.847998 0.529999 0.000000
vn 0.863555 -0.504255 0.000000
vn 0.863555 -0.504255 0.000000
vn -0.886914 0.461934 0.000000
vn -0.886914 0.461934 0.000000
vn 0.889197 -0.457525 0.000000
vn 0.889197 -0.457525 0.000000
vn 0.886914 0.461934 0.000000
vn 0.886914 0.461934 0.000000
vn -0.889197 -0.457525 0.000000
vn -0.889197 -0.457525 0.000000
s off
g polySurface2
usemtl initialShadingGroup
f 1/1/1 23/94/2 3/102/3
f 7/101/4 2/5/5 25/92/6
f 9/100/7 2/5/8 7/101/9
f 12/99/10 11/9/11 2/5/12 9/100/13
f 14/98/14 11/9/15 12/99/16
f 16/97/17 11/9/18 14/98/19
f 18/96/20 1/1/21 11/9/22 16/97/23
f 20/95/24 1/1/25 18/96/26
f 23/94/27 1/1/28 20/95/29
f 25/92/30 2/5/31 4/14/32
f 32/15/33 26/16/34 27/17/35 33/18/36
f 28/103/37 30/20/38 31/21/39 29/22/40
f 41/23/41 38/90/42 28/19/43 29/104/44
f 30/20/45 35/25/46 36/26/47 31/21/48
f 35/25/49 34/27/50 37/28/51 36/26/52
f 34/27/53 32/15/54 33/18/55 37/28/56
f 40/89/57 39/30/58 38/24/59 41/91/60
f 40/29/61 41/88/62 42/31/63 43/32/64
s 1
f 24/33/65 45/34/66 44/35/67 5/36/68
f 8/37/69 46/38/70 45/34/66 24/33/65
f 10/39/71 47/40/72 46/38/70 8/37/69
f 13/41/73 48/42/74 47/40/72 10/39/71
f 15/43/75 49/44/76 48/42/74 13/41/73
f 17/45/77 50/46/78 49/44/76 15/43/75
f 19/47/79 51/48/80 50/46/78 17/45/77
f 21/49/81 52/50/82 51/48/80 19/47/79
f 22/51/83 53/52/84 52/50/82 21/49/81
f 6/53/85 54/54/86 53/52/84 22/51/83
s 2
f 66/55/87 67/56/88 68/57/89 69/58/90
f 70/59/91 66/55/87 69/58/90 71/60/92
f 72/61/93 70/59/91 71/60/92 73/62/94
f 74/63/95 72/61/93 73/62/94 75/64/96
f 76/65/97 74/63/95 75/64/96 77/66/98
f 78/67/99 76/65/97 77/66/98 79/68/100
f 80/69/101 78/67/99 79/68/100 81/70/102
f 82/71/103 80/69/101 81/70/102 83/72/104
f 84/73/105 82/71/103 83/72/104 85/74/106
f 67/56/88 86/75/107 87/76/108 68/57/89
s 3
f 7/4/109 25/6/110 67/56/111 66/55/112
s 4
f 56/77/113 55/78/114 69/58/115 68/57/116
s 3
f 9/7/117 7/4/109 66/55/112 70/59/118
s 4
f 55/78/114 57/79/119 71/60/120 69/58/115
s 3
f 12/8/121 9/7/117 70/59/118 72/61/122
s 4
f 57/79/119 58/80/123 73/62/124 71/60/120
s 3
f 14/10/125 12/8/121 72/61/122 74/63/126
s 4
f 58/80/123 59/81/127 75/64/128 73/62/124
s 3
f 16/11/129 14/10/125 74/63/126 76/65/130
s 4
f 59/81/127 60/82/131 77/66/132 75/64/128
s 3
f 18/12/133 16/11/129 76/65/130 78/67/134
s 4
f 60/82/131 61/83/135 79/68/136 77/66/132
s 3
f 20/13/137 18/12/133 78/67/134 80/69/138
s 4
f 61/83/135 62/84/139 81/70/140 79/68/136
s 3
f 23/2/141 20/13/137 80/69/138 82/71/142
s 4
f 62/84/139 63/85/143 83/72/144 81/70/140
s 3
f 3/3/145 23/2/141 82/71/142 84/73/146
s 4
f 63/85/143 64/86/147 85/74/148 83/72/144
s 3
f 25/6/110 4/93/149 86/75/150 67/56/111
s 4
f 65/87/151 56/77/113 68/57/116 87/76/152
