# This file uses centimeters as units for non-parametric coordinates.

mtllib apartment_1.mtl
g default
v -7.000000 0.000000 2.000000
v 7.000000 2.250000 2.000000
v -7.000000 15.500000 2.000000
v 7.000000 15.500000 2.000000
v -7.000000 15.500000 -3.000000
v 7.000000 15.500000 -3.000000
v -7.000000 0.000000 -3.000000
v 7.000000 0.000000 -3.000000
v 6.500000 2.250000 2.000000
v -6.500000 0.000000 2.000000
v 6.500000 14.999996 2.000000
v -6.500000 14.999996 2.000000
v -6.500000 0.000000 -1.500000
v 6.500000 0.000000 -1.500000
v -6.500000 14.999996 -1.500000
v 6.500000 14.999996 -1.500000
v 3.000001 15.500000 2.000000
v 3.000001 15.500000 -1.500000
v 3.000000 14.999994 -1.500000
v 3.000001 14.999996 2.000000
v -3.000000 15.500000 2.000000
v -3.000000 15.500000 -1.500000
v -3.000000 14.999994 -1.500000
v -3.000000 14.999996 2.000000
v 7.000000 2.250000 1.000000
v 6.500000 2.250000 1.000000
v 7.000000 0.000000 -1.000000
v 6.499999 0.000000 -1.000000
v 7.000000 2.499999 1.000000
v 7.000000 2.499999 -1.000000
v 6.499999 2.499999 -1.000000
v 6.500000 2.499999 1.000000
v -7.250000 15.250000 2.250000
v -7.250000 15.750000 2.250000
v -7.250000 15.750000 -3.000000
v -7.250000 15.250000 -3.000000
v -6.750000 15.750000 1.750000
v -6.750000 15.250000 1.750000
v -3.125000 15.250000 1.750000
v -3.125000 15.250000 2.250000
v -3.125000 15.750000 1.750000
v -3.125000 15.750000 2.250000
v 7.250000 15.250000 2.250000
v 7.250000 15.750000 2.250000
v 7.250000 15.750000 -3.000000
v 7.250000 15.250000 -3.000000
v 6.750000 15.750000 1.750000
v 6.750000 15.250000 1.750000
v 3.125000 15.250000 1.750000
v 3.125000 15.250000 2.250000
v 3.125000 15.750000 1.750000
v 3.125000 15.750000 2.250000
v 6.750000 15.750000 -2.500000
v 6.750000 15.250000 -2.500000
v -6.750000 15.750000 -2.500000
v -6.750000 15.250000 -2.500000
vt 0.212825 0.354219
vt 0.167376 0.058803
vt 0.212825 0.001992
vt 0.099203 0.354219
vt 0.121927 0.058803
vt 0.167376 0.001992
vt 0.099203 0.053122
vt 0.121927 0.053122
vt 0.333799 0.354219
vt 0.220177 0.354219
vt 0.220177 0.001992
vt 0.333799 0.001992
vt 0.614693 0.698838
vt 0.535158 0.698838
vt 0.535158 0.357973
vt 0.614693 0.357973
vt 0.449853 0.698838
vt 0.449853 0.357973
vt 0.461215 0.414784
vt 0.461215 0.357973
vt 0.506664 0.414784
vt 0.529388 0.698838
vt 0.529388 0.409103
vt 0.506664 0.409103
vt 0.482653 0.702592
vt 0.482653 0.782127
vt 0.471291 0.782127
vt 0.471291 0.702592
vt 0.575769 0.702592
vt 0.587131 0.702592
vt 0.587131 0.782127
vt 0.575769 0.782127
vt 0.661917 0.725316
vt 0.661917 0.713954
vt 0.673279 0.713954
vt 0.673279 0.725316
vt 0.238507 0.810532
vt 0.238507 0.691230
vt 0.249869 0.691230
vt 0.249869 0.810532
vt 0.286528 0.787808
vt 0.275166 0.787808
vt 0.275166 0.691230
vt 0.286528 0.691230
vt 0.680247 0.713954
vt 0.691609 0.713954
vt 0.691609 0.725316
vt 0.680247 0.725316
vt 0.256836 0.691230
vt 0.268198 0.691230
vt 0.268198 0.810532
vt 0.256836 0.810532
vt 0.304857 0.691230
vt 0.304857 0.787808
vt 0.293495 0.787808
vt 0.293495 0.691230
vt 0.063183 0.676114
vt 0.097270 0.664752
vt 0.176805 0.664752
vt 0.176805 0.676114
vt 0.097270 0.369335
vt 0.063183 0.357973
vt 0.108632 0.369335
vt 0.108632 0.357973
vt 0.001873 0.998008
vt 0.001873 0.907111
vt 0.081409 0.907111
vt 0.115495 0.998008
vt 0.081409 0.770765
vt 0.115495 0.679868
vt 0.001873 0.770765
vt 0.001873 0.679868
vt 0.464678 0.702592
vt 0.464678 0.782127
vt 0.385142 0.782127
vt 0.385142 0.702592
vt 0.630757 0.736678
vt 0.630757 0.713954
vt 0.642119 0.713954
vt 0.642119 0.736678
vt 0.569156 0.782127
vt 0.489620 0.782127
vt 0.489620 0.702592
vt 0.569156 0.702592
vt 0.623790 0.759403
vt 0.612428 0.759403
vt 0.612428 0.713954
vt 0.623790 0.713954
vt 0.324780 0.687476
vt 0.336142 0.676114
vt 0.432721 0.676114
vt 0.444083 0.687476
vt 0.324780 0.593738
vt 0.336142 0.593738
vt 0.432721 0.369335
vt 0.444083 0.357973
vt 0.324780 0.357973
vt 0.336142 0.369335
vt 0.336142 0.451711
vt 0.324780 0.451711
vt 0.199707 0.687476
vt 0.211069 0.676114
vt 0.307648 0.676114
vt 0.319010 0.687476
vt 0.199707 0.357973
vt 0.211069 0.369335
vt 0.307648 0.593738
vt 0.319010 0.593738
vt 0.319010 0.357973
vt 0.307648 0.369335
vt 0.319010 0.451711
vt 0.307648 0.451711
vt 0.013236 0.342857
vt 0.001873 0.354219
vt 0.001873 0.001992
vt 0.013236 0.001992
vt 0.092771 0.342857
vt 0.092771 0.354219
vt 0.232258 0.992327
vt 0.220896 0.980965
vt 0.220896 0.691230
vt 0.232258 0.691230
vt 0.141361 0.992327
vt 0.141361 0.980965
vt 0.420687 0.342857
vt 0.341152 0.342857
vt 0.341152 0.001992
vt 0.557033 0.342857
vt 0.636568 0.001992
vt 0.557033 0.354219
vt 0.420687 0.354219
vt 0.636568 0.342857
vt 0.620463 0.357973
vt 0.938604 0.357973
vt 0.938604 0.710200
vt 0.620463 0.710200
vt 0.654768 0.725316
vt 0.649087 0.725316
vt 0.649087 0.713954
vt 0.654768 0.713954
vt 0.594098 0.759403
vt 0.594098 0.702592
vt 0.605460 0.702592
vt 0.605460 0.759403
vt 0.359846 0.773605
vt 0.348484 0.773605
vt 0.348484 0.691230
vt 0.359846 0.691230
vt 0.323187 0.784968
vt 0.311825 0.784968
vt 0.311825 0.691230
vt 0.323187 0.691230
vt 0.378175 0.691230
vt 0.378175 0.773605
vt 0.366813 0.773605
vt 0.366813 0.691230
vt 0.341516 0.691230
vt 0.341516 0.784968
vt 0.330154 0.784968
vt 0.330154 0.691230
vt 0.193937 0.687476
vt 0.182575 0.687476
vt 0.182575 0.357973
vt 0.193937 0.357973
vt 0.134393 0.986646
vt 0.123031 0.986646
vt 0.123031 0.679868
vt 0.134393 0.679868
vn 0.000000 0.000000 1.000000
vn 0.000000 0.000000 1.000000
vn 0.000000 0.000000 1.000000
vn 0.000000 0.000000 1.000000
vn 0.000000 -1.000000 0.000000
vn 0.000000 -1.000000 0.000000
vn 0.000000 -1.000000 0.000000
vn 0.000000 -1.000000 0.000000
vn 1.000000 0.000000 0.000000
vn 1.000000 0.000000 0.000000
vn 1.000000 0.000000 0.000000
vn -1.000000 0.000000 0.000000
vn -1.000000 0.000000 0.000000
vn -1.000000 0.000000 0.000000
vn -1.000000 0.000000 0.000000
vn 0.000000 -1.000000 0.000000
vn 0.000000 -1.000000 0.000000
vn 0.000000 -1.000000 0.000000
vn 0.000000 -1.000000 0.000000
vn 0.000000 0.000000 1.000000
vn 0.000000 0.000000 1.000000
vn 0.000000 0.000000 1.000000
vn 0.000000 0.000000 1.000000
vn 0.000000 1.000000 0.000000
vn 0.000000 1.000000 0.000000
vn 0.000000 1.000000 0.000001
vn 0.000000 1.000000 0.000000
vn 0.000000 0.000000 1.000000
vn 0.000000 0.000000 1.000000
vn 0.000000 0.000000 1.000000
vn 0.000000 0.000000 1.000000
vn 0.000000 0.000000 1.000000
vn 0.000000 0.000000 1.000000
vn 0.000000 0.000000 1.000000
vn 1.000000 0.000000 0.000000
vn 1.000000 0.000000 0.000000
vn 1.000000 0.000000 0.000000
vn 1.000000 0.000000 0.000000
vn -1.000000 0.000000 0.000000
vn -1.000000 0.000000 -0.000001
vn -1.000000 0.000000 -0.000000
vn -0.000000 -1.000000 0.000000
vn -0.000000 -1.000000 0.000000
vn -0.000000 -1.000000 0.000000
vn -0.000000 -1.000000 0.000000
vn -0.000000 0.000000 1.000000
vn -0.000000 0.000000 1.000000
vn -0.000000 0.000000 1.000000
vn 0.000000 0.000000 1.000000
vn 0.000000 0.000000 1.000000
vn 0.000000 0.000000 1.000000
vn 0.000000 0.000000 1.000000
vn 0.000000 1.000000 0.000001
vn 0.000000 1.000000 0.000000
vn 0.000000 0.000000 -1.000000
vn 0.000000 0.000000 -1.000000
vn 0.000000 0.000000 -1.000000
vn 0.000000 0.000000 -1.000000
vn 0.000000 -1.000000 0.000000
vn 0.000000 -1.000000 0.000000
vn 0.000000 -1.000000 0.000000
vn 0.000000 -1.000000 0.000000
vn 0.000000 -0.000000 1.000000
vn 0.000000 -0.000000 1.000000
vn 0.000000 -0.000000 1.000000
vn 0.000000 -0.000000 1.000000
vn 1.000000 0.000000 -0.000000
vn 1.000000 0.000000 -0.000000
vn 1.000000 0.000000 -0.000000
vn 1.000000 0.000000 -0.000000
vn 0.000000 -1.000000 0.000000
vn 0.000000 -1.000000 0.000000
vn 0.000000 -1.000000 0.000000
vn 0.000000 -1.000000 0.000000
vn -1.000000 0.000000 0.000000
vn -1.000000 0.000000 0.000000
vn -1.000000 0.000000 0.000000
vn 1.000000 0.000000 0.000000
vn 1.000000 0.000000 0.000000
vn 1.000000 0.000000 0.000000
vn 0.000000 -1.000000 0.000000
vn 0.000000 -1.000000 0.000000
vn 0.000000 -1.000000 0.000000
vn 0.000000 -1.000000 0.000000
vn -1.000000 0.000000 0.000000
vn -1.000000 0.000000 0.000000
vn -1.000000 0.000000 0.000000
vn -1.000000 0.000000 0.000000
vn 0.000000 1.000000 0.000000
vn 0.000000 1.000000 0.000000
vn 1.000000 0.000000 0.000000
vn -1.000000 0.000000 -0.000001
vn -1.000000 0.000000 0.000000
vn 1.000000 0.000000 0.000000
vn -0.000000 0.000000 -1.000000
vn -0.000000 0.000000 -1.000000
vn -0.000000 0.000000 -1.000000
vn -0.000000 0.000000 -1.000000
vn 0.000000 -1.000000 0.000000
vn 0.000000 -1.000000 0.000000
vn 0.000000 -1.000000 0.000000
vn 0.000000 -1.000000 0.000000
vn 0.000000 0.000000 1.000000
vn 0.000000 0.000000 1.000000
vn 0.000000 0.000000 1.000000
vn 0.000000 0.000000 1.000000
vn 1.000000 0.000000 0.000000
vn 1.000000 0.000000 0.000000
vn 1.000000 0.000000 0.000000
vn 1.000000 0.000000 0.000000
vn 0.000000 1.000000 0.000000
vn 0.000000 1.000000 0.000000
vn 0.000000 1.000000 0.000000
vn 0.000000 1.000000 0.000000
vn -1.000000 0.000000 0.000000
vn -1.000000 0.000000 0.000000
vn -1.000000 0.000000 0.000000
vn -1.000000 0.000000 0.000000
vn 0.000000 -1.000000 0.000000
vn 0.000000 -1.000000 0.000000
vn 0.000000 -1.000000 0.000000
vn 0.000000 -1.000000 0.000000
vn 1.000000 0.000000 0.000000
vn 1.000000 0.000000 0.000000
vn 1.000000 0.000000 0.000000
vn 1.000000 0.000000 0.000000
vn 0.000000 -1.000000 0.000000
vn 0.000000 -1.000000 0.000000
vn 0.000000 0.000000 -1.000000
vn 0.000000 0.000000 -1.000000
vn 0.000000 0.000000 -1.000000
vn 0.000000 0.000000 -1.000000
vn 0.000000 1.000000 0.000000
vn 0.000000 1.000000 0.000000
vn 0.000000 0.000000 1.000000
vn 0.000000 0.000000 1.000000
vn 0.000000 0.000000 1.000000
vn 0.000000 0.000000 1.000000
vn -1.000000 0.000000 0.000000
vn -1.000000 0.000000 0.000000
vn -1.000000 0.000000 0.000000
vn -1.000000 0.000000 0.000000
vn 0.000000 1.000000 0.000000
vn 0.000000 1.000000 0.000000
vn 0.000000 1.000000 0.000000
vn 0.000000 1.000000 0.000000
vn 1.000000 0.000000 0.000000
vn 1.000000 0.000000 0.000000
vn 1.000000 0.000000 0.000000
vn 1.000000 0.000000 0.000000
vn 0.000000 -1.000000 0.000000
vn 0.000000 -1.000000 0.000000
vn 0.000000 -1.000000 0.000000
vn 0.000000 -1.000000 0.000000
vn -1.000000 0.000000 0.000000
vn -1.000000 0.000000 0.000000
vn -1.000000 0.000000 0.000000
vn -1.000000 0.000000 0.000000
vn 0.000000 -1.000000 0.000000
vn 0.000000 -1.000000 0.000000
vn 0.000000 0.000000 -1.000000
vn 0.000000 0.000000 -1.000000
vn 0.000000 0.000000 -1.000000
vn 0.000000 0.000000 -1.000000
vn 0.000000 1.000000 0.000000
vn 0.000000 1.000000 0.000000
vn 0.000000 0.000000 1.000000
vn 0.000000 0.000000 1.000000
vn 0.000000 0.000000 1.000000
vn 0.000000 0.000000 1.000000
vn 0.000000 0.000000 -1.000000
vn 0.000000 0.000000 -1.000000
vn 0.000000 0.000000 -1.000000
vn 0.000000 0.000000 -1.000000
vn 0.000000 1.000000 0.000000
vn 0.000000 1.000000 0.000000
vn 0.000000 0.000000 1.000000
vn 0.000000 0.000000 1.000000
vn 0.000000 0.000000 1.000000
vn 0.000000 0.000000 1.000000
vn 0.000000 -1.000000 0.000000
vn 0.000000 -1.000000 0.000000
s off
g pCubeShape1
usemtl initialShadingGroup
f 12/113/1 3/114/2 1/115/3 10/116/4
f 7/57/5 13/58/6 10/59/7 1/60/8
s 1
f 6/1/9 30/2/10 8/3/11
s off
f 3/9/12 5/10/13 7/11/14 1/12/15
f 28/63/16 14/61/17 8/62/18 27/64/19
f 4/119/20 11/120/21 9/121/22 2/122/23
s 2
f 3/65/24 21/66/25 22/67/26 5/68/27
s 3
f 23/125/28 15/126/29 13/127/30
s off
f 3/114/31 12/113/32 24/117/33 21/118/34
f 15/13/35 12/14/36 10/15/37 13/16/38
s 4
f 16/17/39 14/18/40 31/19/41
s off
f 24/73/42 12/74/43 15/75/44 23/76/45
s 3
f 16/132/46 19/128/47 14/129/48
s off
f 4/119/49 17/123/50 20/124/51 11/120/52
s 2
f 5/68/27 22/67/26 18/69/53 6/70/54
s off
f 5/133/55 6/134/56 8/135/57 7/136/58
f 14/61/59 13/58/60 7/57/61 8/62/62
s 3
f 19/128/47 23/125/28 13/127/30 14/129/48
s off
f 18/130/63 22/131/64 23/125/65 19/128/66
f 22/25/67 21/26/68 24/27/69 23/28/70
f 9/77/71 26/78/72 25/79/73 2/80/74
s 4
f 11/22/75 32/21/76 9/23/77
s 1
f 29/5/78 4/4/79 2/7/80
s 4
f 32/21/76 11/22/75 16/17/39 31/19/41
s off
f 11/81/81 20/82/82 19/83/83 16/84/84
f 20/29/85 17/30/86 18/31/87 19/32/88
s 2
f 17/71/89 4/72/90 6/70/54 18/69/53
s 1
f 4/4/79 29/5/78 30/2/10 6/1/9
f 8/3/11 30/2/10 27/6/91
s 4
f 28/20/92 31/19/41 14/18/40
f 9/23/77 32/21/76 26/24/93
s 1
f 2/7/80 25/8/94 29/5/78
s off
f 26/137/95 32/138/96 29/139/97 25/140/98
f 29/85/99 32/86/100 31/87/101 30/88/102
f 31/141/103 28/142/104 27/143/105 30/144/106
f 40/33/107 39/34/108 41/35/109 42/36/110
s 5
f 34/89/111 37/90/112 55/91/113 35/92/114
s off
f 36/37/115 33/38/116 34/39/117 35/40/118
s 6
f 36/101/119 56/102/120 38/103/121 33/104/122
s off
f 37/41/123 38/42/124 56/43/125 55/44/126
s 6
f 33/104/122 38/103/121 39/107/127 40/108/128
s off
f 38/145/129 37/146/130 41/147/131 39/148/132
s 5
f 37/90/112 34/89/111 42/93/133 41/94/134
s off
f 34/149/135 33/150/136 40/151/137 42/152/138
f 50/45/139 52/46/140 51/47/141 49/48/142
s 7
f 44/97/143 45/96/144 53/95/145 47/98/146
s off
f 46/49/147 45/50/148 44/51/149 43/52/150
s 8
f 46/105/151 43/109/152 48/110/153 54/106/154
s off
f 47/53/155 53/54/156 54/55/157 48/56/158
s 8
f 43/109/152 50/111/159 49/112/160 48/110/153
s off
f 48/153/161 49/154/162 51/155/163 47/156/164
s 7
f 47/98/146 51/99/165 52/100/166 44/97/143
s off
f 44/157/167 52/158/168 50/159/169 43/160/170
f 36/161/171 35/162/172 45/163/173 46/164/174
s 5
f 35/92/114 55/91/113 53/95/175 45/96/176
s off
f 55/165/177 56/166/178 54/167/179 53/168/180
s 6
f 56/102/120 36/101/119 46/105/181 54/106/182
