# This file uses centimeters as units for non-parametric coordinates.

mtllib BG_building_01.mtl
g default
v -12.500000 -35.000000 8.500000
v -12.500000 35.000000 8.500000
v 12.500000 35.000000 8.500000
v -12.500000 35.000000 -8.500000
v 12.500000 35.000000 -8.500000
v -12.500000 -35.000000 -8.500000
v 12.500000 -35.000000 -8.500000
vt 0.611523 -0.000000
vt 0.611523 1.000000
vt 0.622930 0.432683
vt 0.357314 1.000000
vt 1.000000 0.432683
vt 0.357314 0.000000
vt 0.000000 0.000000
vt 0.622930 1.000000
vt 1.000000 1.000000
vt 0.000000 1.000000
vn 0.000000 1.000000 0.000000
vn 0.000000 1.000000 0.000000
vn 0.000000 1.000000 0.000000
vn 0.000000 1.000000 0.000000
vn 0.000000 0.000000 -1.000000
vn 0.000000 0.000000 -1.000000
vn 0.000000 0.000000 -1.000000
vn 0.000000 0.000000 -1.000000
vn -1.000000 0.000000 0.000000
vn -1.000000 0.000000 0.000000
vn -1.000000 0.000000 0.000000
vn -1.000000 0.000000 0.000000
s off
g lp
usemtl lambert3SG
f 2/8/1 3/3/2 5/5/3 4/9/4
f 4/4/5 5/10/6 7/7/7 6/6/8
f 6/6/9 1/1/10 2/2/11 4/4/12
