# This file uses centimeters as units for non-parametric coordinates.

mtllib BG_building_02.mtl
g default
v -10.000000 -25.000000 10.000000
v 10.000000 -25.000000 10.000000
v -10.000000 25.000000 10.000000
v 10.000000 25.000000 10.000000
v -10.000000 25.000000 -10.000000
v 10.000000 25.000000 -10.000000
v -10.000000 -25.000000 -10.000000
v 10.000000 -25.000000 -10.000000
vt 0.000000 0.001072
vt 0.399143 0.001072
vt 0.399143 0.998928
vt 0.000000 0.998928
vt 0.399143 0.001072
vt 0.399145 0.001072
vt 0.399145 0.998928
vt 0.399143 0.998928
vt 1.000000 0.594330
vt 0.405670 0.000000
vt 0.000003 0.001071
vt 0.405670 0.594330
vt 0.000000 0.998928
vt 0.000000 0.001072
vt 1.000000 0.000000
vt 0.000003 0.998928
vn 0.000000 1.000000 0.000000
vn 0.000000 1.000000 0.000000
vn 0.000000 1.000000 0.000000
vn 0.000000 1.000000 0.000000
vn 0.000000 0.000000 -1.000000
vn 0.000000 0.000000 -1.000000
vn 0.000000 0.000000 -1.000000
vn 0.000000 0.000000 -1.000000
vn 1.000000 0.000000 0.000000
vn 1.000000 0.000000 0.000000
vn 1.000000 0.000000 0.000000
vn 1.000000 0.000000 0.000000
vn -1.000000 0.000000 0.000000
vn -1.000000 0.000000 0.000000
vn -1.000000 0.000000 0.000000
vn -1.000000 0.000000 0.000000
s off
g b02_lp
usemtl initialShadingGroup
f 3/15/1 4/9/2 6/12/3 5/10/4
f 5/8/5 6/13/6 8/14/7 7/5/8
f 2/1/9 8/2/10 6/3/11 4/4/12
f 7/11/13 1/6/14 3/7/15 5/16/16
