# This file uses centimeters as units for non-parametric coordinates.

mtllib window_city.mtl
g default
v -1.851080 4.388731 -0.143767
v 1.851080 4.388731 -0.143767
v -1.851080 4.611269 -0.143767
v 1.851080 4.611269 -0.143767
v -1.851080 4.611269 -0.356233
v 1.851080 4.611269 -0.356233
v -1.851080 4.388731 -0.356233
v 1.851080 4.388731 -0.356233
v 1.638731 7.238214 -0.194935
v 1.638731 1.550819 -0.194935
v 1.861269 7.238214 -0.194935
v 1.861269 1.550819 -0.194935
v 1.861269 7.238214 -0.407400
v 1.861269 1.550819 -0.407400
v 1.638731 7.238214 -0.407400
v 1.638731 1.550819 -0.407400
v 1.516803 0.066813 0.000000
v 2.086332 0.066813 0.000000
v 1.516803 0.636341 0.000000
v 2.086332 0.636341 0.000000
v 1.516803 0.636341 -0.518904
v 2.086332 0.636341 -0.518904
v 1.516803 0.446139 0.000000
v 2.086332 0.446139 0.000000
v 2.086332 0.425517 -0.585859
v 2.086332 0.468711 -0.591195
v 1.516803 0.468711 -0.591195
v 1.516803 0.425517 -0.585859
v -1.518058 0.066813 0.000000
v -2.088058 0.066813 0.000000
v -1.518058 0.636341 0.000000
v -2.088058 0.636341 0.000000
v -1.518058 0.636341 -0.518904
v -2.088058 0.636341 -0.518904
v -1.518058 0.446139 0.000000
v -2.088058 0.446139 0.000000
v -2.088058 0.425517 -0.585859
v -2.088058 0.468711 -0.591195
v -1.518058 0.468711 -0.591195
v -1.518058 0.425517 -0.585859
v -2.147854 0.609954 0.000000
v 2.147854 0.609954 0.000000
v -2.147854 0.609954 -0.608158
v 2.147854 0.609954 -0.608158
v 2.147854 1.199121 -0.750000
v -2.147854 1.199121 -0.750000
v -2.147854 1.199121 0.000000
v 2.147854 1.199121 0.000000
v 2.147854 8.006755 -0.750000
v -2.147854 8.006755 -0.750000
v -2.147854 8.006755 0.000000
v 2.147854 8.006755 0.000000
v 2.321692 8.050879 -1.000000
v -2.321692 8.050879 -1.000000
v 2.321692 8.050879 0.000000
v -2.321692 8.050879 0.000000
v 2.397854 8.331972 0.000000
v 2.397854 8.331972 -1.000000
v -2.397854 8.331972 -1.000000
v -2.397854 8.331972 0.000000
v -2.647854 8.550879 -1.250000
v 2.647854 8.550879 -1.250000
v 2.647854 8.376194 -1.250000
v -2.647854 8.376194 -1.250000
v 2.647854 8.550879 0.000000
v 2.647854 8.376194 0.000000
v -2.647854 8.550879 0.000000
v -2.647854 8.376194 0.000000
v 2.201985 0.733223 0.000000
v 2.201985 0.733223 -0.680825
v -2.201985 0.733223 -0.680825
v -2.201985 0.733223 0.000000
v 2.330689 0.944781 0.000000
v 2.330689 0.944781 -0.857176
v -2.330689 0.944781 -0.857176
v -2.330689 0.944781 0.000000
v 2.483921 1.124243 -1.063792
v 2.440690 1.199121 -1.029103
v -2.440690 1.199121 -1.029103
v -2.483921 1.124243 -1.063792
v -2.447533 1.199121 0.000000
v -2.482711 1.122827 0.000000
v 2.482711 1.122827 0.000000
v 2.447533 1.199121 0.000000
v 1.947854 7.350879 -0.750000
v -1.947854 7.350879 -0.750000
v 1.947854 1.399121 -0.750000
v -1.947854 1.399121 -0.750000
v 1.916238 7.302576 -0.500000
v -1.916238 7.302576 -0.500000
v 1.916238 1.447424 -0.500000
v -1.916238 1.447424 -0.500000
v 1.716238 7.102576 -0.500000
v -1.716238 7.102576 -0.500000
v 1.716238 1.647424 -0.500000
v -1.716238 1.647424 -0.500000
v 1.716238 7.102576 -0.250000
v -1.716238 7.102576 -0.250000
v 1.716238 1.647424 -0.250000
v -1.716238 1.647424 -0.250000
v -1.851080 1.811270 -0.143767
v 1.851080 1.811270 -0.143767
v -1.851080 1.811270 -0.356233
v 1.851080 1.811270 -0.356233
v -1.851080 1.588731 -0.356233
v 1.851080 1.588731 -0.356233
v -1.851080 6.938731 -0.143767
v 1.851080 6.938731 -0.143767
v -1.851080 7.161270 -0.356233
v 1.851080 7.161270 -0.356233
v -1.851080 6.938731 -0.356233
v 1.851080 6.938731 -0.356233
v -1.861269 7.238214 -0.194935
v -1.861269 1.550819 -0.194935
v -1.638731 7.238214 -0.194935
v -1.638731 1.550819 -0.194935
v -1.638731 7.238214 -0.407400
v -1.638731 1.550819 -0.407400
v -1.861269 7.238214 -0.407400
v -1.861269 1.550819 -0.407400
vt 0.841814 0.955887
vt 0.529675 0.955887
vt 0.841814 0.937973
vt 0.529675 0.937973
vt 0.841814 0.919210
vt 0.529675 0.919210
vt 0.841814 0.901297
vt 0.529675 0.901297
vt 0.945410 0.978068
vt 0.945410 0.498548
vt 0.963324 0.498548
vt 0.963324 0.978068
vt 0.982086 0.498548
vt 0.982086 0.978068
vt 1.000000 0.498548
vt 1.000000 0.978068
vt 0.420415 0.362845
vt 0.345686 0.362845
vt 0.341218 0.336737
vt 0.420415 0.338891
vt 0.420415 0.243044
vt 0.345686 0.243044
vt 0.303238 0.269034
vt 0.317506 0.340133
vt 0.281953 0.282066
vt 0.420415 0.333180
vt 0.345686 0.333181
vt 0.462863 0.269034
vt 0.484148 0.282065
vt 0.448595 0.340133
vt 0.101169 0.376271
vt 0.175960 0.376270
vt 0.175960 0.352317
vt 0.096701 0.350163
vt 0.101169 0.256470
vt 0.175960 0.256470
vt 0.218409 0.282459
vt 0.204140 0.353559
vt 0.239693 0.295491
vt 0.101169 0.346606
vt 0.175960 0.346606
vt 0.058721 0.282459
vt 0.037437 0.295491
vt 0.072990 0.353559
vt 0.516691 0.080364
vt 0.074994 0.080364
vt 0.074995 0.065794
vt 0.516691 0.065795
vt 0.916588 0.253937
vt 0.558298 0.253937
vt 0.558298 0.203212
vt 0.916588 0.203212
vt 0.060425 0.080364
vt 0.074995 0.184623
vt 0.060425 0.184622
vt 0.516692 0.184623
vt 0.531262 0.080364
vt 0.531262 0.184623
vt 0.395650 0.920892
vt 0.761144 0.188189
vt 0.500000 0.188189
vt 0.335684 0.188189
vt 0.434773 0.413409
vt 0.916588 0.404387
vt 0.499397 1.000000
vt 0.591686 0.122068
vt 0.000001 0.413408
vt 0.064626 0.413408
vt 0.064626 1.000000
vt 0.000000 0.184622
vt 0.434772 1.000000
vt 0.489488 0.021174
vt 0.102199 0.021174
vt 0.014959 0.101216
vt 0.014959 0.184622
vt 0.576727 0.184623
vt 0.576727 0.101216
vt 0.039249 0.101216
vt 0.039249 0.184623
vt 0.495840 0.044619
vt 0.095846 0.044619
vt 0.552437 0.184623
vt 0.552437 0.101216
vt 0.474885 0.404231
vt 0.475012 0.353506
vt 0.486256 0.347474
vt 0.486114 0.404259
vt 0.921103 0.265872
vt 0.553782 0.265871
vt 0.999873 0.353507
vt 1.000000 0.404231
vt 0.988771 0.404259
vt 0.988629 0.347474
vt 0.506947 0.332817
vt 0.506768 0.404311
vt 0.931837 0.288844
vt 0.543048 0.288844
vt 0.968117 0.404311
vt 0.967938 0.332817
vt 0.526672 0.315633
vt 0.533873 0.318552
vt 0.533302 0.404386
vt 0.526295 0.404359
vt 0.530267 0.311670
vt 0.944618 0.311670
vt 0.941012 0.318553
vt 0.948213 0.315633
vt 0.948590 0.404360
vt 0.941583 0.404387
vt 0.000000 0.000000
vt 0.000000 0.000000
vt 0.000000 0.000000
vt 0.000000 0.000000
vt 0.000000 0.000000
vt 0.000000 0.000000
vt 0.000000 0.000000
vt 0.000000 0.000000
vt 0.761144 0.200157
vt 0.925459 0.200157
vt 0.500000 0.200157
vt 0.335684 0.200157
vt 0.841814 0.839540
vt 0.529676 0.839540
vt 0.529676 0.821626
vt 0.841814 0.821626
vt 0.529676 0.802863
vt 0.841814 0.802863
vt 0.841814 0.888923
vt 0.529675 0.888923
vt 0.529675 0.870161
vt 0.841814 0.870161
vt 0.529675 0.852247
vt 0.841814 0.852247
vt 0.862563 0.978068
vt 0.862563 0.498549
vt 0.880477 0.498549
vt 0.880477 0.978068
vt 0.899240 0.498548
vt 0.899240 0.978068
vt 0.917153 0.498549
vt 0.917153 0.978068
vt 0.000000 1.000000
vt 0.000000 0.122067
vt 0.116698 0.000000
vt 0.474988 0.000000
vt 0.591686 0.184623
vt 0.558298 0.341831
vt 0.916588 0.341832
vt 0.417539 0.943485
vt 0.417540 0.430642
vt 0.081859 0.430642
vt 0.081859 0.943485
vt 0.558297 0.404386
vt 0.499398 0.413409
vt 0.000000 0.000000
vt 0.000000 0.000000
vt 0.000000 0.000000
vt 0.000000 0.000000
vt 0.000000 0.000000
vt 0.000000 0.000000
vt 0.424883 0.336737
vt 0.345686 0.338891
vt 0.101169 0.352317
vt 0.180428 0.350163
vt 0.000000 0.000000
vt 0.000000 0.000000
vt 0.000000 0.000000
vt 0.000000 0.000000
vt 0.000000 0.000000
vt 0.000000 0.000000
vt 0.925459 0.188189
vt 0.074541 0.188189
vt 0.395650 0.450840
vt 0.099885 0.450840
vt 0.099885 0.920892
vt 0.074541 0.200157
vn 0.000000 1.000000 0.000000
vn 0.000000 1.000000 0.000000
vn 0.000000 1.000000 0.000000
vn 0.000000 1.000000 0.000000
vn 0.000000 0.000000 -1.000000
vn 0.000000 0.000000 -1.000000
vn 0.000000 0.000000 -1.000000
vn 0.000000 0.000000 -1.000000
vn 0.000000 -1.000000 0.000000
vn 0.000000 -1.000000 0.000000
vn 0.000000 -1.000000 0.000000
vn 0.000000 -1.000000 0.000000
vn 1.000000 0.000000 0.000000
vn 1.000000 0.000000 0.000000
vn 1.000000 0.000000 0.000000
vn 1.000000 0.000000 0.000000
vn 0.000000 0.000000 -1.000000
vn 0.000000 0.000000 -1.000000
vn 0.000000 0.000000 -1.000000
vn 0.000000 0.000000 -1.000000
vn -1.000000 0.000000 0.000000
vn -1.000000 0.000000 0.000000
vn -1.000000 0.000000 0.000000
vn -1.000000 0.000000 0.000000
vn 0.000000 0.396000 -0.918250
vn 0.000000 0.396000 -0.918250
vn 0.000000 0.302688 -0.953090
vn 0.000000 0.302688 -0.953090
vn 1.000000 0.000000 0.000000
vn 1.000000 0.000000 0.000000
vn 1.000000 0.000000 0.000000
vn 1.000000 0.000000 0.000000
vn 0.000000 -0.827001 -0.562200
vn 0.000000 -0.827001 -0.562200
vn 0.000000 -0.852841 -0.522171
vn 0.000000 -0.852841 -0.522171
vn -1.000000 0.000000 0.000000
vn -1.000000 -0.000000 0.000000
vn -1.000000 0.000000 0.000000
vn 1.000000 0.000000 0.000000
vn 1.000000 0.000000 0.000000
vn -1.000000 -0.000000 0.000000
vn -1.000000 -0.000000 0.000000
vn -1.000000 -0.000000 0.000000
vn 0.000000 0.396000 -0.918251
vn 0.000000 0.302688 -0.953090
vn 0.000000 0.302688 -0.953090
vn 0.000000 0.396000 -0.918251
vn -1.000000 0.000000 0.000000
vn -1.000000 0.000000 0.000000
vn -1.000000 0.000000 0.000000
vn -1.000000 0.000000 0.000000
vn 0.000000 -0.827001 -0.562200
vn 0.000000 -0.852841 -0.522171
vn 0.000000 -0.852841 -0.522171
vn 0.000000 -0.827001 -0.562200
vn 1.000000 0.000000 0.000000
vn 1.000000 0.000001 0.000000
vn 1.000000 0.000000 0.000000
vn -1.000000 0.000000 0.000000
vn -1.000000 0.000000 0.000000
vn 1.000000 0.000001 0.000000
vn 1.000000 0.000000 0.000000
vn 1.000000 0.000000 0.000000
vn 0.000000 0.000000 -1.000000
vn 0.000000 0.000000 -1.000000
vn 0.000000 0.000000 -1.000000
vn 0.000000 0.000000 -1.000000
vn 0.000000 -1.000000 0.000000
vn 0.000000 -1.000000 0.000000
vn 0.000000 -1.000000 0.000000
vn 0.000000 -1.000000 0.000000
vn 1.000000 0.000000 0.000000
vn 1.000000 0.000000 0.000000
vn 1.000000 0.000000 0.000000
vn 1.000000 0.000000 0.000000
vn -1.000000 0.000000 0.000000
vn -1.000000 0.000000 0.000000
vn -1.000000 0.000000 0.000000
vn -1.000000 0.000000 0.000000
vn 0.000000 0.000000 -1.000000
vn 0.000000 0.000000 -1.000000
vn 0.000000 0.000000 -1.000000
vn 0.000000 0.000000 -1.000000
vn -1.000000 0.000000 0.000000
vn -1.000000 0.000000 0.000000
vn -1.000000 0.000000 0.000000
vn -1.000000 0.000000 0.000000
vn 1.000000 0.000000 0.000000
vn 1.000000 0.000000 0.000000
vn 1.000000 0.000000 0.000000
vn 1.000000 0.000000 0.000000
vn 0.000000 -0.984780 -0.173806
vn 0.000000 -0.984780 -0.173806
vn 0.000000 -0.984780 -0.173806
vn 0.000000 -0.984780 -0.173806
vn 0.246020 -0.969265 0.000000
vn 0.246020 -0.969265 0.000000
vn 0.246020 -0.969265 0.000000
vn 0.246020 -0.969265 0.000000
vn -0.246020 -0.969265 0.000000
vn -0.246020 -0.969265 0.000000
vn -0.246020 -0.969265 0.000000
vn -0.246020 -0.969265 0.000000
vn 0.965198 -0.261521 0.000000
vn 0.965198 -0.261521 0.000000
vn 0.965198 -0.261521 0.000000
vn 0.965198 -0.261521 0.000000
vn 0.000000 0.000000 -1.000000
vn 0.000000 0.000000 -1.000000
vn 0.000000 0.000000 -1.000000
vn 0.000000 0.000000 -1.000000
vn -0.965198 -0.261521 0.000000
vn -0.965198 -0.261521 0.000000
vn -0.965198 -0.261521 0.000000
vn -0.965198 -0.261521 0.000000
vn 0.000000 -0.984713 -0.174185
vn 0.000000 -0.984713 -0.174185
vn 0.000000 -0.984713 -0.174185
vn 0.000000 -0.984713 -0.174185
vn 0.174183 -0.984713 0.000000
vn 0.174183 -0.984713 0.000000
vn 0.174183 -0.984713 0.000000
vn 0.174183 -0.984713 0.000000
vn 0.000000 1.000000 0.000000
vn 0.000000 1.000000 0.000000
vn 0.000000 1.000000 0.000000
vn 0.000000 1.000000 0.000000
vn -0.174184 -0.984713 0.000000
vn -0.174184 -0.984713 0.000000
vn -0.174184 -0.984713 0.000000
vn -0.174184 -0.984713 0.000000
vn 0.915610 -0.402067 0.000000
vn 0.915610 -0.402067 0.000000
vn 0.866676 -0.498871 0.000000
vn 0.875166 -0.483822 0.000000
vn 0.000000 -0.611135 -0.791526
vn 0.000000 -0.611135 -0.791526
vn 0.000000 -0.507828 -0.861458
vn 0.000000 -0.507828 -0.861458
vn -0.915610 -0.402067 0.000000
vn -0.915610 -0.402067 0.000000
vn -0.875166 -0.483822 0.000000
vn -0.866676 -0.498871 0.000000
vn 0.786802 -0.617205 -0.000000
vn 0.806003 -0.591912 -0.000000
vn 0.000000 -0.718019 -0.696023
vn 0.000000 -0.718019 -0.696023
vn -0.806003 -0.591912 -0.000000
vn -0.786802 -0.617205 -0.000000
vn 0.887501 0.460801 -0.002077
vn 0.887501 0.460801 -0.002077
vn 0.887501 0.460801 -0.002077
vn 0.887501 0.460801 -0.002077
vn 0.000000 0.420362 -0.907357
vn 0.000000 0.420362 -0.907357
vn 0.000000 0.420362 -0.907357
vn 0.000000 0.420362 -0.907357
vn -0.887501 0.460801 -0.002077
vn -0.887501 0.460801 -0.002077
vn -0.887501 0.460801 -0.002077
vn -0.887501 0.460801 -0.002077
vn 0.000000 -0.754975 -0.655753
vn 0.000000 -0.754975 -0.655753
vn -0.760496 -0.649343 -0.000000
vn -0.760496 -0.649343 -0.000000
vn 0.760496 -0.649342 -0.000000
vn 0.760496 -0.649342 -0.000000
vn 0.000000 1.000000 0.000000
vn 0.000000 1.000000 0.000000
vn 0.000000 1.000000 0.000000
vn 0.000000 1.000000 0.000000
vn 0.000000 1.000000 0.000000
vn 0.000000 1.000000 0.000000
vn 0.000000 1.000000 0.000000
vn 0.000000 1.000000 0.000000
vn 0.000000 0.000000 -1.000000
vn 0.000000 0.000000 -1.000000
vn 0.000000 0.000000 -1.000000
vn 0.000000 0.000000 -1.000000
vn 0.000000 0.000000 -1.000000
vn 0.000000 0.000000 -1.000000
vn 0.000000 0.000000 -1.000000
vn 0.000000 0.000000 -1.000000
vn 0.000000 -0.981842 -0.189701
vn 0.000000 -0.981842 -0.189701
vn 0.000000 -0.981842 -0.189702
vn 0.000000 -0.981842 -0.189702
vn -0.992098 0.000000 -0.125467
vn -0.992098 0.000000 -0.125467
vn -0.992098 0.000000 -0.125467
vn -0.992098 0.000000 -0.125467
vn 0.000000 0.981842 -0.189704
vn 0.000000 0.981842 -0.189704
vn 0.000000 0.981842 -0.189704
vn 0.000000 0.981842 -0.189704
vn 0.992098 0.000000 -0.125467
vn 0.992098 0.000000 -0.125467
vn 0.992098 0.000000 -0.125467
vn 0.992098 0.000000 -0.125467
vn -0.000000 0.000000 -1.000000
vn 0.000000 0.000000 -1.000000
vn 0.000000 0.000000 -1.000000
vn -0.000000 0.000000 -1.000000
vn 0.000000 0.000000 -1.000000
vn 0.000000 0.000000 -1.000000
vn -0.000000 0.000000 -1.000000
vn -0.000000 0.000000 -1.000000
vn 0.000000 -1.000000 0.000000
vn 0.000000 -1.000000 0.000000
vn 0.000000 -1.000000 0.000000
vn 0.000000 -1.000000 0.000000
vn -1.000000 0.000000 0.000000
vn -1.000000 0.000000 0.000000
vn -1.000000 0.000000 0.000000
vn -1.000000 0.000000 0.000000
vn 0.000000 1.000000 0.000000
vn 0.000000 1.000000 0.000000
vn 0.000000 1.000000 0.000000
vn 0.000000 1.000000 0.000000
vn 1.000000 0.000000 0.000000
vn 1.000000 0.000000 0.000000
vn 1.000000 0.000000 0.000000
vn 1.000000 0.000000 0.000000
vn 0.000000 1.000000 0.000000
vn 0.000000 1.000000 0.000000
vn 0.000000 1.000000 0.000000
vn 0.000000 1.000000 0.000000
vn 0.000000 0.000000 -1.000000
vn 0.000000 0.000000 -1.000000
vn 0.000000 0.000000 -1.000000
vn 0.000000 0.000000 -1.000000
vn 0.000000 0.000000 -1.000000
vn 0.000000 0.000000 -1.000000
vn 0.000000 0.000000 -1.000000
vn 0.000000 0.000000 -1.000000
vn 0.000000 -1.000000 0.000000
vn 0.000000 -1.000000 0.000000
vn 0.000000 -1.000000 0.000000
vn 0.000000 -1.000000 0.000000
vn 1.000000 0.000000 0.000000
vn 1.000000 0.000000 0.000000
vn 1.000000 0.000000 0.000000
vn 1.000000 0.000000 0.000000
vn 0.000000 0.000000 -1.000000
vn 0.000000 0.000000 -1.000000
vn 0.000000 0.000000 -1.000000
vn 0.000000 0.000000 -1.000000
vn -1.000000 0.000000 0.000000
vn -1.000000 0.000000 0.000000
vn -1.000000 0.000000 0.000000
vn -1.000000 0.000000 0.000000
s off
g pCube10
usemtl initialShadingGroup
f 3/1/1 4/2/2 6/4/3 5/3/4
f 5/3/5 6/4/6 8/6/7 7/5/8
f 7/5/9 8/6/10 2/8/11 1/7/12
f 11/9/13 12/10/14 14/11/15 13/12/16
f 13/12/17 14/11/18 16/13/19 15/14/20
f 15/14/21 16/13/22 10/15/23 9/16/24
s 1
f 21/17/25 22/18/26 26/162/27 27/20/28
s 2
f 24/23/29 26/19/30 22/24/31 20/25/32
s 1
f 28/26/33 25/27/34 18/22/35 17/21/36
s 3
f 17/21/37 23/28/38 28/26/39
s 2
f 18/22/40 25/27/41 24/23/29
s 3
f 27/161/42 23/28/38 19/29/43 21/30/44
s 1
f 26/162/27 25/27/34 28/26/33 27/20/28
s 2
f 24/23/29 25/27/41 26/19/30
s 3
f 23/28/38 27/161/42 28/26/39
s 4
f 33/31/45 39/163/46 38/33/47 34/32/48
s 5
f 36/37/49 32/39/50 34/38/51 38/164/52
s 4
f 40/40/53 29/35/54 30/36/55 37/41/56
s 6
f 29/35/57 40/40/58 35/42/59
s 5
f 30/36/60 36/37/49 37/41/61
s 6
f 39/34/62 33/44/63 31/43/64 35/42/59
s 4
f 38/33/47 39/163/46 40/40/53 37/41/56
s 5
f 36/37/49 38/164/52 37/41/61
s 6
f 35/42/59 40/40/58 39/34/62
s off
f 61/45/65 62/46/66 63/47/67 64/48/68
f 43/49/69 44/50/70 42/51/71 41/52/72
f 63/53/73 62/46/74 65/54/75 66/55/76
f 67/56/77 61/45/78 64/57/79 68/58/80
f 98/59/81 97/175/82 99/174/83 100/173/84
f 46/63/85 47/154/86 51/65/87 50/71/88
f 48/67/89 45/68/90 49/69/91 52/142/92
f 49/144/93 50/145/94 54/72/95 53/73/96
f 52/70/97 49/143/98 53/74/99 55/75/100
f 50/66/101 51/146/102 56/76/103 54/77/104
f 53/74/105 58/78/106 57/79/107 55/75/108
f 59/80/109 58/81/110 53/73/111 54/72/112
f 60/82/113 59/83/114 54/77/115 56/76/116
f 58/81/117 59/80/118 64/48/119 63/47/120
f 57/79/121 58/78/122 63/53/123 66/55/124
f 62/46/125 61/45/126 67/56/127 65/54/128
f 59/83/129 60/82/130 68/58/131 64/57/132
s 7
f 42/84/133 44/85/134 70/86/135 69/87/136
s 8
f 71/88/137 70/89/138 44/50/139 43/49/140
s 9
f 43/90/141 41/91/142 72/92/143 71/93/144
s 7
f 69/87/136 70/86/135 74/94/145 73/95/146
s 8
f 75/96/147 74/97/148 70/89/138 71/88/137
s 9
f 71/93/144 72/92/143 76/98/149 75/99/150
s off
f 77/100/151 78/101/152 84/102/153 83/103/154
f 78/101/155 77/104/156 80/105/157 79/106/158
f 79/106/159 80/107/160 82/108/161 81/109/162
s 8
f 80/105/163 77/104/164 74/97/148 75/96/147
s 9
f 75/99/150 76/98/149 82/108/165 80/107/166
s 7
f 73/95/146 74/94/145 77/100/167 83/103/168
s 10
f 46/148/169 45/147/170 78/101/171 79/106/172
f 47/64/173 46/148/169 79/106/172 81/109/174
f 45/147/170 48/153/175 84/102/176 78/101/171
s 11
f 50/71/177 49/69/178 85/152/179 86/149/180
f 49/69/178 45/68/181 87/151/182 85/152/179
f 45/68/181 46/63/183 88/150/184 87/151/182
f 46/63/183 50/71/177 86/149/180 88/150/184
s off
f 86/111/185 85/110/186 89/159/187 90/155/188
f 85/110/189 87/112/190 91/158/191 89/159/192
f 87/112/193 88/113/194 92/157/195 91/158/196
f 88/113/197 86/160/198 90/156/199 92/157/200
s 12
f 90/115/201 89/114/202 93/168/203 94/165/204
f 89/114/202 91/116/205 95/167/206 93/168/203
f 91/116/205 92/117/207 96/166/208 95/167/206
f 92/117/207 90/169/201 94/170/204 96/166/208
s off
f 94/119/209 93/118/210 97/60/211 98/171/212
f 93/118/213 95/120/214 99/61/215 97/60/216
f 95/120/217 96/121/218 100/62/219 99/61/220
f 96/121/221 94/176/222 98/172/223 100/62/224
f 101/122/225 102/123/226 104/124/227 103/125/228
f 103/125/229 104/124/230 106/126/231 105/127/232
f 109/128/233 110/129/234 112/130/235 111/131/236
f 111/131/237 112/130/238 108/132/239 107/133/240
f 115/134/241 116/135/242 118/136/243 117/137/244
f 117/137/245 118/136/246 120/138/247 119/139/248
f 119/139/249 120/138/250 114/140/251 113/141/252
