# This file uses centimeters as units for non-parametric coordinates.

mtllib window_rooftop.mtl
g default
v -3.000000 0.000000 1.500000
v 3.000000 0.000000 1.500000
v -1.134670 1.356706 0.000000
v 1.134670 1.356706 0.000000
v -3.000000 0.000000 -1.500000
v 3.000000 0.000000 -1.500000
v -3.000000 0.214128 1.500000
v -3.000000 0.214128 -1.500000
v 3.000000 0.214128 -1.500000
v 3.000000 0.214128 1.500000
vt 0.883001 0.411573
vt 0.861075 0.411573
vt 0.861075 0.206775
vt 0.883001 0.206775
vt 1.000000 0.309174
vt 0.719111 0.206775
vt 0.741037 0.206775
vt 0.741037 0.411573
vt 0.719111 0.411573
vt 0.858036 0.309174
vt 0.996308 0.204798
vt 0.791511 0.204798
vt 0.791511 0.000000
vt 0.996308 0.000000
vt 0.506609 0.204798
vt 0.506609 0.000000
vt 0.528535 0.000000
vt 0.528535 0.204798
vt 0.645534 0.063669
vt 0.645534 0.141128
vt 0.765624 0.204798
vt 0.765624 0.000000
vt 0.787550 0.000000
vt 0.787550 0.204798
vt 0.648625 0.141129
vt 0.648625 0.063669
vn 0.000000 0.000000 1.000000
vn 0.000000 0.000000 1.000000
vn 0.000000 0.000000 1.000000
vn 0.000000 0.000000 1.000000
vn 0.000000 0.000000 -1.000000
vn 0.000000 0.000000 -1.000000
vn 0.000000 0.000000 -1.000000
vn 0.000000 0.000000 -1.000000
vn 0.000000 -1.000000 0.000000
vn 0.000000 -1.000000 0.000000
vn 0.000000 -1.000000 0.000000
vn 0.000000 -1.000000 0.000000
vn 1.000000 0.000000 0.000000
vn 1.000000 0.000000 0.000000
vn 1.000000 0.000000 0.000000
vn 1.000000 0.000000 0.000000
vn -1.000000 0.000000 0.000000
vn -1.000000 0.000000 0.000000
vn -1.000000 0.000000 0.000000
vn -1.000000 0.000000 0.000000
vn -0.522333 0.852742 0.000000
vn -0.522333 0.852742 0.000000
vn -0.522333 0.852742 0.000000
vn 0.000000 0.795503 -0.605949
vn 0.000000 0.795503 -0.605949
vn 0.000000 0.795503 -0.605949
vn 0.000000 0.795503 -0.605949
vn 0.522333 0.852742 0.000000
vn 0.522333 0.852742 0.000000
vn 0.522333 0.852742 0.000000
vn 0.000000 0.795503 0.605949
vn 0.000000 0.795503 0.605949
vn 0.000000 0.795503 0.605949
vn 0.000000 0.795503 0.605949
s off
g pCube1
usemtl pCube1SG
f 1/15/1 2/16/2 10/17/3 7/18/4
f 8/21/5 9/22/6 6/23/7 5/24/8
f 2/11/9 1/12/10 5/13/11 6/14/12
f 10/1/13 2/2/14 6/3/15 9/4/16
f 1/6/17 7/7/18 8/8/19 5/9/20
f 7/7/21 3/10/22 8/8/23
f 3/25/24 4/26/25 9/22/26 8/21/27
f 4/5/28 10/1/29 9/4/30
f 7/18/31 10/17/32 4/19/33 3/20/34
