# This file uses centimeters as units for non-parametric coordinates.

mtllib door_level_02.mtl
g default
v 0.750000 0.000000 -0.149994
v 0.750000 0.000000 0.149994
v -0.750000 0.000000 0.149994
v -0.750000 0.000000 -0.149994
v -0.578003 -0.076904 -0.149994
v 0.578003 -0.076904 -0.149994
v 0.578003 -0.076904 0.149994
v -0.578003 -0.076904 0.149994
v -0.578003 0.076904 0.149994
v 0.578003 0.076904 0.149994
v -0.578003 0.076904 -0.149994
v 0.578003 0.076904 -0.149994
v -0.578003 -0.076904 -0.088989
v 0.578003 -0.076904 -0.088989
v 0.578003 -0.076904 0.088989
v -0.578003 -0.076904 0.088989
v -0.578003 0.076904 0.088989
v 0.578003 0.076904 0.088989
v -0.578003 0.076904 -0.088989
v 0.578003 0.076904 -0.088989
v 0.692780 1.250000 -0.149994
v 0.750000 1.192871 -0.149994
v 0.750000 1.192871 0.149994
v 0.692780 1.250000 0.149994
v -0.750000 1.192871 -0.149994
v -0.692795 1.250000 -0.149994
v -0.692795 1.250000 0.149994
v -0.750000 1.192871 0.149994
v 0.750000 -1.192749 -0.149994
v 0.692780 -1.250000 -0.149994
v 0.692780 -1.250000 0.149994
v 0.750000 -1.192749 0.149994
v -0.692795 -1.250000 -0.149994
v -0.750000 -1.192749 -0.149994
v -0.750000 -1.192749 0.149994
v -0.692795 -1.250000 0.149994
v 0.578003 -1.020752 -0.149994
v 0.520782 -1.078003 -0.149994
v -0.520782 -1.078003 -0.149994
v -0.578003 -1.020752 -0.149994
v -0.578003 -1.020752 0.149994
v -0.520782 -1.078003 0.149994
v 0.520782 -1.078003 0.149994
v 0.578003 -1.020752 0.149994
v 0.578003 1.020752 0.149994
v 0.520782 1.078125 0.149994
v -0.520782 1.078125 0.149994
v -0.578003 1.020752 0.149994
v -0.578003 1.020752 -0.149994
v -0.520782 1.078125 -0.149994
v 0.520782 1.078125 -0.149994
v 0.578003 1.020752 -0.149994
v 0.578003 -1.020752 -0.088989
v 0.520782 -1.078003 -0.088989
v -0.578003 -1.020752 -0.088989
v -0.520782 -1.078003 -0.088989
v -0.520782 -1.078003 0.088989
v -0.578003 -1.020752 0.088989
v 0.578003 -1.020752 0.088989
v 0.520782 -1.078003 0.088989
v 0.578003 1.020752 0.088989
v 0.520782 1.078125 0.088989
v -0.578003 1.020752 0.088989
v -0.520782 1.078125 0.088989
v -0.520782 1.078125 -0.088989
v -0.578003 1.020752 -0.088989
v 0.578003 1.020752 -0.088989
v 0.520782 1.078125 -0.088989
vt 0.926804 0.379666
vt 0.427582 0.381715
vt 0.073706 0.448915
vt 0.568976 0.447986
vt 0.940467 0.439804
vt 0.438489 0.440677
vt 0.059539 0.390212
vt 0.561512 0.389370
vt 0.588353 0.367131
vt 0.089274 0.369184
vt 0.417000 0.461629
vt 0.911745 0.460687
vt 0.523949 0.824381
vt 0.505191 0.805628
vt 0.561565 0.749237
vt 0.992153 0.907235
vt 0.977886 0.832380
vt 0.992162 0.832382
vt 0.494896 0.806433
vt 0.419755 0.768812
vt 0.996904 0.805555
vt 0.978150 0.824314
vt 0.921759 0.767940
vt 0.632164 0.907192
vt 0.603621 0.832335
vt 0.021940 0.825220
vt 0.003183 0.806465
vt 0.059562 0.750079
vt 0.505075 0.023618
vt 0.580220 0.061235
vt 0.369618 0.914363
vt 0.398179 0.989213
vt 0.476088 0.005669
vt 0.494845 0.024424
vt 0.438466 0.080811
vt 0.978030 0.004793
vt 0.996788 0.023546
vt 0.940414 0.079938
vt 0.009630 0.914404
vt 0.023915 0.989255
vt 0.009639 0.989257
vt 0.003132 0.024455
vt 0.021887 0.005698
vt 0.078274 0.062078
vt 0.574792 0.098689
vt 0.588353 0.098689
vt 0.903381 0.069247
vt 0.926804 0.098689
vt 0.903381 0.085185
vt 0.075743 0.100869
vt 0.092738 0.071444
vt 0.089274 0.100869
vt 0.403477 0.071444
vt 0.427582 0.100869
vt 0.403477 0.087375
vt 0.430754 0.733913
vt 0.417000 0.733913
vt 0.097505 0.763774
vt 0.073706 0.733913
vt 0.097505 0.747608
vt 0.925451 0.732538
vt 0.908246 0.762345
vt 0.911745 0.732538
vt 0.593369 0.762345
vt 0.568976 0.732538
vt 0.593369 0.746198
vt 0.977877 0.907233
vt 0.632173 0.832338
vt 0.369627 0.989216
vt 0.023906 0.914402
vt 0.008391 0.907117
vt 0.008400 0.832264
vt 0.306002 0.907152
vt 0.398170 0.914360
vt 0.695789 0.989179
vt 0.695781 0.914326
vt 0.993391 0.914292
vt 0.993400 0.989146
vt 0.306011 0.832299
vt 0.603612 0.907188
vt 0.523828 0.004860
vt 0.921655 0.061184
vt 0.940459 0.389314
vt 0.505133 0.414623
vt 0.561467 0.079994
vt 0.003158 0.415460
vt 0.059519 0.080835
vt 0.419709 0.062056
vt 0.438486 0.390187
vt 0.476141 0.825190
vt 0.078320 0.768834
vt 0.059542 0.440701
vt 0.494871 0.415428
vt 0.438509 0.750054
vt 0.996846 0.414550
vt 0.940512 0.749181
vt 0.580324 0.767991
vt 0.561520 0.439860
vt 0.592564 0.069247
vt 0.592564 0.085185
vt 0.913139 0.367131
vt 0.913139 0.098689
vt 0.574792 0.379666
vt 0.075743 0.381715
vt 0.092738 0.087375
vt 0.413903 0.369184
vt 0.413903 0.100869
vt 0.412767 0.763774
vt 0.412767 0.747608
vt 0.087568 0.461629
vt 0.087568 0.733913
vt 0.430754 0.448915
vt 0.925451 0.447986
vt 0.908246 0.746198
vt 0.582833 0.460687
vt 0.582833 0.732538
vn 0.000000 0.000000 1.000000
vn 0.000000 0.000000 1.000000
vn 0.000000 0.000000 1.000000
vn 0.000000 0.000000 1.000000
vn 0.000000 0.000000 -1.000000
vn 0.000000 0.000000 -1.000000
vn 0.000000 0.000000 -1.000000
vn 0.000000 0.000000 -1.000000
vn 0.000000 0.000000 -1.000000
vn 0.000000 0.000000 -1.000000
vn 0.000000 0.000000 -1.000000
vn 0.000000 0.000000 -1.000000
vn -0.000000 0.000000 1.000000
vn -0.000000 0.000000 1.000000
vn -0.000000 0.000000 1.000000
vn -0.000000 0.000000 1.000000
vn -0.000000 0.000000 1.000000
vn -0.000000 0.000000 1.000000
vn 0.000000 0.000000 -1.000000
vn 0.000000 0.000000 -1.000000
vn 0.000000 -1.000000 0.000000
vn 0.000000 -1.000000 0.000000
vn 0.000000 -1.000000 0.000000
vn 0.000000 -1.000000 0.000000
vn 0.000000 -1.000000 0.000000
vn 0.000000 -1.000000 0.000000
vn 0.000000 -1.000000 0.000000
vn 0.000000 -1.000000 0.000000
vn 0.000000 1.000000 0.000000
vn 0.000000 1.000000 0.000000
vn 0.000000 1.000000 0.000000
vn 0.000000 1.000000 0.000000
vn 0.000000 1.000000 0.000000
vn 0.000000 1.000000 0.000000
vn 0.000000 1.000000 0.000000
vn 0.000000 1.000000 0.000000
vn 0.000000 0.000000 -1.000000
vn 0.000000 0.000000 -1.000000
vn 0.000000 0.000000 -1.000000
vn 0.000000 0.000000 -1.000000
vn 0.000000 0.000000 1.000000
vn 0.000000 0.000000 1.000000
vn 0.000000 0.000000 1.000000
vn 0.000000 0.000000 1.000000
vn 0.000000 0.000000 -1.000000
vn 0.000000 0.000000 -1.000000
vn 0.000000 0.000000 -1.000000
vn 0.000000 0.000000 -1.000000
vn 0.706540 0.707673 0.000000
vn 0.706540 0.707673 0.000000
vn 0.706540 0.707673 0.000000
vn 0.706540 0.707673 0.000000
vn -0.000000 0.000000 1.000000
vn 0.000000 0.000000 1.000000
vn 0.000000 0.000000 1.000000
vn -0.000000 0.000000 1.000000
vn 0.000000 0.000000 -1.000000
vn 0.000000 0.000000 -1.000000
vn 0.000000 0.000000 -1.000000
vn 0.000000 0.000000 -1.000000
vn -0.706635 0.707579 0.000000
vn -0.706635 0.707579 0.000000
vn -0.706635 0.707579 0.000000
vn -0.706635 0.707579 0.000000
vn 0.000000 0.000000 1.000000
vn -0.000000 0.000000 1.000000
vn -0.000000 0.000000 1.000000
vn 0.000000 0.000000 1.000000
vn 0.000000 0.000000 -1.000000
vn 0.000000 0.000000 -1.000000
vn 0.000000 0.000000 -1.000000
vn 0.000000 0.000000 -1.000000
vn 0.707295 -0.706918 0.000000
vn 0.707295 -0.706918 0.000000
vn 0.707295 -0.706918 0.000000
vn 0.707295 -0.706918 0.000000
vn 0.000000 0.000000 1.000000
vn -0.000000 0.000000 1.000000
vn -0.000000 0.000000 1.000000
vn 0.000000 0.000000 1.000000
vn 0.000000 0.000000 -1.000000
vn 0.000000 0.000000 -1.000000
vn 0.000000 0.000000 -1.000000
vn 0.000000 0.000000 -1.000000
vn -0.707389 -0.706824 0.000000
vn -0.707389 -0.706824 0.000000
vn -0.707389 -0.706824 0.000000
vn -0.707389 -0.706824 0.000000
vn -0.000000 0.000000 1.000000
vn 0.000000 0.000000 1.000000
vn 0.000000 0.000000 1.000000
vn -0.000000 0.000000 1.000000
vn -0.707295 0.706918 0.000000
vn -0.707295 0.706918 0.000000
vn -0.707295 0.706918 0.000000
vn -0.707295 0.706918 0.000000
vn 0.707295 0.706918 0.000000
vn 0.707295 0.706918 0.000000
vn 0.707295 0.706918 0.000000
vn 0.707295 0.706918 0.000000
vn 0.707295 0.706918 0.000000
vn 0.707295 0.706918 0.000000
vn 0.707295 0.706918 0.000000
vn 0.707295 0.706918 0.000000
vn -0.707295 0.706918 0.000000
vn -0.707295 0.706918 0.000000
vn -0.707295 0.706918 0.000000
vn -0.707295 0.706918 0.000000
vn -0.708048 -0.706164 0.000000
vn -0.708048 -0.706164 0.000000
vn -0.708048 -0.706164 0.000000
vn -0.708048 -0.706164 0.000000
vn 0.708048 -0.706164 0.000000
vn 0.708048 -0.706164 0.000000
vn 0.708048 -0.706164 0.000000
vn 0.708048 -0.706164 0.000000
vn 0.708048 -0.706164 0.000000
vn 0.708048 -0.706164 0.000000
vn 0.708048 -0.706164 0.000000
vn 0.708048 -0.706164 0.000000
vn -0.708048 -0.706164 0.000000
vn -0.708048 -0.706164 0.000000
vn -0.708048 -0.706164 0.000000
vn -0.708048 -0.706164 0.000000
vn 0.000000 1.000000 0.000000
vn 0.000000 1.000000 0.000000
vn 0.000000 1.000000 0.000000
vn 0.000000 1.000000 0.000000
vn 0.000000 -1.000000 0.000000
vn 0.000000 -1.000000 0.000000
vn 0.000000 -1.000000 0.000000
vn 0.000000 -1.000000 0.000000
vn -1.000000 0.000000 0.000000
vn -1.000000 0.000000 0.000000
vn -1.000000 0.000000 0.000000
vn -1.000000 0.000000 0.000000
vn 1.000000 0.000000 0.000000
vn 1.000000 0.000000 0.000000
vn 1.000000 0.000000 0.000000
vn 1.000000 0.000000 0.000000
vn 1.000000 0.000000 0.000000
vn 1.000000 0.000000 0.000000
vn -1.000000 0.000000 0.000000
vn -1.000000 0.000000 0.000000
vn 0.000000 1.000000 0.000000
vn 0.000000 1.000000 0.000000
vn 0.000000 1.000000 0.000000
vn 0.000000 1.000000 0.000000
vn 1.000000 0.000000 0.000000
vn 1.000000 0.000000 0.000000
vn 1.000000 0.000000 0.000000
vn 1.000000 0.000000 0.000000
vn -1.000000 0.000000 0.000000
vn -1.000000 0.000000 0.000000
vn -1.000000 0.000000 0.000000
vn -1.000000 0.000000 0.000000
vn 1.000000 0.000000 0.000000
vn 1.000000 0.000000 0.000000
vn 1.000000 0.000000 0.000000
vn 1.000000 0.000000 0.000000
vn 0.000000 1.000000 0.000000
vn 0.000000 1.000000 0.000000
vn 0.000000 1.000000 0.000000
vn 0.000000 1.000000 0.000000
vn -1.000000 0.000000 0.000000
vn -1.000000 0.000000 0.000000
vn -1.000000 0.000000 0.000000
vn -1.000000 0.000000 0.000000
vn 0.000000 -1.000000 0.000000
vn 0.000000 -1.000000 0.000000
vn 0.000000 -1.000000 0.000000
vn 0.000000 -1.000000 0.000000
vn 1.000000 0.000000 0.000000
vn 1.000000 0.000000 0.000000
vn 1.000000 0.000000 0.000000
vn 1.000000 0.000000 0.000000
vn -1.000000 0.000000 0.000000
vn -1.000000 0.000000 0.000000
vn -1.000000 0.000000 0.000000
vn -1.000000 0.000000 0.000000
vn 1.000000 0.000000 0.000000
vn 1.000000 0.000000 0.000000
vn 1.000000 0.000000 0.000000
vn 1.000000 0.000000 0.000000
vn 0.000000 -1.000000 0.000000
vn 0.000000 -1.000000 0.000000
vn 0.000000 -1.000000 0.000000
vn 0.000000 -1.000000 0.000000
vn -1.000000 0.000000 0.000000
vn -1.000000 0.000000 0.000000
vn -1.000000 0.000000 0.000000
vn -1.000000 0.000000 0.000000
vn 0.000000 0.000000 -1.000000
vn 0.000000 0.000000 -1.000000
vn 0.000000 0.000000 -1.000000
vn 0.000000 0.000000 -1.000000
vn 0.000000 0.000000 1.000000
vn 0.000000 0.000000 1.000000
vn 0.000000 0.000000 1.000000
vn 0.000000 0.000000 1.000000
s 1
g Door_low
usemtl initialShadingGroup
f 15/106/1 16/10/2 58/52/3 59/107/4
s 2
f 67/116/5 66/63/6 65/114/7 68/66/8
s 3
f 4/95/9 1/84/10 6/8/11 5/83/12
s 4
f 2/93/13 3/86/14 8/7/15 7/89/16
f 3/86/14 2/93/13 10/6/17 9/92/18
s 3
f 1/84/10 4/95/9 11/5/19 12/98/20
s off
f 5/1/21 6/103/22 14/9/23 13/101/24
f 7/2/25 8/104/26 16/10/27 15/106/28
f 9/3/29 10/112/30 18/11/31 17/110/32
f 12/4/33 11/113/34 19/12/35 20/115/36
s 5
f 53/46/37 55/102/38 13/101/39 14/9/40
s 6
f 61/57/41 63/111/42 17/110/43 18/11/44
s 3
f 21/13/45 22/14/46 52/15/47 51/97/48
s off
f 22/16/49 21/67/50 24/17/51 23/18/52
s 4
f 23/19/53 24/90/54 46/20/55 45/94/56
s 3
f 25/21/57 26/22/58 50/23/59 49/96/60
s off
f 26/24/61 25/80/62 28/25/63 27/68/64
s 4
f 27/26/65 28/27/66 48/28/67 47/91/68
s 3
f 29/29/69 30/81/70 38/30/71 37/85/72
s off
f 30/31/73 29/74/74 32/32/75 31/69/76
s 4
f 31/33/77 32/34/78 44/35/79 43/88/80
s 3
f 33/36/81 34/37/82 40/38/83 39/82/84
s off
f 34/39/85 33/70/86 36/40/87 35/41/88
s 4
f 35/42/89 36/43/90 42/44/91 41/87/92
s off
f 37/45/93 38/99/94 54/100/95 53/46/96
f 39/47/97 40/48/98 55/102/99 56/49/100
f 41/50/101 42/51/102 57/105/103 58/52/104
f 43/53/105 44/54/106 59/107/107 60/55/108
f 45/56/109 46/108/110 62/109/111 61/57/112
f 47/58/113 48/59/114 63/111/115 64/60/116
f 49/61/117 50/62/118 65/114/119 66/63/120
f 51/64/121 52/65/122 67/116/123 68/66/124
f 21/67/125 26/24/126 27/68/127 24/17/128
f 31/69/129 36/40/130 33/70/131 30/31/132
s 9
f 34/71/133 35/72/134 3/79/135 4/73/136
s 10
f 32/32/137 29/74/138 1/76/139 2/75/140
f 2/75/140 1/76/139 22/77/141 23/78/142
s 9
f 4/73/136 3/79/135 28/25/143 25/80/144
s 3
f 30/81/70 33/36/81 39/82/84 38/30/71
f 34/37/82 4/95/9 5/83/12 40/38/83
f 1/84/10 29/29/69 37/85/72 6/8/11
s 4
f 3/86/14 35/42/89 41/87/92 8/7/15
f 36/43/90 31/33/77 43/88/80 42/44/91
f 32/34/78 2/93/13 7/89/16 44/35/79
f 24/90/54 27/26/65 47/91/68 46/20/55
f 28/27/66 3/86/14 9/92/18 48/28/67
f 2/93/13 23/19/53 45/94/56 10/6/17
s 3
f 4/95/9 25/21/57 49/96/60 11/5/19
f 26/22/58 21/13/45 51/97/48 50/23/59
f 22/14/46 1/84/10 12/98/20 52/15/47
s off
f 38/99/145 39/47/146 56/49/147 54/100/148
f 40/48/149 5/1/150 13/101/151 55/102/152
f 6/103/153 37/45/154 53/46/155 14/9/156
f 8/104/157 41/50/158 58/52/159 16/10/160
f 42/51/161 43/53/162 60/55/163 57/105/164
f 44/54/165 7/2/166 15/106/167 59/107/168
f 46/108/169 47/58/170 64/60/171 62/109/172
f 48/59/173 9/3/174 17/110/175 63/111/176
f 10/112/177 45/56/178 61/57/179 18/11/180
f 11/113/181 49/61/182 66/63/183 19/12/184
f 50/62/185 51/64/186 68/66/187 65/114/188
f 52/65/189 12/4/190 20/115/191 67/116/192
s 2
f 20/115/193 19/12/194 66/63/6 67/116/5
s 5
f 53/46/37 54/100/195 56/49/196 55/102/38
s 1
f 59/107/4 58/52/3 57/105/197 60/55/198
s 6
f 61/57/41 62/109/199 64/60/200 63/111/42
