# This file uses centimeters as units for non-parametric coordinates.

mtllib apartment_03_platform.mtl
g default
v 24.500122 20.000000 -1.500000
v -3.458252 20.000000 -1.500000
v 24.500122 19.002930 -1.500000
v -3.500000 19.000000 -1.500000
v 24.500000 -20.000000 -1.500000
v -24.500000 -20.000000 -1.500000
v -24.500000 20.000000 -1.500000
v 24.500000 20.000000 6.500000
v -24.500000 20.000000 6.500000
v 24.500000 -20.000000 6.500000
v -24.500000 -20.000000 6.500000
v -9.517822 20.000000 -1.500000
v -9.500000 19.000000 -1.500000
v -24.500000 19.002930 -1.500000
v -24.500000 19.005615 6.500000
v 24.500000 19.005615 6.499939
v -3.416565 -20.000000 6.500000
v -3.416565 -20.000000 -1.500000
v -3.416565 20.000000 6.499939
v -9.535645 20.000000 6.499939
v -9.535645 -20.000000 -1.500000
v -9.535645 -20.000000 6.500000
v 24.500122 19.002930 -6.500061
v -3.500000 19.000000 -6.500061
v -3.458252 20.000000 -6.500061
v 24.500122 20.000000 -6.500000
v -9.517822 20.000000 -6.500061
v -9.500000 19.000000 -6.500061
v -24.500000 19.002930 -6.500061
v -24.500000 20.000000 -6.500061
vt 0.121567 0.121656
vt 0.542376 0.121605
vt 0.156795 0.895037
vt 0.219746 0.710862
vt 0.219746 0.877677
vt 0.643917 0.881455
vt 0.643838 0.999022
vt 0.219746 0.999022
vt 0.000977 0.121671
vt 0.542361 0.001015
vt 0.860184 0.121567
vt 0.860169 0.000977
vt 0.980845 0.709516
vt 0.978104 0.877678
vt 0.204705 0.999022
vt 0.963010 0.999023
vt 0.963010 0.877678
vt 0.219746 0.786697
vt 0.156794 0.970865
vt 0.643838 0.801843
vt 0.219746 0.801843
vt 0.634615 0.121594
vt 0.634600 0.001004
vt 0.735750 0.710851
vt 0.735750 0.801838
vt 0.735750 0.786692
vt 0.978104 0.801838
vt 0.963010 0.801838
vt 0.735750 0.999023
vt 0.171958 0.803651
vt 0.634147 0.709473
vt 0.543705 0.709484
vt 0.121638 0.709577
vt 0.001048 0.709634
vt 0.978104 0.999023
vt 0.860255 0.709488
vt 0.963010 0.786691
vt 0.963010 0.710851
vt 0.156795 0.803650
vt 0.156796 0.727933
vt 0.643838 0.786697
vt 0.643838 0.710862
vt 0.204705 0.801843
vt 0.204705 0.877677
vt 0.980774 0.121552
vt 0.121552 0.001066
vt 0.735659 0.881456
vt 0.171959 0.727933
vt 0.171957 0.895037
vt 0.171957 0.970865
vn 0.000000 0.000000 -1.000000
vn 0.000000 0.000000 -1.000000
vn 0.000000 0.000000 -1.000000
vn 0.000000 0.000000 -1.000000
vn 0.000000 1.000000 0.000000
vn 0.000000 1.000000 0.000000
vn 0.000000 1.000000 0.000000
vn 0.000000 1.000000 0.000000
vn 0.000000 -1.000000 0.000000
vn 0.000000 -1.000000 0.000000
vn 0.000000 -1.000000 0.000000
vn 0.000000 -1.000000 0.000000
vn -1.000000 0.000000 0.000000
vn -1.000000 0.000000 0.000000
vn -1.000000 0.000000 0.000000
vn -1.000000 0.000000 0.000000
vn 1.000000 -0.000002 0.000008
vn 1.000000 -0.000002 0.000008
vn 1.000000 -0.000002 0.000008
vn 1.000000 -0.000002 0.000008
vn -1.000000 0.000000 0.000000
vn -1.000000 0.000000 0.000000
vn 0.000001 0.000031 -1.000000
vn 0.000001 0.000031 -1.000000
vn 0.000001 0.000031 -1.000000
vn 0.000001 0.000031 -1.000000
vn 1.000000 0.000000 0.000009
vn 1.000000 0.000000 0.000015
vn 0.000000 -1.000000 0.000000
vn 0.000000 -1.000000 0.000000
vn 0.000000 -1.000000 0.000000
vn 0.000000 -1.000000 0.000000
vn 0.000000 0.000000 -1.000000
vn 0.000000 0.000000 -1.000000
vn 0.000000 0.000000 -1.000000
vn 0.000000 0.000000 -1.000000
vn 0.000000 0.000000 -1.000000
vn 0.000000 0.000000 -1.000000
vn 0.000000 0.000000 -1.000000
vn 0.000000 0.000000 -1.000000
vn 0.000000 1.000000 0.000000
vn 0.000000 1.000000 0.000000
vn 0.000000 1.000000 0.000000
vn 0.000000 1.000000 0.000000
vn 0.000000 0.000000 -1.000000
vn 0.000000 0.000000 -1.000000
vn 0.000105 -1.000000 0.000000
vn 0.000105 -1.000000 0.000000
vn 0.000105 -1.000000 0.000000
vn 0.000105 -1.000000 0.000000
vn -0.999130 0.041712 0.000000
vn -0.999130 0.041712 0.000000
vn -0.999130 0.041712 0.000000
vn -0.999130 0.041712 0.000000
vn 0.000000 1.000000 0.000000
vn 0.000000 1.000000 0.000000
vn 1.000000 0.000000 0.000000
vn 1.000000 0.000000 0.000000
vn 0.999841 0.017819 0.000000
vn 0.999841 0.017819 0.000000
vn 0.999841 0.017819 0.000000
vn 0.999841 0.017819 0.000000
vn -0.000195 -1.000000 0.000000
vn -0.000195 -1.000000 0.000000
vn -0.000195 -1.000000 0.000000
vn -0.000195 -1.000000 0.000000
vn -1.000000 0.000000 0.000000
vn -1.000000 0.000000 0.000000
vn 0.000000 1.000000 0.000000
vn 0.000000 1.000000 0.000000
s 1
g Apartment03_platform_low
usemtl initialShadingGroup
f 5/1/1 18/2/2 4/32/3 3/33/4
s 2
f 1/5/5 2/6/6 19/7/7 8/8/8
s 3
f 10/46/9 17/10/10 18/2/11 5/1/12
s 4
f 6/11/13 11/45/14 15/13/15 14/36/16
s 5
f 10/9/17 5/1/18 3/33/19 16/34/20
s 4
f 14/14/16 15/35/15 9/16/21 7/17/22
s off
f 23/18/23 24/41/24 25/20/25 26/21/26
s 5
f 16/15/20 3/44/19 1/5/27 8/8/28
s 3
f 21/22/29 22/23/30 11/12/31 6/11/32
s 1
f 13/31/33 21/22/34 6/11/35 14/36/36
s off
f 27/25/37 28/26/38 29/37/39 30/28/40
s 2
f 20/29/41 12/47/42 7/17/43 9/16/44
f 19/7/7 2/6/6 12/47/42 20/29/41
s 1
f 2/49/45 4/3/3 13/39/33 12/30/46
f 4/32/3 18/2/2 21/22/34 13/31/33
s 3
f 18/2/11 17/10/10 22/23/30 21/22/29
s off
f 3/4/47 4/42/48 24/41/49 23/18/50
f 4/3/51 2/49/52 25/50/53 24/19/54
s 2
f 2/6/6 1/5/5 26/21/55 25/20/56
s 5
f 1/5/27 3/44/19 23/43/57 26/21/58
s off
f 12/30/59 13/39/60 28/40/61 27/48/62
f 13/24/63 14/38/64 29/37/65 28/26/66
s 4
f 14/14/16 7/17/22 30/28/67 29/27/68
s 2
f 7/17/43 12/47/42 27/25/69 30/28/70
