# This file uses centimeters as units for non-parametric coordinates.

mtllib apartment_02_platform.mtl
g default
v 9.000000 -10.500000 -9.000000
v -9.000000 -10.500000 -9.000000
v 9.000000 9.500000 -9.000000
v -9.000000 9.500000 -9.000000
v 9.000000 9.500000 10.000000
v -9.000000 9.500000 10.000000
v 9.000000 -10.500000 10.000000
v -9.000000 -10.500000 10.000000
v -9.000000 9.500000 4.000000
v -9.000000 9.500000 -9.000000
v -9.000000 10.500000 4.000000
v -9.000000 10.500000 -9.000000
v -10.000000 10.500000 4.000000
v -10.000000 10.500000 -10.000000
v -10.000000 9.500000 4.000000
v -10.000000 9.500000 -10.000000
v 10.000000 9.500000 -10.000000
v 10.000000 10.500000 -10.000000
v 9.000000 10.500000 -9.000000
v 9.000000 9.500000 -9.000000
v 10.000000 9.500000 4.000000
v 10.000000 10.500000 4.000000
v 9.000000 10.500000 4.000000
v 9.000000 9.500000 4.000000
vt 0.327923 0.327923
vt 0.637662 0.327923
vt 0.637662 0.672077
vt 0.327923 0.672077
vt 0.964608 0.672077
vt 0.327923 0.999023
vt 0.000977 0.327923
vt 0.637662 0.000977
vt 0.922616 0.276053
vt 0.973529 0.040422
vt 0.973529 0.092046
vt 0.922613 0.258845
vt 0.990737 0.074838
vt 0.922610 0.241638
vt 0.990737 0.057630
vt 0.922608 0.224430
vt 0.939411 0.142375
vt 0.939409 0.159582
vt 0.922200 0.176789
vt 0.922205 0.125166
vt 0.698503 0.142353
vt 0.698502 0.159561
vt 0.698500 0.176769
vt 0.698505 0.125146
vt 0.698498 0.193977
vt 0.663791 0.109258
vt 0.698915 0.276087
vt 0.922605 0.207222
vt 0.964608 0.327923
vt 0.327923 0.000977
vt 0.637662 0.999023
vt 0.000977 0.672077
vt 0.663790 0.040427
vt 0.922199 0.193996
vt 0.646582 0.057635
vt 0.663791 0.092050
vt 0.646583 0.074843
vt 0.681700 0.224467
vt 0.698905 0.207256
vt 0.973530 0.109253
vt 0.681702 0.241674
vt 0.698913 0.258880
vn 0.000000 0.000000 -1.000000
vn 0.000000 0.000000 -1.000000
vn 0.000000 0.000000 -1.000000
vn 0.000000 0.000000 -1.000000
vn 0.000000 1.000000 0.000000
vn 0.000000 1.000000 0.000000
vn 0.000000 1.000000 0.000000
vn 0.000000 1.000000 0.000000
vn 0.000000 -1.000000 0.000000
vn 0.000000 -1.000000 0.000000
vn 0.000000 -1.000000 0.000000
vn 0.000000 -1.000000 0.000000
vn -1.000000 0.000000 0.000000
vn -1.000000 0.000000 0.000000
vn -1.000000 0.000000 0.000000
vn -1.000000 0.000000 0.000000
vn 1.000000 0.000000 0.000000
vn 1.000000 0.000000 0.000000
vn 1.000000 0.000000 0.000000
vn 1.000000 0.000000 0.000000
vn 1.000000 0.000000 0.000000
vn 1.000000 0.000000 0.000000
vn 1.000000 0.000000 0.000000
vn 1.000000 0.000000 0.000000
vn 0.000000 1.000000 0.000000
vn 0.000000 1.000000 0.000000
vn 0.000000 1.000000 0.000000
vn 0.000000 1.000000 0.000000
vn -1.000000 0.000000 0.000000
vn -1.000000 0.000000 0.000000
vn -1.000000 0.000000 0.000000
vn -1.000000 0.000000 0.000000
vn 0.000000 -1.000000 0.000000
vn 0.000000 -1.000000 0.000000
vn 0.000000 -1.000000 0.000000
vn 0.000000 -1.000000 0.000000
vn 0.000000 0.000000 -1.000000
vn 0.000000 0.000000 -1.000000
vn 0.000000 0.000000 -1.000000
vn 0.000000 0.000000 -1.000000
vn 0.000000 1.000000 0.000000
vn 0.000000 1.000000 0.000000
vn 0.000000 1.000000 0.000000
vn 0.000000 1.000000 0.000000
vn 0.000000 0.000000 1.000000
vn 0.000000 0.000000 1.000000
vn 0.000000 0.000000 1.000000
vn 0.000000 0.000000 1.000000
vn 0.000000 -1.000000 0.000000
vn 0.000000 -1.000000 0.000000
vn 0.000000 -1.000000 0.000000
vn 0.000000 -1.000000 0.000000
vn 1.000000 0.000000 0.000000
vn 1.000000 0.000000 0.000000
vn 1.000000 0.000000 0.000000
vn 1.000000 0.000000 0.000000
vn 0.000000 1.000000 0.000000
vn 0.000000 1.000000 0.000000
vn 0.000000 1.000000 0.000000
vn 0.000000 1.000000 0.000000
vn -1.000000 0.000000 0.000000
vn -1.000000 0.000000 0.000000
vn -1.000000 0.000000 0.000000
vn -1.000000 0.000000 0.000000
vn 0.000000 -1.000000 0.000000
vn 0.000000 -1.000000 0.000000
vn 0.000000 -1.000000 0.000000
vn 0.000000 -1.000000 0.000000
s off
g Apartment02_platform_low
usemtl initialShadingGroup
f 1/1/1 2/2/2 4/3/3 3/4/4
f 3/4/5 4/3/6 6/31/7 5/6/8
f 7/30/9 8/8/10 2/2/11 1/1/12
f 2/2/13 8/29/14 6/5/15 4/3/16
f 7/7/17 1/1/18 3/4/19 5/32/20
f 9/9/21 10/27/22 12/42/23 11/12/24
f 11/12/25 12/42/26 14/41/27 13/14/28
f 13/14/29 14/41/30 16/38/31 15/16/32
f 15/16/33 16/38/34 10/39/35 9/28/36
f 17/35/37 16/15/38 14/13/39 18/37/40
f 18/37/41 14/13/42 12/11/43 19/36/44
f 19/36/45 12/11/46 10/40/47 20/26/48
f 20/33/49 10/10/50 16/15/51 17/35/52
f 21/21/53 17/17/54 18/18/55 22/22/56
f 22/22/57 18/18/58 19/19/59 23/23/60
f 23/23/61 19/19/62 20/34/63 24/25/64
f 24/24/65 20/20/66 17/17/67 21/21/68
