# This file uses centimeters as units for non-parametric coordinates.

mtllib apartment_01_platform.mtl
g default
v 18.000000 -10.500000 -5.500000
v -18.000000 -10.500000 -5.500000
v 18.000000 9.500000 -5.500000
v -18.000000 9.500000 -5.500000
v 18.000000 9.500000 6.500000
v -18.000000 9.500000 6.500000
v 18.000000 -10.500000 6.500000
v -18.000000 -10.500000 6.500000
v -18.000000 9.500000 1.000000
v -18.000000 9.500000 -5.500000
v -18.000000 10.500000 1.000000
v -18.000000 10.500000 -5.500000
v -19.000000 10.500000 1.000000
v -19.000000 10.500000 -6.500000
v -19.000000 9.500000 1.000000
v -19.000000 9.500000 -6.500000
v 19.000000 9.500000 -6.500000
v 19.000000 10.500000 -6.500000
v 18.000000 10.500000 -5.500000
v 18.000000 9.500000 -5.500000
v 19.000000 9.500000 1.000000
v 19.000000 10.500000 1.000000
v 18.000000 10.500000 1.000000
v 18.000000 9.500000 1.000000
vt 0.200000 0.000001
vt 0.800000 0.000002
vt 0.800000 0.333335
vt 0.000002 0.350430
vt 0.999998 0.683764
vt 0.000000 0.683763
vt 1.000000 0.000002
vt 1.000000 0.333335
vt 0.000000 0.000000
vt 0.000000 0.333334
vt 1.000000 0.776334
vt 0.877358 0.776333
vt 0.877358 0.757465
vt 1.000000 0.757467
vt 0.858490 0.738598
vt 1.000000 0.738598
vt 0.858490 0.719730
vt 1.000000 0.719730
vt 0.877358 0.700862
vt 1.000000 0.700862
vt 0.141510 0.719729
vt 0.141510 0.738596
vt 0.839622 0.757465
vt 0.160377 0.757464
vt 0.839622 0.776333
vt 0.160377 0.776332
vt 0.160378 0.700861
vt 0.839623 0.700862
vt 0.000000 0.719729
vt 0.000000 0.738596
vt 0.122642 0.757464
vt 0.000000 0.757464
vt 0.122642 0.776332
vt 0.000000 0.776332
vt 0.000000 0.700861
vt 0.122642 0.700861
vt 1.000000 0.350432
vt 0.200000 0.333334
vn 0.000000 0.000000 -1.000000
vn 0.000000 0.000000 -1.000000
vn 0.000000 0.000000 -1.000000
vn 0.000000 0.000000 -1.000000
vn 0.000000 1.000000 0.000000
vn 0.000000 1.000000 0.000000
vn 0.000000 1.000000 0.000000
vn 0.000000 1.000000 0.000000
vn -1.000000 0.000000 0.000000
vn -1.000000 0.000000 0.000000
vn -1.000000 0.000000 0.000000
vn -1.000000 0.000000 0.000000
vn 1.000000 0.000000 0.000000
vn 1.000000 0.000000 0.000000
vn 1.000000 0.000000 0.000000
vn 1.000000 0.000000 0.000000
vn 1.000000 0.000000 0.000000
vn 1.000000 0.000000 0.000000
vn 1.000000 0.000000 0.000000
vn 1.000000 0.000000 0.000000
vn 0.000000 1.000000 0.000000
vn 0.000000 1.000000 0.000000
vn 0.000000 1.000000 0.000000
vn 0.000000 1.000000 0.000000
vn -1.000000 0.000000 0.000000
vn -1.000000 0.000000 0.000000
vn -1.000000 0.000000 0.000000
vn -1.000000 0.000000 0.000000
vn 0.000000 -1.000000 0.000000
vn 0.000000 -1.000000 0.000000
vn 0.000000 -1.000000 0.000000
vn 0.000000 -1.000000 0.000000
vn 0.000000 0.000000 -1.000000
vn 0.000000 0.000000 -1.000000
vn 0.000000 0.000000 -1.000000
vn 0.000000 0.000000 -1.000000
vn 0.000000 1.000000 0.000000
vn 0.000000 1.000000 0.000000
vn 0.000000 1.000000 0.000000
vn 0.000000 1.000000 0.000000
vn 0.000000 0.000000 1.000000
vn 0.000000 0.000000 1.000000
vn 0.000000 0.000000 1.000000
vn 0.000000 0.000000 1.000000
vn 0.000000 -1.000000 0.000000
vn 0.000000 -1.000000 0.000000
vn 0.000000 -1.000000 0.000000
vn 0.000000 -1.000000 0.000000
vn 1.000000 0.000000 0.000000
vn 1.000000 0.000000 0.000000
vn 1.000000 0.000000 0.000000
vn 1.000000 0.000000 0.000000
vn 0.000000 1.000000 0.000000
vn 0.000000 1.000000 0.000000
vn 0.000000 1.000000 0.000000
vn 0.000000 1.000000 0.000000
vn -1.000000 0.000000 0.000000
vn -1.000000 0.000000 0.000000
vn -1.000000 0.000000 0.000000
vn -1.000000 0.000000 0.000000
vn 0.000000 -1.000000 0.000000
vn 0.000000 -1.000000 0.000000
vn 0.000000 -1.000000 0.000000
vn 0.000000 -1.000000 0.000000
s off
g apartment_01_platform:Apartment01_platform_low
usemtl apartment_01_platform:initialShadingGroup
f 1/1/1 2/2/2 4/3/3 3/38/4
f 3/4/5 4/37/6 6/5/7 5/6/8
f 2/2/9 8/7/10 6/8/11 4/3/12
f 7/9/13 1/1/14 3/38/15 5/10/16
f 9/11/17 10/12/18 12/13/19 11/14/20
f 11/14/21 12/13/22 14/15/23 13/16/24
f 13/16/25 14/15/26 16/17/27 15/18/28
f 15/18/29 16/17/30 10/19/31 9/20/32
f 17/21/33 16/17/34 14/15/35 18/22/36
f 18/22/37 14/15/38 12/23/39 19/24/40
f 19/24/41 12/23/42 10/25/43 20/26/44
f 20/27/45 10/28/46 16/17/47 17/21/48
f 21/29/49 17/21/50 18/22/51 22/30/52
f 22/30/53 18/22/54 19/31/55 23/32/56
f 23/32/57 19/31/58 20/33/59 24/34/60
f 24/35/61 20/36/62 17/21/63 21/29/64
