# This file uses centimeters as units for non-parametric coordinates.

mtllib background_house_small.mtl
g default
v 12.500000 -57.500000 -8.500000
v -12.500000 -57.500000 -8.500000
v 12.500000 57.500000 -8.500000
v -12.500000 57.500000 -8.500000
v 12.500000 57.500000 8.500000
v -12.500000 57.500000 8.500000
v 12.500000 -57.500000 8.500000
v -12.500000 -57.500000 8.500000
vt 0.318532 0.000990
vt 0.507554 0.000982
vt 0.507592 0.870481
vt 0.318571 0.870489
vt 0.636126 0.870475
vt 0.190036 0.870495
vt 0.636088 0.000977
vt 0.189998 0.000996
vt 0.000977 0.001004
vt 0.507598 0.999015
vt 0.001015 0.870503
vt 0.318576 0.999023
vn 0.000000 0.000000 -1.000000
vn 0.000000 0.000000 -1.000000
vn 0.000000 0.000000 -1.000000
vn 0.000000 0.000000 -1.000000
vn 0.000000 1.000000 0.000000
vn 0.000000 1.000000 0.000000
vn 0.000000 1.000000 0.000000
vn 0.000000 1.000000 0.000000
vn -1.000000 0.000000 0.000000
vn -1.000000 0.000000 0.000000
vn -1.000000 0.000000 0.000000
vn -1.000000 0.000000 0.000000
vn 1.000000 0.000000 0.000000
vn 1.000000 0.000000 0.000000
vn 1.000000 0.000000 0.000000
vn 1.000000 0.000000 0.000000
vn 0.000000 0.000000 1.000000
vn 0.000000 0.000000 1.000000
vn 0.000000 0.000000 1.000000
vn 0.000000 0.000000 1.000000
s off
g Backgroundhouse_small_low
usemtl initialShadingGroup
f 1/1/1 2/2/2 4/3/3 3/4/4
f 3/4/5 4/3/6 6/10/7 5/12/8
f 2/2/9 8/7/10 6/5/11 4/3/12
f 7/8/13 1/1/14 3/4/15 5/6/16
f 6/11/17 8/9/18 7/8/19 5/6/20
