# This file uses centimeters as units for non-parametric coordinates.

mtllib pipe_connector.mtl
g default
v 16.798752 -30.643925 -12.691528
v 16.798761 -30.642786 12.694260
v 16.798752 -12.691519 30.643921
v 16.798765 12.694269 30.642784
v 16.798761 30.643925 12.691513
v 16.798752 30.642786 -12.694275
v 16.798759 12.691526 -30.643921
v 16.798777 -12.694269 -30.642792
v -16.798721 -30.643925 -12.691513
v -16.798712 -30.642786 12.694260
v -16.798721 -12.691519 30.643929
v -16.798708 12.694269 30.642792
v -16.798773 30.643925 12.691513
v -16.798721 30.642786 -12.694260
v -16.798744 12.691526 -30.643921
v -16.798727 -12.694269 -30.642792
v 16.798756 0.000001 0.000000
v -16.798717 0.000001 0.000000
v 10.968494 -6.861237 30.643669
v 10.968501 6.863990 30.643051
v -10.968450 6.863990 30.643051
v -10.968456 -6.861237 30.643669
v 10.968494 -6.860269 61.059265
v 10.968501 6.864970 61.058662
v -10.968450 6.864968 61.058662
v -10.968456 -6.860270 61.059265
vt 0.569123 0.634454
vt 0.569112 0.583109
vt 0.637066 0.583095
vt 0.637077 0.634440
vt 0.569102 0.531764
vt 0.637055 0.531750
vt 0.234331 0.869693
vt 0.268881 0.869687
vt 0.268892 0.924907
vt 0.234342 0.924914
vt 0.569176 0.891179
vt 0.569166 0.839834
vt 0.637120 0.839820
vt 0.637130 0.891165
vt 0.569155 0.788489
vt 0.637109 0.788475
vt 0.569144 0.737144
vt 0.637098 0.737130
vt 0.569134 0.685799
vt 0.637087 0.685785
vt 0.242390 0.551294
vt 0.313100 0.480546
vt 0.363146 0.601275
vt 0.242416 0.651321
vt 0.313165 0.722031
vt 0.413191 0.722005
vt 0.483902 0.651256
vt 0.483875 0.551230
vt 0.413127 0.480519
vt 0.483890 0.651284
vt 0.413164 0.722016
vt 0.363146 0.601275
vt 0.313138 0.722020
vt 0.242405 0.651294
vt 0.242401 0.551267
vt 0.313127 0.480535
vt 0.413154 0.480531
vt 0.483886 0.551257
vt 0.385494 0.779560
vt 0.510394 0.779466
vt 0.481730 0.808173
vt 0.414201 0.808224
vt 0.510517 0.944768
vt 0.481811 0.916104
vt 0.385618 0.944861
vt 0.414282 0.916155
vt 0.345437 0.835123
vt 0.345444 0.869672
vt 0.268874 0.835137
vt 0.345455 0.924893
vt 0.345461 0.959442
vt 0.268898 0.959457
vt 0.345427 0.779902
vt 0.268863 0.779917
vn 0.000000 -1.000000 0.000045
vn 0.000000 -1.000000 0.000045
vn 0.000000 -1.000000 0.000045
vn 0.000000 -1.000000 0.000045
vn 0.000000 -0.707075 0.707138
vn 0.000000 -0.707075 0.707138
vn 0.000000 -0.707075 0.707138
vn 0.000000 -0.707075 0.707138
vn -0.000000 0.000044 1.000000
vn -0.000000 0.000044 1.000000
vn -0.000000 0.000044 1.000000
vn -0.000000 0.000044 1.000000
vn 0.000000 0.707139 0.707075
vn 0.000000 0.707139 0.707075
vn 0.000000 0.707139 0.707075
vn 0.000000 0.707139 0.707075
vn -0.000000 1.000000 -0.000045
vn -0.000000 1.000000 -0.000045
vn -0.000000 1.000000 -0.000045
vn -0.000000 1.000000 -0.000045
vn -0.000000 0.707075 -0.707138
vn -0.000000 0.707075 -0.707138
vn -0.000000 0.707075 -0.707138
vn -0.000000 0.707075 -0.707138
vn 0.000000 -0.000045 -1.000000
vn 0.000000 -0.000045 -1.000000
vn 0.000000 -0.000045 -1.000000
vn 0.000000 -0.000045 -1.000000
vn -0.000000 -0.707139 -0.707075
vn -0.000000 -0.707139 -0.707075
vn -0.000000 -0.707139 -0.707075
vn -0.000000 -0.707139 -0.707075
vn 1.000000 0.000000 -0.000000
vn 1.000000 -0.000000 0.000000
vn 1.000000 -0.000000 0.000000
vn 1.000000 -0.000000 0.000000
vn 1.000000 0.000000 -0.000000
vn 1.000000 -0.000000 0.000000
vn 1.000000 -0.000000 -0.000000
vn 1.000000 -0.000000 0.000000
vn 1.000000 -0.000000 0.000000
vn 1.000000 -0.000000 -0.000000
vn 1.000000 -0.000000 -0.000000
vn 1.000000 -0.000000 0.000000
vn 1.000000 0.000000 -0.000000
vn 1.000000 -0.000000 -0.000000
vn 1.000000 -0.000000 0.000000
vn 1.000000 0.000000 0.000000
vn 1.000000 0.000000 -0.000000
vn 1.000000 -0.000000 0.000000
vn 1.000000 0.000000 0.000001
vn 1.000000 0.000000 0.000000
vn 1.000000 -0.000000 0.000000
vn 1.000000 -0.000000 0.000000
vn 1.000000 0.000000 0.000001
vn 1.000000 -0.000000 0.000000
vn -1.000000 0.000000 0.000000
vn -1.000000 -0.000000 0.000000
vn -1.000000 -0.000000 0.000000
vn -1.000000 -0.000000 0.000000
vn -1.000000 0.000000 -0.000000
vn -1.000000 -0.000000 0.000000
vn -1.000000 0.000000 -0.000000
vn -1.000000 -0.000001 0.000001
vn -1.000000 -0.000000 0.000000
vn -1.000000 -0.000001 0.000001
vn -1.000000 -0.000002 -0.000000
vn -1.000000 -0.000000 0.000000
vn -1.000000 -0.000002 -0.000000
vn -1.000000 -0.000000 -0.000001
vn -1.000000 -0.000000 0.000000
vn -1.000000 -0.000000 -0.000001
vn -1.000000 -0.000000 0.000001
vn -1.000000 -0.000000 0.000000
vn -1.000000 -0.000000 0.000001
vn -1.000000 -0.000000 0.000000
vn -1.000000 -0.000000 0.000000
vn -1.000000 -0.000000 0.000000
vn -1.000000 0.000000 0.000000
vn -1.000000 -0.000000 0.000000
vn 0.000000 0.000045 1.000000
vn 0.000000 0.000045 1.000000
vn 0.000000 0.000045 1.000000
vn 0.000000 0.000045 1.000000
vn 0.000000 0.000045 1.000000
vn 0.000000 0.000045 1.000000
vn 0.000000 0.000045 1.000000
vn 0.000000 0.000045 1.000000
vn 0.000000 0.000045 1.000000
vn 0.000000 0.000045 1.000000
vn -0.000000 0.000045 1.000000
vn 0.000000 0.000045 1.000000
vn 0.000000 0.000045 1.000000
vn 0.000000 0.000045 1.000000
vn 0.000000 0.000045 1.000000
vn -0.000000 0.000045 1.000000
vn 1.000000 -0.000000 0.000000
vn 1.000000 -0.000000 0.000000
vn 1.000000 -0.000000 0.000000
vn 1.000000 -0.000000 0.000000
vn -0.000000 1.000000 -0.000032
vn -0.000000 1.000000 -0.000032
vn -0.000000 1.000000 -0.000032
vn -0.000000 1.000000 -0.000032
vn -1.000000 0.000000 -0.000000
vn -1.000000 0.000000 -0.000000
vn -1.000000 0.000000 -0.000000
vn -1.000000 0.000000 -0.000000
vn 0.000000 -1.000000 0.000032
vn 0.000000 -1.000000 0.000032
vn 0.000000 -1.000000 0.000032
vn 0.000000 -1.000000 0.000032
s off
g polySurface3 polySurface2 pipe_connector_low3
usemtl initialShadingGroup
f 1/1/1 2/2/2 10/3/3 9/4/4
f 2/2/5 3/5/6 11/6/7 10/3/8
f 23/7/9 24/8/10 25/9/11 26/10/12
f 4/11/13 5/12/14 13/13/15 12/14/16
f 5/12/17 6/15/18 14/16/19 13/13/20
f 6/15/21 7/17/22 15/18/23 14/16/24
f 7/17/25 8/19/26 16/20/27 15/18/28
f 8/19/29 1/1/30 9/4/31 16/20/32
f 2/21/33 1/22/34 17/23/35
f 3/24/36 2/21/37 17/23/38
f 4/25/39 3/24/40 17/23/41
f 5/26/42 4/25/43 17/23/44
f 6/27/45 5/26/46 17/23/47
f 7/28/48 6/27/49 17/23/50
f 8/29/51 7/28/52 17/23/53
f 1/22/54 8/29/55 17/23/56
f 9/30/57 10/31/58 18/32/59
f 10/31/60 11/33/61 18/32/62
f 11/33/63 12/34/64 18/32/65
f 12/34/66 13/35/67 18/32/68
f 13/35/69 14/36/70 18/32/71
f 14/36/72 15/37/73 18/32/74
f 15/37/75 16/38/76 18/32/77
f 16/38/78 9/30/79 18/32/80
f 3/39/81 4/40/82 20/41/83 19/42/84
f 4/40/85 12/43/86 21/44/87 20/41/88
f 12/43/89 11/45/90 22/46/91 21/44/92
f 11/45/93 3/39/94 19/42/95 22/46/96
f 19/47/97 20/48/98 24/8/99 23/49/100
f 20/48/101 21/50/102 25/9/103 24/8/104
f 21/50/105 22/51/106 26/52/107 25/9/108
f 22/53/109 19/47/110 23/49/111 26/54/112
