# This file uses centimeters as units for non-parametric coordinates.

mtllib pipe_half.mtl
g default
v 382.499969 -20.717651 -8.580517
v 382.499969 -20.716797 8.582195
v 382.499969 -8.580322 20.717518
v 382.499969 8.582275 20.716747
v 382.499969 20.717651 8.580341
v 382.499969 20.716919 -8.582371
v 382.499969 8.580444 -20.717693
v 382.499969 -8.582275 -20.716923
v 382.499969 -12.617432 -5.225750
v 382.499969 -12.616943 5.226704
v 382.499969 -5.225586 12.617367
v 382.499969 5.226929 12.616901
v 382.499969 12.617432 5.225574
v 382.499969 12.617065 -5.226875
v 382.499969 5.225708 -12.617542
v 382.499969 -5.226807 -12.617069
v 333.899994 -12.617432 -5.225750
v 333.899994 -12.616943 5.226704
v 333.900116 0.000000 0.000000
v 333.899994 -5.225586 12.617542
v 333.899994 5.226929 12.617168
v 333.899994 12.617432 5.225929
v 333.899994 12.617065 -5.226875
v 333.899994 5.225708 -12.617725
v 333.899994 -5.226807 -12.616886
v -382.499969 -20.717651 -8.580517
v -382.499969 -20.716797 8.582195
v -382.499969 -8.580322 20.717518
v -382.499969 8.582275 20.716747
v -382.499969 20.717651 8.580341
v -382.499969 20.716919 -8.582371
v -382.499969 8.580444 -20.717693
v -382.499969 -8.582275 -20.716923
v -382.499969 -12.617432 -5.225750
v -382.499969 -12.616943 5.226704
v -382.499969 -5.225586 12.617367
v -382.499969 5.226929 12.616901
v -382.499969 12.617432 5.225574
v -382.499969 12.617065 -5.226875
v -382.499969 5.225708 -12.617542
v -382.499969 -5.226807 -12.617069
v -333.899872 -12.617432 -5.225750
v -333.899872 -12.616943 5.226704
v -333.900055 0.000000 0.000000
v -333.899872 -5.225586 12.617542
v -333.899872 5.226929 12.617168
v -333.899872 12.617432 5.225929
v -333.899872 12.617065 -5.226875
v -333.899872 5.225708 -12.617725
v -333.899872 -5.226807 -12.616886
vt 1.000000 0.169319
vt 1.000000 0.180470
vt 0.502952 0.180470
vt 0.502952 0.169319
vt 1.000000 0.191621
vt 0.502952 0.191621
vt 1.000000 0.102411
vt 1.000000 0.113562
vt 0.502952 0.113563
vt 0.502952 0.102412
vt 1.000000 0.124714
vt 0.502952 0.124714
vt 1.000000 0.135865
vt 0.502952 0.135865
vt 1.000000 0.147016
vt 0.502952 0.147016
vt 1.000000 0.158167
vt 0.502952 0.158168
vt 0.650234 0.420707
vt 0.668581 0.389572
vt 0.696991 0.427286
vt 0.659277 0.455696
vt 0.690412 0.474043
vt 0.725400 0.465000
vt 0.743748 0.433865
vt 0.734705 0.398875
vt 0.703569 0.380530
vt 0.722271 0.513258
vt 0.781608 0.512807
vt 0.770221 0.540899
vt 0.734084 0.541174
vt 0.680633 0.555535
vt 0.708725 0.566922
vt 0.681084 0.614872
vt 0.709000 0.603059
vt 0.723361 0.656510
vt 0.734747 0.628417
vt 0.782697 0.656059
vt 0.770884 0.628143
vt 0.824335 0.613782
vt 0.796243 0.602395
vt 0.823884 0.554445
vt 0.795968 0.566258
vt 0.934000 0.870212
vt 0.897862 0.870212
vt 0.897862 0.702182
vt 0.934000 0.702182
vt 0.970138 0.870212
vt 0.970139 0.702182
vt 0.717170 0.870211
vt 0.681031 0.870211
vt 0.681030 0.702181
vt 0.717169 0.702181
vt 0.753308 0.870211
vt 0.753307 0.702182
vt 0.789446 0.870211
vt 0.789447 0.702181
vt 0.825585 0.870212
vt 0.825585 0.702182
vt 0.861723 0.870212
vt 0.861724 0.702182
vt 0.953785 0.524158
vt 0.943916 0.570332
vt 0.918245 0.530703
vt 0.983545 0.544660
vt 0.990091 0.580201
vt 0.969589 0.609960
vt 0.934047 0.616506
vt 0.904287 0.596003
vt 0.897743 0.560462
vt 0.867992 0.380533
vt 0.857207 0.408862
vt 0.821084 0.409908
vt 0.808679 0.382250
vt 0.911148 0.421260
vt 0.883490 0.433666
vt 0.912865 0.480573
vt 0.884536 0.469789
vt 0.872138 0.523729
vt 0.859733 0.496071
vt 0.812824 0.525446
vt 0.823609 0.497117
vt 0.769669 0.484719
vt 0.797327 0.472314
vt 0.767952 0.425406
vt 0.796281 0.436190
vt 0.903204 0.203577
vt 0.903204 0.371607
vt 0.867066 0.371607
vt 0.867066 0.203577
vt 0.939343 0.203577
vt 0.939343 0.371607
vt 0.686374 0.203577
vt 0.686373 0.371607
vt 0.650234 0.371607
vt 0.650236 0.203577
vt 0.722512 0.203577
vt 0.722511 0.371608
vt 0.758651 0.203577
vt 0.758651 0.371607
vt 0.794789 0.203577
vt 0.794790 0.371607
vt 0.830928 0.203577
vt 0.830928 0.371607
vn 0.000000 -0.923897 -0.382641
vn 0.000000 -0.923861 0.382729
vn 0.000000 -0.923861 0.382729
vn 0.000000 -0.923897 -0.382641
vn 0.000000 -0.923861 0.382729
vn 0.000000 -0.382643 0.923896
vn 0.000000 -0.382643 0.923896
vn 0.000000 -0.923861 0.382729
vn 0.000000 -0.382643 0.923896
vn 0.000000 0.382725 0.923862
vn 0.000000 0.382725 0.923862
vn 0.000000 -0.382643 0.923896
vn 0.000000 0.382725 0.923862
vn 0.000000 0.923896 0.382644
vn 0.000000 0.923896 0.382644
vn 0.000000 0.382725 0.923862
vn 0.000000 0.923896 0.382644
vn 0.000000 0.923862 -0.382726
vn 0.000000 0.923862 -0.382726
vn 0.000000 0.923896 0.382644
vn 0.000000 0.923862 -0.382726
vn 0.000000 0.382641 -0.923897
vn 0.000000 0.382641 -0.923897
vn 0.000000 0.923862 -0.382726
vn 0.000000 0.382641 -0.923897
vn 0.000000 -0.382724 -0.923863
vn 0.000000 -0.382724 -0.923863
vn 0.000000 0.382641 -0.923897
vn 0.000000 -0.382724 -0.923863
vn 0.000000 -0.923897 -0.382641
vn 0.000000 -0.923897 -0.382641
vn 0.000000 -0.382724 -0.923863
vn 1.000000 -0.000008 0.000003
vn 1.000000 -0.000006 -0.000003
vn 1.000000 -0.000000 -0.000000
vn 1.000000 -0.000004 0.000008
vn 1.000000 -0.000008 0.000003
vn 1.000000 -0.000000 -0.000000
vn 1.000000 0.000001 0.000008
vn 1.000000 -0.000004 0.000008
vn 1.000000 -0.000000 -0.000000
vn 1.000000 0.000006 0.000003
vn 1.000000 0.000001 0.000008
vn 1.000000 -0.000000 -0.000000
vn 1.000000 0.000008 -0.000003
vn 1.000000 0.000006 0.000003
vn 1.000000 -0.000000 -0.000000
vn 1.000000 0.000004 -0.000008
vn 1.000000 0.000008 -0.000003
vn 1.000000 -0.000000 -0.000000
vn 1.000000 -0.000002 -0.000008
vn 1.000000 0.000004 -0.000008
vn 1.000000 -0.000000 -0.000000
vn 1.000000 -0.000006 -0.000003
vn 1.000000 -0.000002 -0.000008
vn 1.000000 -0.000000 -0.000000
vn 1.000000 0.000001 0.000000
vn 1.000000 -0.000001 0.000000
vn 1.000000 -0.000001 0.000000
vn 1.000000 0.000001 0.000000
vn 1.000000 0.000001 0.000000
vn 1.000000 0.000001 0.000000
vn 1.000000 0.000001 0.000000
vn 1.000000 0.000001 0.000000
vn 1.000000 0.000001 0.000000
vn 1.000000 0.000001 0.000000
vn 1.000000 0.000001 0.000000
vn 1.000000 0.000001 0.000000
vn 1.000000 0.000002 0.000000
vn 1.000000 0.000001 0.000000
vn 1.000000 0.000001 0.000000
vn 1.000000 0.000002 0.000000
vn 1.000000 -0.000001 0.000000
vn 1.000000 0.000002 0.000000
vn 1.000000 0.000002 0.000000
vn 1.000000 -0.000001 0.000000
vn 1.000000 -0.000002 0.000000
vn 1.000000 -0.000001 0.000000
vn 1.000000 -0.000001 0.000000
vn 1.000000 -0.000002 0.000000
vn 1.000000 -0.000001 0.000000
vn 1.000000 -0.000002 0.000000
vn 1.000000 -0.000002 0.000000
vn 1.000000 -0.000001 0.000000
vn 1.000000 -0.000001 0.000000
vn 1.000000 -0.000001 0.000000
vn 1.000000 -0.000001 0.000000
vn 1.000000 -0.000001 0.000000
vn 0.000000 1.000000 -0.000047
vn 0.000000 1.000000 -0.000047
vn 0.000000 1.000000 -0.000047
vn 0.000000 1.000000 -0.000047
vn -0.000001 0.707078 -0.707136
vn -0.000001 0.707078 -0.707136
vn -0.000001 0.707078 -0.707136
vn -0.000001 0.707078 -0.707136
vn -0.000005 -0.000040 -1.000000
vn -0.000005 -0.000040 -1.000000
vn -0.000005 -0.000040 -1.000000
vn -0.000005 -0.000040 -1.000000
vn -0.000005 -0.707144 -0.707069
vn -0.000005 -0.707144 -0.707069
vn -0.000005 -0.707144 -0.707069
vn -0.000005 -0.707144 -0.707069
vn 0.000000 -1.000000 0.000035
vn 0.000000 -1.000000 0.000035
vn 0.000000 -1.000000 0.000035
vn 0.000000 -1.000000 0.000035
vn -0.000001 -0.707078 0.707135
vn -0.000001 -0.707078 0.707135
vn -0.000001 -0.707078 0.707135
vn -0.000001 -0.707078 0.707135
vn 0.000000 0.000063 1.000000
vn 0.000000 0.000063 1.000000
vn 0.000000 0.000063 1.000000
vn 0.000000 0.000063 1.000000
vn 0.000001 0.707136 0.707078
vn 0.000001 0.707136 0.707078
vn 0.000001 0.707136 0.707078
vn 0.000001 0.707136 0.707078
vn -1.000000 -0.000011 0.000005
vn -1.000000 0.000000 -0.000000
vn -1.000000 -0.000011 -0.000005
vn -1.000000 -0.000004 0.000012
vn -1.000000 0.000000 -0.000000
vn -1.000000 -0.000011 0.000005
vn -1.000000 0.000007 0.000012
vn -1.000000 0.000000 -0.000000
vn -1.000000 -0.000004 0.000012
vn -1.000000 0.000011 0.000005
vn -1.000000 0.000000 -0.000000
vn -1.000000 0.000007 0.000012
vn -1.000000 0.000011 -0.000005
vn -1.000000 0.000000 -0.000000
vn -1.000000 0.000011 0.000005
vn -1.000000 0.000005 -0.000012
vn -1.000000 0.000000 -0.000000
vn -1.000000 0.000011 -0.000005
vn -1.000000 -0.000006 -0.000012
vn -1.000000 0.000000 -0.000000
vn -1.000000 0.000005 -0.000012
vn -1.000000 -0.000011 -0.000005
vn -1.000000 0.000000 -0.000000
vn -1.000000 -0.000006 -0.000012
vn -1.000000 0.000000 0.000000
vn -1.000000 0.000000 0.000000
vn -1.000000 0.000000 0.000000
vn -1.000000 0.000000 0.000000
vn -1.000000 -0.000000 0.000000
vn -1.000000 -0.000000 0.000000
vn -1.000000 0.000000 0.000000
vn -1.000000 0.000000 0.000000
vn -1.000000 -0.000000 0.000000
vn -1.000000 -0.000000 0.000000
vn -1.000000 -0.000000 0.000000
vn -1.000000 -0.000000 0.000000
vn -1.000000 0.000000 0.000000
vn -1.000000 0.000000 0.000000
vn -1.000000 -0.000000 0.000000
vn -1.000000 -0.000000 0.000000
vn -1.000000 -0.000002 0.000000
vn -1.000000 -0.000002 0.000000
vn -1.000000 0.000000 0.000000
vn -1.000000 0.000000 0.000000
vn -1.000000 -0.000003 0.000000
vn -1.000000 -0.000003 0.000000
vn -1.000000 -0.000002 0.000000
vn -1.000000 -0.000002 0.000000
vn -1.000000 -0.000001 0.000000
vn -1.000000 -0.000001 0.000000
vn -1.000000 -0.000003 0.000000
vn -1.000000 -0.000003 0.000000
vn -1.000000 0.000000 0.000000
vn -1.000000 0.000000 0.000000
vn -1.000000 -0.000001 0.000000
vn -1.000000 -0.000001 0.000000
vn 0.000000 1.000000 -0.000047
vn 0.000000 1.000000 -0.000047
vn 0.000000 1.000000 -0.000047
vn 0.000000 1.000000 -0.000047
vn 0.000001 0.707078 -0.707136
vn 0.000001 0.707078 -0.707136
vn 0.000001 0.707078 -0.707136
vn 0.000001 0.707078 -0.707136
vn 0.000005 -0.000040 -1.000000
vn 0.000005 -0.000040 -1.000000
vn 0.000005 -0.000040 -1.000000
vn 0.000005 -0.000040 -1.000000
vn 0.000005 -0.707144 -0.707070
vn 0.000005 -0.707144 -0.707070
vn 0.000005 -0.707144 -0.707070
vn 0.000005 -0.707144 -0.707070
vn -0.000000 -1.000000 0.000035
vn -0.000000 -1.000000 0.000035
vn -0.000000 -1.000000 0.000035
vn -0.000000 -1.000000 0.000035
vn 0.000001 -0.707078 0.707135
vn 0.000001 -0.707078 0.707135
vn 0.000001 -0.707078 0.707135
vn 0.000001 -0.707078 0.707135
vn 0.000000 0.000063 1.000000
vn 0.000000 0.000063 1.000000
vn 0.000000 0.000063 1.000000
vn 0.000000 0.000063 1.000000
vn -0.000001 0.707136 0.707078
vn -0.000001 0.707136 0.707078
vn -0.000001 0.707136 0.707078
vn -0.000001 0.707136 0.707078
s off
g polySurface4 polySurface2 pipe_connector_low3
usemtl initialShadingGroup
f 1/1/1 2/2/2 27/3/3 26/4/4
f 2/2/5 3/5/6 28/6/7 27/3/8
f 3/7/9 4/8/10 29/9/11 28/10/12
f 4/8/13 5/11/14 30/12/15 29/9/16
f 5/11/17 6/13/18 31/14/19 30/12/20
f 6/13/21 7/15/22 32/16/23 31/14/24
f 7/15/25 8/17/26 33/18/27 32/16/28
f 8/17/29 1/1/30 26/4/31 33/18/32
f 18/19/33 17/20/34 19/21/35
f 20/22/36 18/19/37 19/21/38
f 21/23/39 20/22/40 19/21/41
f 22/24/42 21/23/43 19/21/44
f 23/25/45 22/24/46 19/21/47
f 24/26/48 23/25/49 19/21/50
f 25/27/51 24/26/52 19/21/53
f 17/20/54 25/27/55 19/21/56
f 2/28/57 1/29/58 9/30/59 10/31/60
f 3/32/61 2/28/62 10/31/63 11/33/64
f 4/34/65 3/32/66 11/33/67 12/35/68
f 5/36/69 4/34/70 12/35/71 13/37/72
f 6/38/73 5/36/74 13/37/75 14/39/76
f 7/40/77 6/38/78 14/39/79 15/41/80
f 8/42/81 7/40/82 15/41/83 16/43/84
f 1/29/85 8/42/86 16/43/87 9/30/88
f 10/44/89 9/45/90 17/46/91 18/47/92
f 11/48/93 10/44/94 18/47/95 20/49/96
f 12/50/97 11/51/98 20/52/99 21/53/100
f 13/54/101 12/50/102 21/53/103 22/55/104
f 14/56/105 13/54/106 22/55/107 23/57/108
f 15/58/109 14/56/110 23/57/111 24/59/112
f 16/60/113 15/58/114 24/59/115 25/61/116
f 9/45/117 16/60/118 25/61/119 17/46/120
f 43/62/121 44/63/122 42/64/123
f 45/65/124 44/63/125 43/62/126
f 46/66/127 44/63/128 45/65/129
f 47/67/130 44/63/131 46/66/132
f 48/68/133 44/63/134 47/67/135
f 49/69/136 44/63/137 48/68/138
f 50/70/139 44/63/140 49/69/141
f 42/64/142 44/63/143 50/70/144
f 27/71/145 35/72/146 34/73/147 26/74/148
f 28/75/149 36/76/150 35/72/151 27/71/152
f 29/77/153 37/78/154 36/76/155 28/75/156
f 30/79/157 38/80/158 37/78/159 29/77/160
f 31/81/161 39/82/162 38/80/163 30/79/164
f 32/83/165 40/84/166 39/82/167 31/81/168
f 33/85/169 41/86/170 40/84/171 32/83/172
f 26/74/173 34/73/174 41/86/175 33/85/176
f 35/87/177 43/88/178 42/89/179 34/90/180
f 36/91/181 45/92/182 43/88/183 35/87/184
f 37/93/185 46/94/186 45/95/187 36/96/188
f 38/97/189 47/98/190 46/94/191 37/93/192
f 39/99/193 48/100/194 47/98/195 38/97/196
f 40/101/197 49/102/198 48/100/199 39/99/200
f 41/103/201 50/104/202 49/102/203 40/101/204
f 34/90/205 42/89/206 50/104/207 41/103/208
