# This file uses centimeters as units for non-parametric coordinates.

mtllib broken_pillar_02.mtl
g default
v -0.747427 0.946359 0.543038
v -0.923871 0.946359 0.000000
v 0.285492 0.946829 -0.878654
v 0.747427 0.946359 -0.543038
v -0.285492 0.946359 0.878654
v 0.923871 0.946359 0.000000
v 0.285492 0.946359 0.878654
v 0.747427 0.946359 0.543038
v -0.747427 0.946359 -0.543037
v -0.747427 5.671015 -0.543034
v -0.923871 4.840189 0.000000
v -0.285492 0.946829 -0.878653
v -0.285492 5.797598 -0.923514
v 0.285492 5.958879 -0.923511
v -0.285492 4.376678 0.878652
v 0.747427 4.505096 0.543038
v -0.745001 4.505096 0.539064
v 0.747427 5.832775 -0.543038
v 0.285492 4.376678 0.878652
v 0.923871 4.840189 0.000000
v -0.285492 5.578068 -0.543035
v -0.285493 5.213076 -0.174583
v -0.285492 4.646933 0.368455
v 0.285491 5.714800 -0.543036
v 0.285491 5.269390 0.000000
v 0.285491 4.734064 0.543038
v -0.411012 0.000000 1.264967
v -1.076044 0.000000 0.781793
v 1.076045 0.000000 -0.781792
v 0.411013 0.000000 -1.264966
v 1.330064 0.000000 0.000000
v 0.411013 0.000000 1.264967
v 1.076045 0.000000 0.781792
v -1.330064 0.000000 0.000000
v -0.411013 0.000000 -1.264966
v -1.076044 0.000000 -0.781792
v 0.905372 0.789123 -0.657791
v 0.345822 0.789123 -1.064329
v 0.325754 0.946359 -1.002566
v 0.852834 0.946359 -0.619620
v 1.119102 0.789123 0.000000
v 1.054160 0.946359 0.000000
v 0.905372 0.789123 0.657791
v 0.852834 0.946359 0.619620
v 0.345822 0.789123 1.064329
v 0.325754 0.946359 1.002566
v -0.345821 0.789123 1.064329
v -0.325753 0.946359 1.002566
v -0.905372 0.789123 0.657791
v -0.852834 0.946359 0.619620
v -1.119101 0.789123 0.000000
v -1.054160 0.946359 0.000000
v -0.905372 0.789123 -0.657791
v -0.852833 0.946359 -0.619620
v -0.345822 0.789123 -1.064329
v -0.325754 0.946359 -1.002566
v 0.411013 0.140804 -1.264966
v 1.076045 0.140804 -0.781792
v 1.330064 0.140804 0.000000
v 1.076045 0.140804 0.781792
v 0.411013 0.140804 1.264967
v -0.411012 0.140804 1.264967
v -1.076044 0.140804 0.781793
v -1.330064 0.140804 0.000000
v -1.076044 0.140804 -0.781792
v -0.411013 0.140804 -1.264966
v 0.000000 0.000000 0.000000
v -0.747427 2.787754 -0.543036
v -0.923871 2.867215 0.000000
v -0.746315 2.706480 0.541215
v -0.923871 2.653332 0.000000
v -0.815720 2.791260 -0.002190
v 0.747427 4.124443 0.543038
v 0.747428 3.906382 -0.543038
v 0.923871 4.227110 0.000000
v 0.747427 3.729557 0.543038
v 0.923871 3.784843 0.000000
v 0.876363 3.957466 -0.145666
v 0.707347 3.927452 0.432141
v 0.491881 3.850920 0.660200
v 0.367072 0.254065 -1.129730
v 0.961006 0.254065 -0.698211
v 1.187868 0.254065 0.000000
v 0.961005 0.254065 0.698211
v 0.367072 0.254065 1.129730
v -0.367071 0.254065 1.129730
v -0.961005 0.254065 0.698211
v -1.187868 0.254065 0.000000
v -0.961005 0.254065 -0.698211
v -0.367072 0.254065 -1.129730
v 0.884446 0.585723 -0.642587
v 0.903480 0.360888 -0.656417
v 0.337828 0.585723 -1.039728
v 0.345099 0.360889 -1.062105
v -0.337828 0.585723 -1.039728
v -0.345099 0.360888 -1.062104
v -0.884445 0.585723 -0.642587
v -0.903480 0.360888 -0.656417
v -1.093234 0.585723 0.000000
v -1.116763 0.360888 0.000000
v -0.884445 0.585723 0.642587
v -0.903480 0.360888 0.656417
v -0.337828 0.585723 1.039728
v -0.345098 0.360889 1.062104
v 0.337828 0.585723 1.039728
v 0.345099 0.360889 1.062104
v 0.884445 0.585723 0.642587
v 0.903480 0.360888 0.656417
v 1.093235 0.585723 0.000000
v 1.116763 0.360888 0.000000
v 0.285492 3.820911 0.878652
v -0.285492 3.820911 0.878652
v -0.745501 3.820843 0.539882
v -0.923871 3.820843 0.000000
v -0.747427 3.820845 -0.543035
v -0.285492 3.817493 -0.905202
v 0.285492 3.817501 -0.904346
v -0.285492 2.706482 0.878653
v 0.285492 2.706481 0.878653
v 0.747427 2.682818 0.543038
v 0.923871 2.682819 0.000000
v 0.747428 2.682817 -0.543038
v 0.285492 2.679675 -0.894162
v -0.285492 2.679671 -0.894679
vt 0.171643 0.887471
vt 0.769800 0.251578
vt 0.829095 0.301208
vt 0.085810 0.887471
vt 0.257671 0.887471
vt 0.746526 0.124653
vt 0.903744 0.314788
vt 0.857874 0.887471
vt 0.965989 0.267455
vt 0.773072 0.887471
vt 0.429448 0.887471
vt 0.834906 0.000977
vt 0.772686 0.043881
vt 0.343566 0.887471
vt 0.601254 0.887471
vt 0.970556 0.044399
vt 0.908262 0.002385
vt 0.515341 0.887471
vt 0.999023 0.124458
vt 0.687277 0.887471
vt 0.905544 0.256332
vt 0.907479 0.066033
vt 0.908056 0.165387
vt 0.830203 0.244300
vt 0.830510 0.176668
vt 0.830528 0.075238
vt 0.499271 0.888665
vt 0.399740 0.888665
vt 0.257671 0.870319
vt 0.343566 0.870319
vt 0.897070 0.888665
vt 0.797496 0.888665
vt 0.598768 0.888665
vt 0.698114 0.888665
vt 0.997435 0.888665
vt 0.000977 0.870319
vt 0.085810 0.870319
vt 0.300316 0.888665
vt 0.101381 0.888665
vt 0.171643 0.870319
vt 0.200926 0.888665
vt 0.773072 0.870319
vt 0.687277 0.870319
vt 0.601254 0.870319
vt 0.515341 0.870319
vt 0.429448 0.870319
vt 0.997435 0.905963
vt 0.101381 0.905963
vt 0.897070 0.905963
vt 0.797496 0.905963
vt 0.698114 0.905963
vt 0.598768 0.905963
vt 0.499271 0.905963
vt 0.399740 0.905963
vt 0.300316 0.905963
vt 0.200926 0.905963
vt 0.078048 0.227620
vt 0.153462 0.241056
vt 0.152444 0.375906
vt 0.076710 0.375111
vt 0.224443 0.000978
vt 0.225775 0.218907
vt 0.149835 0.001848
vt 0.004068 0.227663
vt 0.743082 0.374218
vt 0.298467 0.229971
vt 0.372536 0.229704
vt 0.374289 0.374757
vt 0.300550 0.375484
vt 0.226624 0.376390
vt 0.226398 0.255940
vt 0.593688 0.506534
vt 0.593509 0.427455
vt 0.667111 0.385500
vt 0.667182 0.635101
vt 0.520485 0.464684
vt 0.520726 0.415880
vt 0.000977 0.888665
vt 0.000977 0.905963
vt 0.857874 0.847872
vt 0.857874 0.870319
vt 0.000977 0.887471
vt 0.548015 0.566752
vt 0.548001 0.673060
vt 0.384417 0.619884
vt 0.485503 0.759057
vt 0.384394 0.791894
vt 0.283293 0.759030
vt 0.220818 0.673017
vt 0.220832 0.566708
vt 0.283330 0.480711
vt 0.384439 0.447874
vt 0.485540 0.480738
vt 0.299077 0.001115
vt 0.225698 0.240047
vt 0.593869 0.368140
vt 0.521095 0.359790
vt 0.520554 0.225833
vt 0.594590 0.225952
vt 0.612228 0.391873
vt 0.448338 0.374410
vt 0.446450 0.229318
vt 0.530530 0.387926
vt 0.487592 0.378676
vt 0.447239 0.446834
vt 0.374220 0.446653
vt 0.300464 0.464073
vt 0.000977 0.928745
vt 0.773072 0.793089
vt 0.857874 0.793089
vt 0.687277 0.793089
vt 0.000977 0.821799
vt 0.000977 0.793089
vt 0.085810 0.793089
vt 0.171643 0.793089
vt 0.257671 0.793089
vt 0.343566 0.793089
vt 0.429448 0.793089
vt 0.515341 0.793089
vt 0.601254 0.793089
vt 0.857874 0.821799
vt 0.773072 0.847872
vt 0.773072 0.821799
vt 0.687277 0.847872
vt 0.687277 0.821799
vt 0.601254 0.847872
vt 0.601254 0.821799
vt 0.515341 0.847872
vt 0.515341 0.821799
vt 0.429448 0.847872
vt 0.429448 0.821799
vt 0.343566 0.847872
vt 0.343566 0.821799
vt 0.257671 0.847872
vt 0.257671 0.821799
vt 0.171643 0.847872
vt 0.171643 0.821799
vt 0.085810 0.847872
vt 0.085810 0.821799
vt 0.000977 0.847872
vt 0.997435 0.928745
vt 0.997435 0.946242
vt 0.897070 0.946242
vt 0.897070 0.928745
vt 0.797496 0.946242
vt 0.797496 0.928745
vt 0.698114 0.946242
vt 0.698114 0.928745
vt 0.598768 0.946242
vt 0.598768 0.928745
vt 0.499271 0.946242
vt 0.499271 0.928745
vt 0.399740 0.946242
vt 0.399740 0.928745
vt 0.300316 0.946242
vt 0.300316 0.928745
vt 0.200926 0.946242
vt 0.200926 0.928745
vt 0.101381 0.946242
vt 0.101381 0.928745
vt 0.000977 0.946242
vt 0.226544 0.507809
vt 0.152467 0.615162
vt 0.074992 0.631391
vt 0.744532 0.651631
vt 0.372844 0.001385
vt 0.446697 0.001417
vt 0.520670 0.001410
vt 0.594678 0.001465
vt 0.668464 0.226455
vt 0.668657 0.001622
vt 0.742525 0.001824
vt 0.076073 0.003063
vt 0.743477 0.226385
vt 0.002916 0.374572
vt 0.000977 0.651696
vt 0.002315 0.003691
vn -0.323534 -0.006677 -0.946193
vn -0.800192 -0.002091 -0.599741
vn -0.799617 -0.002204 -0.600507
vn -0.322653 -0.006856 -0.946492
vn -0.999995 0.000243 -0.003268
vn -0.999868 0.000233 -0.016242
vn -0.810990 -0.001902 -0.585057
vn 0.322609 -0.006609 -0.946509
vn 0.330651 -0.006685 -0.943729
vn -0.795050 0.000607 0.606544
vn -0.310534 0.000337 0.950562
vn -0.317740 0.000389 0.948178
vn -0.816688 0.000643 0.577079
vn -0.999223 0.000234 -0.039419
vn -0.999789 0.000320 0.020556
vn 0.972930 0.000000 -0.231101
vn 0.986785 0.000000 -0.162034
vn 0.767810 -0.002414 -0.640673
vn 0.689328 -0.003190 -0.724442
vn 0.853275 0.000000 0.521462
vn 0.776243 -0.005626 0.630409
vn -0.216044 0.831421 0.511922
vn -0.215641 0.830844 0.513028
vn -0.210160 0.822895 0.527899
vn 0.321319 0.648253 0.690306
vn 0.321319 0.648253 0.690306
vn 0.321319 0.648253 0.690306
vn 0.406500 0.679580 0.610679
vn -0.018437 0.718265 0.695526
vn 0.098680 0.721395 0.685457
vn 0.406500 0.679580 0.610679
vn 0.171710 0.607066 0.775878
vn 0.024957 0.667247 0.744418
vn 0.036463 0.663168 0.747582
vn 0.171710 0.607066 0.775878
vn 0.171696 0.853301 0.492340
vn 0.171696 0.853301 0.492340
vn 0.171696 0.853301 0.492340
vn -0.111394 0.665118 0.738383
vn -0.122070 0.671873 0.730538
vn -0.029046 0.608658 0.792901
vn -0.029046 0.608658 0.792901
vn -0.217318 0.713910 0.665662
vn -0.236077 0.703908 0.669912
vn -0.147151 0.747939 0.647250
vn -0.147151 0.747940 0.647250
vn -0.140379 0.812830 0.565333
vn -0.137202 0.818474 0.557921
vn -0.098488 0.879385 0.465814
vn -0.217526 0.833540 0.507832
vn -0.217526 0.833540 0.507832
vn -0.150636 0.793888 0.589110
vn -0.150636 0.793888 0.589110
vn 0.000000 1.000000 0.000000
vn 0.000000 1.000000 0.000000
vn 0.000000 1.000000 0.000000
vn 0.000000 1.000000 0.000000
vn -0.319875 0.087693 -0.943393
vn 0.315172 0.089087 -0.944844
vn 0.000713 0.999996 -0.002552
vn -0.000713 0.999996 -0.002552
vn -0.000713 1.000000 -0.000654
vn -0.000713 1.000000 -0.000654
vn 0.747750 0.381740 -0.543272
vn 0.285615 0.381740 -0.879033
vn 0.285615 0.381740 -0.879033
vn 0.747750 0.381740 -0.543272
vn 0.924270 0.381740 0.000000
vn 0.924270 0.381740 0.000000
vn 0.747750 0.381740 0.543272
vn 0.747750 0.381739 0.543272
vn 0.285615 0.381740 0.879033
vn 0.285615 0.381740 0.879033
vn -0.285615 0.381740 0.879033
vn -0.285615 0.381740 0.879033
vn -0.747750 0.381739 0.543272
vn -0.747750 0.381739 0.543272
vn -0.924270 0.381739 -0.000000
vn -0.924270 0.381739 -0.000000
vn -0.747751 0.381739 -0.543272
vn -0.747751 0.381739 -0.543272
vn -0.285615 0.381740 -0.879033
vn -0.285615 0.381740 -0.879033
vn 0.000713 1.000000 -0.000654
vn 0.000713 1.000000 -0.000654
vn 0.000000 1.000000 0.000000
vn 0.000000 1.000000 0.000000
vn 0.000000 1.000000 -0.000000
vn 0.000000 1.000000 -0.000000
vn 0.000000 1.000000 -0.000001
vn 0.000000 1.000000 -0.000001
vn 0.000000 1.000000 -0.000000
vn 0.000000 1.000000 -0.000000
vn 0.192527 0.782197 -0.592538
vn -0.192527 0.782197 -0.592538
vn -0.216352 0.714014 -0.665865
vn 0.216353 0.714014 -0.665865
vn 0.504043 0.782197 -0.366209
vn 0.566419 0.714013 -0.411527
vn 0.623032 0.782197 0.000000
vn 0.700132 0.714013 0.000000
vn 0.504043 0.782197 0.366208
vn 0.566419 0.714014 0.411527
vn 0.192527 0.782197 0.592538
vn 0.216353 0.714014 0.665864
vn -0.504043 0.782197 0.366209
vn -0.192527 0.782197 0.592538
vn -0.216352 0.714014 0.665864
vn -0.566419 0.714013 0.411527
vn -0.623032 0.782197 0.000000
vn -0.700133 0.714013 -0.000000
vn -0.504043 0.782197 -0.366209
vn -0.566419 0.714013 -0.411527
vn 0.809017 0.000000 -0.587785
vn 0.309017 0.000000 -0.951057
vn 0.309017 0.000000 -0.951057
vn 0.809017 0.000000 -0.587785
vn -0.809017 0.000000 0.587785
vn -0.309017 0.000000 0.951057
vn -0.309017 0.000000 0.951057
vn -0.809017 0.000000 0.587785
vn 1.000000 0.000000 -0.000000
vn 1.000000 0.000000 -0.000000
vn 0.309017 0.000000 0.951056
vn 0.309017 0.000000 0.951056
vn 0.809017 0.000000 0.587785
vn 0.809017 0.000000 0.587785
vn -1.000000 0.000000 0.000000
vn -1.000000 0.000000 0.000000
vn -0.309017 0.000000 -0.951057
vn -0.309017 0.000000 -0.951057
vn -0.809017 0.000000 -0.587785
vn -0.809017 0.000000 -0.587785
vn 0.000000 -1.000000 0.000000
vn 0.000000 -1.000000 0.000000
vn 0.000000 -1.000000 0.000000
vn 0.000000 -1.000000 0.000000
vn 0.000000 -1.000000 0.000000
vn 0.000000 -1.000000 0.000000
vn 0.000000 -1.000000 0.000000
vn 0.000000 -1.000000 0.000000
vn 0.000000 -1.000000 0.000000
vn 0.000000 -1.000000 0.000000
vn 0.000000 -1.000000 0.000000
vn -0.807524 0.000564 0.589835
vn -0.783544 0.612754 -0.102909
vn -0.785318 0.616652 0.054913
vn -0.785974 0.616936 0.040426
vn -0.574491 -0.816256 -0.060718
vn -0.574339 -0.815852 -0.067232
vn -0.574496 -0.816269 -0.060496
vn -0.770615 0.607319 0.193175
vn -0.574621 -0.816635 -0.054016
vn 0.999066 0.000000 -0.043212
vn 0.804556 0.002483 0.593872
vn 0.807812 0.000000 0.589440
vn 0.999987 -0.000000 -0.005030
vn 0.951216 -0.000922 -0.308524
vn 0.938073 -0.284224 0.198083
vn 0.979620 -0.198272 0.032134
vn 0.890832 0.381025 0.247462
vn 0.951136 0.001209 -0.308771
vn 0.969269 0.244321 0.028742
vn 0.274078 -0.000679 0.961707
vn 0.305575 0.000000 0.952168
vn 0.896778 -0.331978 0.292540
vn 0.895089 -0.333650 0.295792
vn 0.830862 0.427606 0.356120
vn 0.799895 0.441664 0.406326
vn 0.544858 0.491190 0.679605
vn 0.720557 -0.445655 0.531215
vn 0.809004 -0.005768 -0.587775
vn 0.773541 0.292879 -0.562011
vn 0.295466 0.292880 -0.909352
vn 0.309012 -0.005768 -0.951041
vn 0.999983 -0.005768 0.000000
vn 0.956150 0.292879 0.000000
vn -0.295467 0.292881 -0.909352
vn -0.309012 -0.005768 -0.951041
vn -0.773541 0.292880 -0.562010
vn -0.809004 -0.005767 -0.587775
vn -0.956150 0.292879 0.000000
vn -0.999983 -0.005767 -0.000000
vn -0.773541 0.292879 0.562011
vn -0.809003 -0.005768 0.587776
vn -0.295466 0.292881 0.909352
vn -0.309012 -0.005768 0.951041
vn 0.295466 0.292881 0.909352
vn 0.309012 -0.005768 0.951041
vn 0.773541 0.292879 0.562011
vn 0.809003 -0.005768 0.587775
vn 0.306548 -0.126157 -0.943458
vn 0.802553 -0.126157 -0.583089
vn 0.992010 -0.126157 0.000000
vn 0.802553 -0.126157 0.583089
vn 0.306548 -0.126157 0.943458
vn -0.306548 -0.126157 0.943458
vn -0.802553 -0.126158 0.583089
vn -0.992010 -0.126157 -0.000000
vn -0.802554 -0.126156 -0.583089
vn -0.306548 -0.126157 -0.943458
vn 0.725918 0.013255 0.687654
vn 0.302881 0.000001 0.953029
vn -0.349735 0.000455 0.936849
vn -0.871137 0.000561 0.491041
vn -0.981049 0.000086 -0.193759
vn -0.708519 -0.003076 -0.705685
vn -0.273648 -0.007270 -0.961803
vn 0.344330 -0.006663 -0.938825
vn -0.309926 0.000318 0.950761
vn 0.307974 0.000000 0.951395
vn 0.808368 0.000000 0.588678
vn 1.000000 -0.000000 0.000000
vn 0.812663 -0.001860 -0.582730
vn 0.811609 -0.001889 -0.584198
s 1
g BrokenPillar02_low
usemtl lambert2SG
f 124/57/1 68/58/2 115/59/3 116/60/4
f 2/61/5 71/62/6 68/58/2 9/63/7
f 123/64/8 124/57/1 116/60/4 117/175/9
f 70/66/10 118/67/11 112/68/12 113/69/13
f 113/69/13 114/70/14 69/71/15 70/66/10
f 20/72/16 75/73/17 74/74/18 18/75/19
f 16/76/20 73/77/21 75/73/17 20/72/16
s 5
f 14/7/22 24/21/23 18/9/24
s off
f 16/16/25 26/22/26 19/17/27
s 6
f 20/19/28 25/23/29 26/22/30 16/16/31
s 7
f 18/9/32 24/21/33 25/23/34 20/19/35
s off
f 13/3/36 10/2/37 21/24/38
s 7
f 22/25/39 21/24/40 10/2/41 11/6/42
s 6
f 23/26/43 22/25/44 11/6/45 17/13/46
s 8
f 15/12/47 23/26/48 17/13/49
s 5
f 13/3/50 21/24/51 24/21/23 14/7/22
s 7
f 25/23/34 24/21/33 21/24/40 22/25/39
s 6
f 26/22/30 25/23/29 22/25/44 23/26/43
s 8
f 19/17/52 26/22/53 23/26/48 15/12/47
s 1
f 1/14/54 2/5/55 52/29/56 50/30/57
f 12/4/58 3/82/59 39/36/60 56/37/61
f 2/5/55 9/1/62 54/40/63 52/29/56
f 9/1/62 12/4/58 56/37/61 54/40/63
s 10
f 37/122/64 38/80/65 39/81/66 40/42/67
f 41/124/68 37/122/64 40/42/67 42/43/69
f 43/126/70 41/124/68 42/43/69 44/44/71
f 45/128/72 43/126/70 44/44/71 46/45/73
f 47/130/74 45/128/72 46/45/73 48/46/75
f 49/132/76 47/130/74 48/46/75 50/30/77
f 51/134/78 49/132/76 50/30/77 52/29/79
f 53/136/80 51/134/78 52/29/79 54/40/81
f 55/138/82 53/136/80 54/40/81 56/37/83
f 38/140/65 55/138/82 56/37/83 39/36/66
s 1
f 4/10/84 40/42/85 39/81/60 3/8/59
f 6/20/86 42/43/87 40/42/85 4/10/84
f 8/15/88 44/44/89 42/43/87 6/20/86
f 7/18/90 46/45/91 44/44/89 8/15/88
f 5/11/92 48/46/93 46/45/91 7/18/90
f 1/14/54 50/30/57 48/46/93 5/11/92
s 11
f 57/79/94 66/48/95 90/160/96 81/108/97
f 58/49/98 57/47/94 81/141/97 82/144/99
f 59/50/100 58/49/98 82/144/99 83/146/101
f 60/51/102 59/50/100 83/146/101 84/148/103
f 61/52/104 60/51/102 84/148/103 85/150/105
f 63/54/106 62/53/107 86/152/108 87/154/109
f 64/55/110 63/54/106 87/154/109 88/156/111
f 65/56/112 64/55/110 88/156/111 89/158/113
f 66/48/95 65/56/112 89/158/113 90/160/96
s 12
f 29/31/114 30/35/115 57/47/116 58/49/117
f 28/28/118 27/27/119 62/53/120 63/54/121
f 31/32/122 29/31/114 58/49/117 59/50/123
f 27/27/119 32/33/124 61/52/125 62/53/120
f 33/34/126 31/32/122 59/50/123 60/51/127
f 32/33/124 33/34/126 60/51/127 61/52/125
f 34/38/128 28/28/118 63/54/121 64/55/129
f 30/78/115 35/39/130 66/48/131 57/79/116
f 36/41/132 34/38/128 64/55/129 65/56/133
f 35/39/130 36/41/132 65/56/133 66/48/131
s 14
f 28/83/134 34/84/135 67/85/136
f 34/84/135 36/86/137 67/85/136
f 36/86/137 35/87/138 67/85/136
f 35/87/138 30/88/139 67/85/136
f 30/88/139 29/89/140 67/85/136
f 29/89/140 31/90/141 67/85/136
f 31/90/141 33/91/142 67/85/136
f 33/91/142 32/92/143 67/85/136
f 32/92/143 27/93/144 67/85/136
f 27/93/144 28/83/134 67/85/136
s 1
f 68/58/2 69/71/15 114/70/14 115/59/3
f 70/66/10 71/62/6 2/61/5 1/94/145
s 15
f 68/58/146 71/62/147 72/95/148
s 16
f 69/71/149 68/58/150 72/95/151
s 15
f 71/62/147 70/66/152 72/95/148
s 16
f 70/66/153 69/71/149 72/95/151
s 1
f 77/96/154 76/97/155 120/98/156 121/99/157
s 18
f 74/74/158 75/73/159 78/100/160
s 19
f 77/96/161 74/74/162 78/100/163
s 1
f 76/97/155 111/101/164 119/102/165 120/98/156
s 18
f 78/100/160 75/73/159 73/77/166 79/103/167
s 19
f 78/100/163 79/103/168 76/97/169 77/96/161
f 80/104/170 76/97/169 79/103/168
s 18
f 73/77/166 80/104/171 79/103/167
s 1
f 118/67/11 119/102/165 111/101/164 112/68/12
s 11
f 61/52/104 85/150/105 86/152/108 62/53/107
f 91/123/172 92/109/173 94/110/174 93/121/175
f 92/109/173 91/123/172 109/125/176 110/111/177
f 93/112/175 94/113/174 96/114/178 95/139/179
f 95/139/179 96/114/178 98/115/180 97/137/181
f 97/137/181 98/115/180 100/116/182 99/135/183
f 99/135/183 100/116/182 102/117/184 101/133/185
f 101/133/185 102/117/184 104/118/186 103/131/187
f 103/131/187 104/118/186 106/119/188 105/129/189
f 105/129/189 106/119/188 108/120/190 107/127/191
f 107/127/191 108/120/190 110/111/177 109/125/176
f 91/123/172 93/121/175 38/80/192 37/122/193
f 109/125/176 91/123/172 37/122/193 41/124/194
f 107/127/191 109/125/176 41/124/194 43/126/195
f 105/129/189 107/127/191 43/126/195 45/128/196
f 103/131/187 105/129/189 45/128/196 47/130/197
f 101/133/185 103/131/187 47/130/197 49/132/198
f 99/135/183 101/133/185 49/132/198 51/134/199
f 97/137/181 99/135/183 51/134/199 53/136/200
f 95/139/179 97/137/181 53/136/200 55/138/201
f 93/112/175 95/139/179 55/138/201 38/140/192
f 82/144/99 81/141/97 94/142/174 92/143/173
f 83/146/101 82/144/99 92/143/173 110/145/177
f 84/148/103 83/146/101 110/145/177 108/147/190
f 85/150/105 84/148/103 108/147/190 106/149/188
f 86/152/108 85/150/105 106/149/188 104/151/186
f 87/154/109 86/152/108 104/151/186 102/153/184
f 88/156/111 87/154/109 102/153/184 100/155/182
f 89/158/113 88/156/111 100/155/182 98/157/180
f 90/160/96 89/158/113 98/157/180 96/159/178
f 81/108/97 90/160/96 96/159/178 94/161/174
s 1
f 80/104/202 73/77/21 111/101/164
f 112/68/12 111/101/164 19/105/203 15/106/204
f 113/69/13 112/68/12 15/106/204 17/107/205
f 11/162/206 114/70/14 113/69/13 17/107/205
f 115/59/3 114/70/14 11/162/206 10/163/207
f 116/60/4 115/59/3 10/163/207 13/164/208
f 117/175/9 116/60/4 13/164/208 14/176/209
f 74/74/18 117/65/9 14/165/209 18/75/19
f 5/166/210 118/67/11 70/66/10 1/94/145
f 7/167/211 119/102/165 118/67/11 5/166/210
f 120/98/156 119/102/165 7/167/211 8/168/212
f 121/99/157 120/98/156 8/168/212 6/169/213
f 122/170/214 121/99/157 6/169/213 4/171/215
f 3/172/59 123/174/8 122/170/214 4/171/215
f 12/173/58 124/57/1 123/64/8 3/177/59
f 9/63/7 68/58/2 124/57/1 12/173/58
f 80/104/202 111/101/164 76/97/155
f 111/101/164 73/77/21 16/76/20 19/105/203
f 74/74/18 77/96/154 121/99/157 122/170/214
f 122/170/214 123/174/8 117/65/9 74/74/18
