# This file uses centimeters as units for non-parametric coordinates.

mtllib broken_pillar_01.mtl
g default
v -0.747427 0.946359 0.543038
v -0.923871 0.946359 0.000000
v 0.285492 0.946359 -0.878653
v 0.747427 0.946359 -0.543038
v -0.285492 0.946359 0.878654
v 0.923871 0.946359 0.000000
v 0.285492 0.946359 0.878653
v 0.747427 0.946359 0.543038
v -0.747427 0.946359 -0.543037
v -0.747427 8.716026 -0.543034
v -0.923871 7.885201 0.000000
v -0.285492 0.946359 -0.878653
v -0.285492 8.842136 -0.923513
v 0.285492 8.842133 -0.923510
v -0.285492 7.421690 0.878652
v 0.747427 7.829697 0.543038
v -0.745002 7.829697 0.539064
v 0.747427 8.716032 -0.543038
v 0.285492 7.421690 0.878652
v 0.923871 7.885201 0.000000
v -0.285492 8.642303 -0.543035
v -0.285493 8.258087 -0.174583
v -0.285492 7.861950 0.368455
v 0.285491 8.642303 -0.543036
v 0.285491 8.142651 0.000000
v 0.285492 7.861950 0.543038
v -0.411012 0.000000 1.264966
v -1.076044 0.000000 0.781793
v 1.076045 0.000000 -0.781792
v 0.411012 0.000000 -1.264966
v 1.330064 0.000000 0.000000
v 0.411012 0.000000 1.264966
v 1.076045 0.000000 0.781792
v -1.330064 0.000000 0.000000
v -0.411013 0.000000 -1.264966
v -1.076044 0.000000 -0.781792
v 0.845967 0.789123 -0.614631
v 0.323130 0.789123 -0.994493
v -0.323130 0.789123 -0.994493
v -0.845966 0.789123 -0.614630
v -1.045671 0.789123 0.000000
v -0.845966 0.789123 0.614631
v -0.323130 0.789123 0.994494
v 0.323130 0.789123 0.994493
v 0.845966 0.789123 0.614630
v 1.045672 0.789123 0.000000
v 0.950754 0.789123 -0.690763
v 0.363156 0.789123 -1.117678
v 0.363156 0.946359 -1.117678
v 0.950754 0.946359 -0.690763
v 1.175197 0.789123 0.000000
v 1.175197 0.946359 0.000000
v 0.950754 0.789123 0.690763
v 0.950754 0.946359 0.690763
v 0.363156 0.789123 1.117679
v 0.363156 0.946359 1.117679
v -0.363156 0.789123 1.117679
v -0.363156 0.946359 1.117679
v -0.950754 0.789123 0.690763
v -0.950754 0.946359 0.690763
v -1.175197 0.789123 0.000000
v -1.175197 0.946359 0.000000
v -0.950754 0.789123 -0.690763
v -0.950754 0.946359 -0.690763
v -0.363156 0.789123 -1.117678
v -0.363156 0.946359 -1.117678
v 0.359636 0.260094 -1.106848
v 0.411012 0.099265 -1.264966
v 1.076045 0.099265 -0.781792
v 0.941540 0.260094 -0.684069
v 1.330064 0.099265 0.000000
v 1.163808 0.260094 0.000000
v 1.076045 0.099265 0.781792
v 0.941540 0.260094 0.684069
v 0.411012 0.099265 1.264966
v 0.359637 0.260094 1.106848
v -0.411012 0.099265 1.264966
v -0.359636 0.260094 1.106848
v -1.076044 0.099265 0.781793
v -0.941540 0.260094 0.684069
v -1.330064 0.099265 0.000000
v -1.163808 0.260094 0.000000
v -1.076044 0.099265 -0.781792
v -0.941540 0.260094 -0.684069
v -0.411013 0.099265 -1.264966
v -0.359637 0.260094 -1.106848
v 0.000000 0.000000 0.000000
vt 0.159543 0.158859
vt 0.723684 0.889171
vt 0.774055 0.926578
vt 0.088933 0.158859
vt 0.230082 0.158859
vt 0.700518 0.788103
vt 0.832828 0.924075
vt 0.723947 0.158859
vt 0.880355 0.884642
vt 0.653172 0.158859
vt 0.370898 0.158859
vt 0.766690 0.679652
vt 0.719464 0.733226
vt 0.300509 0.158859
vt 0.511980 0.158859
vt 0.879083 0.739001
vt 0.825444 0.674879
vt 0.441438 0.158859
vt 0.912710 0.787235
vt 0.582542 0.158859
vt 0.832382 0.878706
vt 0.830365 0.736571
vt 0.835005 0.808277
vt 0.772072 0.881213
vt 0.769696 0.815800
vt 0.768903 0.750949
vt 0.367590 0.001909
vt 0.295525 0.001909
vt 0.230082 0.132323
vt 0.300509 0.132323
vt 0.655936 0.001909
vt 0.583773 0.001909
vt 0.439657 0.001909
vt 0.511745 0.001909
vt 0.729406 0.001909
vt 0.017893 0.132323
vt 0.088933 0.132323
vt 0.223462 0.001909
vt 0.079186 0.001909
vt 0.159543 0.132323
vt 0.151475 0.001909
vt 0.653172 0.116108
vt 0.017893 0.116108
vt 0.653172 0.132323
vt 0.582542 0.116108
vt 0.582542 0.132323
vt 0.511980 0.116108
vt 0.511980 0.132323
vt 0.441438 0.116108
vt 0.441438 0.132323
vt 0.370898 0.116108
vt 0.370898 0.132323
vt 0.300509 0.116108
vt 0.230082 0.116108
vt 0.159543 0.116108
vt 0.088933 0.116108
vt 0.729406 0.097823
vt 0.655936 0.097823
vt 0.655936 0.044039
vt 0.004955 0.044039
vt 0.079186 0.097823
vt 0.079186 0.044039
vt 0.151475 0.097823
vt 0.151475 0.044039
vt 0.223462 0.097823
vt 0.223462 0.044039
vt 0.295525 0.097823
vt 0.295525 0.044039
vt 0.367590 0.097823
vt 0.367590 0.044039
vt 0.439657 0.097823
vt 0.439657 0.044039
vt 0.511745 0.097823
vt 0.511745 0.044039
vt 0.583773 0.097823
vt 0.583773 0.044039
vt 0.729406 0.011170
vt 0.079186 0.011170
vt 0.655936 0.011170
vt 0.583773 0.011170
vt 0.511745 0.011170
vt 0.439657 0.011170
vt 0.367590 0.011170
vt 0.295525 0.011170
vt 0.223462 0.011170
vt 0.151475 0.011170
vt 0.490167 0.895717
vt 0.429886 0.889738
vt 0.369678 0.846536
vt 0.550288 0.983565
vt 0.309386 0.846418
vt 0.005050 0.995706
vt 0.248968 0.889384
vt 0.065342 0.996011
vt 0.188985 0.895150
vt 0.128554 0.982786
vt 0.613453 0.997013
vt 0.612186 0.163252
vt 0.009262 0.161954
vt 0.069553 0.162259
vt 0.129846 0.162354
vt 0.190139 0.162449
vt 0.431309 0.162898
vt 0.371016 0.162780
vt 0.491601 0.163016
vt 0.310724 0.162662
vt 0.551894 0.163134
vt 0.250431 0.162544
vt 0.582542 0.103121
vt 0.653172 0.103121
vt 0.511980 0.103121
vt 0.441438 0.103121
vt 0.370898 0.103121
vt 0.300509 0.103121
vt 0.230082 0.103121
vt 0.159543 0.103121
vt 0.088933 0.103121
vt 0.723947 0.103121
vt 0.729406 0.044039
vt 0.017893 0.103121
vt 0.004955 0.097823
vt 0.004955 0.001909
vt 0.004955 0.011170
vt 0.723947 0.116108
vt 0.723947 0.132323
vt 0.017893 0.158859
vt 0.945249 0.346193
vt 0.945238 0.432891
vt 0.811830 0.389525
vt 0.894269 0.503024
vt 0.811811 0.529804
vt 0.729360 0.503002
vt 0.678410 0.432856
vt 0.678422 0.346158
vt 0.729391 0.276025
vt 0.811848 0.249245
vt 0.894299 0.276047
vn -0.810277 -0.001235 -0.586046
vn -0.715459 -0.001784 -0.698652
vn -0.302650 -0.004314 -0.953092
vn -0.326414 -0.004183 -0.945218
vn -0.999959 0.000131 -0.009023
vn -0.995522 0.000095 -0.094533
vn 0.302651 -0.004314 -0.953092
vn 0.326413 -0.004183 -0.945218
vn 0.715458 -0.001784 -0.698654
vn 0.810276 -0.001235 -0.586047
vn -0.315756 0.000186 0.948840
vn -0.366230 0.000215 0.930524
vn -0.859979 0.000302 0.510330
vn -0.812153 0.000316 0.583445
vn 0.812261 0.000000 0.583294
vn 0.860540 0.000000 0.509383
vn 0.364008 0.000000 0.931396
vn 0.313804 0.000000 0.949488
vn 0.995464 -0.000000 -0.095141
vn 0.999949 -0.000000 -0.010093
vn -0.025795 0.885026 0.464827
vn -0.039292 0.884636 0.464623
vn -0.139913 0.876611 0.460411
vn 0.042292 0.605703 0.794566
vn -0.073344 0.670875 0.737935
vn -0.088038 0.678210 0.729576
vn 0.241008 0.915368 0.322514
vn 0.049786 0.889187 0.454827
vn 0.091268 0.898969 0.428399
vn 0.241008 0.915368 0.322514
vn 0.106396 0.637204 0.763315
vn 0.047671 0.673448 0.737696
vn 0.058726 0.666916 0.742815
vn 0.106396 0.637204 0.763315
vn 0.025797 0.885025 0.464827
vn 0.139905 0.876612 0.460411
vn 0.039294 0.884636 0.464623
vn -0.035997 0.656426 0.753531
vn -0.035972 0.657222 0.752838
vn -0.037572 0.603148 0.796744
vn -0.037572 0.603148 0.796744
vn -0.139263 0.872540 0.468274
vn -0.133830 0.870556 0.473520
vn -0.201543 0.891621 0.405454
vn -0.201543 0.891621 0.405454
vn -0.058969 0.702957 0.708783
vn -0.022331 0.712098 0.701725
vn 0.186114 0.743863 0.641895
vn 0.000000 1.000000 0.000000
vn 0.000000 1.000000 -0.000000
vn 0.000000 1.000000 -0.000000
vn 0.000000 1.000000 0.000000
vn 0.000000 1.000000 -0.000000
vn 0.000000 1.000000 0.000000
vn 0.000000 1.000000 0.000000
vn 0.000000 1.000000 -0.000000
vn 0.000000 1.000000 -0.000000
vn 0.000000 1.000000 -0.000000
vn 0.809017 0.000000 -0.587785
vn 0.309017 0.000000 -0.951057
vn 0.309017 0.000000 -0.951057
vn 0.809017 0.000000 -0.587785
vn 1.000000 0.000000 0.000000
vn 1.000000 0.000000 0.000000
vn 0.809017 0.000000 0.587785
vn 0.809017 0.000000 0.587785
vn 0.309017 0.000000 0.951057
vn 0.309017 0.000000 0.951057
vn -0.309017 0.000000 0.951057
vn -0.309017 0.000000 0.951057
vn -0.809017 0.000000 0.587785
vn -0.809017 0.000000 0.587785
vn -1.000000 0.000000 -0.000001
vn -1.000000 0.000000 -0.000001
vn -0.809017 0.000000 -0.587785
vn -0.809017 0.000000 -0.587785
vn -0.309017 0.000000 -0.951056
vn -0.309017 0.000000 -0.951056
vn 0.301589 0.217940 -0.928195
vn 0.789570 0.217940 -0.573656
vn 0.735313 0.417020 -0.534236
vn 0.280865 0.417020 -0.864413
vn -0.301589 0.217941 -0.928195
vn -0.280865 0.417020 -0.864413
vn -0.789570 0.217940 -0.573656
vn -0.735313 0.417020 -0.534236
vn -0.975962 0.217940 -0.000000
vn -0.908897 0.417021 -0.000000
vn -0.789570 0.217940 0.573656
vn -0.735313 0.417020 0.534236
vn -0.301589 0.217940 0.928195
vn -0.280865 0.417020 0.864413
vn 0.301589 0.217940 0.928195
vn 0.280865 0.417020 0.864412
vn 0.789570 0.217940 0.573656
vn 0.735313 0.417021 0.534236
vn 0.975962 0.217940 0.000000
vn 0.908897 0.417021 0.000000
vn 0.000003 -1.000000 -0.000002
vn 0.000001 -1.000000 -0.000003
vn 0.000001 -1.000000 -0.000003
vn 0.000003 -1.000000 -0.000002
vn 0.000000 1.000000 0.000000
vn 0.000000 1.000000 0.000000
vn 0.000004 -1.000000 0.000000
vn 0.000004 -1.000000 0.000000
vn 0.000000 1.000000 -0.000000
vn 0.000000 1.000000 -0.000000
vn 0.000003 -1.000000 0.000002
vn 0.000003 -1.000000 0.000002
vn 0.000000 1.000000 0.000000
vn 0.000000 1.000000 0.000000
vn 0.000001 -1.000000 0.000004
vn 0.000001 -1.000000 0.000004
vn 0.000000 1.000000 0.000000
vn 0.000000 1.000000 0.000000
vn -0.000001 -1.000000 0.000004
vn -0.000001 -1.000000 0.000004
vn 0.000000 1.000000 0.000000
vn 0.000000 1.000000 0.000000
vn -0.000003 -1.000000 0.000002
vn -0.000003 -1.000000 0.000002
vn -0.000004 -1.000000 0.000000
vn -0.000004 -1.000000 0.000000
vn -0.000003 -1.000000 -0.000002
vn -0.000003 -1.000000 -0.000002
vn -0.000001 -1.000000 -0.000003
vn -0.000001 -1.000000 -0.000003
vn 0.214854 0.718739 -0.661251
vn -0.214854 0.718739 -0.661251
vn 0.562493 0.718740 -0.408675
vn 0.695279 0.718740 -0.000000
vn 0.562493 0.718740 0.408675
vn 0.214853 0.718739 0.661250
vn -0.214853 0.718739 0.661250
vn -0.562492 0.718740 0.408675
vn -0.695279 0.718740 -0.000000
vn -0.562493 0.718740 -0.408675
vn 0.809017 0.000000 -0.587785
vn 0.309017 0.000000 -0.951057
vn 0.309017 0.000000 -0.951057
vn 0.809017 0.000000 -0.587785
vn -0.809017 0.000000 0.587785
vn -0.309017 0.000000 0.951057
vn -0.309017 0.000000 0.951057
vn -0.809017 0.000000 0.587785
vn 1.000000 0.000000 -0.000000
vn 1.000000 0.000000 -0.000000
vn 0.309017 0.000000 0.951057
vn 0.309017 0.000000 0.951057
vn 0.809017 0.000000 0.587785
vn 0.809017 0.000000 0.587785
vn -1.000000 0.000000 0.000000
vn -1.000000 0.000000 0.000000
vn -0.309017 0.000000 -0.951057
vn -0.309017 0.000000 -0.951057
vn -0.809017 0.000000 -0.587785
vn -0.809017 0.000000 -0.587785
vn 0.000000 -1.000000 0.000000
vn 0.000000 -1.000000 0.000000
vn 0.000000 -1.000000 0.000000
vn 0.000000 -1.000000 0.000000
vn 0.000000 -1.000000 0.000000
vn 0.000000 -1.000000 0.000000
vn 0.000000 -1.000000 0.000000
vn 0.000000 -1.000000 0.000000
vn 0.000000 -1.000000 0.000000
vn 0.000000 -1.000000 0.000000
vn 0.000000 -1.000000 0.000000
s 1
g BrokenPillar01_low
usemtl lambert2SG
f 9/101/1 10/96/2 13/94/3 12/100/4
f 2/102/5 11/95/6 10/96/2 9/101/1
f 12/100/4 13/94/3 14/92/7 3/99/8
f 3/98/8 14/97/7 18/90/9 4/107/10
f 5/106/11 15/91/12 17/93/13 1/108/14
f 8/103/15 16/88/16 19/89/17 7/104/18
f 11/95/6 2/102/5 1/108/14 17/93/13
f 15/91/12 5/106/11 7/104/18 19/89/17
f 20/87/19 6/105/20 4/107/10 18/90/9
f 16/88/16 8/103/15 6/105/20 20/87/19
s 4
f 14/7/21 24/21/22 18/9/23
s 5
f 16/16/24 26/22/25 19/17/26
s 6
f 20/19/27 25/23/28 26/22/29 16/16/30
s 7
f 18/9/31 24/21/32 25/23/33 20/19/34
s 4
f 13/3/35 10/2/36 21/24/37
s 7
f 22/25/38 21/24/39 10/2/40 11/6/41
s 6
f 23/26/42 22/25/43 11/6/44 17/13/45
s 5
f 15/12/46 23/26/47 17/13/48
s 4
f 13/3/35 21/24/37 24/21/22 14/7/21
s 7
f 25/23/33 24/21/32 21/24/39 22/25/38
s 6
f 26/22/29 25/23/28 22/25/43 23/26/42
s 5
f 19/17/26 26/22/25 23/26/47 15/12/46
s 8
f 1/14/49 2/5/50 62/29/51 60/30/52
f 12/4/53 3/126/54 49/36/55 66/37/56
f 2/5/50 9/1/57 64/40/58 62/29/51
f 9/1/57 12/4/53 66/37/56 64/40/58
s 10
f 47/42/59 48/124/60 49/125/61 50/44/62
f 51/45/63 47/42/59 50/44/62 52/46/64
f 53/47/65 51/45/63 52/46/64 54/48/66
f 55/49/67 53/47/65 54/48/66 56/50/68
f 57/51/69 55/49/67 56/50/68 58/52/70
f 59/53/71 57/51/69 58/52/70 60/30/72
f 61/54/73 59/53/71 60/30/72 62/29/74
f 63/55/75 61/54/73 62/29/74 64/40/76
f 65/56/77 63/55/75 64/40/76 66/37/78
f 48/43/60 65/56/77 66/37/78 49/36/61
s 11
f 38/57/79 37/58/80 70/59/81 67/119/82
f 39/61/83 38/121/79 67/60/82 86/62/84
f 40/63/85 39/61/83 86/62/84 84/64/86
f 41/65/87 40/63/85 84/64/86 82/66/88
f 42/67/89 41/65/87 82/66/88 80/68/90
f 43/69/91 42/67/89 80/68/90 78/70/92
f 44/71/93 43/69/91 78/70/92 76/72/94
f 45/73/95 44/71/93 76/72/94 74/74/96
f 46/75/97 45/73/95 74/74/96 72/76/98
f 37/58/80 46/75/97 72/76/98 70/59/81
s 12
f 37/110/99 38/118/100 48/124/101 47/42/102
s 8
f 4/10/103 50/44/104 49/125/55 3/8/54
s 12
f 46/109/105 37/110/99 47/42/102 51/45/106
s 8
f 6/20/107 52/46/108 50/44/104 4/10/103
s 12
f 45/111/109 46/109/105 51/45/106 53/47/110
s 8
f 8/15/111 54/48/112 52/46/108 6/20/107
s 12
f 44/112/113 45/111/109 53/47/110 55/49/114
s 8
f 7/18/115 56/50/116 54/48/112 8/15/111
s 12
f 43/113/117 44/112/113 55/49/114 57/51/118
s 8
f 5/11/119 58/52/120 56/50/116 7/18/115
s 12
f 42/114/121 43/113/117 57/51/118 59/53/122
s 8
f 1/14/49 60/30/52 58/52/120 5/11/119
s 12
f 41/115/123 42/114/121 59/53/122 61/54/124
f 40/116/125 41/115/123 61/54/124 63/55/126
f 39/117/127 40/116/125 63/55/126 65/56/128
f 38/120/100 39/117/127 65/56/128 48/43/101
s 11
f 67/60/82 68/123/129 85/78/130 86/62/84
f 68/77/129 67/119/82 70/59/81 69/79/131
f 69/79/131 70/59/81 72/76/98 71/80/132
f 71/80/132 72/76/98 74/74/96 73/81/133
f 73/81/133 74/74/96 76/72/94 75/82/134
f 75/82/134 76/72/94 78/70/92 77/83/135
f 77/83/135 78/70/92 80/68/90 79/84/136
f 79/84/136 80/68/90 82/66/88 81/85/137
f 81/85/137 82/66/88 84/64/86 83/86/138
f 83/86/138 84/64/86 86/62/84 85/78/130
s 13
f 29/31/139 30/35/140 68/77/141 69/79/142
f 28/28/143 27/27/144 77/83/145 79/84/146
f 31/32/147 29/31/139 69/79/142 71/80/148
f 27/27/144 32/33/149 75/82/150 77/83/145
f 33/34/151 31/32/147 71/80/148 73/81/152
f 32/33/149 33/34/151 73/81/152 75/82/150
f 34/38/153 28/28/143 79/84/146 81/85/154
f 30/122/140 35/39/155 85/78/156 68/123/141
f 36/41/157 34/38/153 81/85/154 83/86/158
f 35/39/155 36/41/157 83/86/158 85/78/156
s 15
f 28/127/159 34/128/160 87/129/161
f 34/128/160 36/130/162 87/129/161
f 36/130/162 35/131/163 87/129/161
f 35/131/163 30/132/164 87/129/161
f 30/132/164 29/133/165 87/129/161
f 29/133/165 31/134/166 87/129/161
f 31/134/166 33/135/167 87/129/161
f 33/135/167 32/136/168 87/129/161
f 32/136/168 27/137/169 87/129/161
f 27/137/169 28/127/159 87/129/161
