# This file uses centimeters as units for non-parametric coordinates.

mtllib broken_pillar_01.mtl
g default
v -0.747427 0.946359 0.543038
v -0.923871 0.946359 0.000000
v 0.285492 0.946359 -0.878653
v 0.747427 0.946359 -0.543038
v -0.285492 0.946359 0.878654
v 0.923871 0.946359 0.000000
v 0.285492 0.946359 0.878653
v 0.747427 0.946359 0.543038
v -0.747427 0.946359 -0.543037
v -0.747427 8.716026 -0.543034
v -0.923871 7.885201 0.000000
v -0.285492 0.946359 -0.878653
v -0.285492 8.842136 -0.923513
v 0.285492 8.842133 -0.923510
v -0.285492 7.421690 0.878652
v 0.747427 7.829697 0.543038
v -0.745002 7.829697 0.539064
v 0.747427 8.716032 -0.543038
v 0.285492 7.421690 0.878652
v 0.923871 7.885201 0.000000
v -0.285492 8.642303 -0.543035
v -0.285493 8.258087 -0.174583
v -0.285492 7.861950 0.368455
v 0.285491 8.642303 -0.543036
v 0.285491 8.142651 0.000000
v 0.285492 7.861950 0.543038
v -0.411012 0.000000 1.264966
v -1.076044 0.000000 0.781793
v 1.076045 0.000000 -0.781792
v 0.411012 0.000000 -1.264966
v 1.330064 0.000000 0.000000
v 0.411012 0.000000 1.264966
v 1.076045 0.000000 0.781792
v -1.330064 0.000000 0.000000
v -0.411013 0.000000 -1.264966
v -1.076044 0.000000 -0.781792
v 0.845967 0.789123 -0.614631
v 0.323130 0.789123 -0.994493
v -0.323130 0.789123 -0.994493
v -0.845966 0.789123 -0.614630
v -1.045671 0.789123 0.000000
v -0.845966 0.789123 0.614631
v -0.323130 0.789123 0.994494
v 0.323130 0.789123 0.994493
v 0.845966 0.789123 0.614630
v 1.045672 0.789123 0.000000
v 0.950754 0.789123 -0.690763
v 0.363156 0.789123 -1.117678
v 0.363156 0.946359 -1.117678
v 0.950754 0.946359 -0.690763
v 1.175197 0.789123 0.000000
v 1.175197 0.946359 0.000000
v 0.950754 0.789123 0.690763
v 0.950754 0.946359 0.690763
v 0.363156 0.789123 1.117679
v 0.363156 0.946359 1.117679
v -0.363156 0.789123 1.117679
v -0.363156 0.946359 1.117679
v -0.950754 0.789123 0.690763
v -0.950754 0.946359 0.690763
v -1.175197 0.789123 0.000000
v -1.175197 0.946359 0.000000
v -0.950754 0.789123 -0.690763
v -0.950754 0.946359 -0.690763
v -0.363156 0.789123 -1.117678
v -0.363156 0.946359 -1.117678
v 0.359636 0.260094 -1.106848
v 0.411012 0.099265 -1.264966
v 1.076045 0.099265 -0.781792
v 0.941540 0.260094 -0.684069
v 1.330064 0.099265 0.000000
v 1.163808 0.260094 0.000000
v 1.076045 0.099265 0.781792
v 0.941540 0.260094 0.684069
v 0.411012 0.099265 1.264966
v 0.359637 0.260094 1.106848
v -0.411012 0.099265 1.264966
v -0.359636 0.260094 1.106848
v -1.076044 0.099265 0.781793
v -0.941540 0.260094 0.684069
v -1.330064 0.099265 0.000000
v -1.163808 0.260094 0.000000
v -1.076044 0.099265 -0.781792
v -0.941540 0.260094 -0.684069
v -0.411013 0.099265 -1.264966
v -0.359637 0.260094 -1.106848
v 0.000000 0.000000 0.000000
vt 0.560733 0.332473
vt 0.560212 0.662877
vt 0.534756 0.668203
vt 0.536451 0.332435
vt 0.585014 0.332511
vt 0.584549 0.627584
vt 0.510475 0.668080
vt 0.512171 0.332312
vt 0.754980 0.332835
vt 0.755491 0.668607
vt 0.730053 0.663191
vt 0.730700 0.332787
vt 0.633576 0.332597
vt 0.633037 0.607959
vt 0.608705 0.625262
vt 0.609294 0.332549
vt 0.682138 0.332692
vt 0.681565 0.625405
vt 0.657318 0.608006
vt 0.657856 0.332645
vt 0.705841 0.627813
vt 0.706418 0.332740
vt 0.966661 0.716975
vt 0.966483 0.698831
vt 0.985667 0.701205
vt 0.985159 0.642963
vt 0.965676 0.641991
vt 0.963708 0.617320
vt 0.998606 0.662252
vt 0.967532 0.670667
vt 0.943158 0.717976
vt 0.923014 0.703016
vt 0.942365 0.699834
vt 0.941414 0.673675
vt 0.913750 0.662599
vt 0.941097 0.647741
vt 0.921326 0.640653
vt 0.940212 0.619229
vt 0.113950 0.964749
vt 0.085554 0.964749
vt 0.085554 0.954050
vt 0.113950 0.954050
vt 0.028643 0.964749
vt 0.000000 0.964749
vt 0.000000 0.954050
vt 0.028643 0.954050
vt 0.057113 0.964749
vt 0.057113 0.954050
vt 0.256143 0.947512
vt 0.284680 0.947512
vt 0.284680 0.954050
vt 0.256143 0.954050
vt 0.227665 0.947512
vt 0.227665 0.954050
vt 0.199215 0.947512
vt 0.199215 0.954050
vt 0.170773 0.947512
vt 0.170773 0.954050
vt 0.142331 0.947512
vt 0.142331 0.954050
vt 0.113950 0.947512
vt 0.085554 0.947512
vt 0.057113 0.947512
vt 0.028643 0.947512
vt 0.000000 0.947512
vt 0.583071 0.971723
vt 0.553447 0.971723
vt 0.553447 0.950037
vt 0.583071 0.950037
vt 0.320901 0.971723
vt 0.290971 0.971723
vt 0.290971 0.950037
vt 0.320901 0.950037
vt 0.350048 0.971723
vt 0.350048 0.950037
vt 0.379073 0.971723
vt 0.379073 0.950037
vt 0.408129 0.971723
vt 0.408129 0.950037
vt 0.437186 0.971723
vt 0.437186 0.950037
vt 0.466243 0.971723
vt 0.466243 0.950037
vt 0.495309 0.971723
vt 0.495309 0.950037
vt 0.524351 0.971723
vt 0.524351 0.950037
vt 0.256143 0.942276
vt 0.284680 0.942276
vt 0.256143 0.964749
vt 0.284680 0.964749
vt 0.227665 0.942276
vt 0.227665 0.964749
vt 0.199215 0.942276
vt 0.199215 0.964749
vt 0.170773 0.942276
vt 0.170773 0.964749
vt 0.142331 0.942276
vt 0.142331 0.964749
vt 0.113950 0.942276
vt 0.085554 0.942276
vt 0.057113 0.942276
vt 0.028643 0.942276
vt 0.000000 0.942276
vt 0.290971 0.936784
vt 0.320901 0.936784
vt 0.583071 0.936784
vt 0.553447 0.936784
vt 0.524351 0.936784
vt 0.495309 0.936784
vt 0.466243 0.936784
vt 0.437186 0.936784
vt 0.408129 0.936784
vt 0.379073 0.936784
vt 0.350048 0.936784
vt 0.553447 0.933050
vt 0.583071 0.933050
vt 0.408129 0.933050
vt 0.437186 0.933050
vt 0.524351 0.933050
vt 0.466243 0.933050
vt 0.495309 0.933050
vt 0.379073 0.933050
vt 0.290971 0.933050
vt 0.320901 0.933050
vt 0.350048 0.933050
vt 0.107590 0.039094
vt 0.107585 0.074050
vt 0.053795 0.056565
vt 0.087034 0.102328
vt 0.053787 0.113126
vt 0.020543 0.102319
vt 0.000000 0.074036
vt 0.000005 0.039079
vt 0.020556 0.010802
vt 0.053802 0.000004
vt 0.087047 0.010811
vn -0.810277 -0.001235 -0.586046
vn -0.715459 -0.001784 -0.698652
vn -0.302650 -0.004314 -0.953092
vn -0.326414 -0.004183 -0.945218
vn -0.999959 0.000131 -0.009023
vn -0.995522 0.000095 -0.094533
vn -0.715459 -0.001784 -0.698652
vn -0.810277 -0.001235 -0.586046
vn -0.326414 -0.004183 -0.945218
vn -0.302650 -0.004314 -0.953092
vn 0.302651 -0.004314 -0.953092
vn 0.326413 -0.004183 -0.945218
vn 0.326413 -0.004183 -0.945218
vn 0.302651 -0.004314 -0.953092
vn 0.715458 -0.001784 -0.698654
vn 0.810276 -0.001235 -0.586047
vn -0.315756 0.000186 0.948840
vn -0.366230 0.000215 0.930524
vn -0.859979 0.000302 0.510330
vn -0.812153 0.000316 0.583445
vn 0.812261 0.000000 0.583294
vn 0.860540 0.000000 0.509383
vn 0.364008 0.000000 0.931396
vn 0.313804 0.000000 0.949488
vn -0.995522 0.000095 -0.094533
vn -0.999959 0.000131 -0.009023
vn -0.812153 0.000316 0.583445
vn -0.859979 0.000302 0.510330
vn -0.366230 0.000215 0.930524
vn -0.315756 0.000186 0.948840
vn 0.313804 0.000000 0.949488
vn 0.364008 0.000000 0.931396
vn 0.995464 0.000000 -0.095141
vn 0.999949 0.000000 -0.010093
vn 0.810276 -0.001235 -0.586047
vn 0.715458 -0.001784 -0.698654
vn 0.860540 0.000000 0.509383
vn 0.812261 0.000000 0.583294
vn 0.999949 0.000000 -0.010093
vn 0.995464 0.000000 -0.095141
vn -0.025795 0.885026 0.464827
vn -0.039292 0.884636 0.464623
vn -0.139913 0.876611 0.460411
vn 0.042292 0.605703 0.794566
vn -0.073344 0.670875 0.737935
vn -0.088038 0.678210 0.729576
vn 0.241008 0.915369 0.322514
vn 0.049786 0.889187 0.454827
vn 0.091268 0.898969 0.428399
vn 0.241008 0.915369 0.322514
vn 0.106396 0.637204 0.763315
vn 0.047671 0.673448 0.737696
vn 0.058726 0.666916 0.742815
vn 0.106396 0.637204 0.763315
vn 0.025797 0.885026 0.464827
vn 0.139905 0.876612 0.460411
vn 0.039294 0.884636 0.464623
vn -0.035997 0.656426 0.753531
vn -0.035972 0.657222 0.752838
vn -0.037572 0.603148 0.796744
vn -0.037572 0.603148 0.796744
vn -0.139263 0.872540 0.468274
vn -0.133830 0.870556 0.473520
vn -0.201543 0.891621 0.405454
vn -0.201543 0.891621 0.405454
vn -0.058969 0.702957 0.708783
vn -0.022331 0.712098 0.701725
vn 0.186114 0.743863 0.641895
vn 0.025797 0.885026 0.464827
vn 0.039294 0.884636 0.464623
vn -0.039292 0.884636 0.464623
vn -0.025795 0.885026 0.464827
vn 0.058726 0.666916 0.742815
vn 0.047671 0.673448 0.737696
vn -0.035972 0.657222 0.752838
vn -0.035997 0.656426 0.753531
vn 0.091268 0.898969 0.428399
vn 0.049786 0.889187 0.454827
vn -0.133830 0.870556 0.473520
vn -0.139263 0.872540 0.468274
vn -0.088038 0.678210 0.729576
vn -0.073344 0.670875 0.737935
vn -0.022331 0.712098 0.701725
vn -0.058969 0.702957 0.708783
vn 0.000000 1.000000 0.000000
vn 0.000000 1.000000 0.000000
vn 0.000000 1.000000 0.000000
vn 0.000000 1.000000 0.000000
vn 0.000000 1.000000 0.000000
vn 0.000000 1.000000 0.000000
vn 0.000000 1.000000 0.000000
vn 0.000000 1.000000 0.000000
vn 0.000000 1.000000 0.000000
vn 0.000000 1.000000 0.000000
vn 0.000000 1.000000 0.000000
vn 0.000000 1.000000 0.000000
vn 0.000000 1.000000 0.000000
vn 0.000000 1.000000 0.000000
vn 0.000000 1.000000 0.000000
vn 0.000000 1.000000 0.000000
vn 0.809017 0.000000 -0.587785
vn 0.309017 0.000000 -0.951057
vn 0.309017 0.000000 -0.951057
vn 0.809017 0.000000 -0.587785
vn 1.000000 0.000000 0.000000
vn 0.809017 0.000000 -0.587785
vn 0.809017 0.000000 -0.587785
vn 1.000000 0.000000 0.000000
vn 0.809017 0.000000 0.587785
vn 1.000000 0.000000 0.000000
vn 1.000000 0.000000 0.000000
vn 0.809017 0.000000 0.587785
vn 0.309017 0.000000 0.951057
vn 0.809017 0.000000 0.587785
vn 0.809017 0.000000 0.587785
vn 0.309017 0.000000 0.951057
vn -0.309017 0.000000 0.951057
vn 0.309017 0.000000 0.951057
vn 0.309017 0.000000 0.951057
vn -0.309017 0.000000 0.951057
vn -0.809017 0.000000 0.587785
vn -0.309017 0.000000 0.951057
vn -0.309017 0.000000 0.951057
vn -0.809017 0.000000 0.587785
vn -1.000000 0.000000 -0.000001
vn -0.809017 0.000000 0.587785
vn -0.809017 0.000000 0.587785
vn -1.000000 0.000000 -0.000001
vn -0.809017 0.000000 -0.587785
vn -1.000000 0.000000 -0.000001
vn -1.000000 0.000000 -0.000001
vn -0.809017 0.000000 -0.587785
vn -0.309017 0.000000 -0.951056
vn -0.809017 0.000000 -0.587785
vn -0.809017 0.000000 -0.587785
vn -0.309017 0.000000 -0.951056
vn 0.309017 0.000000 -0.951057
vn -0.309017 0.000000 -0.951056
vn -0.309017 0.000000 -0.951056
vn 0.309017 0.000000 -0.951057
vn 0.301589 0.217940 -0.928195
vn 0.789570 0.217940 -0.573656
vn 0.735313 0.417020 -0.534236
vn 0.280865 0.417020 -0.864413
vn -0.301589 0.217941 -0.928195
vn 0.301589 0.217940 -0.928195
vn 0.280865 0.417020 -0.864413
vn -0.280865 0.417020 -0.864413
vn -0.789570 0.217940 -0.573656
vn -0.301589 0.217941 -0.928195
vn -0.280865 0.417020 -0.864413
vn -0.735313 0.417020 -0.534236
vn -0.975962 0.217940 -0.000000
vn -0.789570 0.217940 -0.573656
vn -0.735313 0.417020 -0.534236
vn -0.908897 0.417021 -0.000000
vn -0.789570 0.217940 0.573656
vn -0.975962 0.217940 -0.000000
vn -0.908897 0.417021 -0.000000
vn -0.735313 0.417020 0.534236
vn -0.301589 0.217940 0.928195
vn -0.789570 0.217940 0.573656
vn -0.735313 0.417020 0.534236
vn -0.280865 0.417020 0.864413
vn 0.301589 0.217940 0.928195
vn -0.301589 0.217940 0.928195
vn -0.280865 0.417020 0.864413
vn 0.280865 0.417020 0.864412
vn 0.789570 0.217940 0.573656
vn 0.301589 0.217940 0.928195
vn 0.280865 0.417020 0.864412
vn 0.735313 0.417021 0.534236
vn 0.975962 0.217940 0.000000
vn 0.789570 0.217940 0.573656
vn 0.735313 0.417021 0.534236
vn 0.908897 0.417021 0.000000
vn 0.789570 0.217940 -0.573656
vn 0.975962 0.217940 0.000000
vn 0.908897 0.417021 0.000000
vn 0.735313 0.417020 -0.534236
vn 0.000003 -1.000000 -0.000002
vn 0.000001 -1.000000 -0.000003
vn 0.000001 -1.000000 -0.000003
vn 0.000003 -1.000000 -0.000002
vn 0.000000 1.000000 0.000000
vn 0.000000 1.000000 0.000000
vn 0.000000 1.000000 0.000000
vn 0.000000 1.000000 0.000000
vn 0.000004 -1.000000 0.000000
vn 0.000003 -1.000000 -0.000002
vn 0.000003 -1.000000 -0.000002
vn 0.000004 -1.000000 0.000000
vn 0.000000 1.000000 0.000000
vn 0.000000 1.000000 0.000000
vn 0.000000 1.000000 0.000000
vn 0.000000 1.000000 0.000000
vn 0.000003 -1.000000 0.000002
vn 0.000004 -1.000000 0.000000
vn 0.000004 -1.000000 0.000000
vn 0.000003 -1.000000 0.000002
vn 0.000000 1.000000 0.000000
vn 0.000000 1.000000 0.000000
vn 0.000000 1.000000 0.000000
vn 0.000000 1.000000 0.000000
vn 0.000001 -1.000000 0.000004
vn 0.000003 -1.000000 0.000002
vn 0.000003 -1.000000 0.000002
vn 0.000001 -1.000000 0.000004
vn 0.000000 1.000000 0.000000
vn 0.000000 1.000000 0.000000
vn 0.000000 1.000000 0.000000
vn 0.000000 1.000000 0.000000
vn -0.000001 -1.000000 0.000004
vn 0.000001 -1.000000 0.000004
vn 0.000001 -1.000000 0.000004
vn -0.000001 -1.000000 0.000004
vn 0.000000 1.000000 0.000000
vn 0.000000 1.000000 0.000000
vn 0.000000 1.000000 0.000000
vn 0.000000 1.000000 0.000000
vn -0.000003 -1.000000 0.000002
vn -0.000001 -1.000000 0.000004
vn -0.000001 -1.000000 0.000004
vn -0.000003 -1.000000 0.000002
vn 0.000000 1.000000 0.000000
vn 0.000000 1.000000 0.000000
vn 0.000000 1.000000 0.000000
vn 0.000000 1.000000 0.000000
vn -0.000004 -1.000000 0.000000
vn -0.000003 -1.000000 0.000002
vn -0.000003 -1.000000 0.000002
vn -0.000004 -1.000000 0.000000
vn -0.000003 -1.000000 -0.000002
vn -0.000004 -1.000000 0.000000
vn -0.000004 -1.000000 0.000000
vn -0.000003 -1.000000 -0.000002
vn -0.000001 -1.000000 -0.000003
vn -0.000003 -1.000000 -0.000002
vn -0.000003 -1.000000 -0.000002
vn -0.000001 -1.000000 -0.000003
vn 0.000001 -1.000000 -0.000003
vn -0.000001 -1.000000 -0.000003
vn -0.000001 -1.000000 -0.000003
vn 0.000001 -1.000000 -0.000003
vn 0.280865 0.417020 -0.864413
vn 0.214854 0.718739 -0.661251
vn -0.214854 0.718739 -0.661251
vn -0.280865 0.417020 -0.864413
vn 0.214854 0.718739 -0.661251
vn 0.280865 0.417020 -0.864413
vn 0.735313 0.417020 -0.534236
vn 0.562493 0.718740 -0.408675
vn 0.562493 0.718740 -0.408675
vn 0.735313 0.417020 -0.534236
vn 0.908897 0.417021 0.000000
vn 0.695279 0.718740 0.000000
vn 0.695279 0.718740 0.000000
vn 0.908897 0.417021 0.000000
vn 0.735313 0.417021 0.534236
vn 0.562493 0.718740 0.408675
vn 0.562493 0.718740 0.408675
vn 0.735313 0.417021 0.534236
vn 0.280865 0.417020 0.864412
vn 0.214853 0.718739 0.661250
vn 0.214853 0.718739 0.661250
vn 0.280865 0.417020 0.864412
vn -0.280865 0.417020 0.864413
vn -0.214853 0.718739 0.661250
vn -0.214853 0.718739 0.661250
vn -0.280865 0.417020 0.864413
vn -0.735313 0.417020 0.534236
vn -0.562492 0.718740 0.408675
vn -0.562492 0.718740 0.408675
vn -0.735313 0.417020 0.534236
vn -0.908897 0.417021 -0.000000
vn -0.695279 0.718740 -0.000000
vn -0.695279 0.718740 -0.000000
vn -0.908897 0.417021 -0.000000
vn -0.735313 0.417020 -0.534236
vn -0.562493 0.718740 -0.408675
vn -0.562493 0.718740 -0.408675
vn -0.735313 0.417020 -0.534236
vn -0.280865 0.417020 -0.864413
vn -0.214854 0.718739 -0.661251
vn 0.809017 0.000000 -0.587785
vn 0.309017 0.000000 -0.951057
vn 0.309017 0.000000 -0.951057
vn 0.809017 0.000000 -0.587785
vn -0.809017 0.000000 0.587785
vn -0.309017 0.000000 0.951057
vn -0.309017 0.000000 0.951057
vn -0.809017 0.000000 0.587785
vn 1.000000 0.000000 0.000000
vn 0.809017 0.000000 -0.587785
vn 0.809017 0.000000 -0.587785
vn 1.000000 0.000000 0.000000
vn -0.309017 0.000000 0.951057
vn 0.309017 0.000000 0.951057
vn 0.309017 0.000000 0.951057
vn -0.309017 0.000000 0.951057
vn 0.809017 0.000000 0.587785
vn 1.000000 0.000000 0.000000
vn 1.000000 0.000000 0.000000
vn 0.809017 0.000000 0.587785
vn 0.309017 0.000000 0.951057
vn 0.809017 0.000000 0.587785
vn 0.809017 0.000000 0.587785
vn 0.309017 0.000000 0.951057
vn -1.000000 0.000000 0.000000
vn -0.809017 0.000000 0.587785
vn -0.809017 0.000000 0.587785
vn -1.000000 0.000000 0.000000
vn 0.309017 0.000000 -0.951057
vn -0.309017 0.000000 -0.951057
vn -0.309017 0.000000 -0.951057
vn 0.309017 0.000000 -0.951057
vn -0.809017 0.000000 -0.587785
vn -1.000000 0.000000 0.000000
vn -1.000000 0.000000 0.000000
vn -0.809017 0.000000 -0.587785
vn -0.309017 0.000000 -0.951057
vn -0.809017 0.000000 -0.587785
vn -0.809017 0.000000 -0.587785
vn -0.309017 0.000000 -0.951057
vn 0.000000 -1.000000 0.000000
vn 0.000000 -1.000000 0.000000
vn 0.000000 -1.000000 0.000000
vn 0.000000 -1.000000 0.000000
vn 0.000000 -1.000000 0.000000
vn 0.000000 -1.000000 0.000000
vn 0.000000 -1.000000 0.000000
vn 0.000000 -1.000000 0.000000
vn 0.000000 -1.000000 0.000000
vn 0.000000 -1.000000 0.000000
vn 0.000000 -1.000000 0.000000
vn 0.000000 -1.000000 0.000000
vn 0.000000 -1.000000 0.000000
vn 0.000000 -1.000000 0.000000
vn 0.000000 -1.000000 0.000000
vn 0.000000 -1.000000 0.000000
vn 0.000000 -1.000000 0.000000
vn 0.000000 -1.000000 0.000000
vn 0.000000 -1.000000 0.000000
vn 0.000000 -1.000000 0.000000
vn 0.000000 -1.000000 0.000000
vn 0.000000 -1.000000 0.000000
vn 0.000000 -1.000000 0.000000
vn 0.000000 -1.000000 0.000000
vn 0.000000 -1.000000 0.000000
vn 0.000000 -1.000000 0.000000
vn 0.000000 -1.000000 0.000000
vn 0.000000 -1.000000 0.000000
vn 0.000000 -1.000000 0.000000
vn 0.000000 -1.000000 0.000000
s off
g broken_pillar_01:BrokenPillar01_low
usemtl broken_pillar_01:lambert2SG
f 9/1/1 10/2/2 13/3/3 12/4/4
f 2/5/5 11/6/6 10/2/7 9/1/8
f 12/4/9 13/3/10 14/7/11 3/8/12
f 3/9/13 14/10/14 18/11/15 4/12/16
f 5/13/17 15/14/18 17/15/19 1/16/20
f 8/17/21 16/18/22 19/19/23 7/20/24
f 11/6/25 2/5/26 1/16/27 17/15/28
f 15/14/29 5/13/30 7/20/31 19/19/32
f 20/21/33 6/22/34 4/12/35 18/11/36
f 16/18/37 8/17/38 6/22/39 20/21/40
f 14/23/41 24/24/42 18/25/43
f 16/26/44 26/27/45 19/28/46
f 20/29/47 25/30/48 26/27/49 16/26/50
f 18/25/51 24/24/52 25/30/53 20/29/54
f 13/31/55 10/32/56 21/33/57
f 22/34/58 21/33/59 10/32/60 11/35/61
f 23/36/62 22/34/63 11/35/64 17/37/65
f 15/38/66 23/36/67 17/37/68
f 13/31/69 21/33/70 24/24/71 14/23/72
f 25/30/73 24/24/74 21/33/75 22/34/76
f 26/27/77 25/30/78 22/34/79 23/36/80
f 19/28/81 26/27/82 23/36/83 15/38/84
f 1/39/85 2/40/86 62/41/87 60/42/88
f 12/43/89 3/44/90 49/45/91 66/46/92
f 2/40/93 9/47/94 64/48/95 62/41/96
f 9/47/97 12/43/98 66/46/99 64/48/100
f 47/49/101 48/50/102 49/51/103 50/52/104
f 51/53/105 47/49/106 50/52/107 52/54/108
f 53/55/109 51/53/110 52/54/111 54/56/112
f 55/57/113 53/55/114 54/56/115 56/58/116
f 57/59/117 55/57/118 56/58/119 58/60/120
f 59/61/121 57/59/122 58/60/123 60/42/124
f 61/62/125 59/61/126 60/42/127 62/41/128
f 63/63/129 61/62/130 62/41/131 64/48/132
f 65/64/133 63/63/134 64/48/135 66/46/136
f 48/65/137 65/64/138 66/46/139 49/45/140
f 38/66/141 37/67/142 70/68/143 67/69/144
f 39/70/145 38/71/146 67/72/147 86/73/148
f 40/74/149 39/70/150 86/73/151 84/75/152
f 41/76/153 40/74/154 84/75/155 82/77/156
f 42/78/157 41/76/158 82/77/159 80/79/160
f 43/80/161 42/78/162 80/79/163 78/81/164
f 44/82/165 43/80/166 78/81/167 76/83/168
f 45/84/169 44/82/170 76/83/171 74/85/172
f 46/86/173 45/84/174 74/85/175 72/87/176
f 37/67/177 46/86/178 72/87/179 70/68/180
f 37/88/181 38/89/182 48/50/183 47/49/184
f 4/90/185 50/52/186 49/51/187 3/91/188
f 46/92/189 37/88/190 47/49/191 51/53/192
f 6/93/193 52/54/194 50/52/195 4/90/196
f 45/94/197 46/92/198 51/53/199 53/55/200
f 8/95/201 54/56/202 52/54/203 6/93/204
f 44/96/205 45/94/206 53/55/207 55/57/208
f 7/97/209 56/58/210 54/56/211 8/95/212
f 43/98/213 44/96/214 55/57/215 57/59/216
f 5/99/217 58/60/218 56/58/219 7/97/220
f 42/100/221 43/98/222 57/59/223 59/61/224
f 1/39/225 60/42/226 58/60/227 5/99/228
f 41/101/229 42/100/230 59/61/231 61/62/232
f 40/102/233 41/101/234 61/62/235 63/63/236
f 39/103/237 40/102/238 63/63/239 65/64/240
f 38/104/241 39/103/242 65/64/243 48/65/244
f 67/72/245 68/105/246 85/106/247 86/73/248
f 68/107/249 67/69/250 70/68/251 69/108/252
f 69/108/253 70/68/254 72/87/255 71/109/256
f 71/109/257 72/87/258 74/85/259 73/110/260
f 73/110/261 74/85/262 76/83/263 75/111/264
f 75/111/265 76/83/266 78/81/267 77/112/268
f 77/112/269 78/81/270 80/79/271 79/113/272
f 79/113/273 80/79/274 82/77/275 81/114/276
f 81/114/277 82/77/278 84/75/279 83/115/280
f 83/115/281 84/75/282 86/73/283 85/106/284
f 29/116/285 30/117/286 68/107/287 69/108/288
f 28/118/289 27/119/290 77/112/291 79/113/292
f 31/120/293 29/116/294 69/108/295 71/109/296
f 27/119/297 32/121/298 75/111/299 77/112/300
f 33/122/301 31/120/302 71/109/303 73/110/304
f 32/121/305 33/122/306 73/110/307 75/111/308
f 34/123/309 28/118/310 79/113/311 81/114/312
f 30/124/313 35/125/314 85/106/315 68/105/316
f 36/126/317 34/123/318 81/114/319 83/115/320
f 35/125/321 36/126/322 83/115/323 85/106/324
f 28/127/325 34/128/326 87/129/327
f 34/128/328 36/130/329 87/129/330
f 36/130/331 35/131/332 87/129/333
f 35/131/334 30/132/335 87/129/336
f 30/132/337 29/133/338 87/129/339
f 29/133/340 31/134/341 87/129/342
f 31/134/343 33/135/344 87/129/345
f 33/135/346 32/136/347 87/129/348
f 32/136/349 27/137/350 87/129/351
f 27/137/352 28/127/353 87/129/354
