# This file uses centimeters as units for non-parametric coordinates.

mtllib pillarbox_big.mtl
g default
v 2.722520 0.000000 1.865015
v 2.415567 0.000000 1.642000
v 1.611954 0.000000 2.225860
v 1.729199 0.000000 2.586705
v 2.036152 0.000000 2.809719
v 2.415567 0.000000 2.809719
v 2.722520 0.000000 2.586705
v 2.839766 0.000000 2.225860
v 2.722520 3.430330 1.865015
v 2.415567 3.430330 1.642000
v 1.611954 3.430330 2.225860
v 1.729199 3.430330 2.586705
v 2.036152 3.430330 2.809719
v 2.415567 3.430330 2.809719
v 2.722520 3.430330 2.586705
v 2.839766 3.430330 2.225860
v 2.225860 0.000000 2.225860
v -2.415567 0.000000 1.642000
v -2.722520 0.000000 1.865015
v -2.839766 0.000000 2.225860
v -2.722520 0.000000 2.586705
v -2.415567 0.000000 2.809719
v -2.036152 0.000000 2.809719
v -1.729200 0.000000 2.586705
v -1.611954 0.000000 2.225860
v -2.415567 3.430330 1.642000
v -2.722520 3.430330 1.865015
v -2.839766 3.430330 2.225860
v -2.722520 3.430330 2.586705
v -2.415567 3.430330 2.809719
v -2.036152 3.430330 2.809719
v -1.729200 3.430330 2.586705
v -1.611954 3.430330 2.225860
v -2.225860 0.000000 2.225860
v 2.722520 0.000000 -2.586705
v 2.415567 0.000000 -2.809719
v 2.036152 0.000000 -2.809719
v 1.729199 0.000000 -2.586705
v 1.611954 0.000000 -2.225860
v 2.415567 0.000000 -1.642001
v 2.722520 0.000000 -1.865015
v 2.839766 0.000000 -2.225860
v 2.722520 3.430330 -2.586705
v 2.415567 3.430330 -2.809719
v 2.036152 3.430330 -2.809719
v 1.729199 3.430330 -2.586705
v 1.611954 3.430330 -2.225860
v 2.415567 3.430330 -1.642001
v 2.722520 3.430330 -1.865015
v 2.839766 3.430330 -2.225860
v 2.225860 0.000000 -2.225860
v -1.729199 0.000000 -2.586705
v -2.036153 0.000000 -2.809719
v -2.415567 0.000000 -2.809719
v -2.722520 0.000000 -2.586705
v -2.839766 0.000000 -2.225860
v -2.722520 0.000000 -1.865015
v -2.415567 0.000000 -1.642000
v -1.611954 0.000000 -2.225860
v -1.729199 3.430330 -2.586705
v -2.036153 3.430330 -2.809719
v -2.415567 3.430330 -2.809719
v -2.722520 3.430330 -2.586705
v -2.839766 3.430330 -2.225860
v -2.722520 3.430330 -1.865015
v -2.415567 3.430330 -1.642000
v -1.611954 3.430330 -2.225860
v -2.225860 0.000000 -2.225860
v -2.537328 0.000000 2.537328
v 2.537328 0.000000 2.537328
v -2.537328 3.430330 2.537328
v 2.537328 3.430330 2.537328
v -2.537328 3.430330 -2.537328
v 2.537328 3.430330 -2.537328
v -2.537328 0.000000 -2.537328
v 2.537328 0.000000 -2.537328
v 2.937532 4.001759 2.802642
v 2.802642 4.001759 2.937532
v 2.802642 3.430330 2.937532
v 2.937532 3.430330 2.802642
v -2.802642 4.001759 2.937532
v -2.937532 4.001759 2.802642
v -2.937532 3.430330 2.802642
v -2.802642 3.430330 2.937532
v 2.802642 4.001759 -2.937532
v 2.937532 4.001759 -2.802642
v 2.937532 3.430330 -2.802642
v 2.802642 3.430330 -2.937532
v -2.937532 4.001759 -2.802642
v -2.802642 4.001759 -2.937532
v -2.802642 3.430330 -2.937532
v -2.937532 3.430330 -2.802642
vt 0.459244 0.000005
vt 0.475379 0.000005
vt 0.475379 0.145879
vt 0.459244 0.145879
vt 0.362437 0.000005
vt 0.378572 0.000005
vt 0.378572 0.145879
vt 0.362437 0.145879
vt 0.394706 0.000005
vt 0.394706 0.145879
vt 0.410841 0.000005
vt 0.410841 0.145879
vt 0.426975 0.000005
vt 0.426975 0.145879
vt 0.443110 0.000005
vt 0.443110 0.145879
vt 0.949367 0.331930
vt 0.944378 0.316586
vt 0.970485 0.316582
vt 0.996591 0.316579
vt 0.991608 0.331924
vt 0.991603 0.301234
vt 0.978549 0.291753
vt 0.962414 0.291755
vt 0.949362 0.301240
vt 0.847388 0.145880
vt 0.863523 0.145880
vt 0.863523 0.291754
vt 0.847388 0.291754
vt 0.879657 0.145880
vt 0.879657 0.291754
vt 0.895791 0.145880
vt 0.895791 0.291754
vt 0.911927 0.145880
vt 0.911927 0.291754
vt 0.928061 0.145880
vt 0.928061 0.291754
vt 0.944195 0.145880
vt 0.944195 0.291754
vt 0.960330 0.145880
vt 0.960330 0.291754
vt 0.899601 0.316589
vt 0.894612 0.331932
vt 0.873494 0.316584
vt 0.894617 0.301243
vt 0.881566 0.291757
vt 0.865432 0.291754
vt 0.852377 0.301236
vt 0.847388 0.316579
vt 0.852371 0.331925
vt 0.048404 0.361633
vt 0.064538 0.361633
vt 0.064538 0.507507
vt 0.048404 0.507507
vt 0.080673 0.361633
vt 0.080673 0.507507
vt 0.096807 0.361633
vt 0.096807 0.507507
vt 0.112942 0.361633
vt 0.112942 0.507507
vt 0.000000 0.361633
vt 0.016135 0.361633
vt 0.016135 0.507507
vt 0.000000 0.507507
vt 0.032269 0.361633
vt 0.032269 0.507507
vt 0.104780 0.093026
vt 0.120914 0.093000
vt 0.112887 0.117842
vt 0.091742 0.102531
vt 0.086781 0.117884
vt 0.091791 0.133221
vt 0.138993 0.117800
vt 0.134032 0.133152
vt 0.133982 0.102463
vt 0.863523 0.000005
vt 0.879658 0.000005
vt 0.879658 0.145880
vt 0.863523 0.145880
vt 0.895792 0.000005
vt 0.895792 0.145880
vt 0.911927 0.000005
vt 0.911927 0.145880
vt 0.928061 0.000005
vt 0.928061 0.145880
vt 0.944196 0.000005
vt 0.944196 0.145880
vt 0.960330 0.000005
vt 0.960330 0.145880
vt 0.847388 0.000005
vt 0.847388 0.145880
vt 0.414770 0.481017
vt 0.419755 0.496362
vt 0.393648 0.496362
vt 0.401716 0.471533
vt 0.385582 0.471533
vt 0.372529 0.481016
vt 0.367542 0.496361
vt 0.372527 0.511706
vt 0.414769 0.511707
vt 0.145875 0.361678
vt 0.361673 0.362021
vt 0.361442 0.507724
vt 0.145643 0.507724
vt 0.146449 0.000005
vt 0.362247 0.000348
vt 0.362016 0.146222
vt 0.146217 0.145879
vt 0.507890 0.146453
vt 0.507548 0.362252
vt 0.000000 0.361446
vt 0.000343 0.145648
vt 0.551797 0.285428
vt 0.527498 0.285428
vt 0.527493 0.047064
vt 0.551793 0.047064
vt 0.557530 0.041328
vt 0.557529 0.017028
vt 0.795893 0.017024
vt 0.795894 0.041323
vt 0.801629 0.047059
vt 0.825929 0.047059
vt 0.825934 0.285423
vt 0.801634 0.285423
vt 0.795898 0.291160
vt 0.795898 0.315459
vt 0.557534 0.315464
vt 0.557534 0.291164
vt 0.534610 0.029882
vt 0.523328 0.012863
vt 0.540346 0.024145
vt 0.568811 0.000009
vt 0.784610 0.000005
vt 0.818817 0.302606
vt 0.830099 0.319624
vt 0.813081 0.308342
vt 0.784616 0.332479
vt 0.568817 0.332482
vt 0.540351 0.308347
vt 0.534615 0.302611
vt 0.813076 0.024141
vt 0.818812 0.029876
vt 0.830094 0.012858
vt 0.842948 0.058341
vt 0.842952 0.274140
vt 0.510478 0.274146
vt 0.510475 0.058347
vt 0.523333 0.319630
vn 0.809017 0.000000 -0.587785
vn 0.587785 0.000000 -0.809017
vn 0.587785 0.000000 -0.809017
vn 0.809017 0.000000 -0.587785
vn -0.951056 0.000000 0.309017
vn -0.809017 0.000000 0.587785
vn -0.809017 0.000000 0.587785
vn -0.951056 0.000000 0.309017
vn -0.809017 0.000000 0.587785
vn -0.309017 0.000000 0.951057
vn -0.309017 0.000000 0.951057
vn -0.809017 0.000000 0.587785
vn -0.309017 0.000000 0.951057
vn 0.309017 0.000000 0.951057
vn 0.309017 0.000000 0.951057
vn -0.309017 0.000000 0.951057
vn 0.309017 0.000000 0.951057
vn 0.809017 0.000000 0.587785
vn 0.809017 0.000000 0.587785
vn 0.309017 0.000000 0.951057
vn 0.809017 0.000000 0.587785
vn 1.000000 0.000000 0.000000
vn 1.000000 0.000000 0.000000
vn 0.809017 0.000000 0.587785
vn 1.000000 0.000000 0.000000
vn 0.809017 0.000000 -0.587785
vn 0.809017 0.000000 -0.587785
vn 1.000000 0.000000 0.000000
vn 0.000000 -1.000000 0.000000
vn 0.000000 -1.000000 0.000000
vn 0.000000 -1.000000 0.000000
vn 0.000000 -1.000000 0.000000
vn 0.000000 -1.000000 0.000000
vn 0.000000 -1.000000 0.000000
vn 0.000000 -1.000000 0.000000
vn 0.000000 -1.000000 0.000000
vn 0.000000 -1.000000 0.000000
vn 0.000000 -1.000000 0.000000
vn 0.000000 -1.000000 0.000000
vn 0.000000 -1.000000 0.000000
vn 0.000000 -1.000000 0.000000
vn 0.000000 -1.000000 0.000000
vn 0.000000 -1.000000 0.000000
vn 0.000000 -1.000000 0.000000
vn 0.000000 -1.000000 0.000000
vn 0.000000 -1.000000 0.000000
vn 0.000000 -1.000000 0.000000
vn 0.000000 -1.000000 0.000000
vn 0.000000 -1.000000 0.000000
vn -0.587785 0.000000 -0.809017
vn -0.809017 0.000000 -0.587785
vn -0.809017 0.000000 -0.587785
vn -0.587785 0.000000 -0.809017
vn -0.809017 0.000000 -0.587785
vn -1.000000 0.000000 0.000000
vn -1.000000 0.000000 0.000000
vn -0.809017 0.000000 -0.587785
vn -1.000000 0.000000 0.000000
vn -0.809017 0.000000 0.587785
vn -0.809017 0.000000 0.587785
vn -1.000000 0.000000 0.000000
vn -0.809017 0.000000 0.587785
vn -0.309017 0.000000 0.951057
vn -0.309017 0.000000 0.951057
vn -0.809017 0.000000 0.587785
vn -0.309017 0.000000 0.951057
vn 0.309017 0.000000 0.951057
vn 0.309017 0.000000 0.951057
vn -0.309017 0.000000 0.951057
vn 0.309017 0.000000 0.951057
vn 0.809017 0.000000 0.587785
vn 0.809017 0.000000 0.587785
vn 0.309017 0.000000 0.951057
vn 0.809017 0.000000 0.587785
vn 0.951057 0.000000 0.309017
vn 0.951057 0.000000 0.309017
vn 0.809017 0.000000 0.587785
vn 0.000000 -1.000000 0.000000
vn 0.000000 -1.000000 0.000000
vn 0.000000 -1.000000 0.000000
vn 0.000000 -1.000000 0.000000
vn 0.000000 -1.000000 0.000000
vn 0.000000 -1.000000 0.000000
vn 0.000000 -1.000000 0.000000
vn 0.000000 -1.000000 0.000000
vn 0.000000 -1.000000 0.000000
vn 0.000000 -1.000000 0.000000
vn 0.000000 -1.000000 0.000000
vn 0.000000 -1.000000 0.000000
vn 0.000000 -1.000000 0.000000
vn 0.000000 -1.000000 0.000000
vn 0.000000 -1.000000 0.000000
vn 0.000000 -1.000000 0.000000
vn 0.000000 -1.000000 0.000000
vn 0.000000 -1.000000 0.000000
vn 0.000000 -1.000000 0.000000
vn 0.000000 -1.000000 0.000000
vn 0.000000 -1.000000 0.000000
vn 0.809017 0.000000 -0.587785
vn 0.309017 0.000000 -0.951057
vn 0.309017 0.000000 -0.951057
vn 0.809017 0.000000 -0.587785
vn 0.309017 0.000000 -0.951057
vn -0.309017 0.000000 -0.951057
vn -0.309017 0.000000 -0.951057
vn 0.309017 0.000000 -0.951057
vn -0.309017 0.000000 -0.951057
vn -0.809017 0.000000 -0.587785
vn -0.809017 0.000000 -0.587785
vn -0.309017 0.000000 -0.951057
vn -0.809017 0.000000 -0.587785
vn -0.951056 0.000000 -0.309017
vn -0.951056 0.000000 -0.309017
vn -0.809017 0.000000 -0.587785
vn 0.587785 0.000000 0.809017
vn 0.809017 0.000000 0.587785
vn 0.809017 0.000000 0.587785
vn 0.587785 0.000000 0.809017
vn 0.809017 0.000000 0.587785
vn 1.000000 0.000000 0.000000
vn 1.000000 0.000000 0.000000
vn 0.809017 0.000000 0.587785
vn 1.000000 0.000000 0.000000
vn 0.809017 0.000000 -0.587785
vn 0.809017 0.000000 -0.587785
vn 1.000000 0.000000 0.000000
vn 0.000000 -1.000000 0.000000
vn 0.000000 -1.000000 0.000000
vn 0.000000 -1.000000 0.000000
vn 0.000000 -1.000000 0.000000
vn 0.000000 -1.000000 0.000000
vn 0.000000 -1.000000 0.000000
vn 0.000000 -1.000000 0.000000
vn 0.000000 -1.000000 0.000000
vn 0.000000 -1.000000 0.000000
vn 0.000000 -1.000000 0.000000
vn 0.000000 -1.000000 0.000000
vn 0.000000 -1.000000 0.000000
vn 0.000000 -1.000000 0.000000
vn 0.000000 -1.000000 0.000000
vn 0.000000 -1.000000 0.000000
vn 0.000000 -1.000000 0.000000
vn 0.000000 -1.000000 0.000000
vn 0.000000 -1.000000 0.000000
vn 0.000000 -1.000000 0.000000
vn 0.000000 -1.000000 0.000000
vn 0.000000 -1.000000 0.000000
vn 0.809017 0.000000 -0.587786
vn 0.309017 0.000000 -0.951057
vn 0.309017 0.000000 -0.951057
vn 0.809017 0.000000 -0.587786
vn 0.309017 0.000000 -0.951057
vn -0.309017 0.000000 -0.951056
vn -0.309017 0.000000 -0.951056
vn 0.309017 0.000000 -0.951057
vn -0.309017 0.000000 -0.951056
vn -0.809017 0.000000 -0.587786
vn -0.809017 0.000000 -0.587786
vn -0.309017 0.000000 -0.951056
vn -0.809017 0.000000 -0.587786
vn -1.000000 0.000000 -0.000000
vn -1.000000 0.000000 -0.000000
vn -0.809017 0.000000 -0.587786
vn -1.000000 0.000000 -0.000000
vn -0.809017 0.000000 0.587785
vn -0.809017 0.000000 0.587785
vn -1.000000 0.000000 -0.000000
vn -0.809017 0.000000 0.587785
vn -0.587785 0.000000 0.809017
vn -0.587785 0.000000 0.809017
vn -0.809017 0.000000 0.587785
vn 0.951057 0.000000 -0.309017
vn 0.809017 0.000000 -0.587786
vn 0.809017 0.000000 -0.587786
vn 0.951057 0.000000 -0.309017
vn 0.000000 -1.000000 0.000000
vn 0.000000 -1.000000 0.000000
vn 0.000000 -1.000000 0.000000
vn 0.000000 -1.000000 0.000000
vn 0.000000 -1.000000 0.000000
vn 0.000000 -1.000000 0.000000
vn 0.000000 -1.000000 0.000000
vn 0.000000 -1.000000 0.000000
vn 0.000000 -1.000000 0.000000
vn 0.000000 -1.000000 0.000000
vn 0.000000 -1.000000 0.000000
vn 0.000000 -1.000000 0.000000
vn 0.000000 -1.000000 0.000000
vn 0.000000 -1.000000 0.000000
vn 0.000000 -1.000000 0.000000
vn 0.000000 -1.000000 0.000000
vn 0.000000 -1.000000 0.000000
vn 0.000000 -1.000000 0.000000
vn 0.000000 -1.000000 0.000000
vn 0.000000 -1.000000 0.000000
vn 0.000000 -1.000000 0.000000
vn 0.000000 0.000000 1.000000
vn 0.000000 0.000000 1.000000
vn 0.000000 0.000000 1.000000
vn 0.000000 0.000000 1.000000
vn 0.000000 0.000000 -1.000000
vn 0.000000 0.000000 -1.000000
vn 0.000000 0.000000 -1.000000
vn 0.000000 0.000000 -1.000000
vn 0.000000 -1.000000 0.000000
vn 0.000000 -1.000000 0.000000
vn 0.000000 -1.000000 0.000000
vn 0.000000 -1.000000 0.000000
vn 1.000000 0.000000 0.000000
vn 1.000000 0.000000 0.000000
vn 1.000000 0.000000 0.000000
vn 1.000000 0.000000 0.000000
vn -1.000000 0.000000 0.000000
vn -1.000000 0.000000 0.000000
vn -1.000000 0.000000 0.000000
vn -1.000000 0.000000 0.000000
vn -0.023493 0.000000 0.999724
vn -0.023493 0.000000 0.999724
vn 0.023493 0.000000 0.999724
vn 0.023493 0.000000 0.999724
vn 0.999724 0.000000 0.023493
vn 0.999724 0.000000 0.023493
vn 0.999724 0.000000 -0.023493
vn 0.999724 0.000000 -0.023493
vn 0.023493 0.000000 -0.999724
vn 0.023493 0.000000 -0.999724
vn -0.023493 0.000000 -0.999724
vn -0.023493 0.000000 -0.999724
vn -0.999724 0.000000 -0.023493
vn -0.999724 0.000000 -0.023493
vn -0.999724 0.000000 0.023493
vn -0.999724 0.000000 0.023493
vn 0.000000 -1.000000 0.000000
vn 0.000000 -1.000000 0.000000
vn 0.000000 -1.000000 0.000000
vn 0.000000 -1.000000 0.000000
vn 0.000000 -1.000000 0.000000
vn 0.000000 -1.000000 0.000000
vn 0.000000 -1.000000 0.000000
vn 0.000000 -1.000000 0.000000
vn 0.000000 -1.000000 0.000000
vn 0.000000 -1.000000 0.000000
vn 0.000000 -1.000000 0.000000
vn 0.000000 -1.000000 0.000000
vn 0.000000 -1.000000 0.000000
vn 0.000000 -1.000000 0.000000
vn 0.000000 1.000000 0.000000
vn 0.000000 1.000000 0.000002
vn 0.000000 1.000000 0.000002
vn 0.000000 1.000000 0.000000
vn 0.999724 0.000000 0.023493
vn 0.023493 0.000000 0.999724
vn 0.023493 0.000000 0.999724
vn 0.999724 0.000000 0.023493
vn -0.023493 0.000000 0.999724
vn -0.999724 0.000000 0.023493
vn -0.999724 0.000000 0.023493
vn -0.023493 0.000000 0.999724
vn 0.023493 0.000000 -0.999724
vn 0.999724 0.000000 -0.023493
vn 0.999724 0.000000 -0.023493
vn 0.023493 0.000000 -0.999724
vn -0.999724 0.000000 -0.023493
vn -0.023493 0.000000 -0.999724
vn -0.023493 0.000000 -0.999724
vn -0.999724 0.000000 -0.023493
vn 0.000000 -1.000000 0.000000
vn 0.000000 -1.000000 0.000000
vn 0.000000 -1.000000 0.000000
vn 0.000000 -1.000000 0.000000
vn 0.000000 -1.000000 0.000000
vn 0.000000 -1.000000 0.000000
vn 0.000000 -1.000000 0.000000
vn 0.000000 -1.000000 0.000000
vn 0.000000 -1.000000 0.000000
vn 0.000000 -1.000000 0.000000
vn 0.000000 -1.000000 0.000000
vn 0.000000 -1.000000 0.000000
vn 0.000000 -1.000000 0.000000
vn 0.000000 -1.000000 0.000000
vn 0.000000 1.000000 0.000000
vn 0.000000 1.000000 0.000000
vn 0.000000 1.000000 0.000000
vn 0.000000 1.000000 0.000000
vn 0.000000 1.000000 0.000000
vn 0.000000 1.000000 0.000000
vn 0.000000 1.000000 -0.000002
vn 0.000000 1.000000 -0.000002
s off
g pillarbox_big:BigPillarbox_low
usemtl pillarbox_big:initialShadingGroup
f 1/1/1 2/2/2 10/3/3 9/4/4
f 3/5/5 4/6/6 12/7/7 11/8/8
f 4/6/9 5/9/10 13/10/11 12/7/12
f 5/9/13 6/11/14 14/12/15 13/10/16
f 6/11/17 7/13/18 15/14/19 14/12/20
f 7/13/21 8/15/22 16/16/23 15/14/24
f 8/15/25 1/1/26 9/4/27 16/16/28
f 2/17/29 1/18/30 17/19/31
f 4/20/32 3/21/33 17/19/34
f 5/22/35 4/20/36 17/19/37
f 6/23/38 5/22/39 17/19/40
f 7/24/41 6/23/42 17/19/43
f 8/25/44 7/24/45 17/19/46
f 1/18/47 8/25/48 17/19/49
f 18/26/50 19/27/51 27/28/52 26/29/53
f 19/27/54 20/30/55 28/31/56 27/28/57
f 20/30/58 21/32/59 29/33/60 28/31/61
f 21/32/62 22/34/63 30/35/64 29/33/65
f 22/34/66 23/36/67 31/37/68 30/35/69
f 23/36/70 24/38/71 32/39/72 31/37/73
f 24/38/74 25/40/75 33/41/76 32/39/77
f 19/42/78 18/43/79 34/44/80
f 20/45/81 19/42/82 34/44/83
f 21/46/84 20/45/85 34/44/86
f 22/47/87 21/46/88 34/44/89
f 23/48/90 22/47/91 34/44/92
f 24/49/93 23/48/94 34/44/95
f 25/50/96 24/49/97 34/44/98
f 35/51/99 36/52/100 44/53/101 43/54/102
f 36/52/103 37/55/104 45/56/105 44/53/106
f 37/55/107 38/57/108 46/58/109 45/56/110
f 38/57/111 39/59/112 47/60/113 46/58/114
f 40/61/115 41/62/116 49/63/117 48/64/118
f 41/62/119 42/65/120 50/66/121 49/63/122
f 42/65/123 35/51/124 43/54/125 50/66/126
f 36/67/127 35/68/128 51/69/129
f 37/70/130 36/67/131 51/69/132
f 38/71/133 37/70/134 51/69/135
f 39/72/136 38/71/137 51/69/138
f 41/73/139 40/74/140 51/69/141
f 42/75/142 41/73/143 51/69/144
f 35/68/145 42/75/146 51/69/147
f 52/76/148 53/77/149 61/78/150 60/79/151
f 53/77/152 54/80/153 62/81/154 61/78/155
f 54/80/156 55/82/157 63/83/158 62/81/159
f 55/82/160 56/84/161 64/85/162 63/83/163
f 56/84/164 57/86/165 65/87/166 64/85/167
f 57/86/168 58/88/169 66/89/170 65/87/171
f 59/90/172 52/76/173 60/79/174 67/91/175
f 53/92/176 52/93/177 68/94/178
f 54/95/179 53/92/180 68/94/181
f 55/96/182 54/95/183 68/94/184
f 56/97/185 55/96/186 68/94/187
f 57/98/188 56/97/189 68/94/190
f 58/99/191 57/98/192 68/94/193
f 52/93/194 59/100/195 68/94/196
f 69/101/197 70/102/198 72/103/199 71/104/200
f 73/105/201 74/106/202 76/107/203 75/108/204
f 75/108/205 76/107/206 70/102/207 69/101/208
f 70/102/209 76/107/210 74/109/211 72/110/212
f 75/108/213 69/101/214 71/111/215 73/112/216
f 81/113/217 84/114/218 79/115/219 78/116/220
f 77/117/221 80/118/222 87/119/223 86/120/224
f 85/121/225 88/122/226 91/123/227 90/124/228
f 89/125/229 92/126/230 83/127/231 82/128/232
f 79/129/233 72/130/234 80/131/235
f 72/132/236 74/133/237 87/119/238 80/118/239
f 91/134/240 73/135/241 92/136/242
f 73/137/243 71/138/244 83/127/245 92/126/246
f 82/128/247 81/113/248 78/116/249 77/117/250
f 77/117/251 78/116/252 79/129/253 80/131/254
f 81/113/255 82/128/256 83/139/257 84/140/258
f 85/121/259 86/120/260 87/141/261 88/142/262
f 89/125/263 90/124/264 91/134/265 92/136/266
f 87/141/267 74/143/268 88/142/269
f 74/144/270 73/145/271 91/123/272 88/122/273
f 71/146/274 72/147/275 79/115/276 84/114/277
f 83/139/278 71/148/279 84/140/280
f 82/128/281 77/117/282 86/120/283 89/125/284
f 89/125/285 86/120/286 85/121/287 90/124/288
