# This file uses centimeters as units for non-parametric coordinates.

mtllib pillarbox_small.mtl
g default
v 1.799934 0.000000 1.233013
v 1.596998 0.000000 1.085572
v 1.065707 0.000000 1.471578
v 1.143222 0.000000 1.710142
v 1.346157 0.000000 1.857583
v 1.596998 0.000000 1.857583
v 1.799934 0.000000 1.710142
v 1.877448 0.000000 1.471578
v 1.799934 3.430330 1.233013
v 1.596998 3.430330 1.085572
v 1.065707 3.430330 1.471578
v 1.143222 3.430330 1.710142
v 1.346157 3.430330 1.857583
v 1.596998 3.430330 1.857583
v 1.799934 3.430330 1.710142
v 1.877448 3.430330 1.471578
v 1.471578 0.000000 1.471578
v -1.596998 0.000000 1.085572
v -1.799934 0.000000 1.233013
v -1.877448 0.000000 1.471578
v -1.799934 0.000000 1.710142
v -1.596998 0.000000 1.857583
v -1.346157 0.000000 1.857583
v -1.143222 0.000000 1.710142
v -1.065707 0.000000 1.471578
v -1.596998 3.430330 1.085572
v -1.799934 3.430330 1.233013
v -1.877448 3.430330 1.471578
v -1.799934 3.430330 1.710142
v -1.596998 3.430330 1.857583
v -1.346157 3.430330 1.857583
v -1.143222 3.430330 1.710142
v -1.065707 3.430330 1.471578
v -1.471578 0.000000 1.471578
v 1.799934 0.000000 -1.710142
v 1.596998 0.000000 -1.857583
v 1.346157 0.000000 -1.857583
v 1.143222 0.000000 -1.710142
v 1.065707 0.000000 -1.471578
v 1.596998 0.000000 -1.085572
v 1.799934 0.000000 -1.233013
v 1.877448 0.000000 -1.471578
v 1.799934 3.430330 -1.710142
v 1.596998 3.430330 -1.857583
v 1.346157 3.430330 -1.857583
v 1.143222 3.430330 -1.710142
v 1.065707 3.430330 -1.471578
v 1.596998 3.430330 -1.085572
v 1.799934 3.430330 -1.233013
v 1.877448 3.430330 -1.471578
v 1.471578 0.000000 -1.471578
v -1.143222 0.000000 -1.710142
v -1.346157 0.000000 -1.857583
v -1.596998 0.000000 -1.857583
v -1.799934 0.000000 -1.710142
v -1.877448 0.000000 -1.471578
v -1.799934 0.000000 -1.233013
v -1.596998 0.000000 -1.085572
v -1.065707 0.000000 -1.471578
v -1.143222 3.430330 -1.710142
v -1.346157 3.430330 -1.857583
v -1.596998 3.430330 -1.857583
v -1.799934 3.430330 -1.710142
v -1.877448 3.430330 -1.471578
v -1.799934 3.430330 -1.233013
v -1.596998 3.430330 -1.085572
v -1.065707 3.430330 -1.471578
v -1.471578 0.000000 -1.471578
v -1.677498 0.000000 1.677498
v 1.677498 0.000000 1.677498
v -1.677498 3.430330 1.677498
v 1.677498 3.430330 1.677498
v -1.677498 3.430330 -1.677498
v 1.677498 3.430330 -1.677498
v -1.677498 0.000000 -1.677498
v 1.677498 0.000000 -1.677498
v 2.177498 4.001759 2.077508
v 2.077508 4.001759 2.177498
v 2.077508 3.430330 2.177498
v 2.177498 3.430330 2.077508
v -2.077508 4.001759 2.177498
v -2.177498 4.001759 2.077508
v -2.177498 3.430330 2.077508
v -2.077508 3.430330 2.177498
v 2.077508 4.001759 -2.177498
v 2.177498 4.001759 -2.077508
v 2.177498 3.430330 -2.077508
v 2.077508 3.430330 -2.177498
v -2.177498 4.001759 -2.077508
v -2.077508 4.001759 -2.177498
v -2.077508 3.430330 -2.177498
v -2.177498 3.430330 -2.077508
vt 0.916495 0.485957
vt 0.927162 0.485955
vt 0.927193 0.631830
vt 0.916526 0.631832
vt 0.852493 0.485971
vt 0.863160 0.485969
vt 0.863191 0.631843
vt 0.852524 0.631846
vt 0.873827 0.485967
vt 0.873858 0.631841
vt 0.884494 0.485964
vt 0.884525 0.631839
vt 0.895161 0.485962
vt 0.895192 0.631836
vt 0.905828 0.485960
vt 0.905859 0.631834
vt 0.510337 0.056272
vt 0.499880 0.058375
vt 0.501872 0.041231
vt 0.503864 0.024086
vt 0.513561 0.028531
vt 0.493406 0.026190
vt 0.486183 0.034038
vt 0.484951 0.044634
vt 0.490183 0.053930
vt 0.035753 0.507507
vt 0.046420 0.507509
vt 0.046401 0.653383
vt 0.035733 0.653382
vt 0.057087 0.507510
vt 0.057068 0.653385
vt 0.067754 0.507512
vt 0.067734 0.653386
vt 0.078421 0.507513
vt 0.078401 0.653388
vt 0.089088 0.507514
vt 0.089069 0.653389
vt 0.099755 0.507516
vt 0.099735 0.653390
vt 0.110422 0.507517
vt 0.110402 0.653392
vt 0.513706 0.013781
vt 0.512446 0.024373
vt 0.496776 0.017138
vt 0.508499 0.004471
vt 0.498815 0.000000
vt 0.488351 0.002075
vt 0.481106 0.009904
vt 0.479846 0.020496
vt 0.485053 0.029806
vt 0.465905 0.469469
vt 0.476571 0.469466
vt 0.476614 0.615340
vt 0.465947 0.615344
vt 0.487239 0.469463
vt 0.487281 0.615337
vt 0.497906 0.469460
vt 0.497948 0.615334
vt 0.508573 0.469457
vt 0.508615 0.615332
vt 0.433904 0.469479
vt 0.444571 0.469476
vt 0.444613 0.615350
vt 0.433946 0.615353
vt 0.455238 0.469472
vt 0.455280 0.615347
vt 0.978707 0.000004
vt 0.989288 0.001355
vt 0.981918 0.016962
vt 0.969352 0.005129
vt 0.964797 0.014775
vt 0.966782 0.025256
vt 0.999039 0.019149
vt 0.994483 0.028794
vt 0.997054 0.008668
vt 0.301646 0.507724
vt 0.312313 0.507725
vt 0.312304 0.653599
vt 0.301637 0.653598
vt 0.322980 0.507725
vt 0.322971 0.653599
vt 0.333647 0.507726
vt 0.333639 0.653600
vt 0.344314 0.507726
vt 0.344305 0.653601
vt 0.354981 0.507727
vt 0.354972 0.653602
vt 0.365648 0.507728
vt 0.365640 0.653602
vt 0.290979 0.507724
vt 0.290971 0.653598
vt 0.126404 0.016508
vt 0.123069 0.026639
vt 0.109145 0.016440
vt 0.123148 0.006350
vt 0.114542 0.000046
vt 0.103875 0.000005
vt 0.095221 0.006241
vt 0.091885 0.016373
vt 0.114414 0.032876
vt 0.145874 0.796268
vt 0.288545 0.796535
vt 0.288272 0.942276
vt 0.145602 0.942276
vt 0.146414 0.507723
vt 0.289085 0.507990
vt 0.288812 0.653864
vt 0.146141 0.653597
vt 0.434552 0.654137
vt 0.434552 0.796808
vt 0.000000 0.795995
vt 0.000267 0.653324
vt 0.550930 0.883231
vt 0.526631 0.883228
vt 0.526652 0.706537
vt 0.550952 0.706540
vt 0.555205 0.702288
vt 0.555208 0.677988
vt 0.731899 0.678009
vt 0.731896 0.702309
vt 0.736148 0.706562
vt 0.760448 0.706565
vt 0.760426 0.883256
vt 0.736126 0.883253
vt 0.731874 0.887505
vt 0.731871 0.911805
vt 0.555179 0.911784
vt 0.555182 0.887483
vt 0.533772 0.689355
vt 0.516763 0.668090
vt 0.538024 0.685103
vt 0.572221 0.656727
vt 0.714891 0.656745
vt 0.753307 0.900438
vt 0.770314 0.921703
vt 0.749054 0.904689
vt 0.714858 0.933065
vt 0.572187 0.933048
vt 0.537997 0.904664
vt 0.533746 0.900412
vt 0.749081 0.685129
vt 0.753332 0.689381
vt 0.770345 0.668121
vt 0.781708 0.723578
vt 0.781691 0.866249
vt 0.505370 0.866215
vt 0.505388 0.723544
vt 0.516733 0.921672
vn 0.809017 0.000000 -0.587785
vn 0.587785 0.000000 -0.809017
vn 0.587785 0.000000 -0.809017
vn 0.809017 0.000000 -0.587785
vn -0.951057 0.000000 0.309017
vn -0.809017 0.000000 0.587785
vn -0.809017 0.000000 0.587785
vn -0.951057 0.000000 0.309017
vn -0.809017 0.000000 0.587785
vn -0.309017 0.000000 0.951057
vn -0.309017 0.000000 0.951057
vn -0.809017 0.000000 0.587785
vn -0.309017 0.000000 0.951057
vn 0.309017 0.000000 0.951056
vn 0.309017 0.000000 0.951056
vn -0.309017 0.000000 0.951057
vn 0.309017 0.000000 0.951056
vn 0.809017 0.000000 0.587785
vn 0.809017 0.000000 0.587785
vn 0.309017 0.000000 0.951056
vn 0.809017 0.000000 0.587785
vn 1.000000 0.000000 0.000000
vn 1.000000 0.000000 0.000000
vn 0.809017 0.000000 0.587785
vn 1.000000 0.000000 0.000000
vn 0.809017 0.000000 -0.587785
vn 0.809017 0.000000 -0.587785
vn 1.000000 0.000000 0.000000
vn 0.000000 -1.000000 0.000000
vn 0.000000 -1.000000 0.000000
vn 0.000000 -1.000000 0.000000
vn 0.000000 -1.000000 0.000000
vn 0.000000 -1.000000 0.000000
vn 0.000000 -1.000000 0.000000
vn 0.000000 -1.000000 0.000000
vn 0.000000 -1.000000 0.000000
vn 0.000000 -1.000000 0.000000
vn 0.000000 -1.000000 0.000000
vn 0.000000 -1.000000 0.000000
vn 0.000000 -1.000000 0.000000
vn 0.000000 -1.000000 0.000000
vn 0.000000 -1.000000 0.000000
vn 0.000000 -1.000000 0.000000
vn 0.000000 -1.000000 0.000000
vn 0.000000 -1.000000 0.000000
vn 0.000000 -1.000000 0.000000
vn 0.000000 -1.000000 0.000000
vn 0.000000 -1.000000 0.000000
vn 0.000000 -1.000000 0.000000
vn -0.587785 0.000000 -0.809017
vn -0.809017 0.000000 -0.587785
vn -0.809017 0.000000 -0.587785
vn -0.587785 0.000000 -0.809017
vn -0.809017 0.000000 -0.587785
vn -1.000000 0.000000 0.000000
vn -1.000000 0.000000 0.000000
vn -0.809017 0.000000 -0.587785
vn -1.000000 0.000000 0.000000
vn -0.809017 0.000000 0.587785
vn -0.809017 0.000000 0.587785
vn -1.000000 0.000000 0.000000
vn -0.809017 0.000000 0.587785
vn -0.309017 0.000000 0.951057
vn -0.309017 0.000000 0.951057
vn -0.809017 0.000000 0.587785
vn -0.309017 0.000000 0.951057
vn 0.309017 0.000000 0.951056
vn 0.309017 0.000000 0.951056
vn -0.309017 0.000000 0.951057
vn 0.309017 0.000000 0.951056
vn 0.809017 0.000000 0.587785
vn 0.809017 0.000000 0.587785
vn 0.309017 0.000000 0.951056
vn 0.809017 0.000000 0.587785
vn 0.951057 0.000000 0.309017
vn 0.951057 0.000000 0.309017
vn 0.809017 0.000000 0.587785
vn 0.000000 -1.000000 0.000000
vn 0.000000 -1.000000 0.000000
vn 0.000000 -1.000000 0.000000
vn 0.000000 -1.000000 0.000000
vn 0.000000 -1.000000 0.000000
vn 0.000000 -1.000000 0.000000
vn 0.000000 -1.000000 0.000000
vn 0.000000 -1.000000 0.000000
vn 0.000000 -1.000000 0.000000
vn 0.000000 -1.000000 0.000000
vn 0.000000 -1.000000 0.000000
vn 0.000000 -1.000000 0.000000
vn 0.000000 -1.000000 0.000000
vn 0.000000 -1.000000 0.000000
vn 0.000000 -1.000000 0.000000
vn 0.000000 -1.000000 0.000000
vn 0.000000 -1.000000 0.000000
vn 0.000000 -1.000000 0.000000
vn 0.000000 -1.000000 0.000000
vn 0.000000 -1.000000 0.000000
vn 0.000000 -1.000000 0.000000
vn 0.809017 0.000000 -0.587785
vn 0.309017 0.000000 -0.951057
vn 0.309017 0.000000 -0.951057
vn 0.809017 0.000000 -0.587785
vn 0.309017 0.000000 -0.951057
vn -0.309017 0.000000 -0.951057
vn -0.309017 0.000000 -0.951057
vn 0.309017 0.000000 -0.951057
vn -0.309017 0.000000 -0.951057
vn -0.809017 0.000000 -0.587785
vn -0.809017 0.000000 -0.587785
vn -0.309017 0.000000 -0.951057
vn -0.809017 0.000000 -0.587785
vn -0.951057 0.000000 -0.309017
vn -0.951057 0.000000 -0.309017
vn -0.809017 0.000000 -0.587785
vn 0.587785 0.000000 0.809017
vn 0.809017 0.000000 0.587785
vn 0.809017 0.000000 0.587785
vn 0.587785 0.000000 0.809017
vn 0.809017 0.000000 0.587785
vn 1.000000 0.000000 0.000000
vn 1.000000 0.000000 0.000000
vn 0.809017 0.000000 0.587785
vn 1.000000 0.000000 0.000000
vn 0.809017 0.000000 -0.587785
vn 0.809017 0.000000 -0.587785
vn 1.000000 0.000000 0.000000
vn 0.000000 -1.000000 0.000000
vn 0.000000 -1.000000 0.000000
vn 0.000000 -1.000000 0.000000
vn 0.000000 -1.000000 0.000000
vn 0.000000 -1.000000 0.000000
vn 0.000000 -1.000000 0.000000
vn 0.000000 -1.000000 0.000000
vn 0.000000 -1.000000 0.000000
vn 0.000000 -1.000000 0.000000
vn 0.000000 -1.000000 0.000000
vn 0.000000 -1.000000 0.000000
vn 0.000000 -1.000000 0.000000
vn 0.000000 -1.000000 0.000000
vn 0.000000 -1.000000 0.000000
vn 0.000000 -1.000000 0.000000
vn 0.000000 -1.000000 0.000000
vn 0.000000 -1.000000 0.000000
vn 0.000000 -1.000000 0.000000
vn 0.000000 -1.000000 0.000000
vn 0.000000 -1.000000 0.000000
vn 0.000000 -1.000000 0.000000
vn 0.809017 0.000000 -0.587786
vn 0.309017 0.000000 -0.951057
vn 0.309017 0.000000 -0.951057
vn 0.809017 0.000000 -0.587786
vn 0.309017 0.000000 -0.951057
vn -0.309017 0.000000 -0.951056
vn -0.309017 0.000000 -0.951056
vn 0.309017 0.000000 -0.951057
vn -0.309017 0.000000 -0.951056
vn -0.809017 0.000000 -0.587785
vn -0.809017 0.000000 -0.587785
vn -0.309017 0.000000 -0.951056
vn -0.809017 0.000000 -0.587785
vn -1.000000 0.000000 0.000000
vn -1.000000 0.000000 0.000000
vn -0.809017 0.000000 -0.587785
vn -1.000000 0.000000 0.000000
vn -0.809017 0.000000 0.587785
vn -0.809017 0.000000 0.587785
vn -1.000000 0.000000 0.000000
vn -0.809017 0.000000 0.587785
vn -0.587785 0.000000 0.809017
vn -0.587785 0.000000 0.809017
vn -0.809017 0.000000 0.587785
vn 0.951057 0.000000 -0.309016
vn 0.809017 0.000000 -0.587786
vn 0.809017 0.000000 -0.587786
vn 0.951057 0.000000 -0.309016
vn 0.000000 -1.000000 0.000000
vn 0.000000 -1.000000 0.000000
vn 0.000000 -1.000000 0.000000
vn 0.000000 -1.000000 0.000000
vn 0.000000 -1.000000 0.000000
vn 0.000000 -1.000000 0.000000
vn 0.000000 -1.000000 0.000000
vn 0.000000 -1.000000 0.000000
vn 0.000000 -1.000000 0.000000
vn 0.000000 -1.000000 0.000000
vn 0.000000 -1.000000 0.000000
vn 0.000000 -1.000000 0.000000
vn 0.000000 -1.000000 0.000000
vn 0.000000 -1.000000 0.000000
vn 0.000000 -1.000000 0.000000
vn 0.000000 -1.000000 0.000000
vn 0.000000 -1.000000 0.000000
vn 0.000000 -1.000000 0.000000
vn 0.000000 -1.000000 0.000000
vn 0.000000 -1.000000 0.000000
vn 0.000000 -1.000000 0.000000
vn 0.000000 0.000000 1.000000
vn 0.000000 0.000000 1.000000
vn 0.000000 0.000000 1.000000
vn 0.000000 0.000000 1.000000
vn 0.000000 0.000000 -1.000000
vn 0.000000 0.000000 -1.000000
vn 0.000000 0.000000 -1.000000
vn 0.000000 0.000000 -1.000000
vn 0.000000 -1.000000 0.000000
vn 0.000000 -1.000000 0.000000
vn 0.000000 -1.000000 0.000000
vn 0.000000 -1.000000 0.000000
vn 1.000000 0.000000 0.000000
vn 1.000000 0.000000 0.000000
vn 1.000000 0.000000 0.000000
vn 1.000000 0.000000 0.000000
vn -1.000000 0.000000 0.000000
vn -1.000000 0.000000 0.000000
vn -1.000000 0.000000 0.000000
vn -1.000000 0.000000 0.000000
vn -0.023493 0.000000 0.999724
vn -0.023493 0.000000 0.999724
vn 0.023493 0.000000 0.999724
vn 0.023493 0.000000 0.999724
vn 0.999724 0.000000 0.023493
vn 0.999724 0.000000 0.023493
vn 0.999724 0.000000 -0.023493
vn 0.999724 0.000000 -0.023493
vn 0.023493 0.000000 -0.999724
vn 0.023493 0.000000 -0.999724
vn -0.023493 0.000000 -0.999724
vn -0.023493 0.000000 -0.999724
vn -0.999724 0.000000 -0.023493
vn -0.999724 0.000000 -0.023493
vn -0.999724 0.000000 0.023493
vn -0.999724 0.000000 0.023493
vn 0.000000 -1.000000 0.000000
vn 0.000000 -1.000000 0.000000
vn 0.000000 -1.000000 0.000000
vn 0.000000 -1.000000 0.000000
vn 0.000000 -1.000000 0.000000
vn 0.000000 -1.000000 0.000000
vn 0.000000 -1.000000 0.000000
vn 0.000000 -1.000000 0.000000
vn 0.000000 -1.000000 0.000000
vn 0.000000 -1.000000 0.000000
vn 0.000000 -1.000000 0.000000
vn 0.000000 -1.000000 0.000000
vn 0.000000 -1.000000 0.000000
vn 0.000000 -1.000000 0.000000
vn 0.000000 1.000000 0.000000
vn 0.000000 1.000000 0.000000
vn 0.000000 1.000000 0.000000
vn 0.000000 1.000000 0.000000
vn 0.999724 0.000000 0.023493
vn 0.023493 0.000000 0.999724
vn 0.023493 0.000000 0.999724
vn 0.999724 0.000000 0.023493
vn -0.023493 0.000000 0.999724
vn -0.999724 0.000000 0.023493
vn -0.999724 0.000000 0.023493
vn -0.023493 0.000000 0.999724
vn 0.023493 0.000000 -0.999724
vn 0.999724 0.000000 -0.023493
vn 0.999724 0.000000 -0.023493
vn 0.023493 0.000000 -0.999724
vn -0.999724 0.000000 -0.023493
vn -0.023493 0.000000 -0.999724
vn -0.023493 0.000000 -0.999724
vn -0.999724 0.000000 -0.023493
vn 0.000000 -1.000000 0.000000
vn 0.000000 -1.000000 0.000000
vn 0.000000 -1.000000 0.000000
vn 0.000000 -1.000000 0.000000
vn 0.000000 -1.000000 0.000000
vn 0.000000 -1.000000 0.000000
vn 0.000000 -1.000000 0.000000
vn 0.000000 -1.000000 0.000000
vn 0.000000 -1.000000 0.000000
vn 0.000000 -1.000000 0.000000
vn 0.000000 -1.000000 0.000000
vn 0.000000 -1.000000 0.000000
vn 0.000000 -1.000000 0.000000
vn 0.000000 -1.000000 0.000000
vn 0.000000 1.000000 0.000000
vn 0.000000 1.000000 0.000000
vn 0.000000 1.000000 0.000000
vn 0.000000 1.000000 0.000000
vn 0.000000 1.000000 0.000000
vn 0.000000 1.000000 0.000000
vn 0.000000 1.000000 0.000001
vn 0.000000 1.000000 0.000001
s off
g pillarbox_small:SmallPillarbox_low
usemtl pillarbox_small:initialShadingGroup
f 1/1/1 2/2/2 10/3/3 9/4/4
f 3/5/5 4/6/6 12/7/7 11/8/8
f 4/6/9 5/9/10 13/10/11 12/7/12
f 5/9/13 6/11/14 14/12/15 13/10/16
f 6/11/17 7/13/18 15/14/19 14/12/20
f 7/13/21 8/15/22 16/16/23 15/14/24
f 8/15/25 1/1/26 9/4/27 16/16/28
f 2/17/29 1/18/30 17/19/31
f 4/20/32 3/21/33 17/19/34
f 5/22/35 4/20/36 17/19/37
f 6/23/38 5/22/39 17/19/40
f 7/24/41 6/23/42 17/19/43
f 8/25/44 7/24/45 17/19/46
f 1/18/47 8/25/48 17/19/49
f 18/26/50 19/27/51 27/28/52 26/29/53
f 19/27/54 20/30/55 28/31/56 27/28/57
f 20/30/58 21/32/59 29/33/60 28/31/61
f 21/32/62 22/34/63 30/35/64 29/33/65
f 22/34/66 23/36/67 31/37/68 30/35/69
f 23/36/70 24/38/71 32/39/72 31/37/73
f 24/38/74 25/40/75 33/41/76 32/39/77
f 19/42/78 18/43/79 34/44/80
f 20/45/81 19/42/82 34/44/83
f 21/46/84 20/45/85 34/44/86
f 22/47/87 21/46/88 34/44/89
f 23/48/90 22/47/91 34/44/92
f 24/49/93 23/48/94 34/44/95
f 25/50/96 24/49/97 34/44/98
f 35/51/99 36/52/100 44/53/101 43/54/102
f 36/52/103 37/55/104 45/56/105 44/53/106
f 37/55/107 38/57/108 46/58/109 45/56/110
f 38/57/111 39/59/112 47/60/113 46/58/114
f 40/61/115 41/62/116 49/63/117 48/64/118
f 41/62/119 42/65/120 50/66/121 49/63/122
f 42/65/123 35/51/124 43/54/125 50/66/126
f 36/67/127 35/68/128 51/69/129
f 37/70/130 36/67/131 51/69/132
f 38/71/133 37/70/134 51/69/135
f 39/72/136 38/71/137 51/69/138
f 41/73/139 40/74/140 51/69/141
f 42/75/142 41/73/143 51/69/144
f 35/68/145 42/75/146 51/69/147
f 52/76/148 53/77/149 61/78/150 60/79/151
f 53/77/152 54/80/153 62/81/154 61/78/155
f 54/80/156 55/82/157 63/83/158 62/81/159
f 55/82/160 56/84/161 64/85/162 63/83/163
f 56/84/164 57/86/165 65/87/166 64/85/167
f 57/86/168 58/88/169 66/89/170 65/87/171
f 59/90/172 52/76/173 60/79/174 67/91/175
f 53/92/176 52/93/177 68/94/178
f 54/95/179 53/92/180 68/94/181
f 55/96/182 54/95/183 68/94/184
f 56/97/185 55/96/186 68/94/187
f 57/98/188 56/97/189 68/94/190
f 58/99/191 57/98/192 68/94/193
f 52/93/194 59/100/195 68/94/196
f 69/101/197 70/102/198 72/103/199 71/104/200
f 73/105/201 74/106/202 76/107/203 75/108/204
f 75/108/205 76/107/206 70/102/207 69/101/208
f 70/102/209 76/107/210 74/109/211 72/110/212
f 75/108/213 69/101/214 71/111/215 73/112/216
f 81/113/217 84/114/218 79/115/219 78/116/220
f 77/117/221 80/118/222 87/119/223 86/120/224
f 85/121/225 88/122/226 91/123/227 90/124/228
f 89/125/229 92/126/230 83/127/231 82/128/232
f 79/129/233 72/130/234 80/131/235
f 72/132/236 74/133/237 87/119/238 80/118/239
f 91/134/240 73/135/241 92/136/242
f 73/137/243 71/138/244 83/127/245 92/126/246
f 82/128/247 81/113/248 78/116/249 77/117/250
f 77/117/251 78/116/252 79/129/253 80/131/254
f 81/113/255 82/128/256 83/139/257 84/140/258
f 85/121/259 86/120/260 87/141/261 88/142/262
f 89/125/263 90/124/264 91/134/265 92/136/266
f 87/141/267 74/143/268 88/142/269
f 74/144/270 73/145/271 91/123/272 88/122/273
f 71/146/274 72/147/275 79/115/276 84/114/277
f 83/139/278 71/148/279 84/140/280
f 82/128/281 77/117/282 86/120/283 89/125/284
f 89/125/285 86/120/286 85/121/287 90/124/288
